<svg width="303" height="122" viewBox="0 0 303 122" fill="none" xmlns="http://www.w3.org/2000/svg">
<rect x="0.71875" y="4.77832" width="166.563" height="39.8168" rx="19.9084" fill="#FC6238"/>
<rect x="56.6777" y="32.1689" width="228.867" height="54.6641" rx="27.332" fill="#FC6238"/>
<rect x="210.645" y="0.594727" width="92.3555" height="33.2221" rx="16.611" fill="#FC6238"/>
<rect x="176.072" y="0.594727" width="26.8466" height="14.0622" rx="7.03112" fill="#FC6238"/>
<rect x="184.453" y="99.3623" width="49.2266" height="21.737" rx="10.8685" fill="#FC6238"/>
<rect x="29.6953" y="79.2363" width="148.881" height="39.8168" rx="19.9084" fill="#FC6238"/>
<path d="M200.501 40.9186C200.501 40.9186 193.432 45.4159 189.693 47.243C185.955 49.07 186.264 53.0614 191.169 56.4345C197.156 60.5664 207.894 55.4507 211.913 51.923V40.9186H200.501Z" fill="url(#paint0_linear_297_820)"/>
<path d="M188.67 27.3285C188.67 27.3285 180.237 32.6972 175.782 34.8756C171.327 37.054 171.706 41.8184 177.539 45.8379C184.678 50.7569 197.482 44.6714 202.274 40.4551V27.3425H188.656L188.67 27.3285Z" fill="url(#paint1_linear_297_820)"/>
<path d="M185.281 69.6163C180.334 70.1082 170.2 69.8552 164.747 75.2942C159.308 80.7473 160.18 86.9733 161.669 89.6155C163.159 92.2577 165.45 92.6934 170.018 91.808C174.585 90.9225 178.535 89.5312 186.18 93.9161C193.826 98.301 198.042 102.967 206.826 105.159C215.61 107.352 222.721 107.183 227.289 105.159C231.856 103.136 235.539 99.8891 238.616 92.342C241.694 84.7949 243.001 80.1289 243.971 75.744C244.941 71.359 244.322 63.5308 239.938 56.1524C235.553 48.7739 220.444 24.6146 216.312 18.993C212.18 13.3713 206.826 10.9961 200.937 10.9961H186.798C184.423 10.9961 180.741 11.3474 176.258 12.8372C171.774 14.3269 167.123 16.8848 164.045 17.2221C160.967 17.5594 158.423 24.1649 161.768 29.4353C165.099 34.7056 172.927 34.7899 178.717 34.0029C184.508 33.2158 186.18 32.7661 187.67 32.8645C189.16 32.9629 199.433 35.591 199.433 35.591C199.433 35.591 200.572 48.4085 202.68 53.1588C200.487 58.8648 199.518 61.4227 195.737 64.9363C191.956 68.4498 188.471 69.3071 185.252 69.6163H185.281Z" fill="url(#paint2_linear_297_820)"/>
<path d="M200.121 34.9308C200.121 34.9308 200.205 34.8606 200.346 34.7341C200.486 34.6357 200.683 34.453 200.922 34.2703C201.414 33.8908 202.06 33.427 202.707 32.9632C203.016 32.7243 203.368 32.5135 203.649 32.2746C203.944 32.0357 204.267 31.867 204.478 31.6562C204.942 31.2767 205.321 31.0519 205.321 31.0519H205.349C205.476 30.9675 205.63 30.9956 205.701 31.1221C205.743 31.1924 205.743 31.2908 205.715 31.3611C205.715 31.3611 205.546 31.7686 205.195 32.3449C205.026 32.6259 204.759 32.9211 204.492 33.2303C204.225 33.5535 203.873 33.8205 203.522 34.1016C202.819 34.6357 202.032 35.0433 201.4 35.24C201.091 35.3525 200.81 35.3946 200.613 35.4368C200.416 35.4789 200.304 35.4789 200.304 35.4789H200.276C200.107 35.4789 199.98 35.3384 199.98 35.1698C199.98 35.0854 200.023 35.0011 200.093 34.9449L200.121 34.9308Z" fill="#D7D7D7"/>
<path d="M203.858 52.3448C203.858 52.3448 203.957 52.3166 204.139 52.2604C204.308 52.2183 204.561 52.1199 204.856 52.0496C205.446 51.895 206.233 51.7123 207.006 51.5296C207.386 51.4312 207.793 51.361 208.145 51.2485C208.496 51.1501 208.876 51.108 209.143 51.0096C209.719 50.8409 210.155 50.7707 210.155 50.7707H210.183C210.323 50.7426 210.45 50.8409 210.478 50.9815C210.478 51.0658 210.464 51.1501 210.408 51.2064C210.408 51.2064 210.098 51.5156 209.55 51.9091C209.269 52.1058 208.932 52.2745 208.552 52.4572C208.173 52.6539 207.751 52.7523 207.33 52.8929C206.472 53.1177 205.587 53.188 204.926 53.1318C204.603 53.1177 204.322 53.0475 204.125 53.0053C203.929 52.9631 203.83 52.921 203.83 52.921H203.802C203.647 52.8367 203.577 52.668 203.647 52.5134C203.69 52.4291 203.76 52.3729 203.83 52.3448H203.858Z" fill="#D7D7D7"/>
<path d="M186.571 32.0926C186.571 32.0926 186.571 31.9802 186.543 31.7975C186.543 31.6147 186.501 31.3618 186.501 31.0526C186.487 30.4342 186.487 29.6331 186.473 28.832C186.473 28.4385 186.487 28.0309 186.473 27.6655C186.459 27.3001 186.501 26.9347 186.473 26.6255C186.431 26.0212 186.473 25.5855 186.473 25.5855V25.5574C186.473 25.4168 186.613 25.3044 186.754 25.3184C186.838 25.3184 186.909 25.3747 186.951 25.4449C186.951 25.4449 187.176 25.8244 187.443 26.4428C187.569 26.752 187.653 27.1314 187.752 27.539C187.85 27.9466 187.864 28.3823 187.892 28.832C187.92 29.7174 187.78 30.5888 187.583 31.2212C187.499 31.5445 187.372 31.7975 187.288 31.9802C187.204 32.1629 187.147 32.2472 187.147 32.2472V32.2753C187.035 32.4018 186.838 32.4299 186.712 32.3315C186.641 32.2753 186.599 32.191 186.585 32.1207L186.571 32.0926Z" fill="#D7D7D7"/>
<path d="M118.512 40.9186C118.512 40.9186 125.581 45.4159 129.319 47.243C133.058 49.07 132.735 53.0614 127.844 56.4345C121.857 60.5664 111.119 55.4507 107.1 51.923V40.9186H118.512Z" fill="url(#paint3_linear_297_820)"/>
<path d="M130.341 27.3285C130.341 27.3285 138.773 32.6972 143.229 34.8756C147.684 37.054 147.304 41.8184 141.472 45.8379C134.332 50.7569 121.529 44.6714 116.736 40.4551V27.3425H130.355L130.341 27.3285Z" fill="url(#paint4_linear_297_820)"/>
<path d="M133.731 69.6163C138.678 70.1082 148.811 69.8552 154.25 75.2942C159.689 80.7332 158.818 86.9733 157.328 89.6155C155.839 92.2577 153.548 92.6934 148.98 91.808C144.412 90.9225 140.463 89.5312 132.818 93.9161C125.172 98.301 120.956 102.967 112.172 105.159C103.388 107.352 96.2767 107.183 91.709 105.159C87.1414 103.136 83.4451 99.8891 80.3813 92.342C77.3175 84.7949 75.9964 80.1289 75.0267 75.7299C74.0569 71.3309 74.6753 63.5168 79.0743 56.1383C83.4733 48.7598 98.5675 24.6146 102.699 18.993C106.831 13.3713 112.186 10.9961 118.075 10.9961H132.213C134.589 10.9961 138.271 11.3474 142.754 12.8372C147.237 14.3269 151.889 16.8848 154.967 17.2221C158.045 17.5594 160.589 24.1649 157.244 29.4353C153.899 34.7056 146.085 34.7899 140.295 34.0029C134.504 33.2158 132.832 32.7661 131.328 32.8645C129.824 32.9629 119.55 35.591 119.55 35.591C119.55 35.591 118.412 48.4085 116.304 53.1588C118.496 58.8648 119.466 61.4227 123.247 64.9363C127.027 68.4498 130.513 69.3071 133.731 69.6163Z" fill="url(#paint5_linear_297_820)"/>
<path d="M118.875 34.9308C118.875 34.9308 118.791 34.8606 118.65 34.7341C118.51 34.6357 118.313 34.453 118.06 34.2703C117.568 33.8908 116.922 33.427 116.275 32.9632C115.966 32.7243 115.615 32.5135 115.334 32.2746C115.038 32.0357 114.715 31.867 114.504 31.6562C114.027 31.2767 113.661 31.0519 113.661 31.0519H113.633C113.507 30.9675 113.352 30.9956 113.282 31.1221C113.24 31.1924 113.225 31.2908 113.268 31.3611C113.268 31.3611 113.436 31.7686 113.788 32.3449C113.956 32.6259 114.223 32.9211 114.49 33.2303C114.757 33.5535 115.109 33.8205 115.46 34.1016C116.163 34.6357 116.95 35.0433 117.582 35.24C117.891 35.3525 118.173 35.3946 118.369 35.4368C118.566 35.4789 118.679 35.4789 118.679 35.4789H118.707C118.875 35.4789 119.002 35.3384 119.002 35.1698C119.002 35.0854 118.96 35.0011 118.889 34.9449L118.875 34.9308Z" fill="#D7D7D7"/>
<path d="M115.151 52.3448C115.151 52.3448 115.052 52.3166 114.87 52.2604C114.701 52.2183 114.448 52.1199 114.153 52.0496C113.563 51.895 112.776 51.7123 112.003 51.5296C111.623 51.4312 111.216 51.361 110.864 51.2485C110.513 51.1501 110.133 51.108 109.866 51.0096C109.29 50.8409 108.854 50.7707 108.854 50.7707H108.826C108.686 50.7426 108.545 50.8409 108.531 50.9815C108.531 51.0658 108.545 51.1501 108.602 51.2064C108.602 51.2064 108.911 51.5156 109.459 51.9091C109.726 52.1058 110.077 52.2745 110.457 52.4572C110.822 52.6539 111.258 52.7523 111.679 52.8929C112.537 53.1177 113.422 53.188 114.083 53.1318C114.406 53.1177 114.687 53.0475 114.884 53.0053C115.081 52.9631 115.179 52.921 115.179 52.921H115.207C115.362 52.8367 115.432 52.668 115.362 52.5134C115.319 52.4291 115.263 52.3729 115.179 52.3448H115.151Z" fill="#D7D7D7"/>
<path d="M132.439 32.0926C132.439 32.0926 132.439 31.9802 132.467 31.7975C132.467 31.6147 132.509 31.3618 132.509 31.0526C132.523 30.4342 132.523 29.6331 132.537 28.832C132.551 28.4385 132.523 28.0309 132.537 27.6655C132.565 27.3001 132.509 26.9347 132.537 26.6255C132.565 26.0212 132.537 25.5855 132.537 25.5855V25.5574C132.537 25.4168 132.397 25.3044 132.256 25.3184C132.172 25.3184 132.102 25.3747 132.059 25.4449C132.059 25.4449 131.835 25.8244 131.568 26.4428C131.441 26.752 131.357 27.1314 131.258 27.539C131.146 27.9466 131.146 28.3823 131.118 28.832C131.09 29.7174 131.23 30.5888 131.427 31.2212C131.511 31.5445 131.652 31.7975 131.722 31.9802C131.806 32.1629 131.863 32.2472 131.863 32.2472V32.2753C131.989 32.4018 132.172 32.4299 132.298 32.3315C132.369 32.2753 132.411 32.191 132.411 32.1207L132.439 32.0926Z" fill="#D7D7D7"/>
<defs>
<linearGradient id="paint0_linear_297_820" x1="198.029" y1="49.4129" x2="200.261" y2="57.9594" gradientUnits="userSpaceOnUse">
<stop stop-color="#D6D6D6"/>
<stop offset="1" stop-color="#FAFAFA"/>
</linearGradient>
<linearGradient id="paint1_linear_297_820" x1="185.723" y1="37.46" x2="188.387" y2="47.6531" gradientUnits="userSpaceOnUse">
<stop stop-color="#D6D6D6"/>
<stop offset="1" stop-color="#FAFAFA"/>
</linearGradient>
<linearGradient id="paint2_linear_297_820" x1="197.16" y1="58.6844" x2="215.798" y2="101.902" gradientUnits="userSpaceOnUse">
<stop stop-color="#FAFAFA"/>
<stop offset="1" stop-color="#D6D6D6"/>
</linearGradient>
<linearGradient id="paint3_linear_297_820" x1="117.971" y1="49.4129" x2="120.204" y2="57.9592" gradientUnits="userSpaceOnUse">
<stop stop-color="#D6D6D6"/>
<stop offset="1" stop-color="#FAFAFA"/>
</linearGradient>
<linearGradient id="paint4_linear_297_820" x1="129.699" y1="37.46" x2="132.363" y2="47.6531" gradientUnits="userSpaceOnUse">
<stop stop-color="#D6D6D6"/>
<stop offset="1" stop-color="#FAFAFA"/>
</linearGradient>
<linearGradient id="paint5_linear_297_820" x1="111.61" y1="58.6844" x2="130.245" y2="101.904" gradientUnits="userSpaceOnUse">
<stop stop-color="#FAFAFA"/>
<stop offset="1" stop-color="#D6D6D6"/>
</linearGradient>
</defs>
</svg>
