<svg width="302" height="134" viewBox="0 0 302 134" fill="none" xmlns="http://www.w3.org/2000/svg">
<rect x="62.623" y="20.3809" width="185.332" height="70.5361" rx="35.2681" fill="#FC6238"/>
<rect x="0.832031" y="93.1016" width="69.9922" height="40.251" rx="20.1255" fill="#FC6238"/>
<rect x="143.26" y="78.541" width="127.855" height="33.5215" rx="16.7607" fill="#FC6238"/>
<rect x="260.457" y="49.6074" width="41.543" height="22.6875" rx="11.3438" fill="#FC6238"/>
<path d="M179.347 67.0462V58.0707C179.347 57.1413 178.681 56.3457 177.766 56.1827L171.543 55.0741C170.768 51.8967 169.537 48.7193 167.65 45.8001L171.297 40.5842C171.83 39.8219 171.739 38.7871 171.081 38.1294L164.795 31.8433C164.138 31.1859 163.103 31.0947 162.341 31.6269L157.145 35.2548C154.246 33.408 151.048 32.1964 147.891 31.4022L146.765 25.1581C146.601 24.2437 145.804 23.579 144.875 23.5804L135.886 23.5949C134.96 23.5964 134.167 24.2596 134.002 25.1709L132.877 31.3824C129.7 32.1765 126.582 33.4677 123.682 35.2747L118.426 31.5904C117.664 31.0565 116.629 31.1462 115.971 31.8032L109.677 38.0818C109.024 38.734 108.927 39.7594 109.449 40.5216L113.097 45.8597C111.33 48.7392 110.039 51.7976 109.245 55.0145L103.01 56.157C102.1 56.3236 101.439 57.1155 101.437 58.0402L101.423 67.0229C101.421 67.9562 102.092 68.7551 103.011 68.9153L109.284 70.0082C110.039 73.2058 111.35 76.3236 113.117 79.2825L109.489 84.4786C108.957 85.2408 109.048 86.275 109.706 86.9324L115.991 93.2178C116.649 93.8758 117.685 93.9665 118.447 93.4328L123.682 89.768C126.621 91.5953 129.759 92.9059 132.957 93.6605L134.033 99.9126C134.191 100.833 134.989 101.505 135.923 101.505H144.892C145.822 101.505 146.618 100.837 146.78 99.9211L147.891 93.6406C151.068 92.8462 154.186 91.5953 157.066 89.8276L162.345 93.4376C163.107 93.9584 164.131 93.863 164.784 93.2106L171.081 86.9135C171.739 86.2558 171.83 85.221 171.297 84.4587L167.65 79.2428C169.438 76.3434 170.729 73.2058 171.503 70.0281L177.76 68.9353C178.678 68.775 179.347 67.978 179.347 67.0462ZM153.809 75.9262C146.401 83.3734 134.367 83.3138 126.999 75.9262C119.611 68.5387 119.552 56.5039 126.979 49.0965C134.327 41.7488 146.401 41.7488 153.789 49.1363C161.176 56.5039 161.176 68.5784 153.809 75.9262Z" fill="url(#paint0_linear_297_821)"/>
<path d="M184.265 103.67L178.83 118.899C178.502 119.817 177.269 119.971 176.725 119.162L173.603 114.509C149.451 129.988 117.198 126.475 96.8455 106.144C76.7597 86.0365 73.0394 54.322 87.8087 30.2673C88.1581 29.6982 88.9216 29.5306 89.4833 29.8917L95.7725 33.9347C96.8337 34.6169 97.1306 36.0053 96.4982 37.0969C85.1254 56.7284 88.3827 82.1363 104.618 98.3714C121.26 115.014 147.651 117.956 167.477 105.397L165.909 103.069C165.362 102.257 165.979 101.168 166.957 101.22L183.21 102.085C184.003 102.127 184.532 102.922 184.265 103.67Z" fill="url(#paint1_linear_297_821)"/>
<path d="M191.349 95.1743L184.026 90.4953C183.505 90.1623 183.357 89.4797 183.679 88.9515C195.707 69.1919 192.661 43.2189 176.217 26.7739C159.486 10.0439 132.942 7.12361 113.072 19.8141L115.133 23.0405C115.659 23.8647 115.019 24.9363 114.044 24.8638L97.9059 23.6644C97.1143 23.6055 96.6022 22.8014 96.8837 22.0592L102.614 6.94775C102.961 6.03345 104.203 5.90669 104.727 6.73204L107.166 10.5708C131.317 -4.9081 163.636 -1.35128 183.989 19.0017C204.022 39.056 207.712 70.7525 192.954 94.8112C192.619 95.3568 191.888 95.519 191.349 95.1743Z" fill="url(#paint2_linear_297_821)"/>
<path d="M227.758 64.2716C231.92 62.9798 234.842 58.5324 234.292 54.3285C234.165 53.3861 233.879 52.5389 233.466 51.7977C233.042 51.0564 232.502 50.4317 231.846 49.9446L235.52 52.7189C236.812 53.7037 237.722 55.218 237.966 57.1028C238.517 61.2961 235.594 65.7541 231.433 67.046C230.003 67.4907 228.616 67.5013 227.388 67.1519C226.646 66.9401 225.969 66.6012 225.376 66.1565L221.701 63.3821C223.29 64.5893 225.471 64.9811 227.769 64.2716H227.758Z" fill="#D7D7D7"/>
<path d="M227.759 64.2712C223.608 65.5631 219.796 63.1911 219.245 58.9978C218.695 54.8046 221.617 50.3466 225.768 49.0653C229.93 47.7734 233.731 50.1348 234.282 54.3386C234.832 58.5319 231.91 62.9899 227.748 64.2818L227.759 64.2712ZM218.335 92.9677L243.643 85.1211C245.347 84.5917 246.48 82.675 246.068 81.0126C243.738 71.7683 236.664 63.7312 228.034 66.4102C219.415 69.0893 214.904 80.7055 215.063 90.6275C215.094 92.4064 216.609 93.4971 218.324 92.9677H218.335Z" fill="url(#paint3_linear_297_821)"/>
<path d="M218.324 92.9671L243.632 85.1206C245.337 84.5912 246.47 82.6745 246.057 81.0121C245.729 79.7308 245.316 78.4707 244.829 77.2635C244.342 76.0564 243.759 74.8916 243.103 73.8115C241.8 71.6407 240.201 69.7559 238.369 68.3793L242.044 71.1536C245.697 73.9174 248.45 78.6613 249.742 83.7864C250.155 85.4383 249.022 87.3655 247.317 87.895L222.009 95.7415C221.575 95.8791 221.141 95.9109 220.749 95.8474C220.357 95.7839 219.997 95.6356 219.701 95.4026L216.026 92.6283C216.63 93.0836 217.456 93.2425 218.335 92.9671H218.324Z" fill="#FAFAFA"/>
<path d="M37.9624 67.8732C31.7286 69.5897 24.5161 66.3599 21.8434 60.6757C21.2411 59.3958 20.9249 58.1084 20.8571 56.8511C20.7894 55.5938 20.9776 54.3742 21.3992 53.2449L19.0277 59.6518C18.192 61.9179 18.2748 64.5304 19.4719 67.0827C22.1445 72.7668 29.3646 75.9967 35.5908 74.2801C37.7365 73.6929 39.4757 72.5937 40.733 71.1707C41.4858 70.32 42.0655 69.3563 42.4495 68.3098L44.821 61.9029C43.7971 64.681 41.3804 66.9245 37.9549 67.8656L37.9624 67.8732Z" fill="#D7D7D7"/>
<path d="M21.8445 60.6753C19.1718 54.9911 22.0403 48.9908 28.274 47.2742C34.4927 45.5577 41.7128 48.7875 44.3855 54.4717C47.0582 60.1558 44.1897 66.1562 37.9635 67.8728C31.7297 69.5893 24.5172 66.3595 21.8445 60.6753ZM74.9144 90.6622C67.1749 78.1344 52.2379 67.2027 39.3187 70.7638C26.3918 74.3249 23.9827 90.0223 28.4622 103.453C29.2678 105.855 32.2191 107.346 34.7788 106.646L72.701 96.2033C75.2683 95.4956 76.2922 92.9057 74.9069 90.6622H74.9144Z" fill="url(#paint4_linear_297_821)"/>
<path d="M72.7051 96.204L34.7829 106.646C32.2232 107.354 29.2719 105.856 28.4663 103.454C27.849 101.595 27.3596 99.6898 27.0133 97.785C26.667 95.8803 26.4637 93.968 26.411 92.0858C26.3056 88.329 26.8025 84.7001 27.9845 81.5079L25.613 87.9149C23.2565 94.2992 23.6179 102.43 26.1023 109.861C26.9079 112.263 29.8592 113.753 32.4189 113.053L70.3411 102.611C70.9961 102.43 71.5532 102.122 71.9974 101.738C72.4416 101.346 72.7653 100.872 72.9611 100.345L75.3326 93.9378C74.9411 94.9919 74.0301 95.8426 72.7201 96.2115L72.7051 96.204Z" fill="#FAFAFA"/>
<defs>
<linearGradient id="paint0_linear_297_821" x1="135.648" y1="62.3928" x2="149.477" y2="98.8649" gradientUnits="userSpaceOnUse">
<stop stop-color="#FAFAFA"/>
<stop offset="1" stop-color="#D6D6D6"/>
</linearGradient>
<linearGradient id="paint1_linear_297_821" x1="125.164" y1="76.7305" x2="140.543" y2="122.059" gradientUnits="userSpaceOnUse">
<stop stop-color="#FAFAFA"/>
<stop offset="1" stop-color="#D6D6D6"/>
</linearGradient>
<linearGradient id="paint2_linear_297_821" x1="142.985" y1="47.9833" x2="158.396" y2="93.263" gradientUnits="userSpaceOnUse">
<stop stop-color="#FAFAFA"/>
<stop offset="1" stop-color="#D6D6D6"/>
</linearGradient>
<linearGradient id="paint3_linear_297_821" x1="228.716" y1="70.8214" x2="238.663" y2="89.2" gradientUnits="userSpaceOnUse">
<stop stop-color="#FAFAFA"/>
<stop offset="1" stop-color="#D6D6D6"/>
</linearGradient>
<linearGradient id="paint4_linear_297_821" x1="44.8617" y1="76.7008" x2="56.2545" y2="104.083" gradientUnits="userSpaceOnUse">
<stop stop-color="#FAFAFA"/>
<stop offset="1" stop-color="#D6D6D6"/>
</linearGradient>
</defs>
</svg>
