<svg width="267" height="137" viewBox="0 0 267 137" fill="none" xmlns="http://www.w3.org/2000/svg">
<rect x="37.5996" y="44.9619" width="228.867" height="54.6641" rx="27.332" fill="#FC6238"/>
<rect x="0.533203" y="15.793" width="141.196" height="39.9043" rx="19.9521" fill="#FC6238"/>
<rect x="174.9" y="93.4902" width="51.4258" height="39.9043" rx="19.9521" fill="#FC6238"/>
<rect x="220.303" y="17.5684" width="37.1992" height="18.1768" rx="9.08838" fill="#FC6238"/>
<rect x="102.66" y="104.354" width="37.1992" height="18.1768" rx="9.08838" fill="#FC6238"/>
<path d="M175.473 55.2136L159.316 50.5966C152.041 48.5453 145.413 44.6613 140.068 39.316C134.723 33.9707 130.838 27.3432 128.787 20.0675L124.17 3.91091C123.938 3.34565 123.543 2.86217 123.035 2.52192C122.528 2.18167 121.931 2 121.319 2C120.708 2 120.111 2.18167 119.603 2.52192C119.096 2.86217 118.701 3.34565 118.469 3.91091L113.852 20.0675C111.8 27.3432 107.916 33.9707 102.571 39.316C97.2258 44.6613 90.5982 48.5453 83.3225 50.5966L67.166 55.2136C66.5456 55.3896 65.9996 55.7633 65.6108 56.2778C65.2221 56.7922 65.0117 57.4195 65.0117 58.0644C65.0117 58.7092 65.2221 59.3365 65.6108 59.851C65.9996 60.3655 66.5456 60.7391 67.166 60.9152L83.3225 65.5322C90.5982 67.5834 97.2258 71.4675 102.571 76.8127C107.916 82.158 111.8 88.7856 113.852 96.0613L118.469 112.218C118.645 112.838 119.018 113.384 119.533 113.773C120.047 114.162 120.675 114.372 121.319 114.372C121.964 114.372 122.592 114.162 123.106 113.773C123.621 113.384 123.994 112.838 124.17 112.218L128.787 96.0613C130.838 88.7856 134.723 82.158 140.068 76.8127C145.413 71.4675 152.041 67.5834 159.316 65.5322L175.473 60.9152C176.093 60.7391 176.639 60.3655 177.028 59.851C177.417 59.3365 177.627 58.7092 177.627 58.0644C177.627 57.4195 177.417 56.7922 177.028 56.2778C176.639 55.7633 176.093 55.3896 175.473 55.2136Z" fill="url(#paint0_linear_298_822)"/>
<path d="M207.078 103.692L198.153 101.142C194.133 100.009 190.472 97.8628 187.519 94.9098C184.566 91.9569 182.42 88.2955 181.287 84.2761L178.736 75.3506C178.608 75.0383 178.39 74.7712 178.109 74.5833C177.829 74.3953 177.499 74.2949 177.161 74.2949C176.824 74.2949 176.494 74.3953 176.213 74.5833C175.933 74.7712 175.715 75.0383 175.587 75.3506L173.036 84.2761C171.903 88.2955 169.757 91.9569 166.804 94.9098C163.851 97.8628 160.19 100.009 156.17 101.142L147.245 103.692C146.902 103.79 146.6 103.996 146.386 104.28C146.171 104.564 146.055 104.911 146.055 105.267C146.055 105.623 146.171 105.97 146.386 106.254C146.6 106.538 146.902 106.745 147.245 106.842L156.17 109.393C160.19 110.526 163.851 112.672 166.804 115.625C169.757 118.578 171.903 122.239 173.036 126.258L175.587 135.184C175.684 135.527 175.89 135.828 176.174 136.043C176.459 136.258 176.805 136.374 177.161 136.374C177.518 136.374 177.864 136.258 178.148 136.043C178.433 135.828 178.639 135.527 178.736 135.184L181.287 126.258C182.42 122.239 184.566 118.578 187.519 115.625C190.472 112.672 194.133 110.526 198.153 109.393L207.078 106.842C207.421 106.745 207.722 106.538 207.937 106.254C208.152 105.97 208.268 105.623 208.268 105.267C208.268 104.911 208.152 104.564 207.937 104.28C207.722 103.996 207.421 103.79 207.078 103.692Z" fill="url(#paint1_linear_298_822)"/>
<path d="M184.86 17.7384L179.61 16.2383C177.247 15.5719 175.093 14.3099 173.357 12.5732C171.62 10.8366 170.358 8.68326 169.691 6.31936L168.191 1.07008C168.116 0.886422 167.988 0.72934 167.823 0.618792C167.658 0.508243 167.464 0.449219 167.265 0.449219C167.067 0.449219 166.873 0.508243 166.708 0.618792C166.543 0.72934 166.414 0.886422 166.339 1.07008L164.839 6.31936C164.172 8.68326 162.91 10.8366 161.174 12.5732C159.437 14.3099 157.284 15.5719 154.92 16.2383L149.671 17.7384C149.469 17.7956 149.292 17.917 149.165 18.0841C149.039 18.2513 148.971 18.4551 148.971 18.6646C148.971 18.8741 149.039 19.0779 149.165 19.2451C149.292 19.4123 149.469 19.5336 149.671 19.5909L154.92 21.0909C157.284 21.7574 159.437 23.0193 161.174 24.756C162.91 26.4927 164.172 28.646 164.839 31.0099L166.339 36.2592C166.396 36.4607 166.518 36.6381 166.685 36.7644C166.852 36.8907 167.056 36.9591 167.265 36.9591C167.475 36.9591 167.678 36.8907 167.846 36.7644C168.013 36.6381 168.134 36.4607 168.191 36.2592L169.691 31.0099C170.358 28.646 171.62 26.4927 173.357 24.756C175.093 23.0193 177.247 21.7574 179.61 21.0909L184.86 19.5909C185.061 19.5336 185.239 19.4123 185.365 19.2451C185.491 19.0779 185.56 18.8741 185.56 18.6646C185.56 18.4551 185.491 18.2513 185.365 18.0841C185.239 17.917 185.061 17.7956 184.86 17.7384Z" fill="url(#paint2_linear_298_822)"/>
<path d="M70.1072 36.1969L65.9598 35.0118C64.0921 34.4852 62.3908 33.4882 61.0187 32.1161C59.6466 30.744 58.6496 29.0427 58.123 27.175L56.9379 23.0276C56.8782 22.8825 56.7769 22.7584 56.6466 22.6711C56.5162 22.5837 56.3629 22.5371 56.2061 22.5371C56.0492 22.5371 55.8959 22.5837 55.7656 22.6711C55.6353 22.7584 55.5339 22.8825 55.4743 23.0276L54.2891 27.175C53.7625 29.0427 52.7655 30.744 51.3934 32.1161C50.0213 33.4882 48.32 34.4852 46.4523 35.0118L42.3049 36.1969C42.1457 36.2421 42.0055 36.3381 41.9057 36.4701C41.8059 36.6022 41.752 36.7632 41.752 36.9287C41.752 37.0943 41.8059 37.2553 41.9057 37.3874C42.0055 37.5194 42.1457 37.6153 42.3049 37.6605L46.4523 38.8457C48.32 39.3723 50.0213 40.3693 51.3934 41.7414C52.7655 43.1135 53.7625 44.8148 54.2891 46.6825L55.4743 50.8299C55.5195 50.9891 55.6154 51.1293 55.7474 51.2291C55.8795 51.3289 56.0405 51.3828 56.2061 51.3828C56.3716 51.3828 56.5326 51.3289 56.6647 51.2291C56.7967 51.1293 56.8927 50.9891 56.9379 50.8299L58.123 46.6825C58.6496 44.8148 59.6466 43.1135 61.0187 41.7414C62.3908 40.3693 64.0921 39.3723 65.9598 38.8457L70.1072 37.6605C70.2664 37.6153 70.4066 37.5194 70.5064 37.3874C70.6062 37.2553 70.6602 37.0943 70.6602 36.9287C70.6602 36.7632 70.6062 36.6022 70.5064 36.4701C70.4066 36.3381 70.2664 36.2421 70.1072 36.1969Z" fill="url(#paint3_linear_298_822)"/>
<defs>
<linearGradient id="paint0_linear_298_822" x1="114.474" y1="57.9698" x2="134.383" y2="110.593" gradientUnits="userSpaceOnUse">
<stop stop-color="#FAFAFA"/>
<stop offset="1" stop-color="#D6D6D6"/>
</linearGradient>
<linearGradient id="paint1_linear_298_822" x1="173.38" y1="105.215" x2="184.378" y2="134.286" gradientUnits="userSpaceOnUse">
<stop stop-color="#FAFAFA"/>
<stop offset="1" stop-color="#D6D6D6"/>
</linearGradient>
<linearGradient id="paint2_linear_298_822" x1="165.041" y1="18.6339" x2="171.51" y2="35.7314" gradientUnits="userSpaceOnUse">
<stop stop-color="#FAFAFA"/>
<stop offset="1" stop-color="#D6D6D6"/>
</linearGradient>
<linearGradient id="paint3_linear_298_822" x1="54.4488" y1="36.9045" x2="59.5594" y2="50.4129" gradientUnits="userSpaceOnUse">
<stop stop-color="#FAFAFA"/>
<stop offset="1" stop-color="#D6D6D6"/>
</linearGradient>
</defs>
</svg>
