<svg width="238" height="158" viewBox="0 0 238 158" fill="none" xmlns="http://www.w3.org/2000/svg">
<rect x="94.7305" y="24.3242" width="39.7695" height="22.8119" rx="11.406" fill="#FC6238"/>
<rect x="159.904" y="40.2715" width="71.3457" height="35.5547" rx="17.7773" fill="#FC6238"/>
<rect x="0.478516" y="55.8984" width="154.467" height="54.6641" rx="27.332" fill="#FC6238"/>
<rect x="113.348" y="63.2959" width="86.8535" height="40.1133" rx="20.0566" fill="#FC6238"/>
<rect x="143.564" y="24.3242" width="26.8466" height="14.0622" rx="7.03112" fill="#FC6238"/>
<rect x="94.7305" y="110.562" width="142.568" height="32.2201" rx="16.1101" fill="#FC6238"/>
<rect x="89.0137" y="123.179" width="99.3965" height="32.2201" rx="16.1101" fill="#FC6238"/>
<path d="M89.8962 148.591L79.8037 136.173L85.5096 145.392L95.602 157.818L89.8962 148.591Z" fill="#D7D7D7"/>
<path d="M104.5 137.459L89.8975 148.591L95.6033 157.817L110.214 146.686L104.5 137.459Z" fill="#D7D7D7"/>
<path d="M85.5107 145.391L60.6342 144.089C55.86 143.841 52.0094 141.5 49.8738 138.053L44.168 128.835C46.3035 132.281 50.1542 134.623 54.9283 134.87L79.8048 136.173L85.5107 145.391ZM160.404 94.1954C160.404 94.0305 160.396 93.8738 160.388 93.7172C160.388 93.4781 160.388 93.2389 160.363 93.0081C160.347 92.8432 160.322 92.6782 160.305 92.5051C160.281 92.3072 160.264 92.1093 160.231 91.9197C160.231 91.8949 160.223 91.8702 160.215 91.8455C160.19 91.6805 160.149 91.5239 160.116 91.3672C160.066 91.1528 160.025 90.9385 159.967 90.7323C159.926 90.5674 159.868 90.4107 159.819 90.2541C159.769 90.0974 159.728 89.9325 159.67 89.7758C159.654 89.7346 159.637 89.6851 159.621 89.6439C159.588 89.5532 159.547 89.4625 159.514 89.3718C159.415 89.1327 159.316 88.9018 159.209 88.671C159.159 88.572 159.118 88.4813 159.068 88.3824C159.035 88.3246 159.011 88.2587 158.978 88.201C158.854 87.9618 158.722 87.731 158.582 87.5083L152.876 78.2899C153.049 78.5703 153.214 78.8671 153.363 79.1639C153.412 79.2546 153.453 79.3536 153.503 79.4525C153.61 79.6834 153.717 79.9143 153.808 80.1451C153.841 80.2358 153.882 80.3265 153.915 80.4172C153.989 80.6151 154.055 80.8213 154.121 81.0274C154.171 81.1841 154.228 81.3407 154.27 81.5056C154.327 81.7118 154.369 81.9262 154.418 82.1405C154.451 82.2972 154.492 82.4621 154.517 82.6188C154.558 82.8332 154.575 83.0558 154.599 83.2784C154.616 83.4433 154.649 83.6082 154.657 83.7814C154.674 84.0123 154.682 84.2514 154.682 84.4905C154.682 84.6472 154.698 84.8121 154.698 84.9687C154.698 85.2326 154.674 85.5047 154.657 85.7768C154.649 85.917 154.649 86.0489 154.632 86.1808C154.591 86.5931 154.533 87.0054 154.451 87.4259L147.228 125.157C147.129 125.66 147.005 126.163 146.857 126.65C146.807 126.814 146.742 126.971 146.684 127.136C146.577 127.458 146.469 127.779 146.337 128.093C146.164 128.513 145.966 128.925 145.76 129.338C145.703 129.445 145.637 129.552 145.579 129.659C145.43 129.931 145.274 130.203 145.101 130.467C144.82 130.912 144.523 131.349 144.202 131.762C144.169 131.803 144.136 131.852 144.103 131.902C143.773 132.331 143.41 132.735 143.039 133.13C142.916 133.262 142.775 133.386 142.652 133.51C142.404 133.757 142.157 133.996 141.901 134.227C141.745 134.367 141.572 134.499 141.407 134.639C141.159 134.837 140.92 135.043 140.665 135.233C140.491 135.365 140.31 135.48 140.129 135.604C139.857 135.794 139.584 135.975 139.304 136.148C139.123 136.256 138.941 136.363 138.76 136.47C138.422 136.66 138.076 136.841 137.721 137.014C137.507 137.113 137.3 137.22 137.086 137.319C136.954 137.377 136.83 137.426 136.699 137.484C136.369 137.616 136.031 137.748 135.693 137.863C135.585 137.896 135.486 137.938 135.387 137.971C135.107 138.061 134.827 138.127 134.538 138.21C134.332 138.267 134.126 138.325 133.912 138.375C133.615 138.441 133.318 138.49 133.021 138.54C132.823 138.572 132.625 138.622 132.419 138.647C132.089 138.688 131.751 138.713 131.413 138.737C131.24 138.754 131.075 138.77 130.902 138.779C130.391 138.803 129.88 138.795 129.368 138.779L104.492 137.476L110.198 146.694L135.074 147.997C135.585 148.022 136.097 148.022 136.608 147.997C136.781 147.997 136.946 147.964 137.119 147.956C137.457 147.931 137.795 147.906 138.125 147.865C138.331 147.84 138.529 147.791 138.727 147.758C139.024 147.708 139.321 147.659 139.617 147.593C139.832 147.544 140.038 147.478 140.244 147.428C140.483 147.362 140.731 147.313 140.97 147.238C141.011 147.23 141.044 147.214 141.085 147.197C141.192 147.164 141.291 147.123 141.398 147.09C141.737 146.975 142.075 146.851 142.404 146.711C142.536 146.661 142.66 146.604 142.792 146.546C142.891 146.505 142.998 146.463 143.097 146.414C143.212 146.364 143.311 146.298 143.427 146.241C143.781 146.068 144.128 145.886 144.466 145.697C144.565 145.639 144.672 145.598 144.771 145.532C144.853 145.482 144.927 145.424 145.01 145.375C145.29 145.202 145.562 145.02 145.834 144.831C145.958 144.748 146.09 144.674 146.206 144.583C146.263 144.542 146.313 144.493 146.362 144.46C146.618 144.27 146.865 144.072 147.104 143.866C147.236 143.759 147.368 143.668 147.492 143.553C147.525 143.52 147.558 143.487 147.591 143.454C147.855 143.223 148.094 142.976 148.341 142.736C148.457 142.621 148.572 142.522 148.687 142.407C148.704 142.39 148.72 142.365 148.737 142.349C149.108 141.953 149.463 141.541 149.801 141.12C149.801 141.12 149.809 141.112 149.817 141.104C149.85 141.063 149.867 141.021 149.9 140.988C150.221 140.568 150.518 140.139 150.798 139.694C150.831 139.636 150.872 139.587 150.914 139.529C151.046 139.315 151.161 139.1 151.276 138.878C151.334 138.77 151.4 138.663 151.458 138.556C151.664 138.168 151.854 137.764 152.019 137.36C152.019 137.344 152.027 137.327 152.035 137.311C152.167 136.998 152.274 136.676 152.381 136.354C152.439 136.19 152.505 136.041 152.555 135.876C152.703 135.39 152.827 134.887 152.926 134.384L160.149 96.6526C160.231 96.232 160.289 95.8198 160.33 95.4075C160.347 95.2673 160.347 95.1354 160.355 95.0035C160.371 94.7314 160.396 94.4593 160.396 94.1954H160.404Z" fill="url(#paint0_linear_298_826)"/>
<path d="M142.106 72.2464L67.6574 68.3463C59.3295 67.9093 51.3314 74.0027 49.806 81.9513L42.583 119.683C41.0576 127.631 46.5903 134.434 54.9182 134.871L79.7948 136.173L89.8955 148.599L104.498 137.468L129.375 138.771C137.703 139.208 145.701 133.123 147.226 125.166L154.449 87.4346C155.966 79.4942 150.442 72.6834 142.114 72.2464H142.106Z" fill="url(#paint1_linear_298_826)"/>
<path d="M82.1194 92.2492C86.2504 92.4636 88.9961 95.836 88.2376 99.7691C87.4295 103.983 83.6366 106.868 80.4126 108.922C78.2028 110.323 76.1332 111.379 75.9106 111.494L71.3756 113.786L67.7971 111.074C67.6157 110.933 65.9831 109.688 64.3587 108.089C61.984 105.747 59.3537 102.523 60.1618 98.3014C60.9121 94.3601 64.8782 91.3505 69.0091 91.5649C71.8373 91.7133 74.0141 93.3376 74.8552 95.6134C76.5455 93.4696 79.2912 92.1008 82.1277 92.2492H82.1194ZM111.877 111.882L118.754 106.497C120.016 105.524 120.98 104.568 121.656 103.62C122.291 102.696 122.72 101.732 122.918 100.701C123.256 98.9116 122.836 97.3779 121.805 96.273C120.782 95.1929 119.166 94.5497 117.163 94.4425C115.266 94.3436 113.485 94.9208 112.067 95.902C110.698 96.8749 109.717 98.1365 109.387 99.398C109.354 99.4805 109.338 99.5794 109.313 99.7031C109.14 100.618 109.618 101.278 110.657 101.336C111.465 101.377 112.158 100.965 112.512 100.082C112.537 100.049 112.545 99.9835 112.562 99.9093C112.85 99.1424 113.419 98.5075 114.161 98.0705C114.862 97.6583 115.744 97.4439 116.627 97.4933C117.55 97.5428 118.358 97.8726 118.919 98.4251C119.496 98.9775 119.735 99.7856 119.562 100.693C119.447 101.286 119.051 101.962 118.383 102.688C118.012 103.076 117.476 103.57 116.775 104.139L116.635 104.263L106.93 112.08L106.79 112.187C106.567 112.385 106.411 112.607 106.32 112.863L106.279 112.987L106.254 113.127C106.155 113.58 106.246 113.968 106.501 114.331C106.757 114.685 107.136 114.858 107.631 114.891L118.606 115.468C119.57 115.518 120.444 114.858 120.626 113.935C120.799 113.028 120.18 112.319 119.216 112.269L111.886 111.882H111.877ZM133.283 95.3083C131.304 95.2011 129.341 95.8525 127.75 97.0646C126.158 98.2767 125.045 99.9835 124.683 101.863C124.32 103.743 124.765 105.541 125.862 106.901C126.958 108.262 128.64 109.119 130.619 109.218C130.751 109.218 130.974 109.218 131.271 109.218L127.841 113.605C127.593 113.902 127.436 114.19 127.379 114.495C127.28 115.023 127.486 115.559 127.964 115.889C128.22 116.046 128.5 116.128 128.78 116.145C128.879 116.145 129.044 116.145 129.259 116.103C129.704 116.013 130.108 115.757 130.438 115.37L137.455 106.25L137.496 106.192C138.428 105.087 139.013 103.892 139.252 102.622C139.615 100.742 139.153 98.9445 138.048 97.6005C136.944 96.2483 135.261 95.4072 133.291 95.3083H133.283ZM134.363 105.087C133.464 105.772 132.376 106.135 131.279 106.077C130.141 106.019 129.209 105.549 128.607 104.782C127.997 104.032 127.742 103.059 127.948 101.987C128.146 100.956 128.772 99.9917 129.655 99.3238C130.537 98.6642 131.625 98.2931 132.763 98.3509C133.86 98.4086 134.791 98.8786 135.418 99.6207C136.02 100.396 136.276 101.377 136.078 102.408C135.88 103.455 135.253 104.411 134.371 105.079M105.182 93.956H105.058C104.794 93.9643 104.531 94.022 104.242 94.1457L100.358 96.0092C99.8884 96.2235 99.5668 96.5451 99.3854 96.9656C99.3277 97.0976 99.2865 97.2212 99.2617 97.3532C99.204 97.6582 99.237 97.9551 99.3524 98.2189C99.5503 98.7054 100.012 98.9858 100.573 99.0188C100.927 99.0352 101.265 98.9693 101.612 98.8291L102.717 98.3014L99.9296 112.846C99.8389 113.308 99.9379 113.696 100.218 114.017C100.507 114.355 100.886 114.537 101.34 114.561C102.28 114.611 103.112 113.943 103.286 113.028L106.6 95.6876C106.773 94.7723 106.213 94.022 105.273 93.9725H105.174L105.182 93.956Z" fill="#D7D7D7"/>
<path d="M185.939 1.49762L143.867 14.3158C134.922 17.0417 127.197 25.3728 126.635 32.9146L124.011 67.9637C123.448 75.5055 130.252 79.408 139.197 76.6821L181.269 63.8639C190.221 61.1381 197.939 52.8069 198.501 45.2651L201.125 10.216C201.688 2.67421 194.891 -1.23556 185.939 1.49762Z" fill="url(#paint2_linear_298_826)"/>
<path d="M207.131 16.8955C207.131 16.8151 207.131 16.7347 207.131 16.6543C207.131 16.6178 207.124 16.5812 207.117 16.552C207.102 16.3839 207.08 16.2158 207.066 16.055C207.051 15.96 207.051 15.865 207.036 15.77C207.036 15.7408 207.022 15.7189 207.022 15.6896C207 15.5508 206.971 15.4192 206.941 15.2877C206.919 15.1854 206.905 15.0758 206.876 14.9735C206.876 14.9515 206.861 14.9223 206.854 14.9004C206.824 14.7835 206.788 14.6738 206.751 14.5642C206.722 14.4619 206.693 14.3523 206.656 14.25C206.649 14.2207 206.634 14.1915 206.62 14.1696C206.583 14.0673 206.539 13.965 206.496 13.8626C206.459 13.7676 206.422 13.6726 206.386 13.5776C206.371 13.5411 206.349 13.5119 206.335 13.4826C206.291 13.3803 206.232 13.2853 206.181 13.183C206.137 13.1026 206.101 13.0149 206.057 12.9418C206.035 12.9053 206.013 12.8688 205.991 12.8322C205.933 12.7372 205.874 12.6422 205.816 12.5472C205.772 12.4741 205.728 12.401 205.684 12.3353C205.633 12.2622 205.575 12.1818 205.524 12.1087L199.531 4.12842C199.633 4.26727 199.728 4.41343 199.823 4.55959C199.882 4.65459 199.948 4.74959 200.006 4.8446C200.072 4.96152 200.138 5.07845 200.196 5.19538C200.247 5.29039 200.298 5.3927 200.342 5.4877C200.401 5.61194 200.452 5.74348 200.503 5.86772C200.547 5.97003 200.591 6.07234 200.627 6.17465C200.671 6.3062 200.715 6.43774 200.751 6.57659C200.788 6.68621 200.825 6.79583 200.854 6.91276C200.883 7.03699 200.912 7.16853 200.941 7.30008C200.971 7.43162 201 7.56317 201.022 7.70202C201.044 7.81895 201.051 7.94318 201.066 8.06742C201.088 8.22819 201.11 8.39628 201.117 8.56436C201.124 8.68129 201.124 8.79822 201.131 8.91515C201.139 9.11977 201.146 9.32439 201.139 9.52901C201.139 9.75556 201.131 9.9748 201.117 10.2087L198.493 45.2577C198.464 45.6962 198.398 46.1347 198.318 46.5732C198.311 46.6243 198.303 46.6755 198.296 46.7266C198.223 47.1066 198.128 47.4867 198.018 47.8667C197.938 48.1517 197.843 48.4294 197.748 48.7144C197.675 48.9263 197.609 49.1383 197.529 49.3502C197.419 49.6425 197.287 49.9275 197.156 50.2125C197.068 50.4172 196.981 50.6218 196.878 50.8264C196.732 51.1333 196.564 51.433 196.396 51.7326C196.294 51.9153 196.199 52.098 196.096 52.2807C195.892 52.6242 195.665 52.9676 195.431 53.3111C195.344 53.4427 195.263 53.5742 195.175 53.7057C194.81 54.2246 194.423 54.7289 194.013 55.2258C193.802 55.4816 193.575 55.7374 193.356 55.9858C193.224 56.132 193.1 56.2855 192.961 56.4316C192.603 56.8116 192.238 57.1844 191.858 57.5498C191.792 57.6155 191.719 57.674 191.653 57.7398C191.331 58.0394 191.003 58.3317 190.666 58.624C190.571 58.7044 190.469 58.7921 190.367 58.8725C189.972 59.2014 189.57 59.5156 189.154 59.8225C189.103 59.8591 189.059 59.8883 189.008 59.9248C188.613 60.2099 188.211 60.4876 187.809 60.7506C187.729 60.8018 187.656 60.853 187.575 60.9041C187.144 61.1818 186.706 61.4449 186.252 61.6934C186.157 61.7445 186.062 61.7957 185.967 61.8468C185.522 62.088 185.069 62.3219 184.615 62.5411C184.594 62.5557 184.564 62.563 184.542 62.5776C184.075 62.7969 183.6 62.9942 183.125 63.1842C182.978 63.2427 182.84 63.2938 182.693 63.3523C182.226 63.5277 181.751 63.6958 181.268 63.8419L139.196 76.6601C138.984 76.7259 138.78 76.777 138.568 76.8355C138.086 76.9671 137.603 77.084 137.136 77.179C137.092 77.1863 137.048 77.2009 137.011 77.2082C136.931 77.2228 136.85 77.2374 136.763 77.2521C136.507 77.2959 136.251 77.3398 135.995 77.3763C135.871 77.3909 135.754 77.4055 135.63 77.4201C135.418 77.4421 135.214 77.464 135.009 77.4859C134.877 77.4932 134.753 77.5005 134.622 77.5078C134.432 77.5152 134.234 77.5298 134.044 77.5298C133.913 77.5298 133.788 77.5298 133.664 77.5298C133.474 77.5298 133.292 77.5298 133.109 77.5151C132.985 77.5151 132.868 77.5078 132.743 77.4932C132.553 77.4786 132.371 77.464 132.188 77.4421C132.078 77.4274 131.969 77.4202 131.859 77.4055C131.655 77.3763 131.457 77.3398 131.26 77.3032C131.179 77.2886 131.092 77.274 131.011 77.2594C130.734 77.2009 130.471 77.1351 130.208 77.0621C130.164 77.0474 130.127 77.0328 130.083 77.0182C129.864 76.9524 129.652 76.8867 129.44 76.8063C129.353 76.777 129.272 76.7405 129.184 76.704C129.024 76.6382 128.87 76.5724 128.717 76.5066C128.622 76.4628 128.534 76.419 128.446 76.3751C128.307 76.302 128.169 76.2289 128.037 76.1559C127.949 76.1047 127.862 76.0536 127.774 75.9951C127.642 75.9147 127.518 75.8343 127.401 75.7466C127.321 75.6882 127.233 75.6297 127.153 75.5712C127.029 75.4835 126.912 75.3812 126.802 75.2862C126.729 75.2277 126.656 75.162 126.583 75.1035C126.459 74.9939 126.349 74.877 126.232 74.76C126.174 74.7016 126.115 74.6504 126.064 74.592C125.903 74.4166 125.75 74.2266 125.604 74.0366L131.596 82.0169C131.742 82.2142 131.896 82.3969 132.064 82.5796C132.115 82.638 132.173 82.6892 132.232 82.7477C132.349 82.8646 132.466 82.9815 132.583 83.0911C132.656 83.1569 132.729 83.2154 132.795 83.2738C132.911 83.3688 133.028 83.4638 133.153 83.5588C133.233 83.6173 133.313 83.6758 133.401 83.7342C133.525 83.8219 133.65 83.9023 133.774 83.9827C133.862 84.0339 133.949 84.0923 134.037 84.1435C134.168 84.2239 134.307 84.2896 134.446 84.3627C134.534 84.4066 134.629 84.4577 134.717 84.5016C134.87 84.5747 135.031 84.6404 135.184 84.6989C135.272 84.7354 135.352 84.772 135.44 84.8012C135.652 84.8816 135.864 84.9474 136.083 85.0131C136.127 85.0277 136.164 85.0424 136.207 85.0497C136.47 85.1227 136.741 85.1885 137.011 85.247C137.092 85.2616 137.179 85.2762 137.26 85.2908C137.457 85.3274 137.654 85.3639 137.859 85.3932C137.969 85.4078 138.078 85.4151 138.188 85.4297C138.371 85.4516 138.553 85.4662 138.743 85.4808C138.86 85.4881 138.984 85.4955 139.109 85.5028C139.291 85.5101 139.474 85.5174 139.664 85.5174C139.788 85.5174 139.92 85.5174 140.044 85.5174C140.234 85.5174 140.424 85.5028 140.621 85.4955C140.753 85.4955 140.877 85.4808 141.009 85.4735C141.213 85.4589 141.425 85.437 141.63 85.4078C141.747 85.3932 141.871 85.3858 141.988 85.3639C142.236 85.3274 142.492 85.2835 142.755 85.2397C142.836 85.2251 142.916 85.2178 143.004 85.1958C143.018 85.1958 143.026 85.1958 143.04 85.1958C143.07 85.1958 143.099 85.1812 143.128 85.1739C143.596 85.0789 144.078 84.962 144.56 84.8304C144.626 84.8085 144.692 84.8012 144.758 84.7793C144.904 84.7354 145.043 84.6989 145.189 84.655L187.261 71.8368C187.582 71.7418 187.904 71.6322 188.226 71.5226C188.379 71.4715 188.533 71.4057 188.686 71.3472C188.832 71.2961 188.971 71.2376 189.117 71.1791C189.219 71.1353 189.322 71.106 189.424 71.0622C189.789 70.9087 190.155 70.748 190.513 70.5799C190.52 70.5799 190.528 70.5726 190.535 70.5653C190.557 70.5506 190.586 70.5433 190.608 70.5287C190.915 70.3826 191.222 70.2364 191.521 70.0756C191.668 69.9952 191.814 69.9148 191.96 69.8345C192.055 69.7833 192.15 69.7322 192.245 69.6737C192.325 69.6298 192.406 69.586 192.486 69.5421C192.8 69.3594 193.107 69.1767 193.414 68.9867C193.465 68.9502 193.517 68.921 193.568 68.8844C193.648 68.8333 193.721 68.7821 193.802 68.7309C193.977 68.6213 194.152 68.5044 194.32 68.3875C194.554 68.2267 194.774 68.0659 195 67.8978C195.051 67.8613 195.102 67.8248 195.146 67.7955C195.168 67.7809 195.19 67.7663 195.212 67.7517C195.512 67.5251 195.811 67.2986 196.096 67.0647C196.184 66.9917 196.264 66.9186 196.352 66.8455C196.454 66.7651 196.549 66.6774 196.652 66.597C196.761 66.502 196.878 66.407 196.995 66.312C197.214 66.1147 197.426 65.9174 197.646 65.7201C197.711 65.6543 197.784 65.5958 197.85 65.5301C197.872 65.5081 197.894 65.4862 197.916 65.4643C198.245 65.1427 198.566 64.8212 198.881 64.4923C198.903 64.4631 198.924 64.4412 198.954 64.4119C199.093 64.2658 199.217 64.1123 199.348 63.9662C199.538 63.7542 199.736 63.5423 199.918 63.3231C199.948 63.2865 199.977 63.2427 200.006 63.2061C200.415 62.7092 200.81 62.2049 201.168 61.6861C201.168 61.6788 201.183 61.6714 201.19 61.6568C201.278 61.5326 201.343 61.4084 201.424 61.2914C201.65 60.948 201.877 60.6118 202.089 60.261C202.198 60.0783 202.286 59.8956 202.388 59.7129C202.557 59.4133 202.725 59.1137 202.871 58.8067C202.973 58.6021 203.053 58.3975 203.148 58.1928C203.28 57.9078 203.404 57.6155 203.514 57.3305C203.594 57.1186 203.667 56.9066 203.733 56.6874C203.828 56.4024 203.923 56.1247 204.004 55.847C204.025 55.7739 204.055 55.6935 204.077 55.6204C204.157 55.3135 204.223 55.0139 204.281 54.7069C204.289 54.6558 204.296 54.6046 204.303 54.5608C204.34 54.3635 204.376 54.1662 204.398 53.9688C204.427 53.7277 204.457 53.4792 204.471 53.238L207.095 18.189C207.109 18.0136 207.117 17.8455 207.124 17.6774C207.124 17.6189 207.124 17.5678 207.124 17.5093C207.124 17.2974 207.124 17.0928 207.117 16.8955H207.131Z" fill="#D6D6D6"/>
<path d="M160.526 42.8035L148.132 53.3635C147.905 53.5535 147.672 53.7143 147.43 53.8458C147.43 53.8458 147.423 53.8458 147.416 53.8458C147.182 53.9774 146.941 54.0724 146.707 54.1381C146.546 54.182 146.393 54.2039 146.232 54.2185C146.152 54.2258 146.071 54.2404 145.998 54.2404C145.881 54.2404 145.779 54.2331 145.669 54.2185C145.603 54.2112 145.53 54.2039 145.472 54.1893C145.362 54.1601 145.267 54.1235 145.172 54.0724C145.128 54.0504 145.07 54.0358 145.033 54.0066C144.902 53.9262 144.785 53.8312 144.697 53.707L146.305 55.8774C146.393 56.0017 146.51 56.0967 146.641 56.1771C146.685 56.2063 146.736 56.2209 146.78 56.2428C146.875 56.2867 146.97 56.3305 147.08 56.3598C147.145 56.3744 147.211 56.3817 147.277 56.389C147.379 56.4036 147.489 56.4109 147.606 56.4109C147.679 56.4109 147.759 56.3963 147.84 56.389C147.905 56.3817 147.971 56.389 148.037 56.3744C148.125 56.3598 148.205 56.3378 148.293 56.3159H148.307C148.366 56.3013 148.432 56.2794 148.49 56.2575C148.549 56.2355 148.607 56.2136 148.666 56.1917C148.717 56.1698 148.768 56.1478 148.826 56.1186C148.877 56.0967 148.929 56.0674 148.972 56.0455C148.987 56.0455 149.002 56.0309 149.016 56.0236C149.016 56.0236 149.024 56.0236 149.031 56.0236C149.06 56.009 149.089 55.9944 149.119 55.9724C149.162 55.9432 149.214 55.914 149.257 55.8847C149.301 55.8555 149.352 55.8263 149.396 55.7897C149.44 55.7605 149.491 55.724 149.535 55.6874C149.579 55.6509 149.63 55.6144 149.674 55.5778C149.689 55.5632 149.711 55.5486 149.725 55.534L162.119 44.9739L160.512 42.8035H160.526Z" fill="#FAFAFA"/>
<path d="M175.457 17.3787L149.017 24.9571C147.694 25.3371 146.554 26.5429 146.467 27.661L144.472 52.8005C144.377 53.999 145.473 54.4959 146.715 54.1378C147.183 54.0063 147.68 53.7432 148.133 53.3559L160.527 42.7958L171.781 46.5741C172.198 46.7129 172.673 46.691 173.141 46.5594C174.383 46.2014 175.611 45.0394 175.706 43.8482L177.701 18.7087C177.789 17.5906 176.795 16.9987 175.465 17.3787H175.457Z" fill="url(#paint3_linear_298_826)"/>
<path d="M179.295 20.5287C179.295 20.4849 179.28 20.4483 179.273 20.4045C179.273 20.3972 179.273 20.3899 179.273 20.3826C179.273 20.3826 179.273 20.3826 179.273 20.3753C179.273 20.346 179.258 20.3241 179.251 20.2949C179.236 20.2583 179.229 20.2291 179.214 20.1926C179.2 20.156 179.185 20.1268 179.163 20.0976C179.149 20.0683 179.127 20.0391 179.105 20.0099C179.097 19.9952 179.09 19.9879 179.083 19.9733L177.475 17.8029C177.563 17.9198 177.629 18.0586 177.665 18.2048C177.665 18.2048 177.665 18.2048 177.665 18.2121C177.702 18.3656 177.716 18.5263 177.702 18.709L175.707 43.8485C175.692 43.9874 175.663 44.1262 175.626 44.265C175.626 44.2797 175.626 44.287 175.619 44.3016C175.619 44.3162 175.604 44.3308 175.604 44.3454C175.546 44.5281 175.458 44.6962 175.356 44.8716C175.312 44.9447 175.268 45.0178 175.224 45.0835C175.202 45.1128 175.18 45.1493 175.158 45.1785C175.071 45.2955 174.976 45.4051 174.873 45.5074C174.866 45.5147 174.859 45.5293 174.844 45.5366C174.735 45.6536 174.61 45.7559 174.486 45.8582C174.479 45.8582 174.471 45.8728 174.464 45.8728C174.34 45.9751 174.201 46.0628 174.07 46.1505C174.062 46.1505 174.055 46.1578 174.048 46.1651C173.909 46.2455 173.77 46.3259 173.624 46.3844C173.616 46.3844 173.602 46.3917 173.595 46.399C173.448 46.4647 173.295 46.5232 173.149 46.5598C173.054 46.589 172.951 46.6109 172.856 46.6255C172.688 46.6548 172.528 46.6694 172.367 46.6621C172.33 46.6621 172.301 46.6621 172.264 46.6621C172.104 46.6548 171.943 46.6255 171.789 46.5817L160.535 42.8035L162.143 44.9739L173.397 48.7521C173.551 48.8033 173.711 48.8252 173.872 48.8325C173.909 48.8325 173.938 48.8325 173.975 48.8325C174.135 48.8325 174.296 48.8252 174.464 48.796C174.471 48.796 174.486 48.796 174.493 48.796C174.574 48.7814 174.661 48.7595 174.742 48.7375C174.742 48.7375 174.749 48.7375 174.756 48.7375C174.815 48.7229 174.881 48.701 174.939 48.6791C174.998 48.6571 175.056 48.6352 175.115 48.6133C175.144 48.5987 175.173 48.5914 175.195 48.5767C175.202 48.5767 175.217 48.5695 175.224 48.5621C175.239 48.5548 175.261 48.5475 175.275 48.5402C175.326 48.5183 175.378 48.4891 175.429 48.4598C175.48 48.4306 175.531 48.4087 175.575 48.3794C175.597 48.3648 175.619 48.3502 175.641 48.3356C175.648 48.3356 175.655 48.3283 175.663 48.321C175.677 48.3137 175.699 48.299 175.714 48.2917C175.758 48.2625 175.809 48.2333 175.853 48.1967C175.897 48.1675 175.948 48.131 175.992 48.0944C176.013 48.0798 176.035 48.0579 176.057 48.0433C176.065 48.0433 176.072 48.0287 176.079 48.0287C176.094 48.014 176.108 48.0067 176.123 47.9921C176.167 47.9556 176.218 47.9117 176.262 47.8752C176.313 47.8313 176.357 47.7875 176.401 47.7436C176.415 47.729 176.423 47.7217 176.437 47.7071C176.445 47.6998 176.452 47.6852 176.467 47.6779C176.496 47.6486 176.525 47.6194 176.554 47.5902C176.613 47.5317 176.664 47.4659 176.715 47.4002C176.73 47.3856 176.737 47.3636 176.752 47.349C176.773 47.3198 176.795 47.2832 176.817 47.254C176.854 47.2102 176.89 47.159 176.92 47.1152C176.934 47.0932 176.942 47.064 176.956 47.0421C177.058 46.874 177.146 46.6986 177.205 46.5159C177.205 46.5086 177.219 46.494 177.219 46.4867C177.219 46.4867 177.219 46.4867 177.219 46.4794C177.219 46.4647 177.219 46.4574 177.227 46.4428C177.249 46.3551 177.278 46.2674 177.292 46.1797C177.3 46.1286 177.307 46.0774 177.307 46.0263L179.302 20.8868C179.302 20.8868 179.302 20.8503 179.302 20.8357C179.302 20.7772 179.302 20.726 179.302 20.6749C179.302 20.631 179.302 20.5799 179.287 20.536L179.295 20.5287Z" fill="#FAFAFA"/>
<defs>
<linearGradient id="paint0_linear_298_826" x1="95.2203" y1="113.019" x2="103.292" y2="148.509" gradientUnits="userSpaceOnUse">
<stop stop-color="#D6D6D6"/>
<stop offset="1" stop-color="#FAFAFA"/>
</linearGradient>
<linearGradient id="paint1_linear_298_826" x1="91.6843" y1="108.307" x2="102.528" y2="148.344" gradientUnits="userSpaceOnUse">
<stop stop-color="#FAFAFA"/>
<stop offset="1" stop-color="#D6D6D6"/>
</linearGradient>
<linearGradient id="paint2_linear_298_826" x1="157.876" y1="38.9404" x2="171.494" y2="74.9744" gradientUnits="userSpaceOnUse">
<stop stop-color="#FAFAFA"/>
<stop offset="1" stop-color="#D6D6D6"/>
</linearGradient>
<linearGradient id="paint3_linear_298_826" x1="159.065" y1="35.6865" x2="166.157" y2="52.4954" gradientUnits="userSpaceOnUse">
<stop stop-color="#D6D6D6"/>
<stop offset="1" stop-color="#FAFAFA"/>
</linearGradient>
</defs>
</svg>
