<svg viewBox="0 0 192 214" fill="none" xmlns="http://www.w3.org/2000/svg">
    <path d="M182.018 72.0975C182.018 72.0975 153.09 96.4807 183.891 150.955C211.245 199.333 145.877 218.421 118.148 212.207C82.2267 204.157 62.8846 157.333 34.8017 171.336C6.71884 185.339 -18.6389 118.166 22.3049 94.674C73.2377 65.4508 41.6809 46.9774 46.8507 24.7663C50.5607 8.82531 97.1858 -14.8245 121.062 14.0315C141.154 38.3132 151.619 30.0566 161.228 27.1146C175.088 22.8712 204.313 47.4117 182.018 72.0975Z" fill="#FDA188" fill-opacity="0.15"/>
    <path d="M152.756 36.3357L90.3362 26.1072C85.7581 25.3571 81.4386 28.4602 80.6884 33.0383L59.0981 164.796C58.3479 169.374 61.4511 173.694 66.0292 174.444L128.449 184.672C133.028 185.422 137.347 182.319 138.097 177.741L159.688 45.9834C160.438 41.4053 157.335 37.0858 152.756 36.3357Z" fill="#FDA188"/>
    <path d="M150.704 40.0491L91.096 30.2815C88.0439 29.7814 85.1643 31.8502 84.6641 34.9023L63.4608 164.298C62.9607 167.351 65.0294 170.23 68.0815 170.73L127.689 180.498C130.741 180.998 133.621 178.929 134.121 175.877L155.324 46.4809C155.824 43.4288 153.756 40.5492 150.704 40.0491Z" fill="#FDB09B"/>
    <path d="M32.9557 136.342C32.7118 137.189 32.7246 138.09 32.9925 138.93C33.2604 139.77 33.7714 140.512 34.4609 141.062C35.1504 141.611 35.9873 141.944 36.8659 142.018C37.7445 142.092 38.6254 141.904 39.397 141.477C40.1686 141.05 40.7964 140.405 41.201 139.621C41.6056 138.838 41.7688 137.952 41.6699 137.076C41.5711 136.2 41.2146 135.372 40.6457 134.699C40.0767 134.025 39.3208 133.535 38.4735 133.291C37.3373 132.964 36.1177 133.102 35.0829 133.674C34.0482 134.246 33.283 135.206 32.9557 136.342Z" fill="#FD8160"/>
    <path d="M42.9298 127.043C42.9187 127.227 42.8863 127.41 42.8332 127.587C42.7383 127.917 42.5791 128.225 42.3648 128.493C42.1504 128.761 41.8851 128.984 41.5841 129.149C41.285 129.316 40.9556 129.421 40.6152 129.459C40.2749 129.497 39.9304 129.467 39.602 129.37C38.5247 129.059 37.3967 128.964 36.2826 129.09C35.1685 129.215 34.0901 129.56 33.1092 130.102C32.1282 130.645 31.264 131.376 30.5658 132.254C29.8677 133.131 29.3494 134.137 29.0407 135.215C28.9456 135.545 28.7866 135.852 28.5727 136.12C28.3589 136.387 28.0944 136.61 27.7943 136.776C27.1884 137.11 26.4744 137.19 25.8094 136.998C25.1445 136.806 24.583 136.358 24.2486 135.752C23.9142 135.146 23.8343 134.432 24.0263 133.767C24.5207 132.03 25.3554 130.408 26.482 128.996C27.6085 127.584 29.0044 126.41 30.5885 125.542C31.7759 124.883 33.053 124.401 34.3796 124.11L42.9298 127.043Z" fill="#FD8160"/>
    <path d="M23.1202 120.259L29.3412 122.392C29.208 122.45 29.0784 122.517 28.9529 122.59C26.9807 123.672 25.2428 125.135 23.8401 126.894C22.4373 128.652 21.3975 130.672 20.7809 132.835C20.688 133.166 20.5306 133.475 20.3177 133.745C20.1048 134.015 19.8407 134.24 19.5405 134.407C19.2403 134.575 18.91 134.681 18.5685 134.72C18.2271 134.759 17.8812 134.731 17.5509 134.636C17.2206 134.541 16.9124 134.381 16.6439 134.167C16.3754 133.952 16.152 133.687 15.9866 133.385C15.8211 133.084 15.7169 132.753 15.6799 132.411C15.6428 132.07 15.6737 131.724 15.7708 131.394C17.0145 127.014 19.5814 123.125 23.1202 120.259Z" fill="#FD8160"/>
    <path d="M45.2057 119.331C45.0129 119.995 44.5655 120.556 43.961 120.891C43.3565 121.227 42.6439 121.309 41.9785 121.122C40.7718 120.771 39.5302 120.554 38.2761 120.475L28.3379 117.077C33.0956 114.992 38.4352 114.646 43.4222 116.1C44.0865 116.293 44.6473 116.741 44.9816 117.347C45.3159 117.953 45.3965 118.666 45.2057 119.331Z" fill="#FD8160"/>
    <path d="M13.9718 117.133L19.4225 118.993C16.1397 122.13 13.7532 126.085 12.5092 130.452C12.4144 130.782 12.2552 131.09 12.0409 131.358C11.8265 131.626 11.5612 131.849 11.2603 132.014C10.9623 132.182 10.6339 132.289 10.2942 132.328C9.95455 132.367 9.61048 132.338 9.2822 132.242C8.95264 132.148 8.64486 131.99 8.37647 131.777C8.10808 131.564 7.88435 131.3 7.7181 131C7.55184 130.701 7.44632 130.371 7.40758 130.031C7.36883 129.69 7.39762 129.345 7.4923 129.016C8.74328 124.623 10.9567 120.564 13.9718 117.133Z" fill="#FD8160"/>
    <path d="M47.5895 111.06C47.3963 111.724 46.9478 112.284 46.3422 112.619C45.7365 112.953 45.0231 113.033 44.3581 112.843C41.1114 111.899 37.7098 111.609 34.3501 111.989C30.9904 112.368 27.7394 113.41 24.785 115.055C24.487 115.222 24.197 115.385 23.9184 115.57L17.8062 113.474C21.6793 110.358 26.2447 108.219 31.1176 107.236C35.9905 106.254 41.0281 106.457 45.8062 107.828C46.4705 108.021 47.0312 108.47 47.3655 109.075C47.6997 109.681 47.7803 110.395 47.5895 111.06Z" fill="#FD8160"/>
    <path d="M7.98106 117.492L7.98101 117.492C7.5609 118.719 8.21544 120.055 9.44297 120.475L43.151 132.011C44.3786 132.431 45.7142 131.777 46.1343 130.549L46.1344 130.549C46.5545 129.322 45.8999 127.986 44.6724 127.566L10.9644 116.03C9.73684 115.61 8.40117 116.264 7.98106 117.492Z" fill="#FD8160"/>
    <path d="M186.227 26.0537C181.693 24.1592 178.488 25.9766 177.73 27.7904C177.183 29.1005 178.038 30.1682 178.945 30.5471C180.759 31.3048 181.101 28.4096 184.527 29.841C186.207 30.5425 187.241 31.843 186.595 33.3882C185.837 35.2021 183.521 35.4576 182.02 35.935C180.695 36.3679 178.843 37.212 177.636 40.1007C176.907 41.8474 177.166 42.5477 178.543 43.1231C180.189 43.8106 180.833 43.212 181.1 42.5737C181.83 40.8269 182.285 39.8332 184.735 39.1606C185.937 38.8342 189.746 37.7426 191.065 34.5852C192.385 31.4277 190.526 27.8499 186.227 26.0537Z" fill="#FD8160"/>
    <path d="M177.608 45.4549C176.924 45.1782 176.158 45.1824 175.477 45.4666C174.796 45.7508 174.255 46.2921 173.97 46.973C173.686 47.6539 173.681 48.4196 173.958 49.1038C174.234 49.788 174.769 50.3357 175.447 50.6279C176.132 50.9098 176.901 50.909 177.585 50.6257C178.27 50.3425 178.814 49.7998 179.1 49.1162C179.385 48.4327 179.389 47.6639 179.109 46.9778C178.83 46.2918 178.29 45.7442 177.608 45.4549Z" fill="#FD8160"/>
    <path d="M100.943 86.2761C101.352 83.7572 100.625 81.5432 99.3191 81.331C98.013 81.1188 96.6224 82.9888 96.2132 85.5077C95.804 88.0266 96.5311 90.2406 97.8373 90.4528C99.1434 90.665 100.534 88.795 100.943 86.2761Z" fill="white"/>
    <path d="M128.179 90.7468C128.592 88.2028 127.869 85.9686 126.562 85.7564C125.256 85.5442 123.862 87.4345 123.449 89.9784C123.036 92.5224 123.76 94.7567 125.066 94.9688C126.372 95.181 127.766 93.2907 128.179 90.7468Z" fill="white"/>
    <path d="M117.061 112.677C116.966 112.677 116.872 112.657 116.785 112.62C116.698 112.583 116.619 112.528 116.554 112.459L115.569 111.422C113.988 109.763 111.907 108.669 109.644 108.308C107.381 107.948 105.063 108.34 103.045 109.426L101.787 110.106C101.706 110.149 101.617 110.177 101.526 110.186C101.434 110.196 101.342 110.187 101.254 110.161C101.166 110.134 101.084 110.091 101.012 110.033C100.941 109.975 100.882 109.903 100.838 109.822C100.794 109.742 100.767 109.653 100.758 109.561C100.748 109.47 100.757 109.377 100.783 109.289C100.81 109.201 100.853 109.119 100.911 109.048C100.969 108.977 101.041 108.917 101.121 108.874L102.38 108.194C104.668 106.963 107.298 106.517 109.864 106.926C112.431 107.335 114.791 108.576 116.584 110.457L117.569 111.494C117.663 111.594 117.726 111.718 117.75 111.853C117.774 111.988 117.758 112.127 117.704 112.253C117.65 112.378 117.561 112.486 117.446 112.561C117.332 112.636 117.198 112.676 117.061 112.676V112.677Z" fill="white"/>
</svg>
