<svg viewBox="0 0 194 187" fill="none" xmlns="http://www.w3.org/2000/svg">
    <path d="M101.751 17.2846C101.751 17.2846 106.785 49.6564 161.049 50.5499C209.24 51.3432 193.924 108.661 176.818 126.685C154.658 150.032 111.231 143.925 108.951 171.1C106.672 198.276 45.4489 187.725 46.4917 146.752C47.7889 95.7827 19.8704 111.281 5.73667 97.6475C-4.40717 87.8625 -0.920469 42.5679 31.2319 37.3823C58.2875 33.0188 56.8848 21.5559 59.0359 13.0699C62.1379 0.831379 93.5027 -10.2549 101.751 17.2846Z" fill="#FDA188" fill-opacity="0.15"/>
    <path d="M152.8 132.517C152.803 133.34 152.643 134.155 152.33 134.915C152.018 135.676 151.558 136.368 150.977 136.95C150.397 137.533 149.707 137.995 148.948 138.311C148.188 138.626 147.374 138.789 146.551 138.789L46.3264 138.993C45.5041 138.995 44.6895 138.835 43.9292 138.522C43.1688 138.209 42.4776 137.749 41.895 137.169C41.3125 136.589 40.8501 135.899 40.5343 135.14C40.2185 134.381 40.0554 133.567 40.0544 132.744L39.9136 62.2737L95.3897 27.4455C95.6379 27.2888 95.9251 27.2051 96.2185 27.2037C96.512 27.2023 96.8 27.2834 97.0496 27.4376L151.359 61.2398L152.659 62.0463V63.1739L152.8 132.517Z" fill="#FD8160"/>
    <path d="M144.622 33.5109H47.3536C47.1216 33.5109 46.9336 33.6989 46.9336 33.9309V138.014C46.9336 138.246 47.1216 138.434 47.3536 138.434H144.622C144.854 138.434 145.042 138.246 145.042 138.014V33.9309C145.042 33.6989 144.854 33.5109 144.622 33.5109Z" fill="#FDA188"/>
    <path d="M146.451 138.69L96.7044 100.76C96.6643 100.729 96.6321 100.69 96.6103 100.644C96.5886 100.599 96.5779 100.549 96.5792 100.499C96.5805 100.448 96.5937 100.399 96.6178 100.355C96.6419 100.31 96.6761 100.273 96.7177 100.244L152.158 62.3521C152.205 62.3195 152.261 62.3005 152.319 62.2972C152.377 62.2939 152.434 62.3064 152.486 62.3334C152.537 62.3603 152.58 62.4007 152.61 62.4502C152.64 62.4997 152.655 62.5565 152.656 62.6143L152.796 132.483C152.799 134.125 152.158 135.702 151.01 136.875C149.863 138.049 148.301 138.725 146.66 138.759C146.584 138.76 146.511 138.735 146.451 138.69Z" fill="#FDB09B"/>
    <path d="M46.4105 138.889L96.0049 100.762C96.0449 100.731 96.077 100.691 96.0985 100.646C96.1201 100.6 96.1306 100.55 96.1291 100.5C96.1276 100.449 96.1142 100.4 96.0899 100.356C96.0656 100.312 96.0312 100.274 95.9895 100.246L40.3992 62.5755C40.3513 62.5431 40.2955 62.5243 40.2377 62.5212C40.1799 62.5181 40.1224 62.5308 40.0713 62.558C40.0202 62.5851 39.9775 62.6257 39.9477 62.6753C39.918 62.7249 39.9023 62.7817 39.9023 62.8395L40.0423 132.709C40.0456 134.35 40.6929 135.924 41.8448 137.093C42.9968 138.262 44.5614 138.932 46.2023 138.959C46.2776 138.96 46.3509 138.935 46.4105 138.889Z" fill="#FDB09B"/>
    <path d="M146.543 138.76L46.3186 138.96C44.8024 138.959 43.3378 138.409 42.1953 137.413C41.0528 136.416 40.3095 135.039 40.1026 133.537C40.0685 133.281 40.0981 133.021 40.1888 132.779C40.2795 132.537 40.4285 132.321 40.6225 132.15L95.2855 83.7895C95.571 83.5369 95.9388 83.3971 96.32 83.3963C96.7012 83.3955 97.0696 83.5338 97.3561 83.7853L152.211 131.927C152.406 132.097 152.556 132.312 152.648 132.554C152.739 132.795 152.77 133.056 152.737 133.312C152.536 134.815 151.798 136.194 150.66 137.195C149.522 138.197 148.059 138.752 146.543 138.76Z" fill="#FD8160"/>
    <path d="M71.8311 59.3502C73.7771 59.3502 75.3547 57.2469 75.3547 54.6523C75.3547 52.0576 73.7771 49.9543 71.8311 49.9543C69.8852 49.9543 68.3076 52.0576 68.3076 54.6523C68.3076 57.2469 69.8852 59.3502 71.8311 59.3502Z" fill="white"/>
    <path d="M121.161 59.3502C123.107 59.3502 124.684 57.2469 124.684 54.6523C124.684 52.0576 123.107 49.9543 121.161 49.9543C119.215 49.9543 117.637 52.0576 117.637 54.6523C117.637 57.2469 119.215 59.3502 121.161 59.3502Z" fill="white"/>
    <path d="M109.808 74.9277C109.689 74.9278 109.572 74.8976 109.468 74.84C109.364 74.7825 109.276 74.6993 109.213 74.5985C109.177 74.5401 105.345 68.6205 96.4381 67.8785C92.731 67.5698 89.2129 68.602 85.9858 70.9477C84.5464 71.9812 83.2679 73.222 82.1918 74.6297C82.0847 74.7804 81.9224 74.8827 81.7402 74.9141C81.558 74.9456 81.3708 74.9037 81.2194 74.7976C81.068 74.6915 80.9647 74.5298 80.9321 74.3478C80.8995 74.1658 80.9402 73.9784 81.0453 73.8263C81.104 73.7423 82.5122 71.7516 85.1209 69.8454C88.5885 67.3114 92.5424 66.1494 96.5541 66.483C106.189 67.2859 110.233 73.5888 110.4 73.8567C110.466 73.9626 110.503 74.0843 110.506 74.2091C110.51 74.334 110.48 74.4575 110.419 74.5668C110.359 74.6761 110.27 74.7672 110.162 74.8307C110.055 74.8942 109.932 74.9277 109.807 74.9278L109.808 74.9277Z" fill="white"/>
</svg>
