<svg viewBox="0 0 212 212" fill="none" xmlns="http://www.w3.org/2000/svg">
    <path d="M53.3724 37.0584C53.3724 37.0584 85.2137 61.2209 133.62 16.0411C176.61 -24.083 211.712 39.2235 211.958 69.54C212.276 108.812 168.968 140.235 189.985 166.029C211.003 191.823 148.305 234.418 114.514 197.555C72.4788 151.699 61.091 188.957 37.1313 188.957C19.9352 188.957 -15.3703 146.229 8.47119 114.441C28.5332 87.6914 17.5918 78.8137 12.2932 69.54C4.65017 56.1652 22.8016 19.8624 53.3724 37.0584Z" fill="#FDA188" fill-opacity="0.15"/>
    <path d="M195.367 20.5875C195.367 21.182 195.341 21.7676 195.289 22.3476C194.827 27.5877 192.331 32.4385 188.336 35.8609C184.341 39.2833 179.165 41.0052 173.916 40.6578C168.667 40.3104 163.763 37.9212 160.254 34.0022C156.745 30.0831 154.91 24.9457 155.142 19.6903C155.375 14.435 157.656 9.47961 161.497 5.8856C165.338 2.29159 170.434 0.344737 175.694 0.462041C180.953 0.579344 185.957 2.75148 189.634 6.51319C193.311 10.2749 195.369 15.3271 195.367 20.5875Z" fill="#FDB09B"/>
    <path d="M177.784 22.1282C176.486 23.1381 174.671 25.1492 175.219 29.6241C174.611 31.3611 172.447 34.6791 172.447 36.2659C172.447 37.8526 169.85 38.1419 169.561 37.7079C169.273 37.2739 169.129 31.7931 167.542 30.7833C165.955 29.7735 166.243 25.1571 166.243 25.1571C166.243 25.1571 166.821 23.4259 164.945 22.2719C163.07 21.1179 161.763 18.3768 163.428 16.7899C165.089 15.203 160.617 14.1932 160.04 13.0392C159.795 12.5492 158.854 11.4523 157.856 10.3587C160.015 6.70325 163.269 3.82018 167.158 2.11847C168.633 3.65847 169.908 5.62981 169.562 7.70139C169.619 8.71121 174.002 10.2981 171.855 12.4614C169.706 14.6254 166.789 17.6554 171.855 18.6646C176.919 19.676 179.083 21.118 177.784 22.1282Z" fill="#FD9174"/>
    <path d="M189.308 6.18742C188.229 8.46382 185.523 10.2988 183.988 10.2988C182.257 8.4228 178.506 11.0202 178.154 7.99062C177.95 6.22495 179.963 3.48388 181.68 1.49896C184.542 2.47003 187.149 4.07239 189.308 6.18742Z" fill="#FD9174"/>
    <path d="M195.289 22.3476C194.86 27.329 192.586 31.9705 188.913 35.3629C188.247 34.7252 187.684 33.978 187.883 33.3807C188.316 32.0824 190.076 29.3413 189.773 27.6102C189.49 25.9945 190.982 21.1069 195.289 22.3476Z" fill="#FD9174"/>
    <path d="M162.529 122.356C161.885 126.33 160.819 130.225 159.348 133.973C149.766 158.519 124.059 173.896 97.0069 169.477C82.0718 167.032 68.7186 158.757 59.8826 146.47C51.0466 134.183 47.4509 118.891 49.8858 103.954C50.0096 103.197 50.1539 102.432 50.3046 101.689C56.4079 71.8284 85.0594 51.8754 115.408 56.8327C124.464 58.2967 133.03 61.9352 140.371 67.4362C142.784 69.2373 145.047 71.2299 147.139 73.3944C153.352 79.785 157.981 87.5429 160.653 96.0457C163.326 104.548 163.969 113.559 162.529 122.355V122.356Z" fill="#FDA188"/>
    <path d="M159.348 133.973C148.48 140.969 135.646 147.441 121.497 152.792C107.09 158.238 92.942 161.918 79.975 163.845C49.5035 168.388 25.5729 163.312 20.181 149.049C15.1314 135.728 27.5513 117.684 50.3048 101.689C50.1541 102.432 50.0098 103.197 49.886 103.954C49.4313 106.728 49.1845 109.532 49.1478 112.343C36.0382 122.465 29.2158 132.378 31.9052 139.489C34.52 146.403 45.6219 149.345 61.4153 148.511C76.8553 147.698 96.7793 143.25 117.634 135.366C135.67 128.539 151.487 120.241 163.264 111.905C179.031 100.758 187.582 89.5422 184.631 81.7176C181.596 73.6849 167.115 71.0076 147.139 73.395C145.047 71.2304 142.784 69.2379 140.371 67.4367C168.334 64.2051 189.887 69.4863 194.967 82.9197C200.409 97.2877 185.567 117.124 159.348 133.973Z" fill="#FD8160"/>
</svg>
