<svg viewBox="0 0 200 203" fill="none" xmlns="http://www.w3.org/2000/svg">
    <path d="M3.50028 171.398C11.1163 189.983 23.5343 193.851 32.2651 189.983C49.1502 182.501 93.0118 174.143 138.059 193.791C197.722 219.814 210.416 180.552 191.375 140.837C172.334 101.123 165.88 60.9603 187.831 38.8331C209.782 16.706 181.057 -17.9088 130.044 18.1228C97.0774 41.4077 72.8839 36.2229 59.892 29.6403C47.6476 23.4365 34.0304 16.9507 21.2723 22.0148C5.7918 28.1598 -0.307998 41.4825 23.2449 71.2455C56.6213 113.422 -13.572 129.74 3.50028 171.398Z" fill="#FDA188" fill-opacity="0.15"/>
    <path d="M34.5103 80.8643H153.038V172.02C153.038 172.205 152.965 172.383 152.833 172.515C152.702 172.646 152.524 172.72 152.338 172.72H35.2103C35.0246 172.72 34.8465 172.646 34.7153 172.515C34.584 172.383 34.5103 172.205 34.5103 172.02V80.8643Z" fill="#FDB09B"/>
    <path d="M123.304 45.1428H68.1905L34.5103 80.8642H153.038L123.304 45.1428Z" fill="#FD9174"/>
    <path d="M45.7368 30.8541L68.1902 45.1427L34.51 80.8642L8.99463 61.4725L45.7368 30.8541Z" fill="#FDA188"/>
    <path d="M145.757 30.8541L123.303 45.1427L153.038 80.8642L182.499 61.4725L145.757 30.8541Z" fill="#FDA188"/>
    <path d="M82.6698 31.5847C83.3034 31.2843 83.7964 30.7506 84.0457 30.0952C84.2951 29.4398 84.2814 28.7134 84.0077 28.0678L73.9068 4.24985C73.7637 3.91248 73.5539 3.60753 73.29 3.35333C73.026 3.09912 72.7134 2.90092 72.3709 2.77064C72.0284 2.64036 71.6631 2.58069 71.2969 2.59522C70.9307 2.60974 70.5713 2.69817 70.2402 2.85517L68.2942 3.77791C67.9631 3.93491 67.6671 4.15724 67.4242 4.43154C67.1812 4.70584 66.9962 5.02645 66.8803 5.37408C66.7644 5.72171 66.7199 6.08918 66.7497 6.45442C66.7794 6.81965 66.8827 7.1751 67.0534 7.49939L79.1001 30.3944C79.4267 31.015 79.9804 31.4854 80.6457 31.7072C81.3109 31.929 82.0362 31.8851 82.6698 31.5847Z" fill="#FD9174"/>
    <path d="M95.3336 29.2757C95.7922 29.243 96.2204 29.0344 96.5288 28.6934C96.8372 28.3525 97.0019 27.9055 96.9885 27.446L96.4896 10.4897C96.4825 10.2496 96.4269 10.0133 96.3262 9.79513C96.2255 9.57697 96.0817 9.38143 95.9035 9.22027C95.7252 9.0591 95.5163 8.93563 95.2891 8.85729C95.062 8.77894 94.8213 8.74734 94.5816 8.76437L93.1728 8.86475C92.9332 8.88181 92.6996 8.94713 92.4859 9.05678C92.2721 9.16644 92.0828 9.31817 91.9292 9.50285C91.7756 9.68754 91.661 9.90137 91.5921 10.1315C91.5233 10.3616 91.5016 10.6033 91.5286 10.842L93.4363 27.698C93.4879 28.155 93.7141 28.5743 94.0677 28.8683C94.4213 29.1623 94.8749 29.3083 95.3336 29.2757Z" fill="#FD9174"/>
    <path d="M105.11 35.5438C106.371 36.2731 108.142 35.6039 109.124 34.0265L126.563 6.01909C127.605 4.34595 127.358 2.30671 126.02 1.53321L124.156 0.455212C122.818 -0.318428 120.927 0.48489 119.997 2.22243L104.422 31.3077C103.545 32.9458 103.849 34.8144 105.11 35.5438Z" fill="#FD9174"/>
</svg>
