<svg viewBox="0 0 40 40" fill="none" xmlns="http://www.w3.org/2000/svg">
    <g clip-path="url(#clip0_2355_1182)">
        <path d="M0.944375 13.9131C0.331719 15.8324 -7.81112e-05 17.8772 1.37933e-08 19.9998C-7.81112e-05 22.1224 0.331797 24.1674 0.944453 26.0867L20 26.9564L39.0555 26.0869C39.6681 24.1674 40.0001 22.1224 40.0001 19.9999C40 17.8773 39.6682 15.8324 39.0555 13.913L20 13.0435L0.944375 13.9131Z" fill="#F0F0F0"/>
        <path d="M39.0547 13.9131L19.9991 13.0436L0.943516 13.9131C0.761953 14.4822 0.605625 15.0624 0.474609 15.6523H39.5234C39.3925 15.0623 39.2363 14.482 39.0547 13.9131Z" fill="#D80027"/>
        <path d="M0.474609 24.3478C0.605469 24.9376 0.761797 25.5178 0.943359 26.0868L0.945234 26.0869L19.9988 26.9564L39.0544 26.0869C39.2359 25.5179 39.3923 24.9376 39.5232 24.3478H0.474609Z" fill="#D80027"/>
        <path d="M20.0008 40C28.9239 40 36.4809 34.156 39.0563 26.0869H0.945312C3.5207 34.1559 11.0779 40 20.0008 40Z" fill="#6DA544"/>
        <path d="M20.0009 0.000122071C11.0779 0.000200196 3.52086 5.84418 0.945312 13.9132L39.0563 13.9132C36.4811 5.84411 28.924 4.39461e-05 20.0009 0.000122071Z" fill="#338AF3"/>
        <path d="M9.13992 8.26099C9.13992 6.38779 10.4564 4.82294 12.2145 4.43904C11.9443 4.37998 11.6639 4.34802 11.3759 4.34802C9.21484 4.34802 7.46289 6.0999 7.46289 8.26107C7.46289 10.4222 9.21469 12.1741 11.3759 12.1741C11.6639 12.1741 11.9442 12.1421 12.2145 12.0831C10.4565 11.699 9.13992 10.1342 9.13992 8.26099Z" fill="#F0F0F0"/>
        <path d="M14.5265 10.0396L14.7913 10.8548H15.6485L14.9551 11.3587L15.2199 12.1739L14.5265 11.6701L13.8329 12.1739L14.0978 11.3587L13.4043 10.8548H14.2615L14.5265 10.0396Z" fill="#F0F0F0"/>
        <path d="M17.2627 10.0396L17.5276 10.8548H18.3848L17.6912 11.3587L17.9562 12.1739L17.2627 11.6701L16.5691 12.1739L16.8341 11.3587L16.1406 10.8548H16.9977L17.2627 10.0396Z" fill="#F0F0F0"/>
        <path d="M19.9991 10.0396L20.264 10.8548H21.1212L20.4277 11.3587L20.6926 12.1739L19.9991 11.6701L19.3055 12.1739L19.5705 11.3587L18.877 10.8548H19.7342L19.9991 10.0396Z" fill="#F0F0F0"/>
        <path d="M22.7355 10.0396L23.0004 10.8548H23.8575L23.1641 11.3587L23.429 12.1739L22.7355 11.6701L22.0419 12.1739L22.3069 11.3587L21.6133 10.8548H22.4705L22.7355 10.0396Z" fill="#F0F0F0"/>
        <path d="M25.4716 10.0396L25.7366 10.8548H26.5938L25.9003 11.3587L26.1652 12.1739L25.4716 11.6701L24.7781 12.1739L25.043 11.3587L24.3496 10.8548H25.2067L25.4716 10.0396Z" fill="#F0F0F0"/>
        <path d="M17.2627 7.19373L17.5276 8.00888H18.3848L17.6912 8.51287L17.9562 9.32802L17.2627 8.82419L16.5691 9.32802L16.8341 8.51287L16.1406 8.00888H16.9977L17.2627 7.19373Z" fill="#F0F0F0"/>
        <path d="M19.9991 7.19373L20.264 8.00888H21.1212L20.4277 8.51287L20.6926 9.32802L19.9991 8.82419L19.3055 9.32802L19.5705 8.51287L18.877 8.00888H19.7342L19.9991 7.19373Z" fill="#F0F0F0"/>
        <path d="M22.7355 7.19373L23.0004 8.00888H23.8575L23.1641 8.51287L23.429 9.32802L22.7355 8.82419L22.0419 9.32802L22.3069 8.51287L21.6133 8.00888H22.4705L22.7355 7.19373Z" fill="#F0F0F0"/>
        <path d="M25.4716 7.19373L25.7366 8.00888H26.5938L25.9003 8.51287L26.1652 9.32802L25.4716 8.82419L24.7781 9.32802L25.043 8.51287L24.3496 8.00888H25.2067L25.4716 7.19373Z" fill="#F0F0F0"/>
        <path d="M19.9991 4.34778L20.264 5.16309H21.1212L20.4277 5.66692L20.6926 6.48223L19.9991 5.9784L19.3055 6.48223L19.5705 5.66692L18.877 5.16309H19.7342L19.9991 4.34778Z" fill="#F0F0F0"/>
        <path d="M22.7355 4.34778L23.0004 5.16309H23.8575L23.1641 5.66692L23.429 6.48223L22.7355 5.9784L22.0419 6.48223L22.3069 5.66692L21.6133 5.16309H22.4705L22.7355 4.34778Z" fill="#F0F0F0"/>
        <path d="M25.4716 4.34778L25.7366 5.16309H26.5938L25.9003 5.66692L26.1652 6.48223L25.4716 5.9784L24.7781 6.48223L25.043 5.66692L24.3496 5.16309H25.2067L25.4716 4.34778Z" fill="#F0F0F0"/>
    </g>
    <defs>
        <clipPath id="clip0_2355_1182">
            <rect width="40" height="40" fill="white"/>
        </clipPath>
    </defs>
</svg>
