<svg viewBox="0 0 40 40" fill="none" xmlns="http://www.w3.org/2000/svg">
    <g id="kazakhstan" clip-path="url(#clip0_2355_1176)">
        <path id="Vector" d="M20 40C31.0457 40 40 31.0457 40 20C40 8.9543 31.0457 0 20 0C8.9543 0 0 8.9543 0 20C0 31.0457 8.9543 40 20 40Z" fill="#338AF3"/>
        <path id="Vector_2" d="M31.3041 20.2174H8.69531C8.69531 21.7783 10.0548 23.0435 11.6155 23.0435H11.5214C11.5214 24.6044 12.7866 25.8696 14.3475 25.8696C14.3475 27.4305 15.6127 28.6957 17.1736 28.6957H22.8258C24.3866 28.6957 25.6519 27.4305 25.6519 25.8696C27.2127 25.8696 28.478 24.6044 28.478 23.0435H28.3839C29.9445 23.0435 31.3041 21.7783 31.3041 20.2174Z" fill="#FFDA44"/>
        <path id="Vector_3" d="M27.826 16.5217C27.826 20.8439 24.3221 24.3478 19.9999 24.3478C15.6777 24.3478 12.1738 20.8439 12.1738 16.5217" fill="#338AF3"/>
        <path id="Vector_4" d="M25.977 16.5217L23.5344 17.6707L24.8351 20.0363L22.1827 19.5289L21.8466 22.2083L19.9992 20.2375L18.1517 22.2083L17.8157 19.5289L15.1634 20.0361L16.464 17.6706L14.0215 16.5217L16.4641 15.3728L15.1634 13.0072L17.8156 13.5146L18.1518 10.8352L19.9992 12.8059L21.8467 10.8352L22.1827 13.5146L24.8352 13.0072L23.5345 15.3729L25.977 16.5217Z" fill="#FFDA44"/>
    </g>
    <defs>
        <clipPath id="clip0_2355_1176">
            <rect width="40" height="40" fill="white"/>
        </clipPath>
    </defs>
</svg>
