<svg width="40" height="40" viewBox="0 0 40 40" fill="none" xmlns="http://www.w3.org/2000/svg">
<g clip-path="url(#clip0_130_1617)">
<path d="M40 23.2397C40 24.0276 39.7642 24.7978 39.3226 25.4529C38.8809 26.108 38.2532 26.6185 37.5189 26.9198C36.7845 27.2211 35.9765 27.2997 35.1971 27.1456C34.4177 26.9915 33.7019 26.6117 33.1402 26.0542C32.5786 25.4967 32.1964 24.7866 32.0419 24.0137C31.8875 23.2408 31.9677 22.4398 32.2726 21.7121C32.5774 20.9844 33.0931 20.3627 33.7544 19.9257C34.4156 19.4886 35.1928 19.2559 35.9876 19.2568C37.0522 19.2581 38.0727 19.6783 38.8251 20.4251C39.5774 21.1719 40 22.1842 40 23.2397Z" fill="#455168"/>
<path d="M8.02975 23.2397C8.02975 24.0276 7.79401 24.7978 7.35237 25.4529C6.91072 26.108 6.28301 26.6185 5.54865 26.9198C4.81429 27.2211 4.00629 27.2997 3.22687 27.1456C2.44746 26.9915 1.73165 26.6117 1.17001 26.0542C0.60838 25.4967 0.226158 24.7866 0.0717083 24.0137C-0.0827415 23.2408 -0.00247911 22.4398 0.302341 21.7121C0.607161 20.9844 1.12284 20.3627 1.78413 19.9257C2.44543 19.4886 3.22262 19.2559 4.01738 19.2568C5.08198 19.2581 6.10253 19.6783 6.85486 20.4251C7.60718 21.1719 8.02975 22.1842 8.02975 23.2397Z" fill="#455168"/>
<path d="M9.04878 1.59375H7.85645V14.7047H9.04878V1.59375Z" fill="#F3F4F7"/>
<path d="M11.6263 3.19315C11.6272 3.82628 11.4386 4.44546 11.0843 4.97223C10.73 5.499 10.226 5.90966 9.6361 6.15217C9.04618 6.39469 8.39693 6.45814 7.77061 6.3345C7.14429 6.21087 6.56907 5.90569 6.11785 5.45765C5.66662 5.00961 5.35969 4.43887 5.23595 3.81773C5.1122 3.19659 5.1772 2.55302 5.42272 1.96854C5.66824 1.38406 6.08323 0.884987 6.6151 0.534547C7.14698 0.184108 7.77181 -0.00192636 8.41042 1.50413e-05C9.26377 0.00131461 10.0817 0.338307 10.6847 0.936994C11.2876 1.53568 11.6263 2.34713 11.6263 3.19315Z" fill="#F3F4F7"/>
<path d="M32.2421 1.59375H31.0498V14.7047H32.2421V1.59375Z" fill="#455168"/>
<path d="M34.82 3.19313C34.82 3.82467 34.6311 4.44203 34.2772 4.96714C33.9233 5.49225 33.4203 5.90152 32.8317 6.1432C32.2432 6.38488 31.5956 6.44812 30.9709 6.32491C30.3461 6.2017 29.7722 5.89759 29.3218 5.45102C28.8713 5.00445 28.5646 4.43549 28.4403 3.81608C28.316 3.19667 28.3798 2.55464 28.6236 1.97117C28.8674 1.3877 29.2802 0.889006 29.8098 0.53814C30.3395 0.187274 30.9622 0 31.5992 0C32.4534 0 33.2726 0.336418 33.8766 0.935247C34.4806 1.53408 34.82 2.34626 34.82 3.19313Z" fill="#455168"/>
<path d="M32.8953 8.30371H7.10924C5.40149 8.30371 4.01709 9.67623 4.01709 11.3693V36.934C4.01709 38.6271 5.40149 39.9996 7.10924 39.9996H32.8953C34.603 39.9996 35.9874 38.6271 35.9874 36.934V11.3693C35.9874 9.67623 34.603 8.30371 32.8953 8.30371Z" fill="#FA633B"/>
<g opacity="0.2">
<path d="M35.9874 11.3693C35.9874 10.9663 35.9073 10.5673 35.7516 10.195C35.5959 9.82277 35.3676 9.48461 35.08 9.19987C34.7923 8.91514 34.4509 8.68943 34.0751 8.53566C33.6994 8.38189 33.2968 8.30307 32.8903 8.30371H32.7963L4.01709 36.8359V36.9291C4.01644 37.3321 4.09594 37.7313 4.25105 38.1038C4.40615 38.4763 4.63381 38.8148 4.92101 39.1C5.20821 39.3852 5.5493 39.6114 5.92478 39.7658C6.30026 39.9202 6.70276 39.9996 7.10924 39.9996H14.1049L35.9874 18.3098V11.3693Z" fill="white"/>
<path d="M4.01709 13.1645V32.1566L28.0765 8.30371H8.91505L4.01709 13.1645Z" fill="white"/>
</g>
<path d="M15.6093 17.251H9.14296C8.71397 17.251 8.36621 17.5958 8.36621 18.0211V24.4318C8.36621 24.8572 8.71397 25.2019 9.14296 25.2019H15.6093C16.0382 25.2019 16.386 24.8572 16.386 24.4318V18.0211C16.386 17.5958 16.0382 17.251 15.6093 17.251Z" fill="#455168"/>
<path d="M30.8622 17.251H24.391C23.962 17.251 23.6143 17.5958 23.6143 18.0211V24.4318C23.6143 24.8572 23.962 25.2019 24.391 25.2019H30.8622C31.2912 25.2019 31.639 24.8572 31.639 24.4318V18.0211C31.639 17.5958 31.2912 17.251 30.8622 17.251Z" fill="#F3F4F7"/>
<path d="M30.2286 31.4162C30.2286 31.7727 30.0858 32.1145 29.8316 32.3665C29.5774 32.6186 29.2326 32.7602 28.873 32.7602H11.1266C10.7671 32.7602 10.4223 32.6186 10.168 32.3665C9.91382 32.1145 9.771 31.7727 9.771 31.4162C9.771 31.0598 9.91382 30.7179 10.168 30.4659C10.4223 30.2139 10.7671 30.0723 11.1266 30.0723H28.873C29.2326 30.0723 29.5774 30.2139 29.8316 30.4659C30.0858 30.7179 30.2286 31.0598 30.2286 31.4162Z" fill="#455168"/>
</g>
<defs>
<clipPath id="clip0_130_1617">
<rect width="40" height="40" fill="white"/>
</clipPath>
</defs>
</svg>
