<svg width="16" height="16" viewBox="0 0 16 16" fill="none" xmlns="http://www.w3.org/2000/svg">
<g id="calendar">
<g id="Group">
<g id="Group_2">
<path id="Vector" d="M9.8999 2.5498H5.8999" stroke="#97A3BA" stroke-miterlimit="10" stroke-linecap="round" stroke-linejoin="round"/>
<path id="Vector_2" d="M3.95 2.5498H2.65C1.9 2.5498 1.25 3.1998 1.25 3.9498V13.5998C1.25 14.3498 1.9 14.9998 2.65 14.9998H13.35C14.1 14.9998 14.75 14.3498 14.75 13.5998V3.9498C14.75 3.1998 14.1 2.5498 13.35 2.5498H12.05" stroke="#97A3BA" stroke-miterlimit="10" stroke-linecap="round" stroke-linejoin="round"/>
<g id="Group_3">
<path id="Vector_3" d="M4.9501 1C4.4501 1 4.1001 1.4 4.1001 1.85V3.8C4.1001 4.3 4.5001 4.65 4.9501 4.65C5.4501 4.65 5.8001 4.25 5.8001 3.8V1.85C5.8001 1.4 5.4501 1 4.9501 1Z" stroke="#97A3BA" stroke-miterlimit="10" stroke-linecap="round" stroke-linejoin="round"/>
<path id="Vector_4" d="M11.0502 1C10.5502 1 10.2002 1.4 10.2002 1.85V3.8C10.2002 4.3 10.6002 4.65 11.0502 4.65C11.5502 4.65 11.9002 4.25 11.9002 3.8V1.85C11.9002 1.4 11.5502 1 11.0502 1Z" stroke="#97A3BA" stroke-miterlimit="10" stroke-linecap="round" stroke-linejoin="round"/>
</g>
</g>
<path id="Vector_5" d="M1.4502 6.8501H14.2502" stroke="#97A3BA" stroke-miterlimit="10" stroke-linecap="round" stroke-linejoin="round"/>
</g>
</g>
</svg>
