<svg width="26" height="28" viewBox="0 0 26 28" fill="none" xmlns="http://www.w3.org/2000/svg">
    <g id="vuesax/linear/twitch">
        <g id="twitch">
            <path id="Subtract" fill-rule="evenodd" clip-rule="evenodd" d="M20.6668 0.666504H5C2.42276 0.666504 0.333496 2.75577 0.333496 5.33301V5.5V20.3332C0.333496 21.99 1.67664 23.3332 3.3335 23.3332H5.19844C5.49523 23.3332 5.77668 23.465 5.96668 23.693L8.70015 26.9733C8.89015 27.2013 9.1716 27.3332 9.46839 27.3332L11.3335 27.3332C11.8858 27.3332 12.3335 26.8855 12.3335 26.3332V24.3332C12.3335 23.7809 12.7812 23.3332 13.3335 23.3332H19.0002C22.6821 23.3332 25.6668 20.3484 25.6668 16.6665V5.6665C25.6668 2.90508 23.4282 0.666504 20.6668 0.666504ZM7.5 14C6.67157 14 6 13.3284 6 12.5C6 11.6716 6.67157 11 7.5 11C8.32843 11 9 11.6716 9 12.5C9 13.3284 8.32843 14 7.5 14ZM12 12.5C12 13.3284 12.6716 14 13.5 14C14.3284 14 15 13.3284 15 12.5C15 11.6716 14.3284 11 13.5 11C12.6716 11 12 11.6716 12 12.5ZM19.5 14C18.6716 14 18 13.3284 18 12.5C18 11.6716 18.6716 11 19.5 11C20.3284 11 21 11.6716 21 12.5C21 13.3284 20.3284 14 19.5 14Z" fill="#97A3BA"/>
        </g>
    </g>
</svg>
