<svg viewBox="0 0 24 24" fill="none" xmlns="http://www.w3.org/2000/svg">
    <path fill-rule="evenodd" clip-rule="evenodd" d="M16.2033 4.57538L16.2934 4.62738C17.0715 5.07659 17.7204 5.45118 18.1955 5.81783C18.697 6.20482 19.095 6.64901 19.2617 7.2712C19.4284 7.89338 19.3058 8.47708 19.065 9.06297C18.8369 9.61804 18.4623 10.2669 18.013 11.045L14.1886 17.6691C14.1713 17.699 14.1543 17.7285 14.1375 17.7577C13.8405 18.273 13.6057 18.6804 13.2484 18.9875C12.891 19.2945 12.4529 19.4653 11.8988 19.6812C11.8674 19.6935 11.8356 19.7059 11.8035 19.7184L11.749 19.7397C10.7208 20.1414 9.87324 20.4726 9.17918 20.6348C8.45329 20.8044 7.75243 20.8255 7.09916 20.4483C6.44588 20.0711 6.11373 19.4536 5.89766 18.7402C5.69106 18.058 5.55408 17.1585 5.38789 16.0671L5.37909 16.0093C5.37389 15.9752 5.36873 15.9415 5.36363 15.9082C5.2736 15.3203 5.20242 14.8555 5.28965 14.3925C5.37689 13.9295 5.61235 13.5224 5.91013 13.0076C5.927 12.9785 5.94407 12.949 5.96131 12.9191L9.78575 6.29497C10.235 5.51685 10.6096 4.86799 10.9762 4.39288C11.3632 3.8914 11.8074 3.49337 12.4296 3.32665C13.0518 3.15994 13.6355 3.28255 14.2213 3.52335C14.7764 3.75148 15.4252 4.12611 16.2033 4.57538ZM13.6511 4.91074C13.2205 4.73374 12.9958 4.72784 12.8178 4.77554C12.6398 4.82324 12.4482 4.94067 12.1637 5.30929C11.9507 5.58527 11.7237 5.95036 11.4354 6.44139L17.0614 9.68958C17.3424 9.19431 17.5451 8.81519 17.6776 8.49275C17.8546 8.06209 17.8605 7.83744 17.8128 7.65943C17.7651 7.48141 17.6477 7.2898 17.2791 7.00534C16.8932 6.70758 16.3332 6.38242 15.4984 5.90042C14.6635 5.41841 14.1019 5.09601 13.6511 4.91074ZM16.313 10.9895L10.6838 7.73952L7.26035 13.6691C6.88739 14.3151 6.79767 14.49 6.76372 14.6702C6.72976 14.8504 6.74968 15.046 6.86199 15.7834C7.03923 16.9472 7.16166 17.7388 7.33326 18.3054C7.49902 18.8527 7.66996 19.0458 7.84916 19.1493C8.02835 19.2527 8.28104 19.3042 8.83792 19.1741C9.41439 19.0394 10.1612 18.7496 11.2576 18.3213C11.9524 18.0498 12.1317 17.9693 12.2708 17.8498C12.4099 17.7302 12.5166 17.5651 12.8895 16.9191L16.313 10.9895Z" fill="white"/>
</svg>
