<svg width="23" height="25" viewBox="0 0 23 25" fill="none" xmlns="http://www.w3.org/2000/svg">
<g id="Group 58776">
<g id="Group 58785">
<g id="Group 58775">
<path id="Home" fill-rule="evenodd" clip-rule="evenodd" d="M8.05873 22.6665V18.9634C8.05871 18.0215 8.82851 17.2562 9.78228 17.2499H13.2759C14.2343 17.2499 15.0111 18.017 15.0111 18.9634V22.678C15.0109 23.4777 15.6573 24.1313 16.4668 24.15H18.7959C21.1178 24.15 23 22.2913 23 19.9984V9.46419C22.9876 8.56217 22.5587 7.71514 21.8354 7.16414L13.8699 0.827501C12.4744 -0.275834 10.4907 -0.275834 9.09519 0.827501L1.16456 7.17564C0.438524 7.7244 0.00894178 8.57285 0 9.47569V19.9984C0 22.2913 1.88222 24.15 4.20405 24.15H6.53316C7.36285 24.15 8.03544 23.4858 8.03544 22.6665" fill="#FA633B"/>
</g>
</g>
</g>
</svg>
