<svg width="28" height="27" viewBox="0 0 28 27" fill="none" xmlns="http://www.w3.org/2000/svg">
<g id="vuesax/linear/user-square">
<g id="user-square">
<path id="Subtract" fill-rule="evenodd" clip-rule="evenodd" d="M9.99984 0.666504H17.9998C24.6665 0.666504 27.3332 3.33317 27.3332 9.99984V17.9998C27.3332 23.0398 25.8132 25.7998 22.1865 26.8265C21.8932 23.3598 18.3332 20.6265 13.9998 20.6265C9.6665 20.6265 6.1065 23.3598 5.81317 26.8265C2.1865 25.7998 0.666504 23.0398 0.666504 17.9998V9.99984C0.666504 3.33317 3.33317 0.666504 9.99984 0.666504ZM9.2265 12.1065C9.2265 14.7465 11.3598 16.8931 13.9998 16.8931C16.0443 16.8931 17.7849 15.6057 18.4662 13.7988C18.6647 13.2724 18.7732 12.7019 18.7732 12.1064C18.7732 9.46636 16.6399 7.33301 13.9999 7.33301C11.9606 7.33301 10.2236 8.60601 9.53872 10.4022C9.33696 10.9313 9.2265 11.5058 9.2265 12.1065Z" fill="#97A3BA"/>
</g>
</g>
</svg>
