<svg width="24" height="26" viewBox="0 0 24 26" fill="none" xmlns="http://www.w3.org/2000/svg">
<g id="vuesax/linear/document-text">
<g id="document-text">
<path id="Subtract" fill-rule="evenodd" clip-rule="evenodd" d="M23.4 19.5V11C23.4 9.34315 22.0569 8 20.4 8H18C16.3431 8 15 6.65685 15 5V4C15 1.79086 13.2091 0 11 0H6.5C1.95 0 0 2.6 0 6.5V19.5C0 23.4 1.95 26 6.5 26H16.9C21.45 26 23.4 23.4 23.4 19.5ZM3 16C3 15.4477 3.44772 15 4 15H12C12.5523 15 13 15.4477 13 16C13 16.5523 12.5523 17 12 17H4C3.44772 17 3 16.5523 3 16ZM4 19C3.44772 19 3 19.4477 3 20C3 20.5523 3.44772 21 4 21H19C19.5523 21 20 20.5523 20 20C20 19.4477 19.5523 19 19 19H4Z" fill="#97A3BA"/>
</g>
</g>
</svg>
