<svg width="24" height="24" viewBox="0 0 24 24" fill="none" xmlns="http://www.w3.org/2000/svg">
<g id="vuesax/linear/setting-2">
<g id="setting-2">
<path id="Vector" d="M9 12C9 13.6569 10.3431 15 12 15C13.6569 15 15 13.6569 15 12C15 10.3431 13.6569 9 12 9C10.3431 9 9 10.3431 9 12Z" stroke="#97A3BA" stroke-miterlimit="10" stroke-linecap="round" stroke-linejoin="round"/>
<path id="Vector_2" d="M11.1206 2L12.8806 2C13.9206 2 14.7806 2.85 14.7806 3.9C14.7806 5.71 16.0606 6.45 17.6306 5.54C18.5306 5.02 19.7006 5.33 20.2206 6.24L21.2106 7.97C21.6806 8.76 21.4006 9.78 20.6106 10.25L20.4206 10.36C18.8506 11.26 18.8506 12.74 20.4206 13.65L20.6106 13.76C21.4006 14.23 21.6806 15.25 21.2106 16.04L20.2206 17.77C19.7006 18.68 18.5306 18.99 17.6306 18.47C16.0606 17.56 14.7806 18.3 14.7806 20.11C14.7806 21.15 13.9306 22.01 12.8806 22.01L11.1206 22.01C10.0806 22.01 9.22055 21.16 9.22055 20.11C9.22055 18.3 7.94055 17.56 6.37055 18.47C5.46055 18.99 4.30055 18.68 3.78055 17.77L2.79055 16.04C2.32055 15.25 2.60055 14.23 3.39055 13.76L3.58055 13.65C5.15055 12.75 5.15055 11.27 3.58055 10.36L3.39055 10.25C2.60055 9.78 2.32055 8.76 2.79055 7.97L3.78055 6.24C4.30055 5.33 5.47055 5.02 6.37055 5.54C7.94055 6.45 9.22055 5.71 9.22055 3.9C9.22055 2.85 10.0806 2 11.1206 2Z" stroke="#97A3BA" stroke-miterlimit="10" stroke-linecap="round" stroke-linejoin="round"/>
</g>
</g>
</svg>
