<svg viewBox="0 0 13 13" fill="none" xmlns="http://www.w3.org/2000/svg">
    <path fill-rule="evenodd" clip-rule="evenodd" d="M3.21134 4.34886C2.32634 4.34886 1.60252 5.07268 1.60252 5.95769V7.60165C1.89257 7.48607 2.20829 7.4222 2.53789 7.4222C3.94051 7.4222 5.07673 8.55842 5.07673 9.96104C5.07673 10.3974 4.96622 10.8067 4.77313 11.1637H9.34734C10.2323 11.1637 10.9562 10.4398 10.9562 9.55482V9.31964H10.3415C9.58811 9.31964 8.85684 8.76874 8.7877 7.95492C8.74455 7.49408 8.92001 7.06357 9.22403 6.76474C9.49749 6.48584 9.87239 6.32649 10.2774 6.32649H10.9562V5.95769C10.9562 5.07268 10.2323 4.34886 9.34734 4.34886H3.21134ZM0.800781 5.95769C0.800781 4.6299 1.88355 3.54712 3.21134 3.54712H9.34734C10.6751 3.54712 11.7579 4.6299 11.7579 5.95769V6.72736C11.7579 6.94876 11.5784 7.12823 11.357 7.12823H10.2774C10.0854 7.12823 9.91666 7.20264 9.79489 7.3277L9.7877 7.3349C9.6455 7.47372 9.56606 7.67136 9.58605 7.88127L9.5865 7.88598L9.58647 7.88598C9.61476 8.22538 9.9411 8.5179 10.3415 8.5179H11.357C11.5784 8.5179 11.7579 8.69738 11.7579 8.91877V9.55482C11.7579 10.8826 10.6751 11.9654 9.34734 11.9654H3.94895C3.78213 11.9654 3.63275 11.8621 3.57387 11.706C3.515 11.5499 3.55894 11.3737 3.6842 11.2635C4.04577 10.9455 4.27499 10.4814 4.27499 9.96104C4.27499 9.00121 3.49772 8.22394 2.53789 8.22394C2.13085 8.22394 1.75302 8.36657 1.45152 8.60689C1.33112 8.70287 1.16639 8.7214 1.02768 8.65458C0.888966 8.58776 0.800781 8.44739 0.800781 8.29343V5.95769Z" fill="#2962FF"/>
    <path fill-rule="evenodd" clip-rule="evenodd" d="M6.56942 1.34097C6.56909 1.34109 6.56876 1.34121 6.56842 1.34133L2.32698 2.9439C1.89043 3.10917 1.60252 3.52597 1.60252 3.99609V5.95767C1.60252 6.17907 1.42305 6.35855 1.20165 6.35855C0.980257 6.35855 0.800781 6.17907 0.800781 5.95767V3.99609C0.800781 3.19418 1.29333 2.4778 2.04325 2.19404L6.28957 0.589642C7.21071 0.247929 8.20352 0.923035 8.20352 1.91691V3.94797C8.20352 4.16937 8.02405 4.34884 7.80265 4.34884C7.58126 4.34884 7.40178 4.16937 7.40178 3.94797V1.91691C7.40178 1.48937 6.97353 1.1918 6.56942 1.34097Z" fill="#2962FF"/>
    <path fill-rule="evenodd" clip-rule="evenodd" d="M10.2774 7.12834C10.0855 7.12834 9.91668 7.20275 9.79492 7.32781L9.78773 7.335C9.64553 7.47382 9.56609 7.67147 9.58608 7.88137L9.58653 7.88609L9.5865 7.88609C9.61478 8.22548 9.94113 8.51801 10.3415 8.51801H11.3799C11.4663 8.51244 11.5227 8.44487 11.5227 8.37372V7.27263C11.5227 7.20148 11.4663 7.13391 11.3799 7.12834H10.2774ZM9.22405 6.76486C9.49751 6.48595 9.87242 6.3266 10.2774 6.3266H11.3891C11.3939 6.3266 11.3987 6.32668 11.4034 6.32685C11.9128 6.34505 12.3245 6.75723 12.3245 7.27263V8.37372C12.3245 8.88912 11.9128 9.3013 11.4034 9.31949C11.3987 9.31967 11.3939 9.31975 11.3891 9.31975H10.3415C9.58814 9.31975 8.85687 8.76885 8.78773 7.95503C8.74457 7.49419 8.92003 7.06368 9.22405 6.76486Z" fill="#2962FF"/>
    <path fill-rule="evenodd" clip-rule="evenodd" d="M3.20703 6.2196C3.20703 5.9982 3.38651 5.81873 3.6079 5.81873H7.34936C7.57075 5.81873 7.75023 5.9982 7.75023 6.2196C7.75023 6.44099 7.57075 6.62047 7.34936 6.62047H3.6079C3.38651 6.62047 3.20703 6.44099 3.20703 6.2196Z" fill="#2962FF"/>
    <path fill-rule="evenodd" clip-rule="evenodd" d="M2.53884 8.22392C2.13181 8.22392 1.75398 8.36655 1.45248 8.60688L1.45178 8.60743L1.45178 8.60743C1.05349 8.92347 0.80174 9.41292 0.80174 9.96102C0.80174 10.9209 1.57901 11.6981 2.53884 11.6981C2.97535 11.6981 3.37458 11.5345 3.68571 11.263C4.04696 10.945 4.27595 10.4811 4.27595 9.96102C4.27595 9.00119 3.49868 8.22392 2.53884 8.22392ZM0.953091 7.97966C1.38914 7.63221 1.94119 7.42218 2.53884 7.42218C3.94147 7.42218 5.07769 8.5584 5.07769 9.96102C5.07769 10.7235 4.74034 11.4032 4.21465 11.8655L4.21358 11.8665L4.21358 11.8665C3.76581 12.2575 3.18177 12.4999 2.53884 12.4999C1.13622 12.4999 0 11.3637 0 9.96102C0 9.16236 0.368118 8.44399 0.953091 7.97966Z" fill="#2962FF"/>
    <path fill-rule="evenodd" clip-rule="evenodd" d="M2.67061 8.89197C2.892 8.89197 3.07148 9.07144 3.07148 9.29284V10.0946C3.07148 10.2354 2.9976 10.3659 2.87686 10.4383L2.20874 10.8392C2.0189 10.9531 1.77266 10.8915 1.65875 10.7017C1.54484 10.5119 1.6064 10.2656 1.79625 10.1517L2.26974 9.86761V9.29284C2.26974 9.07144 2.44922 8.89197 2.67061 8.89197Z" fill="#2962FF"/>
</svg>
