<svg viewBox="0 0 12 13" fill="none" xmlns="http://www.w3.org/2000/svg">
    <path fill-rule="evenodd" clip-rule="evenodd" d="M2.53333 8.23323C1.57558 8.23323 0.8 9.00881 0.8 9.96656C0.8 10.2916 0.890943 10.5977 1.0498 10.8553L1.05316 10.8607L1.05311 10.8607C1.35168 11.3627 1.90087 11.6999 2.53333 11.6999C3.1658 11.6999 3.71499 11.3627 4.01355 10.8607L4.01682 10.8552L4.01686 10.8553C4.17572 10.5977 4.26667 10.2916 4.26667 9.96656C4.26667 9.00881 3.49109 8.23323 2.53333 8.23323ZM0 9.96656C0 8.56698 1.13375 7.43323 2.53333 7.43323C3.93291 7.43323 5.06667 8.56698 5.06667 9.96656C5.06667 10.4404 4.93423 10.8907 4.69947 11.2725C4.26166 12.0063 3.45704 12.4999 2.53333 12.4999C1.60962 12.4999 0.804995 12.0063 0.36719 11.2725C0.132429 10.8907 0 10.4404 0 9.96656Z" fill="#97A3BA"/>
    <path fill-rule="evenodd" clip-rule="evenodd" d="M3.65844 9.17205C3.80844 9.33423 3.79856 9.5873 3.63638 9.7373L2.50038 10.788C2.34265 10.9338 2.09786 10.9291 1.94594 10.7771L1.41794 10.2491C1.26173 10.0929 1.26173 9.83967 1.41794 9.68346C1.57415 9.52725 1.82741 9.52725 1.98362 9.68345L2.2396 9.93943L3.09319 9.14998C3.25537 8.99998 3.50844 9.00986 3.65844 9.17205Z" fill="#97A3BA"/>
    <path fill-rule="evenodd" clip-rule="evenodd" d="M5.49472 1.72705L4.05965 3.16654H8.83981C8.76913 2.98758 8.6596 2.81992 8.51026 2.67292L8.5064 2.66912L7.57448 1.72652C6.99992 1.15749 6.06906 1.15767 5.49472 1.72705ZM3.19602 2.89971L4.93039 1.16C5.81703 0.279835 7.2527 0.279839 8.13934 1.16L8.14199 1.16263L9.0735 2.10479C9.48618 2.51201 9.70834 3.03319 9.7344 3.57394C9.74022 3.69475 9.69107 3.81171 9.60069 3.89209C9.51031 3.97247 9.38841 4.00764 9.26911 3.98775C9.17317 3.97176 9.06529 3.96654 8.93487 3.96654H3.60153C3.47127 3.96654 3.34765 3.97584 3.23036 3.99388C3.08254 4.01662 2.93439 3.95501 2.8463 3.83416C2.7582 3.71331 2.74488 3.55341 2.81176 3.41965C2.90993 3.22331 3.0454 3.05037 3.19602 2.89971C3.1961 2.89964 3.19595 2.89978 3.19602 2.89971Z" fill="#97A3BA"/>
    <path fill-rule="evenodd" clip-rule="evenodd" d="M3.60182 3.96656C3.47155 3.96656 3.34794 3.97587 3.23064 3.99391L3.21963 3.99545C2.62905 4.06956 2.1648 4.32241 1.84691 4.69537C1.52821 5.06929 1.33516 5.58943 1.33516 6.23323V7.73616C1.69132 7.5435 2.09971 7.43323 2.53516 7.43323C3.93474 7.43323 5.06849 8.56698 5.06849 9.96656C5.06849 10.3973 4.95907 10.8085 4.76282 11.1666H8.93515C9.64426 11.1666 10.2041 10.9319 10.5856 10.5504C10.9672 10.1688 11.2018 9.609 11.2018 8.8999V6.23323C11.2018 5.58507 11.0054 5.06169 10.6817 4.68656C10.3587 4.31228 9.88723 4.06011 9.28895 3.99055C9.28241 3.98979 9.27589 3.98887 9.2694 3.98778C9.17346 3.97179 9.06558 3.96656 8.93515 3.96656H3.60182ZM3.11453 3.20237C3.27282 3.17832 3.43536 3.16656 3.60182 3.16656H8.93515C9.07899 3.16656 9.23422 3.17177 9.39088 3.19702C10.1645 3.28909 10.8229 3.62571 11.2873 4.1639C11.7529 4.70343 12.0018 5.42006 12.0018 6.23323V8.8999C12.0018 9.7908 11.7031 10.5643 11.1513 11.1161C10.5996 11.6679 9.82605 11.9666 8.93515 11.9666H3.93782C3.76965 11.9666 3.61943 11.8614 3.56193 11.7033C3.50443 11.5453 3.55192 11.3682 3.68078 11.2601C3.81035 11.1514 3.92457 11.0164 4.01364 10.8637L4.01869 10.8553C4.17755 10.5977 4.26849 10.2916 4.26849 9.96656C4.26849 9.00881 3.49291 8.23323 2.53516 8.23323C2.01595 8.23323 1.55283 8.46195 1.23551 8.82273C1.12558 8.94772 0.949733 8.99156 0.793988 8.93282C0.638242 8.87407 0.535156 8.72501 0.535156 8.55856V6.23323C0.535156 5.42637 0.779438 4.71451 1.23806 4.17643C1.69642 3.63867 2.34749 3.29985 3.11453 3.20237Z" fill="#97A3BA"/>
    <path fill-rule="evenodd" clip-rule="evenodd" d="M8.53516 7.56652C8.53516 6.75894 9.19424 6.09985 10.0018 6.09985H11.6018C11.8227 6.09985 12.0018 6.27894 12.0018 6.49985C12.0018 6.72077 11.8227 6.89985 11.6018 6.89985H10.0018C9.63607 6.89985 9.33516 7.20077 9.33516 7.56652C9.33516 7.93227 9.63607 8.23319 10.0018 8.23319H11.6018C11.8227 8.23319 12.0018 8.41227 12.0018 8.63319C12.0018 8.8541 11.8227 9.03319 11.6018 9.03319H10.0018C9.19424 9.03319 8.53516 8.3741 8.53516 7.56652Z" fill="#97A3BA"/>
</svg>
