<svg width="32" height="32" viewBox="0 0 32 32" fill="none" xmlns="http://www.w3.org/2000/svg">
<path fill-rule="evenodd" clip-rule="evenodd" d="M15.8965 31.1836C24.4569 31.1836 31.3965 24.244 31.3965 15.6836C31.3965 7.12319 24.4569 0.183594 15.8965 0.183594C7.33608 0.183594 0.396484 7.12319 0.396484 15.6836C0.396484 24.244 7.33608 31.1836 15.8965 31.1836ZM22.7094 10.0864C22.8289 8.72853 21.395 9.28761 21.395 9.28761C20.3363 9.72589 19.2445 10.1713 18.1408 10.6214C14.7187 12.0173 11.1833 13.4594 8.17163 14.8787C6.53861 15.4778 7.49452 16.0768 7.49452 16.0768L10.0835 16.8755C11.2783 17.235 11.9156 16.8356 11.9156 16.8356L17.4917 13.0416C19.4832 11.6838 19.0053 12.8021 18.5273 13.2813L14.3452 17.2749C13.7079 17.834 14.0266 18.3133 14.3054 18.5529C15.0955 19.2501 17.0393 20.5256 17.888 21.0825C18.1088 21.2274 18.2554 21.3237 18.2883 21.3484C18.4875 21.5082 19.5629 22.227 20.2798 22.0673C20.9968 21.9075 21.0764 20.989 21.0764 20.989L22.0323 14.719C22.1757 13.6305 22.3401 12.5842 22.4715 11.7486C22.5956 10.9593 22.6901 10.3579 22.7094 10.0864Z" fill="white"/>
</svg>
