<svg viewBox="0 0 13 13" fill="none" xmlns="http://www.w3.org/2000/svg">
    <path fill-rule="evenodd" clip-rule="evenodd" d="M3.20702 4.35043C2.32217 4.35043 1.59848 5.07413 1.59848 5.95898V7.60265C1.88847 7.4871 2.20414 7.42323 2.53368 7.42323C3.93606 7.42323 5.07208 8.55926 5.07208 9.96164C5.07208 10.3932 4.96244 10.8053 4.7658 11.164H9.34194C10.2268 11.164 10.9505 10.4403 10.9505 9.55549V9.32035H10.3359C9.58267 9.32035 8.85154 8.76954 8.78241 7.95587C8.73926 7.4951 8.9147 7.06466 9.21867 6.7659C9.49207 6.48704 9.86691 6.32772 10.2718 6.32772H10.9505V5.95898C10.9505 5.07413 10.2268 4.35043 9.34194 4.35043H3.20702ZM0.796875 5.95898C0.796875 4.63142 1.87945 3.54883 3.20702 3.54883H9.34194C10.6695 3.54883 11.7521 4.63142 11.7521 5.95898V6.72852C11.7521 6.94988 11.5726 7.12932 11.3513 7.12932H10.2718C10.0799 7.12932 9.91117 7.20372 9.78943 7.32875L9.78224 7.33595C9.64006 7.47475 9.56063 7.67236 9.58062 7.88222L9.58107 7.88694L9.58104 7.88694C9.60932 8.22627 9.93561 8.51875 10.3359 8.51875H11.3513C11.5726 8.51875 11.7521 8.69819 11.7521 8.91955V9.55549C11.7521 10.8831 10.6695 11.9656 9.34194 11.9656H3.93915C3.77064 11.9656 3.62012 11.8602 3.56251 11.7019C3.50489 11.5435 3.55248 11.366 3.68159 11.2578C3.81142 11.1489 3.92587 11.0136 4.01512 10.8606L4.02018 10.8521C4.17936 10.594 4.27048 10.2873 4.27048 9.96164C4.27048 9.00197 3.49335 8.22484 2.53368 8.22484C2.12671 8.22484 1.74895 8.36744 1.4475 8.60773C1.32712 8.70368 1.16242 8.72221 1.02373 8.6554C0.885045 8.58859 0.796875 8.44825 0.796875 8.29431V5.95898Z" fill="#97A3BA"/>
    <path fill-rule="evenodd" clip-rule="evenodd" d="M7.39672 1.91888C7.39672 1.48734 6.96544 1.19108 6.56617 1.34241L2.32281 2.9457C1.88633 3.11094 1.59848 3.52767 1.59848 3.99771V6.43989C1.59848 6.66124 1.41903 6.84069 1.19768 6.84069C0.97632 6.84069 0.796875 6.66124 0.796875 6.43989V3.99771C0.796875 3.19593 1.28935 2.47967 2.03913 2.19597L6.28206 0.592848C6.28198 0.592878 6.28214 0.592819 6.28206 0.592848C7.20804 0.242051 8.19833 0.928997 8.19833 1.91888V3.9496C8.19833 4.17095 8.01888 4.3504 7.79752 4.3504C7.57617 4.3504 7.39672 4.17095 7.39672 3.9496V1.91888Z" fill="#97A3BA"/>
    <path fill-rule="evenodd" clip-rule="evenodd" d="M10.2771 7.12936C10.0852 7.12936 9.91649 7.20376 9.79475 7.32879L9.78756 7.33599C9.64538 7.47479 9.56595 7.6724 9.58594 7.88226L9.58639 7.88698L9.58636 7.88698C9.61464 8.22631 9.94093 8.51879 10.3413 8.51879H11.3795C11.4659 8.51322 11.5223 8.44567 11.5223 8.37452V7.27363C11.5223 7.20248 11.4659 7.13493 11.3795 7.12936H10.2771ZM9.22398 6.76594C9.49739 6.48709 9.87223 6.32776 10.2771 6.32776H11.3887C11.3934 6.32776 11.3982 6.32784 11.403 6.32801C11.9123 6.3462 12.3239 6.75832 12.3239 7.27363V8.37452C12.3239 8.88983 11.9123 9.30195 11.403 9.32014C11.3982 9.32031 11.3934 9.32039 11.3887 9.32039H10.3413C9.58799 9.32039 8.85686 8.76958 8.78773 7.95591C8.74458 7.49515 8.92002 7.06471 9.22398 6.76594Z" fill="#97A3BA"/>
    <path fill-rule="evenodd" clip-rule="evenodd" d="M3.20312 6.22087C3.20312 5.99951 3.38257 5.82007 3.60393 5.82007H7.34473C7.56609 5.82007 7.74553 5.99951 7.74553 6.22087C7.74553 6.44223 7.56609 6.62167 7.34473 6.62167H3.60393C3.38257 6.62167 3.20312 6.44223 3.20312 6.22087Z" fill="#97A3BA"/>
    <path fill-rule="evenodd" clip-rule="evenodd" d="M2.5384 8.22482C2.13144 8.22482 1.75367 8.36743 1.45223 8.60771L1.45153 8.60826L1.45153 8.60826C1.05331 8.92424 0.801601 9.41362 0.801601 9.96162C0.801601 10.2873 0.892726 10.594 1.0519 10.8521L1.05527 10.8576L1.05522 10.8576C1.35438 11.3605 1.90467 11.6984 2.5384 11.6984C2.97805 11.6984 3.37446 11.5381 3.67576 11.2669C3.67922 11.2638 3.68275 11.2607 3.68632 11.2577C3.81615 11.1488 3.9306 11.0135 4.01985 10.8605L4.0249 10.8521C4.18408 10.594 4.27521 10.2873 4.27521 9.96162C4.27521 9.00195 3.49807 8.22482 2.5384 8.22482ZM0.952926 7.9806C1.3889 7.63321 1.94085 7.42322 2.5384 7.42322C3.94079 7.42322 5.07681 8.55924 5.07681 9.96162C5.07681 10.4358 4.94445 10.8864 4.70977 11.2687C4.57614 11.4967 4.40481 11.7003 4.20682 11.8674C3.76061 12.2667 3.17578 12.5 2.5384 12.5C1.61284 12.5 0.806606 12.0055 0.367925 11.2701C0.132694 10.8876 0 10.4364 0 9.96162C0 9.1631 0.368054 8.44485 0.952926 7.9806Z" fill="#97A3BA"/>
    <path fill-rule="evenodd" clip-rule="evenodd" d="M1.69485 9.10696C1.851 8.95006 2.10477 8.94946 2.26166 9.10561L3.39459 10.2332C3.55148 10.3893 3.55208 10.6431 3.39593 10.8C3.23978 10.9569 2.98601 10.9575 2.82912 10.8013L1.69619 9.67377C1.5393 9.51762 1.5387 9.26385 1.69485 9.10696Z" fill="#97A3BA"/>
    <path fill-rule="evenodd" clip-rule="evenodd" d="M3.38421 9.12295C3.54037 9.27984 3.53977 9.53361 3.38287 9.68976L2.24994 10.8173C2.09305 10.9735 1.83928 10.9729 1.68313 10.816C1.52698 10.6591 1.52758 10.4053 1.68447 10.2492L2.8174 9.1216C2.97429 8.96545 3.22806 8.96605 3.38421 9.12295Z" fill="#97A3BA"/>
</svg>
