<svg width="16" height="16" viewBox="0 0 16 16" fill="none" xmlns="http://www.w3.org/2000/svg">
<g id="vuesax/linear/user-tag">
<g id="user-tag">
<path id="Vector" d="M12 12.5732H11.4933C10.96 12.5732 10.4533 12.7798 10.08 13.1532L8.93998 14.2798C8.41998 14.7932 7.57334 14.7932 7.05334 14.2798L5.91333 13.1532C5.54 12.7798 5.02667 12.5732 4.5 12.5732H4C2.89333 12.5732 2 11.6865 2 10.5932V3.31982C2 2.22649 2.89333 1.33984 4 1.33984H12C13.1067 1.33984 14 2.22649 14 3.31982V10.5932C14 11.6798 13.1067 12.5732 12 12.5732Z" stroke="white" stroke-miterlimit="10" stroke-linecap="round" stroke-linejoin="round"/>
<g id="Group">
<path id="Vector_2" d="M7.99988 6.6672C8.85776 6.6672 9.55322 5.97173 9.55322 5.11385C9.55322 4.25597 8.85776 3.56055 7.99988 3.56055C7.142 3.56055 6.44653 4.25597 6.44653 5.11385C6.44653 5.97173 7.142 6.6672 7.99988 6.6672Z" stroke="white" stroke-linecap="round" stroke-linejoin="round"/>
<path id="Vector_3" d="M10.6666 10.4409C10.6666 9.24088 9.47325 8.26758 7.99992 8.26758C6.52659 8.26758 5.33325 9.24088 5.33325 10.4409" stroke="white" stroke-linecap="round" stroke-linejoin="round"/>
</g>
</g>
</g>
</svg>
