<svg viewBox="0 0 32 32" fill="none" xmlns="http://www.w3.org/2000/svg">
    <path d="M7.0897 25.9178C7.9008 24.0069 9.79453 22.6666 12.0013 22.6666H20.0013C22.2081 22.6666 24.1018 24.0069 24.9129 25.9178M21.3346 12.6666C21.3346 15.6121 18.9468 18 16.0013 18C13.0558 18 10.668 15.6121 10.668 12.6666C10.668 9.72111 13.0558 7.33329 16.0013 7.33329C18.9468 7.33329 21.3346 9.72111 21.3346 12.6666ZM29.3346 16C29.3346 23.3638 23.3651 29.3333 16.0013 29.3333C8.63751 29.3333 2.66797 23.3638 2.66797 16C2.66797 8.63616 8.63751 2.66663 16.0013 2.66663C23.3651 2.66663 29.3346 8.63616 29.3346 16Z" stroke="#667799" stroke-width="2" stroke-linecap="round" stroke-linejoin="round"/>
</svg>
