<svg viewBox="0 0 14 14" fill="none" xmlns="http://www.w3.org/2000/svg">
    <path d="M1.91003 4.77539H1.27335C0.570099 4.77539 0 5.34549 0 6.04874V12.0972C0 12.8004 0.570099 13.3705 1.27335 13.3705H1.91003C2.61328 13.3705 3.18338 12.8004 3.18338 12.0972V6.04874C3.18338 5.34549 2.61328 4.77539 1.91003 4.77539Z" fill="white"/>
    <path d="M10.458 13.3702H5.09318C4.75546 13.3702 4.43158 13.236 4.19278 12.9972C3.95398 12.7584 3.81982 12.4346 3.81982 12.0968V5.6412C3.81982 5.28322 3.92042 4.93245 4.11015 4.62888L6.53499 0.749126C6.67827 0.519885 6.8775 0.330851 7.11394 0.199803C7.35038 0.0687551 7.61628 -1.33109e-06 7.88661 0C8.14415 4.38162e-06 8.39785 0.0624155 8.626 0.181891C8.85415 0.301366 9.04995 0.474347 9.19664 0.686027C9.34333 0.897706 9.43654 1.14178 9.4683 1.39735C9.50005 1.65293 9.46941 1.91239 9.37898 2.15353L8.27656 5.09341H11.8857C12.0693 5.09341 12.2507 5.13311 12.4176 5.20979C12.5844 5.28646 12.7326 5.3983 12.8522 5.53764C12.9717 5.67698 13.0597 5.84052 13.1101 6.01705C13.1605 6.19358 13.1722 6.37893 13.1443 6.56038L12.3458 11.7506C12.2764 12.2015 12.0479 12.6127 11.7016 12.9098C11.3554 13.2069 10.9142 13.3702 10.458 13.3702Z" fill="white"/>
</svg>
