<svg viewBox="0 0 14 14" fill="none" xmlns="http://www.w3.org/2000/svg">
    <path d="M2.06921 8.59521H1.43253C0.729279 8.59521 0.15918 8.02512 0.15918 7.32186V1.27344C0.15918 0.570185 0.729279 8.58307e-05 1.43253 8.58307e-05H2.06921C2.77246 8.58307e-05 3.34256 0.570185 3.34256 1.27344V7.32186C3.34256 8.02512 2.77246 8.59521 2.06921 8.59521Z" fill="white"/>
    <path d="M10.5996 0.000403404H5.23478C4.89706 0.000403404 4.57318 0.13456 4.33438 0.37336C4.09558 0.61216 3.96143 0.936042 3.96143 1.27376V7.72941C3.96142 8.08738 4.06202 8.43816 4.25175 8.74172L6.6766 12.6215C6.81987 12.8507 7.0191 13.0398 7.25554 13.1708C7.49199 13.3019 7.75788 13.3706 8.02821 13.3706C8.28575 13.3706 8.53945 13.3082 8.7676 13.1887C8.99575 13.0692 9.19155 12.8963 9.33824 12.6846C9.48493 12.4729 9.57815 12.2288 9.6099 11.9733C9.64166 11.7177 9.61101 11.4582 9.52058 11.2171L8.41816 8.27719H12.0273C12.2109 8.2772 12.3923 8.2375 12.5592 8.16082C12.726 8.08414 12.8742 7.9723 12.9938 7.83296C13.1133 7.69363 13.2013 7.53009 13.2517 7.35355C13.3021 7.17702 13.3138 6.99168 13.2859 6.81022L12.4874 1.62C12.418 1.16907 12.1895 0.75786 11.8432 0.460789C11.497 0.163717 11.0558 0.000403404 10.5996 0.000403404Z" fill="white"/>
</svg>
