<svg width="32" height="32" viewBox="0 0 32 32" fill="none" xmlns="http://www.w3.org/2000/svg">
<path fill-rule="evenodd" clip-rule="evenodd" d="M15.8965 31.0469C24.4569 31.0469 31.3965 24.1073 31.3965 15.5469C31.3965 6.98647 24.4569 0.046875 15.8965 0.046875C7.33608 0.046875 0.396484 6.98647 0.396484 15.5469C0.396484 24.1073 7.33608 31.0469 15.8965 31.0469ZM21.4453 10.1608C22.6352 10.2683 23.3056 10.9962 23.4525 12.1567C23.5553 12.9663 23.6465 14.126 23.6465 15.3728C23.6465 17.5627 23.4525 18.8288 23.4525 18.8288C23.27 19.9845 22.7113 20.6121 21.5364 20.7449C20.2236 20.8933 17.2712 20.9616 15.9593 20.9616C14.6015 20.9616 11.8555 20.9047 10.4847 20.7905C9.30641 20.6924 8.5024 20.0342 8.34042 18.8629C8.22262 18.01 8.14648 16.9962 8.14648 15.3842C8.14648 13.5898 8.21121 12.8304 8.36321 12.0198C8.58017 10.8629 9.13222 10.3025 10.3933 10.1722C11.7166 10.0352 12.9671 9.96688 15.7654 9.96688C17.1334 9.96688 20.0828 10.0377 21.4453 10.1608ZM14.2484 13.1869V17.6427L18.4911 15.392L14.2484 13.1869Z" fill="white"/>
</svg>
