<svg viewBox="0 0 190 243" fill="none" xmlns="http://www.w3.org/2000/svg">
    <path d="M181.157 101.097C181.157 101.097 152.229 125.481 183.03 179.955C210.384 228.333 145.016 247.421 117.287 241.207C81.3658 233.157 62.0236 186.333 33.9408 200.336C5.85787 214.339 -19.4999 147.166 21.4439 123.674C72.3768 94.4508 40.8199 75.9774 45.9897 53.7663C49.6997 37.8253 96.3249 14.1755 120.201 43.0315C140.293 67.3132 150.758 59.0566 160.367 56.1146C174.227 51.8712 203.452 76.4117 181.157 101.097Z" fill="#FDA188" fill-opacity="0.15"/>
    <path d="M166.346 15.4482L83.1233 1.81102C77.0194 0.810822 71.2605 4.94815 70.2603 11.052L41.4747 186.719C40.4745 192.823 44.6118 198.582 50.7157 199.582L133.938 213.219C140.042 214.22 145.801 210.082 146.801 203.978L175.587 28.3112C176.587 22.2073 172.45 16.4484 166.346 15.4482Z" fill="#FDA188"/>
    <path d="M163.61 20.3991L84.1375 7.37642C80.0683 6.70962 76.229 9.46783 75.5622 13.5371L47.2926 186.056C46.6258 190.125 49.384 193.965 53.4532 194.631L132.926 207.654C136.995 208.321 140.834 205.563 141.501 201.493L169.771 28.9744C170.437 24.9052 167.679 21.0659 163.61 20.3991Z" fill="#FDB09B"/>
    <path d="M97.5978 99.8329C99.1784 99.1775 100.84 98.7365 102.537 98.5216L104.187 94.0741L111.959 95.1094L112.386 99.8245C113.968 100.479 115.455 101.341 116.809 102.388L121.113 100.412L125.88 106.639L122.85 110.279C123.506 111.86 123.949 113.522 124.169 115.219L128.61 116.86L127.574 124.632L122.858 125.067C122.206 126.65 121.344 128.138 120.295 129.49L122.271 133.794L116.051 138.562L112.412 135.525C110.832 136.196 109.168 136.652 107.466 136.88L105.818 141.321L98.0504 140.256L97.6244 135.533C96.0424 134.881 94.5544 134.022 93.1998 132.977L88.8885 134.952L84.1295 128.726L87.1592 125.086C86.5014 123.505 86.0579 121.844 85.8406 120.145L81.3948 118.534L82.4227 110.761L87.1452 110.335C87.798 108.754 88.6576 107.266 89.7015 105.911L87.7254 101.607L93.9799 96.8065L97.62 99.8363L97.5978 99.8329ZM100.173 110.782C98.8497 111.793 97.8562 113.173 97.3179 114.749C96.7796 116.325 96.7207 118.025 97.1485 119.634C97.5764 121.243 98.4719 122.689 99.7218 123.789C100.972 124.889 102.52 125.594 104.17 125.814C105.82 126.034 107.499 125.76 108.994 125.026C110.488 124.292 111.731 123.131 112.566 121.691C113.401 120.25 113.79 118.594 113.683 116.932C113.577 115.271 112.98 113.678 111.968 112.356C110.612 110.583 108.608 109.422 106.396 109.127C104.184 108.832 101.946 109.427 100.173 110.782Z" fill="white"/>
    <path d="M137.531 84.057C138.285 84.039 139.038 84.1245 139.769 84.311L141.174 82.7399L144.225 84.4442L143.632 86.4639C144.181 86.9929 144.657 87.5929 145.048 88.2478L147.151 88.1326L148.103 91.4852L146.258 92.4969C146.269 93.2506 146.181 94.0026 145.997 94.7335L147.568 96.1388L145.865 99.1823L143.845 98.5894C143.318 99.1404 142.717 99.6166 142.061 100.005L142.176 102.108L138.823 103.067L137.812 101.215C137.058 101.226 136.306 101.138 135.575 100.954L134.17 102.525L131.125 100.829L131.719 98.802C131.17 98.2756 130.694 97.6781 130.303 97.0256L128.199 97.1408L127.242 93.7796L129.094 92.7691C129.082 92.0153 129.17 91.2632 129.355 90.5324L127.764 89.109L129.461 86.057L131.488 86.6509C132.016 86.1037 132.613 85.6276 133.264 85.2345L133.149 83.1308L136.509 82.1807L137.52 84.0325L137.531 84.057ZM136.785 89.005C136.071 89.2074 135.432 89.6172 134.951 90.1827C134.47 90.7481 134.167 91.4437 134.082 92.1813C133.996 92.9189 134.131 93.6653 134.47 94.326C134.809 94.9867 135.336 95.5319 135.985 95.8926C136.634 96.2533 137.376 96.4133 138.116 96.3523C138.856 96.2912 139.561 96.0119 140.142 95.5497C140.724 95.0875 141.155 94.4632 141.381 93.7559C141.607 93.0486 141.618 92.2902 141.412 91.5766C141.137 90.6287 140.499 89.8276 139.637 89.3469C138.775 88.8661 137.759 88.7445 136.807 89.0083L136.785 89.005Z" fill="white"/>
    <path d="M78.7194 84.749C79.2524 84.3553 79.839 84.0401 80.4614 83.8129L80.6824 81.995L83.6947 81.6905L84.2754 83.4244C84.929 83.5301 85.5659 83.7205 86.1702 83.9908L87.607 82.8646L89.9581 84.782L89.1423 86.4191C89.5271 86.9576 89.8416 87.543 90.0784 88.1611L91.8888 88.381L92.1922 91.4007L90.4583 91.9814C90.353 92.6325 90.1629 93.267 89.893 93.8688L91.0181 95.313L89.1018 97.6567L87.4647 96.8409C86.9294 97.2308 86.3433 97.5457 85.7227 97.7769L85.5018 99.5948L82.4894 99.8993L81.9143 98.1283C81.2599 98.0242 80.6227 97.8312 80.0206 97.5545L78.5753 98.687L76.2316 96.7707L77.0474 95.1336C76.6626 94.5951 76.3481 94.0097 76.1114 93.3916L74.2946 93.1632L73.9901 90.1509L75.7259 89.6084C75.827 88.9564 76.0172 88.3213 76.2911 87.721L75.166 86.2768L77.0823 83.9331L78.7194 84.749ZM80.6606 88.6302C80.2542 89.1275 80.0043 89.7341 79.9425 90.3733C79.8806 91.0125 80.0097 91.6558 80.3133 92.2217C80.6169 92.7876 81.0815 93.2508 81.6483 93.5528C82.2151 93.8548 82.8587 93.982 83.4978 93.9184C84.1368 93.8547 84.7427 93.603 85.2388 93.1952C85.7348 92.7873 86.0989 92.2415 86.2849 91.6268C86.4709 91.0122 86.4706 90.3561 86.2838 89.7416C86.0971 89.1271 85.7325 88.5818 85.2359 88.1745C84.5733 87.6268 83.7209 87.3635 82.8648 87.4419C82.0087 87.5204 81.2184 87.9342 80.6662 88.5931L80.6606 88.6302Z" fill="white"/>
</svg>
