<svg viewBox="0 0 231 207" fill="none" xmlns="http://www.w3.org/2000/svg">
    <g id="&#208;&#158;&#208;&#177;&#209;&#128;&#208;&#176;&#208;&#177;&#208;&#190;&#209;&#130;&#208;&#186;&#208;&#176; &#208;&#190;&#209;&#136;&#208;&#184;&#208;&#177;&#208;&#190;&#208;&#186;" clip-path="url(#clip0_4880_26)">
        <g id="&#208;&#167;&#208;&#176;&#209;&#130; &#208;&#189;&#208;&#181; &#208;&#189;&#208;&#176;&#208;&#185;&#208;&#180;&#208;&#181;&#208;&#189;">
            <g id="Frame 5">
                <g id="Wallet 02">
                    <g id="Group">
                        <path id="Vector" d="M104.016 16.2007C104.016 16.2007 95.3098 61.0515 45.2483 62.8235C-4.81317 64.5955 -18.5123 136.804 32.3081 150.216C83.1285 163.628 58.0925 198.34 91.5431 205.37C129.562 213.36 130.034 157.114 156.471 156.209C214.82 154.214 245.014 127.491 223.913 105.817C186.872 67.7698 167.789 73.9028 169.084 43.4977C170.38 13.0927 115.567 -20.4393 104.016 16.2007Z" fill="#FDA188" fill-opacity="0.15"/>
                        <g id="Group_2">
                            <path id="Vector_2" d="M161.425 48.5008L42.5875 73.0265C38.8013 73.8079 36.3654 77.5107 37.1468 81.2969L52.4532 155.463C53.2346 159.249 56.9374 161.685 60.7236 160.904L179.561 136.378C183.347 135.597 185.783 131.894 185.002 128.108L169.695 53.9415C168.914 50.1553 165.211 47.7194 161.425 48.5008Z" fill="#FD9174"/>
                            <path id="Vector_3" d="M157.937 57.4055L144.25 60.2301C141.978 60.699 140.517 62.9206 140.986 65.1924L143.81 78.879C144.279 81.1507 146.501 82.6122 148.773 82.1434L162.459 79.3188C164.731 78.8499 166.192 76.6283 165.724 74.3565L162.899 60.6699C162.43 58.3982 160.208 56.9366 157.937 57.4055Z" fill="white"/>
                            <path id="Vector_4" d="M103.156 115.178L56.9754 124.709C56.8239 124.74 56.7265 124.889 56.7578 125.04L58.1549 131.81C58.1862 131.961 58.3343 132.059 58.4857 132.027L104.666 122.497C104.818 122.465 104.915 122.317 104.884 122.166L103.487 115.396C103.455 115.245 103.307 115.147 103.156 115.178Z" fill="white"/>
                            <path id="Vector_5" d="M125.828 125.232L59.8914 138.84C59.74 138.871 59.6425 139.019 59.6738 139.171L61.0709 145.94C61.1022 146.092 61.2503 146.189 61.4018 146.158L127.338 132.55C127.49 132.519 127.587 132.371 127.556 132.219L126.159 125.449C126.128 125.298 125.98 125.2 125.828 125.232Z" fill="white"/>
                            <path id="Vector_6" d="M183.291 155.613C194.303 155.613 203.231 146.685 203.231 135.673C203.231 124.66 194.303 115.733 183.291 115.733C172.278 115.733 163.351 124.66 163.351 135.673C163.351 146.685 172.278 155.613 183.291 155.613Z" fill="#FD9174" stroke="white" stroke-width="15" stroke-miterlimit="10"/>
                            <path id="Vector_7" d="M190.972 134.003H185.294C185.25 134.003 185.207 133.994 185.166 133.977C185.126 133.961 185.089 133.936 185.058 133.905C185.027 133.874 185.002 133.837 184.985 133.797C184.969 133.756 184.96 133.713 184.96 133.669V127.991C184.96 127.548 184.784 127.123 184.471 126.81C184.158 126.497 183.733 126.321 183.29 126.321C182.847 126.321 182.422 126.497 182.109 126.81C181.796 127.123 181.62 127.548 181.62 127.991V133.669C181.62 133.713 181.612 133.756 181.595 133.797C181.578 133.837 181.553 133.874 181.522 133.905C181.491 133.936 181.454 133.961 181.414 133.977C181.373 133.994 181.33 134.003 181.286 134.003H175.609C175.169 134.007 174.748 134.185 174.438 134.497C174.128 134.81 173.954 135.232 173.954 135.673C173.954 136.113 174.128 136.536 174.438 136.848C174.748 137.161 175.169 137.339 175.609 137.343H181.287C181.375 137.343 181.46 137.378 181.523 137.441C181.586 137.503 181.621 137.588 181.621 137.677V143.355C181.621 143.798 181.797 144.222 182.11 144.535C182.423 144.849 182.848 145.025 183.291 145.025C183.734 145.025 184.158 144.849 184.471 144.535C184.785 144.222 184.961 143.798 184.961 143.355V137.677C184.961 137.588 184.996 137.503 185.058 137.441C185.121 137.378 185.206 137.343 185.295 137.343H190.972C191.413 137.339 191.834 137.161 192.143 136.848C192.453 136.536 192.627 136.113 192.627 135.673C192.627 135.232 192.453 134.81 192.143 134.497C191.834 134.185 191.413 134.007 190.972 134.003Z" fill="white"/>
                        </g>
                    </g>
                </g>
            </g>
        </g>
    </g>
        <defs>
            <clipPath id="clip0_4880_26">
                <rect width="8832" height="2187" fill="white" transform="translate(-6369 -439)"/>
            </clipPath>
    </defs>
</svg>
