<svg width="137" height="125" viewBox="0 0 137 125" fill="none" xmlns="http://www.w3.org/2000/svg">
<circle cx="25.675" cy="98.8963" r="25.675" fill="#2962FF" fill-opacity="0.2"/>
<path d="M103.237 57.3481L103.233 57.3435C102.664 56.6085 101.876 56.0732 100.983 55.8148C100.091 55.5566 99.1407 55.588 98.2678 55.9043C91.8534 58.1367 84.8526 58.0045 78.527 55.5315C72.2004 53.0582 66.9656 48.4059 63.7663 42.4136C60.5671 36.4213 59.6138 29.4831 61.0785 22.85C62.5431 16.2169 66.3293 10.3253 71.7544 6.23735C77.1796 2.14939 83.8866 0.134063 90.6665 0.554717C97.4463 0.975371 103.853 3.80433 108.731 8.53155C113.609 13.2588 116.638 19.5732 117.272 26.3365C117.905 33.0998 116.101 39.8669 112.186 45.4178L112.184 45.42C111.658 46.1756 111.384 47.079 111.403 47.9999C111.423 48.9206 111.734 49.8113 112.291 50.544C112.291 50.5443 112.292 50.5446 112.292 50.5448L135.386 81.131C135.386 81.1316 135.387 81.1321 135.387 81.1327C136.271 82.3256 136.651 83.8179 136.445 85.2883C136.239 86.759 135.464 88.0899 134.286 88.9943C133.092 89.9044 131.586 90.3034 130.099 90.1035C128.611 89.9036 127.264 89.1214 126.353 87.9287C126.353 87.9285 126.353 87.9282 126.352 87.928L103.237 57.3481L103.237 57.3481ZM76.7485 40.283L76.7496 40.2842C79.3498 43.0757 82.8291 44.8907 86.6063 45.4259C90.3835 45.9612 94.2299 45.1844 97.5034 43.2252L97.5048 43.2243C100.44 41.4544 102.755 38.8194 104.132 35.6811C105.51 32.5428 105.882 29.055 105.198 25.6967C104.514 22.3384 102.807 19.2742 100.312 16.9247C97.8163 14.5753 94.6549 13.0558 91.2616 12.575C87.8682 12.0941 84.4092 12.6754 81.3594 14.239C78.3096 15.8027 75.8186 18.272 74.2284 21.3081C72.6381 24.3441 72.0267 27.7979 72.4779 31.1953C72.9291 34.5928 74.4209 37.7673 76.7485 40.283Z" fill="url(#paint0_linear_1244_36247)" stroke="#FFA99C"/>
<path opacity="0.9" d="M69.1034 19.9695H35.8685C32.9068 19.9682 29.974 20.5505 27.2374 21.683C24.5008 22.8155 22.0142 24.4761 19.9196 26.5698C17.8249 28.6636 16.1633 31.1495 15.0297 33.8856C13.896 36.6217 13.3125 39.5543 13.3125 42.5159V75.7984C13.3125 78.76 13.896 81.6926 15.0297 84.4287C16.1633 87.1648 17.8249 89.6507 19.9196 91.7445C22.0142 93.8382 24.5008 95.4988 27.2374 96.6313C29.974 97.7638 32.9068 98.3461 35.8685 98.3448H69.1034C75.083 98.3448 80.8178 95.9694 85.0461 91.7411C89.2744 87.5128 91.6498 81.7781 91.6498 75.7984V42.5159C91.6498 36.5363 89.2744 30.8015 85.0461 26.5732C80.8178 22.3449 75.083 19.9695 69.1034 19.9695Z" fill="#EAECF1"/>
<path opacity="0.5" d="M71.262 43.2576H33.7005C32.7656 43.2576 32.0078 44.0154 32.0078 44.9502V47.28C32.0078 48.2148 32.7656 48.9726 33.7005 48.9726H71.262C72.1969 48.9726 72.9547 48.2148 72.9547 47.28V44.9502C72.9547 44.0154 72.1969 43.2576 71.262 43.2576Z" fill="white"/>
<path opacity="0.5" d="M71.262 56.2758H33.7005C32.7656 56.2758 32.0078 57.0336 32.0078 57.9684V60.2982C32.0078 61.233 32.7656 61.9908 33.7005 61.9908H71.262C72.1969 61.9908 72.9547 61.233 72.9547 60.2982V57.9684C72.9547 57.0336 72.1969 56.2758 71.262 56.2758Z" fill="white"/>
<path opacity="0.5" d="M71.262 69.2844H33.7005C32.7656 69.2844 32.0078 70.0423 32.0078 70.9771V73.3068C32.0078 74.2417 32.7656 74.9995 33.7005 74.9995H71.262C72.1969 74.9995 72.9547 74.2417 72.9547 73.3068V70.9771C72.9547 70.0423 72.1969 69.2844 71.262 69.2844Z" fill="white"/>
<path d="M35.6084 97.9454C32.0043 97.9479 28.4523 97.0856 25.2505 95.4309C22.0487 93.7762 19.2907 91.3775 17.208 88.4362C15.545 89.8065 14.2396 91.56 13.4037 93.5461C12.5679 95.5322 12.2266 97.6915 12.4092 99.8385C12.5919 101.986 13.2929 104.056 14.4522 105.873C15.6115 107.689 17.1943 109.197 19.0648 110.267C20.9353 111.336 23.0375 111.936 25.1909 112.014C27.3443 112.093 29.4845 111.647 31.4277 110.716C33.3709 109.785 35.059 108.396 36.347 106.668C37.6351 104.941 38.4846 102.926 38.8225 100.798C38.9748 99.8554 39.0258 98.899 38.9747 97.9454H35.6084Z" fill="#2962FF"/>
<defs>
<linearGradient id="paint0_linear_1244_36247" x1="67.5481" y1="2.40059" x2="124.096" y2="72.719" gradientUnits="userSpaceOnUse">
<stop offset="0.192708" stop-color="#F05E37"/>
<stop offset="1" stop-color="#F56139"/>
</linearGradient>
</defs>
</svg>
