<svg width="89" height="56" viewBox="0 0 89 56" fill="none" xmlns="http://www.w3.org/2000/svg">
<g id="&#208;&#160;&#208;&#181;&#209;&#129;&#209;&#131;&#209;&#128;&#209;&#129; 1 1" clip-path="url(#clip0_1170_7009)">
<g id="&#208;&#161;&#208;&#187;&#208;&#190;&#208;&#185; 2">
<g id="Layer 1">
<path id="Vector" d="M0 31.569H3.2906V41.6762H5.61077V31.569H8.90137V29.6874H0V31.569Z" fill="#212631"/>
<path id="Vector_2" d="M10.7119 41.6762H17.9492V39.7707H13.0116V36.4368H17.7202V34.5756H13.0116V31.5963H17.9492V29.6874H10.7119V41.6762Z" fill="#212631"/>
<path id="Vector_3" d="M25.969 36.4743C25.7604 36.2244 25.4763 36.0486 25.1592 35.9732C25.5247 35.9171 25.8802 35.8092 26.2151 35.6527C26.5267 35.5057 26.8082 35.3023 27.0454 35.0528C27.2834 34.796 27.468 34.4948 27.5887 34.1665C27.7212 33.7887 27.786 33.3906 27.7801 32.9905C27.796 32.458 27.6908 31.9289 27.4725 31.4429C27.2731 31.0321 26.9706 30.6798 26.5944 30.4202C26.1806 30.1443 25.716 29.9531 25.2275 29.8578C24.6336 29.7395 24.029 29.6823 23.4234 29.6873H19.9004V41.6761H22.1625V36.7129H22.593C22.9545 36.7001 23.3108 36.8022 23.6105 37.0043C23.9101 37.2065 24.1378 37.4983 24.2605 37.8378L25.969 41.6897H28.6275L26.7071 37.6742C26.52 37.241 26.2715 36.8369 25.969 36.4743ZM24.7731 34.504C24.5531 34.6626 24.3049 34.7782 24.0418 34.8448C23.7309 34.9202 23.4118 34.9568 23.0919 34.9539H22.1625V31.569H23.1568C23.743 31.5294 24.3279 31.6634 24.838 31.9542C25.0311 32.1004 25.1838 32.2931 25.2818 32.5143C25.3798 32.7355 25.42 32.978 25.3984 33.2188C25.404 33.4772 25.3477 33.7331 25.2344 33.9654C25.1237 34.1825 24.9619 34.3697 24.7628 34.5108L24.7731 34.504Z" fill="#212631"/>
<path id="Vector_4" d="M36.3133 36.4743C36.1046 36.2244 35.8205 36.0486 35.5034 35.9732C35.8689 35.9171 36.2245 35.8092 36.5593 35.6527C36.8709 35.5057 37.1525 35.3023 37.3896 35.0528C37.6276 34.796 37.8123 34.4948 37.933 34.1665C38.0654 33.7887 38.1302 33.3906 38.1243 32.9905C38.1402 32.458 38.0351 31.9289 37.8168 31.4429C37.6174 31.0321 37.3148 30.6798 36.9386 30.4202C36.5248 30.1443 36.0602 29.9531 35.5718 29.8578C34.9778 29.7395 34.3733 29.6823 33.7676 29.6873H30.2549V41.6761H32.517V36.7129H32.9509C33.3114 36.6984 33.6672 36.7981 33.9673 36.9978C34.2675 37.1974 34.4966 37.4867 34.6218 37.8242L36.3304 41.6761H38.9888L37.065 37.6605C36.8738 37.2306 36.6206 36.8309 36.3133 36.4743ZM35.1173 34.504C34.8982 34.6619 34.6513 34.7775 34.3895 34.8448C34.0774 34.9199 33.7572 34.9566 33.4361 34.9539H32.517V31.569H33.5113C34.0986 31.5291 34.6846 31.6631 35.1959 31.9542C35.389 32.1004 35.5417 32.2931 35.6397 32.5143C35.7378 32.7355 35.7779 32.978 35.7563 33.2188C35.7619 33.4772 35.7056 33.7331 35.5923 33.9654C35.4806 34.1829 35.3176 34.3701 35.1173 34.5108V34.504Z" fill="#212631"/>
<path id="Vector_5" d="M43.0166 29.6874L39.4561 41.6762H41.7045L42.3879 39.3105H46.5737L47.2366 41.6762H49.7379L46.1808 29.6874H43.0166ZM42.9243 37.4663L44.5064 31.8895L46.068 37.4663H42.9243Z" fill="#212631"/>
<path id="Vector_6" d="M53.4491 29.6874H51.1494V41.6762H58.5268V39.74H53.4491V29.6874Z" fill="#212631"/>
<path id="Vector_7" d="M60.4336 31.5315H63.0852V39.815H60.4336V41.6762H68.0297V39.815H65.3815V31.5315H68.0297V29.6874H60.4336V31.5315Z" fill="#212631"/>
<path id="Vector_8" d="M76.2506 33.0007V38.2912L75.6697 36.8902L72.3894 29.6874H69.6113V41.6762H71.6718V37.9538V32.9803L72.3347 34.5211L75.5501 41.6762H78.3111V29.6874H76.2506V33.0007Z" fill="#212631"/>
<path id="Vector_9" d="M84.7043 35.4006L88.7877 29.6874H86.0575L82.4593 35.1449V29.6874H80.1631V41.6762H82.4593V35.8778L86.0745 41.6762H88.9995L84.7043 35.4006Z" fill="#212631"/>
<path id="Vector_10" d="M15.7666 56H15.77H71.7307V46.0497L15.7666 49.738V56Z" fill="#FA633B"/>
<path id="Vector_11" d="M71.7268 13.0864L36.5314 18.5405L71.0127 8.92768C70.1117 6.32464 68.4203 4.06623 66.1735 2.46628C63.9267 0.866327 61.2361 0.00430471 58.4756 0L15.7627 0V12.9739L30.7532 11.3957L15.7661 14.8863V26.3399L71.7303 19.9927V13.1955C71.7303 13.158 71.7268 13.1239 71.7268 13.0864Z" fill="#FA633B"/>
</g>
</g>
</g>
<defs>
<clipPath id="clip0_1170_7009">
<rect width="89" height="56" fill="white"/>
</clipPath>
</defs>
</svg>
