<svg width="137" height="96" viewBox="0 0 137 96" fill="none" xmlns="http://www.w3.org/2000/svg">
<rect x="26.5" y="10.5" width="110" height="79" rx="15.5" fill="url(#paint0_linear_1156_9760)" stroke="#FFA99C"/>
<path opacity="0.5" d="M125.252 32H103.162C101.974 32 101.012 32.9626 101.012 34.15V37.64C101.012 38.8274 101.974 39.79 103.162 39.79H125.252C126.439 39.79 127.402 38.8274 127.402 37.64V34.15C127.402 32.9626 126.439 32 125.252 32Z" fill="white"/>
<path opacity="0.65" d="M125.09 46.47H78.31C77.0342 46.47 76 47.5042 76 48.78V51.95C76 53.2257 77.0342 54.26 78.31 54.26H125.09C126.366 54.26 127.4 53.2257 127.4 51.95V48.78C127.4 47.5042 126.366 46.47 125.09 46.47Z" fill="white"/>
<path opacity="0.5" d="M125.251 60.9399H89.3414C88.154 60.9399 87.1914 61.9025 87.1914 63.0899V66.5799C87.1914 67.7674 88.154 68.7299 89.3414 68.7299H125.251C126.439 68.7299 127.401 67.7674 127.401 66.5799V63.0899C127.401 61.9025 126.439 60.9399 125.251 60.9399Z" fill="white"/>
<path opacity="0.9" d="M37.77 0C41.5278 0 45.2013 1.11433 48.3258 3.20208C51.4504 5.28982 53.8856 8.25722 55.3237 11.729C56.7618 15.2008 57.138 19.0211 56.4049 22.7067C55.6718 26.3924 53.8622 29.7778 51.205 32.435C48.5478 35.0922 45.1624 36.9018 41.4767 37.6349C37.7911 38.368 33.9708 37.9918 30.499 36.5537C27.0272 35.1156 24.0598 32.6804 21.9721 29.5558C19.8843 26.4313 18.77 22.7578 18.77 19C18.77 13.9609 20.7718 9.12816 24.335 5.56497C27.8982 2.00178 32.7309 0 37.77 0ZM37.77 95.23C16.91 95.23 0 94 0 76.47C0 58.94 16.91 44.72 37.77 44.72C58.63 44.72 75.54 58.93 75.54 76.47C75.54 94.01 58.63 95.23 37.77 95.23Z" fill="#EAECF1"/>
<defs>
<linearGradient id="paint0_linear_1156_9760" x1="26" y1="44" x2="137" y2="44" gradientUnits="userSpaceOnUse">
<stop stop-color="#FA633B"/>
<stop offset="0.432292" stop-color="#D5512D"/>
<stop offset="1" stop-color="#FA633B"/>
</linearGradient>
</defs>
</svg>
