<svg viewBox="0 0 292 209" fill="none" xmlns="http://www.w3.org/2000/svg">
    <path d="M238.341 0H59.6172C51.3917 0 44.7236 6.6681 44.7236 14.8936V193.617C44.7236 201.843 51.3917 208.511 59.6172 208.511H238.341C246.566 208.511 253.234 201.843 253.234 193.617V14.8936C253.234 6.6681 246.566 0 238.341 0Z" fill="#FDA188" fill-opacity="0.15"/>
    <g filter="url(#filter0_d_5361_5832)">
        <path d="M214.511 14.8936H13.4468C9.33405 14.8936 6 18.2277 6 22.3404V59.5745C6 63.6872 9.33405 67.0213 13.4468 67.0213H214.511C218.623 67.0213 221.957 63.6872 221.957 59.5745V22.3404C221.957 18.2277 218.623 14.8936 214.511 14.8936Z" fill="white"/>
    </g>
    <path d="M108.766 26.8085H70.0428C67.5751 26.8085 65.5747 28.809 65.5747 31.2766C65.5747 33.7443 67.5751 35.7447 70.0428 35.7447H108.766C111.234 35.7447 113.234 33.7443 113.234 31.2766C113.234 28.809 111.234 26.8085 108.766 26.8085Z" fill="#FAEDEA"/>
    <path d="M135.575 46.1702H70.0428C67.5751 46.1702 65.5747 48.1707 65.5747 50.6383C65.5747 53.106 67.5751 55.1064 70.0428 55.1064H135.575C138.042 55.1064 140.043 53.106 140.043 50.6383C140.043 48.1707 138.042 46.1702 135.575 46.1702Z" fill="#FDA188"/>
    <path d="M46.2129 19.3617H17.9151C13.8023 19.3617 10.4683 22.6957 10.4683 26.8085V55.1064C10.4683 59.2191 13.8023 62.5532 17.9151 62.5532H46.2129C50.3257 62.5532 53.6598 59.2191 53.6598 55.1064V26.8085C53.6598 22.6957 50.3257 19.3617 46.2129 19.3617Z" fill="#FD9174"/>
    <path d="M28.6712 45.8426H31.6499L31.6827 44.6958C31.6827 43.1885 32.6329 42.7953 33.9763 42.3694C35.3239 41.986 36.5101 41.1744 37.3554 40.0571C38.2008 38.9398 38.6594 37.5777 38.6619 36.1766C38.6914 35.3212 38.543 34.469 38.2261 33.6739C37.9092 32.8788 37.4307 32.1581 36.8208 31.5576C36.211 30.957 35.4831 30.4895 34.6833 30.1848C33.8835 29.8801 33.0291 29.7447 32.1742 29.7873C31.2708 29.7676 30.3728 29.9316 29.5346 30.2694C28.6965 30.6072 27.9357 31.1117 27.2984 31.7523C26.6611 32.3929 26.1606 33.1564 25.8272 33.9963C25.4938 34.8361 25.3345 35.735 25.3589 36.6383H28.4389C28.4272 36.1396 28.5152 35.6435 28.6977 35.1792C28.8802 34.7148 29.1535 34.2916 29.5017 33.9343C29.8498 33.577 30.2658 33.2928 30.7252 33.0983C31.1847 32.9038 31.6783 32.803 32.1772 32.8017C32.6271 32.7756 33.0773 32.8467 33.4973 33.0101C33.9173 33.1735 34.2972 33.4254 34.6111 33.7487C34.9251 34.072 35.1658 34.4591 35.3169 34.8837C35.4679 35.3083 35.5258 35.7604 35.4865 36.2094C35.4667 36.936 35.214 37.6371 34.7657 38.2093C34.3174 38.7815 33.6971 39.1946 32.9963 39.3877L31.9151 39.8166C30.8564 40.0717 29.9322 40.715 29.3254 41.6192C28.7186 42.5233 28.4734 43.6224 28.6385 44.6987L28.6712 45.8426ZM30.1457 52.923C30.4374 52.9334 30.7282 52.8851 31.0009 52.7812C31.2736 52.6772 31.5227 52.5196 31.7335 52.3177C31.9443 52.1159 32.1124 51.8738 32.228 51.6058C32.3436 51.3378 32.4043 51.0493 32.4065 50.7575C32.4039 50.4659 32.343 50.1777 32.2272 49.9101C32.1114 49.6424 31.9432 49.4007 31.7324 49.1991C31.5217 48.9975 31.2727 48.8402 31.0002 48.7365C30.7277 48.6327 30.4371 48.5846 30.1457 48.5949C29.8543 48.5846 29.5637 48.6327 29.2912 48.7365C29.0187 48.8402 28.7697 48.9975 28.5589 49.1991C28.3482 49.4007 28.18 49.6424 28.0642 49.9101C27.9484 50.1777 27.8874 50.4659 27.8848 50.7575C27.887 51.0493 27.9477 51.3378 28.0633 51.6058C28.1789 51.8738 28.3471 52.1159 28.5579 52.3177C28.7687 52.5196 29.0178 52.6772 29.2905 52.7812C29.5632 52.8851 29.854 52.9334 30.1457 52.923V52.923Z" fill="white"/>
    <g filter="url(#filter1_d_5361_5832)">
        <path d="M77.4893 78.9362H278.553C280.528 78.9362 282.422 79.7207 283.819 81.1173C285.215 82.5138 286 84.4079 286 86.383V123.617C286 125.592 285.215 127.486 283.819 128.883C282.422 130.279 280.528 131.064 278.553 131.064H77.4893C75.5143 131.064 73.6201 130.279 72.2236 128.883C70.8271 127.486 70.0425 125.592 70.0425 123.617V86.383C70.0425 84.4079 70.8271 82.5138 72.2236 81.1173C73.6201 79.7207 75.5143 78.9362 77.4893 78.9362V78.9362Z" fill="white"/>
    </g>
    <path d="M172.809 90.8511H134.085C131.618 90.8511 129.617 92.8515 129.617 95.3192C129.617 97.7868 131.618 99.7872 134.085 99.7872H172.809C175.276 99.7872 177.277 97.7868 177.277 95.3192C177.277 92.8515 175.276 90.8511 172.809 90.8511Z" fill="#FAEDEA"/>
    <path d="M199.617 110.213H134.085C131.618 110.213 129.617 112.213 129.617 114.681C129.617 117.149 131.618 119.149 134.085 119.149H199.617C202.085 119.149 204.085 117.149 204.085 114.681C204.085 112.213 202.085 110.213 199.617 110.213Z" fill="#FDA188"/>
    <path d="M110.255 83.4042H81.9576C77.8448 83.4042 74.5107 86.7383 74.5107 90.851V119.149C74.5107 123.262 77.8448 126.596 81.9576 126.596H110.255C114.368 126.596 117.702 123.262 117.702 119.149V90.851C117.702 86.7383 114.368 83.4042 110.255 83.4042Z" fill="#FD9174"/>
    <path d="M92.7137 109.885H95.6924L95.7252 108.738C95.7252 107.231 96.6754 106.838 98.0188 106.412C99.3664 106.029 100.553 105.217 101.398 104.1C102.243 102.982 102.702 101.62 102.704 100.219C102.734 99.3637 102.585 98.5115 102.269 97.7164C101.952 96.9213 101.473 96.2007 100.863 95.6001C100.253 94.9995 99.5256 94.5321 98.7258 94.2273C97.9259 93.9226 97.0715 93.7872 96.2167 93.8298C95.3133 93.8101 94.4152 93.9741 93.5771 94.3119C92.739 94.6497 91.9782 95.1542 91.3409 95.7948C90.7036 96.4355 90.2031 97.1989 89.8697 98.0388C89.5363 98.8787 89.3769 99.7775 89.4014 100.681H92.4814C92.4697 100.182 92.5576 99.686 92.7401 99.2217C92.9226 98.7574 93.196 98.3342 93.5441 97.9768C93.8923 97.6195 94.3083 97.3353 94.7677 97.1408C95.2271 96.9463 95.7208 96.8455 96.2197 96.8443C96.6696 96.8182 97.1198 96.8893 97.5398 97.0527C97.9598 97.2161 98.3397 97.468 98.6536 97.7913C98.9676 98.1146 99.2083 98.5017 99.3593 98.9263C99.5104 99.3508 99.5683 99.803 99.529 100.252C99.5092 100.979 99.2565 101.68 98.8082 102.252C98.3599 102.824 97.7396 103.237 97.0388 103.43L95.9575 103.859C94.8989 104.114 93.9747 104.758 93.3679 105.662C92.761 106.566 92.5159 107.665 92.6809 108.741L92.7137 109.885ZM94.1882 116.966C94.4799 116.976 94.7706 116.928 95.0434 116.824C95.3161 116.72 95.5652 116.562 95.776 116.36C95.9868 116.158 96.1549 115.916 96.2705 115.648C96.3861 115.38 96.4468 115.092 96.449 114.8C96.4464 114.508 96.3854 114.22 96.2697 113.953C96.1539 113.685 95.9857 113.443 95.7749 113.242C95.5642 113.04 95.3152 112.883 95.0427 112.779C94.7702 112.675 94.4796 112.627 94.1882 112.637C93.8967 112.627 93.6062 112.675 93.3337 112.779C93.0611 112.883 92.8122 113.04 92.6014 113.242C92.3907 113.443 92.2225 113.685 92.1067 113.953C91.9909 114.22 91.9299 114.508 91.9273 114.8C91.9295 115.092 91.9902 115.38 92.1058 115.648C92.2214 115.916 92.3896 116.158 92.6004 116.36C92.8111 116.562 93.0602 116.72 93.333 116.824C93.6057 116.928 93.8965 116.976 94.1882 116.966V116.966Z" fill="white"/>
    <g filter="url(#filter2_d_5361_5832)">
        <path d="M13.4468 142.979H214.511C216.486 142.979 218.38 143.763 219.776 145.16C221.173 146.556 221.957 148.45 221.957 150.426V187.66C221.957 189.635 221.173 191.529 219.776 192.925C218.38 194.322 216.486 195.106 214.511 195.106H13.4468C11.4718 195.106 9.57767 194.322 8.18112 192.925C6.78457 191.529 6 189.635 6 187.66V150.426C6 148.45 6.78457 146.556 8.18112 145.16C9.57767 143.763 11.4718 142.979 13.4468 142.979V142.979Z" fill="white"/>
    </g>
    <path d="M108.766 154.894H70.0428C67.5751 154.894 65.5747 156.894 65.5747 159.362C65.5747 161.829 67.5751 163.83 70.0428 163.83H108.766C111.234 163.83 113.234 161.829 113.234 159.362C113.234 156.894 111.234 154.894 108.766 154.894Z" fill="#FAEDEA"/>
    <path d="M135.575 174.255H70.0428C67.5751 174.255 65.5747 176.256 65.5747 178.723C65.5747 181.191 67.5751 183.191 70.0428 183.191H135.575C138.042 183.191 140.043 181.191 140.043 178.723C140.043 176.256 138.042 174.255 135.575 174.255Z" fill="#FDA188"/>
    <path d="M46.2129 147.447H17.9151C13.8023 147.447 10.4683 150.781 10.4683 154.894V183.191C10.4683 187.304 13.8023 190.638 17.9151 190.638H46.2129C50.3257 190.638 53.6598 187.304 53.6598 183.191V154.894C53.6598 150.781 50.3257 147.447 46.2129 147.447Z" fill="#FD9174"/>
    <path d="M28.6712 173.928H31.6499L31.6827 172.781C31.6827 171.274 32.6329 170.88 33.9763 170.454C35.3239 170.071 36.5101 169.259 37.3554 168.142C38.2008 167.025 38.6594 165.663 38.6619 164.262C38.6914 163.406 38.543 162.554 38.2261 161.759C37.9092 160.964 37.4307 160.243 36.8208 159.643C36.211 159.042 35.4831 158.575 34.6833 158.27C33.8835 157.965 33.0291 157.83 32.1742 157.872C31.2708 157.853 30.3728 158.017 29.5346 158.354C28.6965 158.692 27.9357 159.197 27.2984 159.837C26.6611 160.478 26.1606 161.241 25.8272 162.081C25.4938 162.921 25.3345 163.82 25.3589 164.723H28.4389C28.4272 164.225 28.5152 163.729 28.6977 163.264C28.8802 162.8 29.1535 162.377 29.5017 162.019C29.8498 161.662 30.2658 161.378 30.7252 161.183C31.1847 160.989 31.6783 160.888 32.1772 160.887C32.6271 160.861 33.0773 160.932 33.4973 161.095C33.9173 161.259 34.2972 161.511 34.6111 161.834C34.9251 162.157 35.1658 162.544 35.3169 162.969C35.4679 163.393 35.5258 163.846 35.4865 164.294C35.4667 165.021 35.214 165.722 34.7657 166.294C34.3174 166.867 33.6971 167.28 32.9963 167.473L31.9151 167.902C30.8564 168.157 29.9322 168.8 29.3254 169.704C28.7186 170.608 28.4734 171.707 28.6385 172.784L28.6712 173.928ZM30.1457 181.008C30.4374 181.018 30.7282 180.97 31.0009 180.866C31.2736 180.762 31.5227 180.605 31.7335 180.403C31.9443 180.201 32.1124 179.959 32.228 179.691C32.3436 179.423 32.4043 179.134 32.4065 178.843C32.4039 178.551 32.343 178.263 32.2272 177.995C32.1114 177.728 31.9432 177.486 31.7324 177.284C31.5217 177.083 31.2727 176.925 31.0002 176.822C30.7277 176.718 30.4371 176.67 30.1457 176.68C29.8543 176.67 29.5637 176.718 29.2912 176.822C29.0187 176.925 28.7697 177.083 28.5589 177.284C28.3482 177.486 28.18 177.728 28.0642 177.995C27.9484 178.263 27.8874 178.551 27.8848 178.843C27.887 179.134 27.9477 179.423 28.0633 179.691C28.1789 179.959 28.3471 180.201 28.5579 180.403C28.7687 180.605 29.0178 180.762 29.2905 180.866C29.5632 180.97 29.854 181.018 30.1457 181.008V181.008Z" fill="white"/>
    <defs>
        <filter id="filter0_d_5361_5832" x="0" y="11.8936" width="227.958" height="64.1277" filterUnits="userSpaceOnUse" color-interpolation-filters="sRGB">
            <feFlood flood-opacity="0" result="BackgroundImageFix"/>
            <feColorMatrix in="SourceAlpha" type="matrix" values="0 0 0 0 0 0 0 0 0 0 0 0 0 0 0 0 0 0 127 0" result="hardAlpha"/>
            <feOffset dy="3"/>
            <feGaussianBlur stdDeviation="3"/>
            <feColorMatrix type="matrix" values="0 0 0 0 0 0 0 0 0 0 0 0 0 0 0 0 0 0 0.161 0"/>
            <feBlend mode="normal" in2="BackgroundImageFix" result="effect1_dropShadow_5361_5832"/>
            <feBlend mode="normal" in="SourceGraphic" in2="effect1_dropShadow_5361_5832" result="shape"/>
        </filter>
        <filter id="filter1_d_5361_5832" x="64.0425" y="75.9362" width="227.958" height="64.1277" filterUnits="userSpaceOnUse" color-interpolation-filters="sRGB">
            <feFlood flood-opacity="0" result="BackgroundImageFix"/>
            <feColorMatrix in="SourceAlpha" type="matrix" values="0 0 0 0 0 0 0 0 0 0 0 0 0 0 0 0 0 0 127 0" result="hardAlpha"/>
            <feOffset dy="3"/>
            <feGaussianBlur stdDeviation="3"/>
            <feColorMatrix type="matrix" values="0 0 0 0 0 0 0 0 0 0 0 0 0 0 0 0 0 0 0.161 0"/>
            <feBlend mode="normal" in2="BackgroundImageFix" result="effect1_dropShadow_5361_5832"/>
            <feBlend mode="normal" in="SourceGraphic" in2="effect1_dropShadow_5361_5832" result="shape"/>
        </filter>
        <filter id="filter2_d_5361_5832" x="0" y="139.979" width="227.958" height="64.1277" filterUnits="userSpaceOnUse" color-interpolation-filters="sRGB">
            <feFlood flood-opacity="0" result="BackgroundImageFix"/>
            <feColorMatrix in="SourceAlpha" type="matrix" values="0 0 0 0 0 0 0 0 0 0 0 0 0 0 0 0 0 0 127 0" result="hardAlpha"/>
            <feOffset dy="3"/>
            <feGaussianBlur stdDeviation="3"/>
            <feColorMatrix type="matrix" values="0 0 0 0 0 0 0 0 0 0 0 0 0 0 0 0 0 0 0.161 0"/>
            <feBlend mode="normal" in2="BackgroundImageFix" result="effect1_dropShadow_5361_5832"/>
            <feBlend mode="normal" in="SourceGraphic" in2="effect1_dropShadow_5361_5832" result="shape"/>
        </filter>
    </defs>
</svg>
