<svg width="315" height="614" viewBox="0 0 315 614" fill="none" xmlns="http://www.w3.org/2000/svg">
<mask id="mask0_1156_17895" style="mask-type:alpha" maskUnits="userSpaceOnUse" x="85" y="-397" width="378" height="1008">
<line x1="305.07" y1="-373.403" x2="106.306" y2="22.6006" stroke="url(#paint0_linear_1156_17895)"/>
<line x1="309.566" y1="-356.618" x2="110.802" y2="39.3855" stroke="url(#paint1_linear_1156_17895)"/>
<line x1="314.064" y1="-339.833" x2="115.3" y2="56.1702" stroke="url(#paint2_linear_1156_17895)"/>
<line x1="318.562" y1="-323.05" x2="119.798" y2="72.9536" stroke="url(#paint3_linear_1156_17895)"/>
<line x1="323.058" y1="-306.265" x2="124.294" y2="89.7388" stroke="url(#paint4_linear_1156_17895)"/>
<line x1="327.556" y1="-289.482" x2="128.793" y2="106.522" stroke="url(#paint5_linear_1156_17895)"/>
<line x1="332.054" y1="-272.697" x2="133.291" y2="123.307" stroke="url(#paint6_linear_1156_17895)"/>
<line x1="336.552" y1="-255.912" x2="137.789" y2="140.091" stroke="url(#paint7_linear_1156_17895)"/>
<line x1="341.048" y1="-239.128" x2="142.285" y2="156.875" stroke="url(#paint8_linear_1156_17895)"/>
<line x1="345.546" y1="-222.343" x2="146.783" y2="173.66" stroke="url(#paint9_linear_1156_17895)"/>
<line x1="350.043" y1="-205.56" x2="151.279" y2="190.443" stroke="url(#paint10_linear_1156_17895)"/>
<line x1="354.541" y1="-188.775" x2="155.777" y2="207.228" stroke="url(#paint11_linear_1156_17895)"/>
<line x1="359.039" y1="-171.99" x2="160.275" y2="224.013" stroke="url(#paint12_linear_1156_17895)"/>
<line x1="363.535" y1="-155.207" x2="164.771" y2="240.797" stroke="url(#paint13_linear_1156_17895)"/>
<line x1="368.033" y1="-138.422" x2="169.269" y2="257.581" stroke="url(#paint14_linear_1156_17895)"/>
<line x1="372.529" y1="-121.637" x2="173.765" y2="274.366" stroke="url(#paint15_linear_1156_17895)"/>
<line x1="377.027" y1="-104.853" x2="178.263" y2="291.15" stroke="url(#paint16_linear_1156_17895)"/>
<line x1="381.525" y1="-88.0684" x2="182.761" y2="307.935" stroke="url(#paint17_linear_1156_17895)"/>
<line x1="386.021" y1="-71.2852" x2="187.257" y2="324.718" stroke="url(#paint18_linear_1156_17895)"/>
<line x1="390.519" y1="-54.5001" x2="191.755" y2="341.503" stroke="url(#paint19_linear_1156_17895)"/>
<line x1="395.017" y1="-37.7152" x2="196.253" y2="358.288" stroke="url(#paint20_linear_1156_17895)"/>
<line x1="399.513" y1="-20.932" x2="200.75" y2="375.072" stroke="url(#paint21_linear_1156_17895)"/>
<line x1="404.011" y1="-4.14729" x2="205.248" y2="391.856" stroke="url(#paint22_linear_1156_17895)"/>
<line x1="408.509" y1="12.6366" x2="209.746" y2="408.64" stroke="url(#paint23_linear_1156_17895)"/>
<line x1="413.005" y1="29.4213" x2="214.242" y2="425.425" stroke="url(#paint24_linear_1156_17895)"/>
<line x1="417.504" y1="46.206" x2="218.74" y2="442.209" stroke="url(#paint25_linear_1156_17895)"/>
<line x1="422.002" y1="62.9899" x2="223.238" y2="458.993" stroke="url(#paint26_linear_1156_17895)"/>
<line x1="426.498" y1="79.7746" x2="227.734" y2="475.778" stroke="url(#paint27_linear_1156_17895)"/>
<line x1="430.996" y1="96.5593" x2="232.232" y2="492.563" stroke="url(#paint28_linear_1156_17895)"/>
<line x1="435.492" y1="113.342" x2="236.728" y2="509.346" stroke="url(#paint29_linear_1156_17895)"/>
<line x1="439.99" y1="130.127" x2="241.226" y2="526.131" stroke="url(#paint30_linear_1156_17895)"/>
<line x1="444.488" y1="146.911" x2="245.724" y2="542.914" stroke="url(#paint31_linear_1156_17895)"/>
<line x1="448.984" y1="163.696" x2="250.22" y2="559.699" stroke="url(#paint32_linear_1156_17895)"/>
<line x1="453.482" y1="180.481" x2="254.718" y2="576.484" stroke="url(#paint33_linear_1156_17895)"/>
<line x1="457.98" y1="197.264" x2="259.216" y2="593.268" stroke="url(#paint34_linear_1156_17895)"/>
<line x1="462.476" y1="214.049" x2="263.712" y2="610.053" stroke="url(#paint35_linear_1156_17895)"/>
<line x1="298.591" y1="-373.423" x2="99.8277" y2="22.5806" stroke="url(#paint36_linear_1156_17895)"/>
<line x1="303.089" y1="-356.638" x2="104.326" y2="39.3652" stroke="url(#paint37_linear_1156_17895)"/>
<line x1="307.587" y1="-339.854" x2="108.824" y2="56.1499" stroke="url(#paint38_linear_1156_17895)"/>
<line x1="312.086" y1="-323.07" x2="113.322" y2="72.9333" stroke="url(#paint39_linear_1156_17895)"/>
<line x1="316.582" y1="-306.285" x2="117.818" y2="89.7185" stroke="url(#paint40_linear_1156_17895)"/>
<line x1="321.08" y1="-289.502" x2="122.316" y2="106.502" stroke="url(#paint41_linear_1156_17895)"/>
<line x1="325.576" y1="-272.717" x2="126.812" y2="123.287" stroke="url(#paint42_linear_1156_17895)"/>
<line x1="330.074" y1="-255.932" x2="131.31" y2="140.071" stroke="url(#paint43_linear_1156_17895)"/>
<line x1="334.572" y1="-239.149" x2="135.808" y2="156.855" stroke="url(#paint44_linear_1156_17895)"/>
<line x1="339.07" y1="-222.364" x2="140.306" y2="173.64" stroke="url(#paint45_linear_1156_17895)"/>
<line x1="343.566" y1="-205.58" x2="144.802" y2="190.423" stroke="url(#paint46_linear_1156_17895)"/>
<line x1="348.064" y1="-188.795" x2="149.3" y2="207.208" stroke="url(#paint47_linear_1156_17895)"/>
<line x1="352.56" y1="-172.011" x2="153.796" y2="223.993" stroke="url(#paint48_linear_1156_17895)"/>
<line x1="357.058" y1="-155.227" x2="158.294" y2="240.776" stroke="url(#paint49_linear_1156_17895)"/>
<line x1="361.554" y1="-138.442" x2="162.791" y2="257.561" stroke="url(#paint50_linear_1156_17895)"/>
<line x1="366.052" y1="-121.658" x2="167.289" y2="274.346" stroke="url(#paint51_linear_1156_17895)"/>
<line x1="370.55" y1="-104.874" x2="171.787" y2="291.13" stroke="url(#paint52_linear_1156_17895)"/>
<line x1="375.046" y1="-88.0892" x2="176.283" y2="307.914" stroke="url(#paint53_linear_1156_17895)"/>
<line x1="379.545" y1="-71.306" x2="180.781" y2="324.698" stroke="url(#paint54_linear_1156_17895)"/>
<line x1="384.043" y1="-54.5206" x2="185.279" y2="341.483" stroke="url(#paint55_linear_1156_17895)"/>
<line x1="388.541" y1="-37.7357" x2="189.777" y2="358.268" stroke="url(#paint56_linear_1156_17895)"/>
<line x1="393.037" y1="-20.9527" x2="194.273" y2="375.051" stroke="url(#paint57_linear_1156_17895)"/>
<line x1="397.535" y1="-4.16755" x2="198.771" y2="391.836" stroke="url(#paint58_linear_1156_17895)"/>
<line x1="402.031" y1="12.6159" x2="203.267" y2="408.619" stroke="url(#paint59_linear_1156_17895)"/>
<line x1="406.529" y1="29.4008" x2="207.765" y2="425.404" stroke="url(#paint60_linear_1156_17895)"/>
<line x1="411.027" y1="46.1855" x2="212.263" y2="442.189" stroke="url(#paint61_linear_1156_17895)"/>
<line x1="415.523" y1="62.9694" x2="216.759" y2="458.973" stroke="url(#paint62_linear_1156_17895)"/>
<line x1="420.021" y1="79.7541" x2="221.257" y2="475.758" stroke="url(#paint63_linear_1156_17895)"/>
<line x1="424.517" y1="96.5387" x2="225.753" y2="492.542" stroke="url(#paint64_linear_1156_17895)"/>
<line x1="429.015" y1="113.322" x2="230.252" y2="509.325" stroke="url(#paint65_linear_1156_17895)"/>
<line x1="433.513" y1="130.107" x2="234.75" y2="526.11" stroke="url(#paint66_linear_1156_17895)"/>
<line x1="438.009" y1="146.89" x2="239.246" y2="542.894" stroke="url(#paint67_linear_1156_17895)"/>
<line x1="442.507" y1="163.676" x2="243.744" y2="559.679" stroke="url(#paint68_linear_1156_17895)"/>
<line x1="447.005" y1="180.46" x2="248.242" y2="576.464" stroke="url(#paint69_linear_1156_17895)"/>
<line x1="451.502" y1="197.244" x2="252.738" y2="593.247" stroke="url(#paint70_linear_1156_17895)"/>
<line x1="456" y1="214.029" x2="257.236" y2="610.032" stroke="url(#paint71_linear_1156_17895)"/>
</mask>
<g mask="url(#mask0_1156_17895)">
<circle cx="278.734" cy="72.1558" r="133.067" transform="rotate(75 278.734 72.1558)" fill="url(#paint72_linear_1156_17895)"/>
</g>
<defs>
<linearGradient id="paint0_linear_1156_17895" x1="205.241" y1="-175.625" x2="204.347" y2="-176.074" gradientUnits="userSpaceOnUse">
<stop stop-color="#EEAA2F"/>
<stop offset="1" stop-color="#EB2423"/>
</linearGradient>
<linearGradient id="paint1_linear_1156_17895" x1="209.737" y1="-158.841" x2="208.844" y2="-159.289" gradientUnits="userSpaceOnUse">
<stop stop-color="#EEAA2F"/>
<stop offset="1" stop-color="#EB2423"/>
</linearGradient>
<linearGradient id="paint2_linear_1156_17895" x1="214.235" y1="-142.056" x2="213.342" y2="-142.504" gradientUnits="userSpaceOnUse">
<stop stop-color="#EEAA2F"/>
<stop offset="1" stop-color="#EB2423"/>
</linearGradient>
<linearGradient id="paint3_linear_1156_17895" x1="218.733" y1="-125.272" x2="217.84" y2="-125.721" gradientUnits="userSpaceOnUse">
<stop stop-color="#EEAA2F"/>
<stop offset="1" stop-color="#EB2423"/>
</linearGradient>
<linearGradient id="paint4_linear_1156_17895" x1="223.229" y1="-108.487" x2="222.336" y2="-108.936" gradientUnits="userSpaceOnUse">
<stop stop-color="#EEAA2F"/>
<stop offset="1" stop-color="#EB2423"/>
</linearGradient>
<linearGradient id="paint5_linear_1156_17895" x1="227.728" y1="-91.7041" x2="226.834" y2="-92.1527" gradientUnits="userSpaceOnUse">
<stop stop-color="#EEAA2F"/>
<stop offset="1" stop-color="#EB2423"/>
</linearGradient>
<linearGradient id="paint6_linear_1156_17895" x1="232.226" y1="-74.9192" x2="231.332" y2="-75.3677" gradientUnits="userSpaceOnUse">
<stop stop-color="#EEAA2F"/>
<stop offset="1" stop-color="#EB2423"/>
</linearGradient>
<linearGradient id="paint7_linear_1156_17895" x1="236.724" y1="-58.1345" x2="235.83" y2="-58.5831" gradientUnits="userSpaceOnUse">
<stop stop-color="#EEAA2F"/>
<stop offset="1" stop-color="#EB2423"/>
</linearGradient>
<linearGradient id="paint8_linear_1156_17895" x1="241.22" y1="-41.3509" x2="240.326" y2="-41.7994" gradientUnits="userSpaceOnUse">
<stop stop-color="#EEAA2F"/>
<stop offset="1" stop-color="#EB2423"/>
</linearGradient>
<linearGradient id="paint9_linear_1156_17895" x1="245.718" y1="-24.5659" x2="244.824" y2="-25.0145" gradientUnits="userSpaceOnUse">
<stop stop-color="#EEAA2F"/>
<stop offset="1" stop-color="#EB2423"/>
</linearGradient>
<linearGradient id="paint10_linear_1156_17895" x1="250.214" y1="-7.78274" x2="249.32" y2="-8.23133" gradientUnits="userSpaceOnUse">
<stop stop-color="#EEAA2F"/>
<stop offset="1" stop-color="#EB2423"/>
</linearGradient>
<linearGradient id="paint11_linear_1156_17895" x1="254.712" y1="9.00241" x2="253.818" y2="8.55383" gradientUnits="userSpaceOnUse">
<stop stop-color="#EEAA2F"/>
<stop offset="1" stop-color="#EB2423"/>
</linearGradient>
<linearGradient id="paint12_linear_1156_17895" x1="259.21" y1="25.7874" x2="258.316" y2="25.3388" gradientUnits="userSpaceOnUse">
<stop stop-color="#EEAA2F"/>
<stop offset="1" stop-color="#EB2423"/>
</linearGradient>
<linearGradient id="paint13_linear_1156_17895" x1="263.706" y1="42.5706" x2="262.812" y2="42.122" gradientUnits="userSpaceOnUse">
<stop stop-color="#EEAA2F"/>
<stop offset="1" stop-color="#EB2423"/>
</linearGradient>
<linearGradient id="paint14_linear_1156_17895" x1="268.204" y1="59.3552" x2="267.31" y2="58.9066" gradientUnits="userSpaceOnUse">
<stop stop-color="#EEAA2F"/>
<stop offset="1" stop-color="#EB2423"/>
</linearGradient>
<linearGradient id="paint15_linear_1156_17895" x1="272.7" y1="76.1404" x2="271.806" y2="75.6918" gradientUnits="userSpaceOnUse">
<stop stop-color="#EEAA2F"/>
<stop offset="1" stop-color="#EB2423"/>
</linearGradient>
<linearGradient id="paint16_linear_1156_17895" x1="277.198" y1="92.9241" x2="276.304" y2="92.4755" gradientUnits="userSpaceOnUse">
<stop stop-color="#EEAA2F"/>
<stop offset="1" stop-color="#EB2423"/>
</linearGradient>
<linearGradient id="paint17_linear_1156_17895" x1="281.696" y1="109.709" x2="280.803" y2="109.26" gradientUnits="userSpaceOnUse">
<stop stop-color="#EEAA2F"/>
<stop offset="1" stop-color="#EB2423"/>
</linearGradient>
<linearGradient id="paint18_linear_1156_17895" x1="286.192" y1="126.492" x2="285.299" y2="126.044" gradientUnits="userSpaceOnUse">
<stop stop-color="#EEAA2F"/>
<stop offset="1" stop-color="#EB2423"/>
</linearGradient>
<linearGradient id="paint19_linear_1156_17895" x1="290.69" y1="143.277" x2="289.797" y2="142.829" gradientUnits="userSpaceOnUse">
<stop stop-color="#EEAA2F"/>
<stop offset="1" stop-color="#EB2423"/>
</linearGradient>
<linearGradient id="paint20_linear_1156_17895" x1="295.188" y1="160.062" x2="294.295" y2="159.614" gradientUnits="userSpaceOnUse">
<stop stop-color="#EEAA2F"/>
<stop offset="1" stop-color="#EB2423"/>
</linearGradient>
<linearGradient id="paint21_linear_1156_17895" x1="299.685" y1="176.845" x2="298.791" y2="176.397" gradientUnits="userSpaceOnUse">
<stop stop-color="#EEAA2F"/>
<stop offset="1" stop-color="#EB2423"/>
</linearGradient>
<linearGradient id="paint22_linear_1156_17895" x1="304.183" y1="193.63" x2="303.289" y2="193.182" gradientUnits="userSpaceOnUse">
<stop stop-color="#EEAA2F"/>
<stop offset="1" stop-color="#EB2423"/>
</linearGradient>
<linearGradient id="paint23_linear_1156_17895" x1="308.681" y1="210.414" x2="307.787" y2="209.965" gradientUnits="userSpaceOnUse">
<stop stop-color="#EEAA2F"/>
<stop offset="1" stop-color="#EB2423"/>
</linearGradient>
<linearGradient id="paint24_linear_1156_17895" x1="313.177" y1="227.199" x2="312.283" y2="226.75" gradientUnits="userSpaceOnUse">
<stop stop-color="#EEAA2F"/>
<stop offset="1" stop-color="#EB2423"/>
</linearGradient>
<linearGradient id="paint25_linear_1156_17895" x1="317.675" y1="243.983" x2="316.781" y2="243.535" gradientUnits="userSpaceOnUse">
<stop stop-color="#EEAA2F"/>
<stop offset="1" stop-color="#EB2423"/>
</linearGradient>
<linearGradient id="paint26_linear_1156_17895" x1="322.173" y1="260.767" x2="321.279" y2="260.319" gradientUnits="userSpaceOnUse">
<stop stop-color="#EEAA2F"/>
<stop offset="1" stop-color="#EB2423"/>
</linearGradient>
<linearGradient id="paint27_linear_1156_17895" x1="326.669" y1="277.552" x2="325.775" y2="277.103" gradientUnits="userSpaceOnUse">
<stop stop-color="#EEAA2F"/>
<stop offset="1" stop-color="#EB2423"/>
</linearGradient>
<linearGradient id="paint28_linear_1156_17895" x1="331.167" y1="294.337" x2="330.273" y2="293.888" gradientUnits="userSpaceOnUse">
<stop stop-color="#EEAA2F"/>
<stop offset="1" stop-color="#EB2423"/>
</linearGradient>
<linearGradient id="paint29_linear_1156_17895" x1="335.663" y1="311.12" x2="334.769" y2="310.671" gradientUnits="userSpaceOnUse">
<stop stop-color="#EEAA2F"/>
<stop offset="1" stop-color="#EB2423"/>
</linearGradient>
<linearGradient id="paint30_linear_1156_17895" x1="340.161" y1="327.905" x2="339.267" y2="327.456" gradientUnits="userSpaceOnUse">
<stop stop-color="#EEAA2F"/>
<stop offset="1" stop-color="#EB2423"/>
</linearGradient>
<linearGradient id="paint31_linear_1156_17895" x1="344.659" y1="344.688" x2="343.765" y2="344.24" gradientUnits="userSpaceOnUse">
<stop stop-color="#EEAA2F"/>
<stop offset="1" stop-color="#EB2423"/>
</linearGradient>
<linearGradient id="paint32_linear_1156_17895" x1="349.155" y1="361.473" x2="348.262" y2="361.025" gradientUnits="userSpaceOnUse">
<stop stop-color="#EEAA2F"/>
<stop offset="1" stop-color="#EB2423"/>
</linearGradient>
<linearGradient id="paint33_linear_1156_17895" x1="353.653" y1="378.258" x2="352.76" y2="377.809" gradientUnits="userSpaceOnUse">
<stop stop-color="#EEAA2F"/>
<stop offset="1" stop-color="#EB2423"/>
</linearGradient>
<linearGradient id="paint34_linear_1156_17895" x1="358.151" y1="395.042" x2="357.258" y2="394.593" gradientUnits="userSpaceOnUse">
<stop stop-color="#EEAA2F"/>
<stop offset="1" stop-color="#EB2423"/>
</linearGradient>
<linearGradient id="paint35_linear_1156_17895" x1="362.647" y1="411.827" x2="361.754" y2="411.378" gradientUnits="userSpaceOnUse">
<stop stop-color="#EEAA2F"/>
<stop offset="1" stop-color="#EB2423"/>
</linearGradient>
<linearGradient id="paint36_linear_1156_17895" x1="198.763" y1="-175.645" x2="197.869" y2="-176.094" gradientUnits="userSpaceOnUse">
<stop stop-color="#EEAA2F"/>
<stop offset="1" stop-color="#EB2423"/>
</linearGradient>
<linearGradient id="paint37_linear_1156_17895" x1="203.261" y1="-158.861" x2="202.367" y2="-159.309" gradientUnits="userSpaceOnUse">
<stop stop-color="#EEAA2F"/>
<stop offset="1" stop-color="#EB2423"/>
</linearGradient>
<linearGradient id="paint38_linear_1156_17895" x1="207.759" y1="-142.076" x2="206.865" y2="-142.525" gradientUnits="userSpaceOnUse">
<stop stop-color="#EEAA2F"/>
<stop offset="1" stop-color="#EB2423"/>
</linearGradient>
<linearGradient id="paint39_linear_1156_17895" x1="212.257" y1="-125.293" x2="211.363" y2="-125.741" gradientUnits="userSpaceOnUse">
<stop stop-color="#EEAA2F"/>
<stop offset="1" stop-color="#EB2423"/>
</linearGradient>
<linearGradient id="paint40_linear_1156_17895" x1="216.753" y1="-108.508" x2="215.859" y2="-108.956" gradientUnits="userSpaceOnUse">
<stop stop-color="#EEAA2F"/>
<stop offset="1" stop-color="#EB2423"/>
</linearGradient>
<linearGradient id="paint41_linear_1156_17895" x1="221.251" y1="-91.7243" x2="220.357" y2="-92.1729" gradientUnits="userSpaceOnUse">
<stop stop-color="#EEAA2F"/>
<stop offset="1" stop-color="#EB2423"/>
</linearGradient>
<linearGradient id="paint42_linear_1156_17895" x1="225.747" y1="-74.9394" x2="224.853" y2="-75.388" gradientUnits="userSpaceOnUse">
<stop stop-color="#EEAA2F"/>
<stop offset="1" stop-color="#EB2423"/>
</linearGradient>
<linearGradient id="paint43_linear_1156_17895" x1="230.245" y1="-58.1548" x2="229.351" y2="-58.6033" gradientUnits="userSpaceOnUse">
<stop stop-color="#EEAA2F"/>
<stop offset="1" stop-color="#EB2423"/>
</linearGradient>
<linearGradient id="paint44_linear_1156_17895" x1="234.743" y1="-41.3711" x2="233.849" y2="-41.8197" gradientUnits="userSpaceOnUse">
<stop stop-color="#EEAA2F"/>
<stop offset="1" stop-color="#EB2423"/>
</linearGradient>
<linearGradient id="paint45_linear_1156_17895" x1="239.241" y1="-24.5861" x2="238.347" y2="-25.0347" gradientUnits="userSpaceOnUse">
<stop stop-color="#EEAA2F"/>
<stop offset="1" stop-color="#EB2423"/>
</linearGradient>
<linearGradient id="paint46_linear_1156_17895" x1="243.737" y1="-7.80301" x2="242.844" y2="-8.25159" gradientUnits="userSpaceOnUse">
<stop stop-color="#EEAA2F"/>
<stop offset="1" stop-color="#EB2423"/>
</linearGradient>
<linearGradient id="paint47_linear_1156_17895" x1="248.235" y1="8.98215" x2="247.342" y2="8.53356" gradientUnits="userSpaceOnUse">
<stop stop-color="#EEAA2F"/>
<stop offset="1" stop-color="#EB2423"/>
</linearGradient>
<linearGradient id="paint48_linear_1156_17895" x1="252.731" y1="25.7668" x2="251.838" y2="25.3182" gradientUnits="userSpaceOnUse">
<stop stop-color="#EEAA2F"/>
<stop offset="1" stop-color="#EB2423"/>
</linearGradient>
<linearGradient id="paint49_linear_1156_17895" x1="257.229" y1="42.5503" x2="256.336" y2="42.1017" gradientUnits="userSpaceOnUse">
<stop stop-color="#EEAA2F"/>
<stop offset="1" stop-color="#EB2423"/>
</linearGradient>
<linearGradient id="paint50_linear_1156_17895" x1="261.726" y1="59.335" x2="260.832" y2="58.8864" gradientUnits="userSpaceOnUse">
<stop stop-color="#EEAA2F"/>
<stop offset="1" stop-color="#EB2423"/>
</linearGradient>
<linearGradient id="paint51_linear_1156_17895" x1="266.224" y1="76.1196" x2="265.33" y2="75.671" gradientUnits="userSpaceOnUse">
<stop stop-color="#EEAA2F"/>
<stop offset="1" stop-color="#EB2423"/>
</linearGradient>
<linearGradient id="paint52_linear_1156_17895" x1="270.722" y1="92.9036" x2="269.828" y2="92.455" gradientUnits="userSpaceOnUse">
<stop stop-color="#EEAA2F"/>
<stop offset="1" stop-color="#EB2423"/>
</linearGradient>
<linearGradient id="paint53_linear_1156_17895" x1="275.218" y1="109.688" x2="274.324" y2="109.24" gradientUnits="userSpaceOnUse">
<stop stop-color="#EEAA2F"/>
<stop offset="1" stop-color="#EB2423"/>
</linearGradient>
<linearGradient id="paint54_linear_1156_17895" x1="279.716" y1="126.471" x2="278.822" y2="126.023" gradientUnits="userSpaceOnUse">
<stop stop-color="#EEAA2F"/>
<stop offset="1" stop-color="#EB2423"/>
</linearGradient>
<linearGradient id="paint55_linear_1156_17895" x1="284.214" y1="143.257" x2="283.32" y2="142.808" gradientUnits="userSpaceOnUse">
<stop stop-color="#EEAA2F"/>
<stop offset="1" stop-color="#EB2423"/>
</linearGradient>
<linearGradient id="paint56_linear_1156_17895" x1="288.712" y1="160.042" x2="287.818" y2="159.593" gradientUnits="userSpaceOnUse">
<stop stop-color="#EEAA2F"/>
<stop offset="1" stop-color="#EB2423"/>
</linearGradient>
<linearGradient id="paint57_linear_1156_17895" x1="293.208" y1="176.825" x2="292.314" y2="176.376" gradientUnits="userSpaceOnUse">
<stop stop-color="#EEAA2F"/>
<stop offset="1" stop-color="#EB2423"/>
</linearGradient>
<linearGradient id="paint58_linear_1156_17895" x1="297.706" y1="193.61" x2="296.812" y2="193.161" gradientUnits="userSpaceOnUse">
<stop stop-color="#EEAA2F"/>
<stop offset="1" stop-color="#EB2423"/>
</linearGradient>
<linearGradient id="paint59_linear_1156_17895" x1="302.202" y1="210.393" x2="301.308" y2="209.945" gradientUnits="userSpaceOnUse">
<stop stop-color="#EEAA2F"/>
<stop offset="1" stop-color="#EB2423"/>
</linearGradient>
<linearGradient id="paint60_linear_1156_17895" x1="306.7" y1="227.178" x2="305.806" y2="226.73" gradientUnits="userSpaceOnUse">
<stop stop-color="#EEAA2F"/>
<stop offset="1" stop-color="#EB2423"/>
</linearGradient>
<linearGradient id="paint61_linear_1156_17895" x1="311.198" y1="243.963" x2="310.304" y2="243.514" gradientUnits="userSpaceOnUse">
<stop stop-color="#EEAA2F"/>
<stop offset="1" stop-color="#EB2423"/>
</linearGradient>
<linearGradient id="paint62_linear_1156_17895" x1="315.694" y1="260.747" x2="314.801" y2="260.298" gradientUnits="userSpaceOnUse">
<stop stop-color="#EEAA2F"/>
<stop offset="1" stop-color="#EB2423"/>
</linearGradient>
<linearGradient id="paint63_linear_1156_17895" x1="320.192" y1="277.532" x2="319.299" y2="277.083" gradientUnits="userSpaceOnUse">
<stop stop-color="#EEAA2F"/>
<stop offset="1" stop-color="#EB2423"/>
</linearGradient>
<linearGradient id="paint64_linear_1156_17895" x1="324.688" y1="294.316" x2="323.795" y2="293.868" gradientUnits="userSpaceOnUse">
<stop stop-color="#EEAA2F"/>
<stop offset="1" stop-color="#EB2423"/>
</linearGradient>
<linearGradient id="paint65_linear_1156_17895" x1="329.187" y1="311.099" x2="328.293" y2="310.651" gradientUnits="userSpaceOnUse">
<stop stop-color="#EEAA2F"/>
<stop offset="1" stop-color="#EB2423"/>
</linearGradient>
<linearGradient id="paint66_linear_1156_17895" x1="333.685" y1="327.884" x2="332.791" y2="327.436" gradientUnits="userSpaceOnUse">
<stop stop-color="#EEAA2F"/>
<stop offset="1" stop-color="#EB2423"/>
</linearGradient>
<linearGradient id="paint67_linear_1156_17895" x1="338.181" y1="344.668" x2="337.287" y2="344.219" gradientUnits="userSpaceOnUse">
<stop stop-color="#EEAA2F"/>
<stop offset="1" stop-color="#EB2423"/>
</linearGradient>
<linearGradient id="paint68_linear_1156_17895" x1="342.679" y1="361.453" x2="341.785" y2="361.005" gradientUnits="userSpaceOnUse">
<stop stop-color="#EEAA2F"/>
<stop offset="1" stop-color="#EB2423"/>
</linearGradient>
<linearGradient id="paint69_linear_1156_17895" x1="347.177" y1="378.238" x2="346.283" y2="377.789" gradientUnits="userSpaceOnUse">
<stop stop-color="#EEAA2F"/>
<stop offset="1" stop-color="#EB2423"/>
</linearGradient>
<linearGradient id="paint70_linear_1156_17895" x1="351.673" y1="395.021" x2="350.779" y2="394.573" gradientUnits="userSpaceOnUse">
<stop stop-color="#EEAA2F"/>
<stop offset="1" stop-color="#EB2423"/>
</linearGradient>
<linearGradient id="paint71_linear_1156_17895" x1="356.171" y1="411.806" x2="355.277" y2="411.358" gradientUnits="userSpaceOnUse">
<stop stop-color="#EEAA2F"/>
<stop offset="1" stop-color="#EB2423"/>
</linearGradient>
<linearGradient id="paint72_linear_1156_17895" x1="278.734" y1="-60.9109" x2="278.734" y2="205.222" gradientUnits="userSpaceOnUse">
<stop stop-color="#FF7956"/>
<stop offset="0.765625" stop-color="#FA633B" stop-opacity="0"/>
</linearGradient>
</defs>
</svg>
