<svg viewBox="0 0 263 447" fill="none" xmlns="http://www.w3.org/2000/svg">
    <path d="M142.704 440.655V369.121H120.181V440.655C120.181 440.655 116.762 445.994 128.921 446.826C131.88 444.761 135.099 443.095 138.495 441.872C138.495 441.872 142.704 443.858 142.704 440.655Z" fill="#605046"/>
    <path d="M165.163 63.8751C139.52 55.8463 137.811 0.861328 137.811 0.861328C135.481 51.1699 109.795 66.0745 109.795 66.0745C109.795 66.0745 108.449 69.0426 115.822 66.0745C118.696 65.4562 121.428 64.3046 123.878 62.6793C123.878 62.6793 124.327 64.4517 121.869 66.4802C119.412 68.5088 122.767 67.3984 122.767 67.3984C122.767 67.3984 128.13 67.3984 130.374 64.9214C129.218 69.687 126.689 74.0093 123.1 77.353C119.51 80.6968 115.018 82.9152 110.18 83.7338C103.15 87.7695 106.825 88.4315 106.825 88.4315C101.12 90.1184 100.799 92.1256 100.799 92.1256C109.86 93.6417 121.1 89.2643 121.1 89.2643C119.412 91.6131 120.416 91.6131 120.416 91.6131C123.654 91.5373 126.833 90.7268 129.712 89.2429C126.57 113.842 81.8231 113.863 81.8231 113.863C81.8231 113.863 78.2544 116.981 88.7681 117.429C88.7681 117.429 91.9094 119.009 88.3194 121.23C88.3194 121.23 81.9086 124.369 90.3281 123.024L98.8758 121.23C98.8758 121.23 101.333 121.017 98.427 124.134C98.427 124.134 116.163 126.163 125.822 120.931C120.801 144.932 78.1903 148.691 78.1903 148.691C73.4891 149.139 75.4978 150.698 75.4978 150.698L81.759 153.388C77.2928 154.712 80.199 155.396 80.199 155.396L88.9177 156.058L101.333 155.844C98.6407 156.954 100.671 157.403 100.671 157.403C108.278 157.168 125.993 152.299 125.993 152.299C115.842 163.733 102.065 171.333 86.9731 173.824C86.9731 173.824 72.7625 177.091 73.2113 180.678L68.9374 183.582C68.9374 183.582 67.5912 186.273 72.5061 185.717L80.7974 183.71L84.366 182.151L76.203 190.266L87.721 188.13L95.8627 184.351L93.277 188.621C91.5888 191.718 101.312 189.198 101.312 189.198L115.587 186.187C115.587 186.187 121.121 185.184 120.373 190.33C120.373 190.33 100.179 212.174 62.6763 212.174C62.6763 212.174 56.4151 211.726 55.5175 215.292L49.2564 218.431C49.2564 218.431 48.5726 221.612 51.6925 221.143C60.4847 222.859 69.5263 222.859 78.3185 221.143C78.3185 221.143 68.9161 226.908 81.6735 226.246L78.2972 231.392C89.0577 231.92 99.8095 230.189 109.86 226.31C109.86 226.31 69.5144 255.991 33.1867 257.273C33.1867 257.273 25.7929 261.97 33.1867 264.639H41.9053L37.8879 271.366H46.0082L51.3719 277.387C51.3719 277.387 80.9042 276.725 97.0166 266.711C97.0166 266.711 107.082 258.169 99.6878 272.989C99.6878 272.989 56.757 299.36 21.1772 302.713C21.1772 302.713 15.0014 308.115 25.7288 307.432C25.7288 307.432 35.8151 304.207 35.1313 307.432C35.1313 307.432 25.7288 314.094 39.8325 311.403C39.8325 311.403 48.5512 307.987 48.5512 312.023C48.5512 312.023 46.5425 318.77 82.742 308.713C82.742 308.713 92.1231 309.396 86.0969 317.425L66.6295 326.159C69.2901 328.22 72.4157 329.598 75.7329 330.173C75.7329 330.173 54.5559 350.971 15.6212 350.971C15.6212 350.971 8.93259 353.64 15.6212 355.648C15.6212 355.648 7.56497 361.691 0.876398 362.374C0.876398 362.374 -1.15368 367.99 5.55627 368.652C10.8969 369.456 16.328 369.456 21.6687 368.652L16.3264 374.716L35.7937 368.673C31.8429 376.595 27.0499 384.069 21.4977 390.966C21.4977 390.966 20.6002 399.913 30.4301 390.966C30.4301 390.966 38.4863 378.453 42.0763 386.503C39.702 391.73 37.0116 396.807 34.0201 401.707C34.0201 401.707 40.2813 404.376 47.44 396.347C47.44 396.347 57.2698 380.247 62.6549 384.709L58.1673 395.386C63.1675 393.129 67.9585 390.435 72.4847 387.336L80.5409 386.439C80.5409 386.439 87.486 387.485 86.5884 391.97L85.6909 396.432C85.6909 396.432 80.3272 411.636 94.6446 391.97C94.6446 391.97 101.867 387.186 111.27 403.949L113.621 404.952C113.621 404.952 112.317 392.14 114.539 388.831C114.539 388.831 113.898 392.14 120.801 393.101C120.801 393.101 118.792 388.831 120.801 387.357L136.015 402.091C136.015 402.091 144.072 410.632 136.015 395.407C136.015 395.407 136.913 387.357 145.867 391.82L165.548 404.461H174.502L166.445 393.614C164.65 388.254 174.502 387.357 174.502 387.357L183.434 392.717C191.49 398.973 188.819 388.254 188.819 388.254L196.533 393.614L210.274 397.201L224.612 399.87C217.19 394.523 210.816 387.856 205.807 380.204L232.647 392.717C233.497 392.96 234.395 392.985 235.257 392.791C236.12 392.597 236.92 392.19 237.584 391.607H239.913L232.647 383.77C230.721 383.47 228.888 382.735 227.289 381.62C225.689 380.506 224.365 379.041 223.417 377.339C222.47 375.636 221.923 373.74 221.819 371.794C221.715 369.848 222.056 367.905 222.817 366.111L227.091 365.705L246.537 371.727L241.174 365.705C246.515 366.497 251.944 366.497 257.286 365.705C263.996 365.022 261.987 359.406 261.987 359.406C255.277 358.744 247.221 352.701 247.221 352.701C253.931 350.694 247.221 348.003 247.221 348.003C208.415 348.088 187.045 327.312 187.045 327.312C190.362 326.724 193.487 325.339 196.149 323.276L176.681 314.564C170.634 306.513 180.036 305.851 180.036 305.851C216.364 315.909 214.227 309.161 214.227 309.161C214.227 305.104 222.946 308.521 222.946 308.521C237.049 311.211 227.647 304.57 227.647 304.57C226.984 301.26 237.049 304.57 237.049 304.57C247.734 305.232 241.58 299.851 241.58 299.851C206.021 296.477 163.796 271.836 163.796 271.836C157.598 262.333 165.762 263.849 165.762 263.849C181.874 273.907 211.406 274.526 211.406 274.526L216.77 268.483H224.826L220.787 261.778H229.506C236.9 259.088 229.506 254.411 229.506 254.411C193.285 253.066 153.004 223.406 153.004 223.406C153.004 223.406 174.031 227.677 187.451 226.396C187.451 226.396 191.148 226.396 185.101 223.043C185.101 223.043 167.663 221.698 173.369 219.52C175.113 219.442 176.849 219.235 178.562 218.901C180.351 218.778 182.148 218.835 183.925 219.071L188.798 220.566C191.64 221.249 191.811 219.733 191.811 219.733C190.293 217.214 194.332 218.217 194.332 218.217C199.885 219.375 205.618 219.375 211.171 218.217C214.291 218.666 213.522 214.609 213.522 214.609L207.923 213.947C207.025 210.359 200.764 210.808 200.764 210.808C163.176 210.808 143.623 198.999 143.623 198.999C135.567 190.949 143.623 189.604 143.623 189.604C145.682 191.867 148.506 193.29 151.551 193.597C151.551 193.597 142.512 186.892 158.603 188.899C158.603 188.899 169.672 193.277 178.049 189.582C178.049 189.582 168.326 189.241 172.001 185.547C176.959 187.481 182.236 188.466 187.558 188.451C187.558 188.451 191.576 189.347 186.896 184.436C186.896 184.436 192.024 182.643 193.306 183.091C194.641 183.332 195.99 183.482 197.345 183.539C198.243 183.774 202.046 182.877 201.128 181.981C200.209 181.084 202.709 179.845 199.589 179.077L187.494 175.511L183.69 172.137L180.848 172.905C178.711 172.073 150.611 167.183 143.879 150.677C143.879 150.677 161.936 154.947 168.646 153.218C168.646 153.218 168.326 151.808 165.526 149.652C165.526 149.652 178.711 153.218 184.759 152.769C184.759 152.769 184.972 152.556 181.853 149.865C183.872 149.461 185.963 149.616 187.9 150.314C187.9 150.314 195.486 152.449 197.281 150.762C197.281 150.762 199.311 149.417 194.161 147.409L178.241 144.1C175.549 143.203 150.953 140.534 144.456 120.995C150.606 122.562 156.916 123.414 163.261 123.536C163.261 123.536 165.035 123.323 163.924 121.743C166.935 122.415 170.049 122.495 173.091 121.978C173.091 121.978 182.707 123.536 187.644 122.191C187.644 122.191 189.781 121.978 185.165 119.949L189.439 119.287C188.669 119.074 141.935 111.771 141.721 89.3924C141.721 89.3924 150.803 94.3464 173.326 91.848C177.002 92.0189 172.493 90.2892 172.493 90.2892C168.459 89.7832 164.627 88.2298 161.381 85.7837C157.684 83.7765 159.522 82.5807 159.522 82.5807C166.232 84.2462 165.548 81.5557 165.548 81.5557C152.427 79.9328 145.375 76.7939 140.909 64.9641C140.909 64.9641 143.367 67.6333 150.739 68.0817C150.739 68.0817 152.32 68.3166 149.179 65.3912C149.179 65.3912 155.44 67.5265 158.346 67.1849C158.346 67.1849 162.834 66.7365 160.355 65.6261C160.334 65.5834 166.616 67.7401 165.163 63.8751Z" fill="#005767"/>
    <path d="M141.657 147.089C141.845 145.55 142.608 144.139 143.794 143.139C144.588 142.849 145.436 142.731 146.279 142.794C147.123 142.857 147.944 143.098 148.687 143.502C152.299 145.274 154.841 146.726 158.047 145.744C153.623 143.48 150.952 138.804 146.743 135.729C140.695 131.288 138.045 124.604 132.532 119.8C130.993 121.252 129.134 123.515 131.25 124.711C131.761 125.043 132.179 125.498 132.468 126.035C132.896 126.885 133.149 127.813 133.211 128.763C133.273 129.713 133.144 130.666 132.831 131.565C131.741 135.836 123.942 138.228 120.544 139.487C116.27 141.068 113 144.783 108.898 146.192C106.786 146.684 104.644 147.041 102.487 147.26C97.5505 148.285 100.35 150.335 103.876 150.015C107.19 149.648 110.465 148.991 113.663 148.05C118.963 146.534 124.113 144.612 129.369 142.989C133.237 141.794 134.412 140.854 137.212 143.737C137.383 144.1 140.289 152.022 141.657 147.089Z" fill="#008095"/>
    <path d="M92.5714 177.39C91.8183 177.688 91.1865 178.229 90.7764 178.927C90.1567 180.08 91.4816 180.891 92.5928 180.422C93.704 179.952 94.7298 178.564 96.2042 178.5C96.8297 178.46 97.4564 178.557 98.0399 178.786C98.6234 179.015 99.1494 179.369 99.5806 179.824C99.3767 178.895 99.3767 177.934 99.5806 177.005C99.9833 175.852 100.658 174.812 101.547 173.973C98.619 174.464 95.9264 176.898 92.9988 177.325C92.862 177.375 92.7167 177.396 92.5714 177.39Z" fill="#008095"/>
    <path d="M152.32 216.061C155.611 214.117 160.419 211.897 164.137 213.925C166.197 215.428 168.001 217.252 169.48 219.328C171.451 217.608 173.314 215.768 175.057 213.818C176.719 212.49 178.838 211.869 180.955 212.089C181.771 212.11 182.573 212.307 183.306 212.665C185.443 213.605 189.332 211.64 184.438 210.53C177.771 208.993 171.296 211.576 164.629 211.064C162.235 210.986 159.887 210.389 157.748 209.313C154.008 207.178 151.337 208.886 147.854 208.843C141.892 208.843 139.306 203.505 134.541 200.9C127.404 211.021 140.396 205.363 142.875 211C143.745 212.897 143.889 215.047 143.281 217.043C142.298 223.278 151.636 216.445 152.32 216.061Z" fill="#008095"/>
    <path d="M129.776 293.445C124.284 288.747 117.403 287.189 112.83 281.829C107.343 285.67 101.555 289.062 95.5211 291.972C91.2473 293.936 85.4989 297.395 80.5626 296.798C77.1008 296.392 72.7842 294.769 69.878 297.929C68.2112 299.744 67.0573 300.065 70.0062 300.065C73.0977 300.037 76.1803 299.729 79.2164 299.146C84.4946 298.271 105.714 292.335 105.543 303.204C105.619 304.499 105.377 305.793 104.837 306.973C104.296 308.153 103.475 309.183 102.445 309.973C99.2608 312.471 99.0043 318.044 95.6066 320.051C94.4851 320.694 93.313 321.244 92.1021 321.696C91.0843 322.064 90.092 322.499 89.1317 322.998C89.495 326.436 91.1618 327.867 94.1535 327.269C100.564 326.436 104.026 322.806 108.834 319.069C113.642 315.332 116.356 313.496 117.66 307.581C118.151 305.446 118.386 301.047 120.438 299.424C121.129 298.833 121.949 298.413 122.833 298.198C123.716 297.983 124.638 297.978 125.524 298.186C129.028 298.783 144.756 301.282 139.328 292.762C136.721 296.029 133.623 296.776 129.776 293.445Z" fill="#008095"/>
    <path d="M193.456 292.869C189.332 291.993 185.998 290.007 181.81 292.271C181.615 292.375 181.4 292.435 181.18 292.447C180.959 292.458 180.739 292.421 180.535 292.337C180.33 292.253 180.147 292.125 179.998 291.963C179.849 291.8 179.738 291.606 179.673 291.395C178.626 288.769 175.399 291.246 173.369 290.071C171.934 289.044 170.792 287.661 170.057 286.057C167.727 294.598 186.575 299.659 192.409 298.869C195.312 298.228 198.349 298.66 200.957 300.086C204.611 302.221 206.684 299.851 210.124 298.848C210.309 298.796 210.503 298.781 210.694 298.805C210.885 298.829 211.069 298.89 211.236 298.985C211.403 299.081 211.549 299.208 211.666 299.361C211.784 299.513 211.87 299.687 211.919 299.873C212.817 304.143 218.522 302.008 222.604 300.897C219.997 298.378 216.855 297.929 213.5 296.392C209.739 294.641 206.278 291.609 201.833 292.121C199.183 292.42 195.871 293.424 193.456 292.869Z" fill="#008095"/>
    <path d="M82.7637 337.583C82.6632 337.685 82.548 337.771 82.4218 337.839C73.6391 341.896 65.7324 348.195 56.5223 351.27C46.4574 354.623 35.73 353.405 25.4941 356.117C29.6611 360.089 34.5974 358.402 39.3842 355.882C39.6667 355.721 39.9937 355.654 40.317 355.693C40.6402 355.731 40.9425 355.873 41.1792 356.096C42.5255 357.591 44.4487 359.598 43.829 361.883C43.3207 363.458 42.6624 364.981 41.863 366.431C37.9524 374.673 45.1752 369.57 46.7352 368.374C47.7395 367.605 48.8721 368.694 48.8721 369.634C49.3636 373.499 48.4233 377.385 48.8721 381.186C53.146 375.912 56.4368 370.616 64.3007 373.734C67.6557 375.058 68.5745 377.193 72.7415 377.727L74.4297 377.94C76.1393 379.563 76.1393 377.478 74.4297 371.684C72.0791 370.573 67.6984 369.548 66.5231 366.794C62.3989 357.42 73.2972 360.196 77.2077 355.562C80.4986 351.633 82.8706 344.885 88.0847 346.103C87.9186 344.368 87.3515 342.695 86.4281 341.216C85.5048 339.738 84.2503 338.494 82.7637 337.583Z" fill="#008095"/>
    <path d="M220.766 353.149C212.219 352.679 214.356 359.918 209.227 363.591C207.678 364.555 205.952 365.199 204.15 365.485C202.347 365.771 200.506 365.693 198.735 365.256C194.91 364.637 185.55 360.986 183.392 365.598C188.136 369.378 191.084 374.887 195.7 378.73C196.491 374.801 198.564 369.207 202.667 370.595C205.765 371.641 207.389 374.438 211.108 374.139C215.83 373.734 215.253 373.285 214.783 369.634C214.163 364.787 213.266 359.79 219.655 359.213C222.305 358.957 224.827 360.217 227.284 358.082C227.807 357.643 228.431 357.343 229.1 357.206C233.316 356.666 237.576 356.552 241.815 356.865C236.58 350.629 228.096 353.555 220.766 353.149Z" fill="#008095"/>
    <path d="M150.248 367.563C146.489 366.961 142.87 365.688 139.563 363.804C134.84 360.836 130.503 357.398 126.1 353.982C123.28 351.847 121.827 348.323 120.267 345.12C120.267 345.227 120.16 345.291 120.117 345.398C119.917 345.73 119.594 345.971 119.218 346.066C118.842 346.162 118.443 346.106 118.108 345.91C115.138 344.458 113.407 341.917 111.099 339.718C103.342 341.512 102.936 352.295 108.172 356.801C110.843 359.085 114.07 361.306 115.8 364.466C117.028 366.532 117.712 368.873 117.791 371.274C117.869 373.674 117.339 376.056 116.249 378.197C120.886 376.83 124.049 371.62 129.178 371.235C129.789 371.242 130.389 371.404 130.92 371.707C131.451 372.009 131.895 372.442 132.212 372.965C135.033 377.962 136.336 381.506 143.11 381.827C143.295 381.837 143.476 381.88 143.645 381.955C145.782 378.41 147.064 373.862 152.192 374.545C154.776 374.705 157.246 375.66 159.266 377.278C161.573 370.83 156.701 368.929 150.248 367.563Z" fill="#008095"/>
    <path d="M188.67 335.746C188.18 336.478 187.751 337.25 187.387 338.052C187.287 338.232 187.15 338.389 186.985 338.514C186.821 338.638 186.632 338.728 186.431 338.776C186.231 338.824 186.022 338.83 185.819 338.794C185.616 338.757 185.422 338.679 185.251 338.565C182.17 336.915 179.548 334.525 177.623 331.609C175.698 328.694 174.53 325.346 174.224 321.866C174.228 321.607 174.301 321.353 174.437 321.132C174.572 320.91 174.764 320.729 174.993 320.607L174.074 319.902C170.318 317.409 166.967 314.356 164.138 310.848C163.973 310.569 163.907 310.243 163.95 309.921C163.993 309.6 164.141 309.303 164.373 309.076C170.549 302.99 158.389 302.435 156.167 307.923C156.069 308.225 155.882 308.49 155.63 308.685C155.378 308.879 155.074 308.993 154.757 309.012C154.38 309.08 153.993 309.063 153.623 308.963C153.254 308.864 152.911 308.683 152.62 308.435C152.303 308.248 152.072 307.944 151.976 307.589C151.88 307.234 151.927 306.856 152.107 306.535C147.235 308.67 147.042 313.432 143.559 317.681C142.538 319.159 141.135 320.332 139.499 321.076C136.806 321.845 134.071 319.987 132.96 324.536C131.122 332.009 132.682 337.348 141.08 336.536C145.232 335.857 149.421 335.422 153.624 335.234C158.496 335.234 170.42 335.234 171.745 341.234C172.005 342.989 172.169 344.757 172.237 346.53C172.835 351.313 181.212 349.135 184.225 349.498C190.465 350.288 196.64 351.249 202.923 351.633C201.641 345.355 193.756 339.632 188.67 335.746Z" fill="#008095"/>
    <path d="M169.223 252.126C175.206 254.262 182.044 261.436 188.754 259.92C189.918 259.508 191.178 259.452 192.374 259.76C193.569 260.069 194.646 260.727 195.464 261.65C196.276 262.696 196.896 263.785 197.601 264.874C199.738 268.035 203.862 262.077 205.273 260.945C205.728 260.664 206.249 260.504 206.784 260.481C207.319 260.459 207.851 260.575 208.329 260.817C206.085 256.547 202.773 254.112 196.575 255.714C195.205 256.195 193.752 256.398 192.302 256.312C188.241 255.735 186.254 253.194 184.31 249.735C179.865 241.834 171.36 244.396 163.816 243.564C161.406 243.619 159.021 243.053 156.893 241.919C155.194 240.429 153.386 239.066 151.486 237.841C149.67 238.631 145.311 240.724 146.892 242.005C148.473 243.286 150.161 244.29 151.85 245.379C153.081 246.103 154.228 246.963 155.269 247.941C157.042 249.713 156.337 253.258 156.081 255.351C155.141 262.44 160.205 253.343 162.107 251.486C164.009 249.628 167.492 251.486 169.223 252.126Z" fill="#008095"/>
    <path d="M137.896 264.853C137.737 265.011 137.543 265.13 137.331 265.202C137.118 265.274 136.892 265.296 136.669 265.267C136.447 265.238 136.234 265.159 136.046 265.036C135.859 264.912 135.702 264.747 135.589 264.554C132.789 260.903 128.964 256.931 127.618 252.404C127.468 251.892 125.353 245.486 126.079 244.973C125.489 245.43 124.813 245.764 124.092 245.955C123.841 246.023 123.576 246.024 123.324 245.956C123.073 245.888 122.844 245.756 122.66 245.571C122.311 245.182 122.043 244.727 121.87 244.234C121.698 243.741 121.624 243.218 121.654 242.697C121.684 242.175 121.816 241.664 122.044 241.194C122.272 240.723 122.59 240.302 122.981 239.955C125.246 238.033 128.558 234.638 123.579 233.549L120.181 232.78C120.169 232.979 120.169 233.179 120.181 233.378C120.545 235.236 117.702 236.026 117.339 234.168C117.199 233.512 117.092 232.849 117.019 232.182C109.39 233.976 110.608 242.176 105.009 246.532C101.276 249.371 96.9157 251.275 92.2944 252.084C83.6185 253.813 75.7119 254.39 67.6129 258.276C66.8184 258.745 65.9246 259.02 65.004 259.079C64.0833 259.139 63.1615 258.981 62.3134 258.618C62.0783 259.515 61.8219 260.412 61.5654 261.287C66.3308 261.543 66.7795 265.109 64.3648 267.885C67.1223 267.991 69.8737 267.555 72.4638 266.604C75.7169 265.078 78.8907 263.389 81.9731 261.543C86.0452 258.965 90.6469 257.337 95.4357 256.781C103.193 256.461 106.12 259.365 108.428 265.109C108.957 263.959 109.872 263.03 111.014 262.483C113.322 261.714 117.831 261.671 119.327 259.493C119.478 259.252 119.696 259.059 119.954 258.937C120.212 258.815 120.499 258.769 120.782 258.805C121.065 258.841 121.332 258.957 121.551 259.139C121.77 259.322 121.933 259.563 122.019 259.835C122.554 262.415 123.721 264.821 125.417 266.839C126.59 266.409 127.863 266.325 129.083 266.598C130.303 266.87 131.419 267.488 132.298 268.376C137.458 272.622 143.304 275.958 149.585 278.242C148.175 272.22 142.897 259.707 137.896 264.853Z" fill="#008095"/>
    <path d="M116.164 208.416C115.978 207.644 116.096 206.83 116.494 206.142C116.891 205.455 117.538 204.946 118.301 204.722C120.929 204.359 124.968 199.042 121.997 196.736C118.343 199.191 115.587 203.142 111.612 205.106C108.642 206.644 105.03 206.452 101.953 207.519C103.51 207.811 105.091 207.961 106.676 207.968C106.901 207.971 107.124 208.024 107.325 208.125C107.527 208.226 107.704 208.371 107.842 208.55C107.979 208.729 108.075 208.936 108.121 209.157C108.167 209.378 108.162 209.607 108.107 209.825C107.146 214.63 101.697 214.096 97.7434 214.096C96.1407 214.096 93.4695 216.552 91.9523 215.932C91.2898 215.655 88.2981 214.203 87.9135 214.096C87.9135 214.096 82.3361 212.43 83.1482 213.882C84.9646 217.107 87.0374 222.68 92.3156 220.288C92.8897 219.972 93.5222 219.776 94.1747 219.712C96.4184 219.712 96.8672 220.694 98.5981 221.847C102.872 224.388 105.308 225.029 107.766 219.947C108.601 217.747 110.192 215.916 112.253 214.779C112.538 214.621 112.866 214.558 113.189 214.6C113.513 214.642 113.814 214.788 114.048 215.014C118.322 219.05 119.882 222.552 126.592 221.249C127.473 221.066 128.382 221.066 129.263 221.249C127.126 218.666 122.852 218.025 120.459 215.292C118.469 213.399 116.991 211.034 116.164 208.416Z" fill="#008095"/>
    <path d="M147.362 176.45C150.375 178.948 153.025 181.062 157.256 181.041C161.039 181.041 160.462 177.539 164.052 177.155C165.718 176.984 167.706 178.607 169.223 178.991C171.031 179.458 172.928 179.458 174.736 178.991C174.558 178.918 174.4 178.801 174.277 178.652C174.154 178.503 174.069 178.326 174.031 178.137C173.091 171.453 158.068 171.069 152.79 169.916C151.302 169.77 149.858 169.331 148.541 168.623C147.224 167.916 146.061 166.954 145.119 165.795C142.982 162.698 142.704 158.535 138.43 158.641C135.182 160.478 137.468 165.432 137.575 168.378C137.55 169.366 137.322 170.337 136.907 171.233C136.492 172.129 135.897 172.931 135.16 173.589C131.079 178.308 124.283 168.592 120.971 171.966C119.336 173.859 117.119 175.158 114.667 175.66C113.551 175.745 112.429 175.745 111.312 175.66C108.463 177.283 108.378 177.774 111.056 177.133L112.146 176.941C119.005 175.681 125.694 177.902 132.447 178.906C132.82 179.015 133.137 179.266 133.328 179.605C133.52 179.944 133.571 180.344 133.472 180.721C131.934 190.031 140.033 180.08 140.375 179.119C140.588 178.607 140.823 178.116 141.037 177.624C141.657 176.236 143.302 175.938 144.542 175.489C145.053 175.437 145.57 175.495 146.057 175.661C146.544 175.827 146.989 176.096 147.362 176.45Z" fill="#008095"/>
    <path d="M155.12 122.042C153.41 122.042 151.53 122.042 149.649 122.042C153.569 122.8 157.541 123.257 161.531 123.408C159.495 122.568 157.322 122.104 155.12 122.042Z" fill="#008095"/>
    <path d="M142.363 110.212L142.149 110.319C140.696 114.483 139.734 117.92 145.91 118.753C149.737 119.13 153.586 119.23 157.428 119.052C159.736 119.052 161.894 121.465 164.287 120.59C165.27 120.123 166.341 119.868 167.429 119.842C163.027 118.113 160.056 116.084 154.885 115.572C150.889 114.995 145.354 113.394 142.363 110.212Z" fill="#008095"/>
    <path d="M106.226 121.059C109.603 120.419 111.718 118.326 115.714 119.864C122.745 122.597 124.134 114.312 128.536 112.176C130.673 111.194 131.399 109.486 133.109 108.482C133.681 108.306 134.163 107.916 134.455 107.393C135.844 104.19 134.968 102.076 131.848 100.987C130.908 102.653 130.053 104.361 129.22 106.091C129.059 106.375 128.808 106.598 128.505 106.722C128.203 106.846 127.867 106.864 127.553 106.774C124.946 105.92 118.022 112.305 114.966 113.18C111.911 114.056 105.927 112.411 102.701 113.927C102.821 114.079 102.906 114.257 102.947 114.446C102.987 114.636 102.984 114.833 102.936 115.021C102.889 115.209 102.798 115.383 102.672 115.531C102.546 115.678 102.388 115.794 102.209 115.871L99.3242 117.216C101.245 117.589 103.208 117.697 105.158 117.536C105.382 117.542 105.602 117.598 105.801 117.701C106 117.803 106.174 117.949 106.309 118.127C106.445 118.305 106.538 118.512 106.583 118.731C106.628 118.95 106.623 119.177 106.568 119.394L106.226 121.059Z" fill="#008095"/>
    <path d="M131.357 83.4988C135.225 83.7337 139.371 82.5379 143.025 84.1181C146.755 86.0366 150.753 87.3827 154.885 88.1112C156.158 88.2414 157.422 88.4554 158.667 88.7518C157.888 87.2635 157.251 85.7049 156.765 84.0967C156.161 84.4359 155.49 84.6399 154.799 84.6946C150.526 85.4206 145.077 81.577 142.469 78.4594C141.21 77.1607 140.312 75.5562 139.862 73.8044C139.307 70.9858 143.474 69.6832 136.742 68.765C136.683 70.0347 136.167 71.2404 135.289 72.1602C135.033 72.4164 129.733 76.4309 133.516 76.4309C133.762 76.4422 134.002 76.5142 134.214 76.6406C134.426 76.7669 134.603 76.9436 134.73 77.155C134.857 77.3664 134.929 77.6058 134.941 77.8521C134.953 78.0983 134.904 78.3436 134.798 78.5662C133.781 80.2972 132.631 81.9464 131.357 83.4988Z" fill="#008095"/>
    <path d="M132.062 48.3085C130.417 49.5043 128.707 50.5933 126.977 51.6397C127.96 53.0917 129.755 53.4974 132.426 52.75C133.622 52.0881 135.353 53.5188 134.434 54.7573C132.533 57.3197 133.067 59.2201 136.571 58.1311C137.936 57.813 139.199 57.1598 140.247 56.2306C141.166 56.7004 141.294 56.6363 140.61 55.9957C138.699 53.6929 137.07 51.1694 135.759 48.4794C133.751 44.2087 136.315 43.0556 139.435 43.9524C140.029 39.7167 139.774 35.4053 138.687 31.2686C137.982 33.0409 137.426 34.8773 136.55 36.7137C135.332 39.4896 131.699 43.1197 132.725 46.28C132.845 46.589 132.845 46.9319 132.725 47.2409C132.697 47.4558 132.624 47.6623 132.509 47.8465C132.395 48.0307 132.243 48.1882 132.062 48.3085Z" fill="#008095"/>
    <path d="M151.658 33.1904C141.657 33.831 141.187 34.3221 140.631 44.8493C140.012 34.3221 139.542 33.831 129.327 33.1904C139.542 32.6779 140.012 32.2081 140.61 22.5137C141.187 32.2081 141.657 32.6779 151.658 33.1904Z" fill="white"/>
    <path d="M120.245 149.566C110.244 150.207 109.774 150.677 109.218 161.225C108.599 150.677 108.129 150.207 97.9141 149.545C108.129 149.032 108.599 148.563 109.197 138.868C109.774 148.563 110.244 149.032 120.245 149.566Z" fill="white"/>
    <path d="M152.214 177.219C142.213 177.859 141.743 178.329 141.166 188.878C140.567 178.329 140.097 177.859 129.883 177.197C140.097 176.685 140.567 176.215 141.166 166.521C141.743 176.13 142.17 176.685 152.214 177.219Z" fill="white"/>
    <path d="M88.1482 258.169C78.1474 258.81 77.6773 259.28 77.1003 269.807C76.502 259.28 76.0319 258.81 65.8174 258.148C76.0319 257.636 76.502 257.166 77.1003 247.471C77.6773 257.273 78.062 257.636 88.1482 258.169Z" fill="white"/>
    <path d="M185.891 255.97C175.891 256.611 175.42 257.102 174.865 267.629C174.245 257.102 173.775 256.611 163.561 255.97C173.775 255.458 174.245 254.988 174.844 245.293C175.42 254.988 175.891 255.458 185.891 255.97Z" fill="white"/>
    <path d="M140.93 292.954C130.93 293.595 130.46 294.064 129.904 304.613C129.306 294.064 128.814 293.595 118.6 292.954C128.814 292.442 129.284 291.972 129.883 282.277C130.46 291.972 130.93 292.442 140.93 292.954Z" fill="white"/>
    <path d="M94.2391 352.316C84.2383 352.978 83.7682 353.448 83.2126 363.975C82.5928 353.448 82.1227 352.978 71.9082 352.316C82.1227 351.804 82.5928 351.334 83.1912 341.64C83.7681 351.334 84.2383 351.804 94.2391 352.316Z" fill="white"/>
    <path d="M160.825 358.915C150.824 359.555 150.354 360.025 149.798 370.574C149.179 360.025 148.709 359.555 138.494 358.893C148.709 358.381 149.179 357.911 149.777 348.217C150.354 357.911 150.824 358.381 160.825 358.915Z" fill="white"/>
    <path d="M225.189 351.056C215.167 351.697 214.697 352.167 214.141 362.715C213.543 352.167 213.052 351.697 202.858 351.056C213.052 350.523 213.543 350.053 214.141 340.38C214.697 350.053 215.167 350.523 225.189 351.056Z" fill="white"/>
    <path d="M141.166 109.401C131.165 110.063 130.695 110.532 130.139 121.06C129.541 110.532 129.049 110.063 118.835 109.401C129.049 108.888 129.52 108.418 130.139 98.7239C130.695 108.418 131.165 108.888 141.166 109.401Z" fill="white"/>
</svg>
