<svg viewBox="0 0 183 181" fill="none" xmlns="http://www.w3.org/2000/svg">
    <path d="M45.7598 29.7227C45.7598 29.7227 73.1242 50.4879 114.725 11.6601C151.671 -22.8219 181.838 31.5833 182.049 57.6373C182.322 91.3879 145.103 118.393 163.165 140.56C181.228 162.728 127.345 199.334 98.305 167.654C62.1801 128.245 52.3935 160.265 31.8025 160.265C17.0241 160.265 -13.3174 123.544 7.17186 96.225C24.4133 73.237 15.0102 65.607 10.456 57.6373C3.88788 46.143 19.4872 14.9443 45.7598 29.7227Z" fill="#FDA188" fill-opacity="0.15"/>
    <path d="M153.629 124.789L53.1609 155.635C51.4963 156.145 49.697 155.974 48.1589 155.158C46.6207 154.342 45.4697 152.948 44.9589 151.283L33.2101 113.024L23.4564 81.2505L23.2676 80.6429L24.6057 79.0994L68.2675 28.7554C68.4675 28.5223 68.7294 28.3508 69.023 28.2606C69.3165 28.1705 69.6297 28.1655 69.9259 28.2462L134.343 45.4302L136.289 45.9474L136.888 47.885L157.98 116.58C158.49 118.245 158.318 120.045 157.502 121.584C156.686 123.123 155.293 124.276 153.629 124.789Z" fill="#FD8160"/>
    <path d="M136.888 47.8844L98.8096 92.7449V90.2819L134.343 45.4296L136.289 45.9468L136.888 47.8844Z" fill="#FDB09B"/>
    <path d="M153.746 124.75C153.671 124.775 153.591 124.775 153.516 124.75L92.0217 101.918C91.972 101.899 91.9275 101.869 91.8917 101.829C91.8559 101.79 91.8298 101.743 91.8154 101.692C91.801 101.641 91.7989 101.587 91.809 101.535C91.8192 101.483 91.8414 101.434 91.874 101.392L102.153 88.5682L135.897 46.4422C135.934 46.3943 135.983 46.3575 136.04 46.3359C136.096 46.3143 136.158 46.3088 136.217 46.3198C136.276 46.3308 136.332 46.358 136.377 46.3985C136.422 46.4389 136.454 46.4909 136.472 46.5489L157.835 116.138L157.975 116.581C158.482 118.225 158.323 120.003 157.532 121.531C156.741 123.059 155.381 124.215 153.746 124.75Z" fill="#FDB09B"/>
    <path d="M88.0957 99.3379L87.5375 100.504L23.8752 80.832C23.817 80.814 23.755 80.8122 23.6958 80.8268C23.6367 80.8415 23.5827 80.872 23.5396 80.915C23.4965 80.9581 23.466 81.0121 23.4514 81.0712C23.4367 81.1304 23.4385 81.1924 23.4564 81.2506L23.2676 80.643L24.6057 79.0995L88.0957 99.3379Z" fill="#FDB09B"/>
    <path d="M91.3218 102.129L53.2348 155.537C53.191 155.603 53.1234 155.65 53.0459 155.668C51.3923 156.143 49.6181 155.95 48.1055 155.13C46.5929 154.31 45.4629 152.929 44.9588 151.284L33.21 113.024L23.4563 81.2507C23.4383 81.1925 23.4366 81.1305 23.4512 81.0714C23.4659 81.0123 23.4964 80.9583 23.5395 80.9152C23.5826 80.8721 23.6366 80.8416 23.6957 80.827C23.7549 80.8124 23.8169 80.8141 23.8751 80.8321L87.5369 100.504L91.1489 101.62C91.1988 101.636 91.2444 101.663 91.2819 101.7C91.3193 101.736 91.3476 101.781 91.3645 101.831C91.3813 101.881 91.3862 101.933 91.3788 101.985C91.3714 102.037 91.3518 102.086 91.3218 102.129Z" fill="#FDB09B"/>
    <path d="M153.626 124.79L53.1646 155.635C51.6435 156.097 50.0066 155.994 48.5561 155.343C47.1055 154.693 45.9392 153.54 45.2725 152.096C45.1601 151.85 45.1102 151.58 45.1273 151.309C45.1444 151.039 45.2279 150.777 45.3705 150.546L85.4084 85.3285C85.6175 84.9878 85.9437 84.7351 86.3259 84.6178C86.708 84.5005 87.1198 84.5266 87.484 84.6912L157.222 116.204C157.469 116.315 157.686 116.485 157.851 116.699C158.017 116.913 158.128 117.165 158.173 117.432C158.431 119.001 158.113 120.61 157.277 121.962C156.441 123.315 155.145 124.319 153.626 124.79Z" fill="#FDA188"/>
    <path d="M133.796 22.3998C133.736 22.3997 133.678 22.3845 133.626 22.3555C133.574 22.3265 133.53 22.2848 133.499 22.2342C133.467 22.1836 133.45 22.1258 133.447 22.0664C133.444 22.0069 133.456 21.9477 133.483 21.8944C133.783 21.2886 133.943 20.9564 133.943 20.9555C133.962 20.9125 133.99 20.8737 134.024 20.8414C134.058 20.8092 134.098 20.7842 134.142 20.7679C134.187 20.7516 134.234 20.7444 134.28 20.7466C134.327 20.7489 134.373 20.7606 134.416 20.781C134.458 20.8015 134.496 20.8302 134.527 20.8656C134.558 20.901 134.581 20.9422 134.596 20.9869C134.611 21.0316 134.616 21.0787 134.612 21.1256C134.608 21.1724 134.595 21.218 134.573 21.2596C134.573 21.2596 134.412 21.5941 134.109 22.205C134.08 22.2634 134.036 22.3126 133.98 22.347C133.925 22.3814 133.861 22.3997 133.796 22.3998Z" fill="white"/>
    <path d="M98.4518 72.26C98.3852 72.26 98.32 72.2409 98.2638 72.2051C98.2076 72.1693 98.1629 72.1182 98.1347 72.0578C98.1066 71.9974 98.0962 71.9303 98.105 71.8643C98.1137 71.7982 98.141 71.736 98.1839 71.685C98.6362 71.146 99.0658 70.6113 99.4612 70.0957C99.5177 70.0221 99.6011 69.9739 99.6932 69.9617C99.7852 69.9496 99.8783 69.9745 99.952 70.031C100.026 70.0875 100.074 70.1709 100.086 70.2629C100.098 70.355 100.073 70.4481 100.017 70.5217C99.6152 71.0453 99.179 71.5881 98.7202 72.135C98.6873 72.1741 98.6462 72.2056 98.5999 72.2272C98.5535 72.2488 98.503 72.26 98.4518 72.26ZM100.944 68.9953C100.88 68.9953 100.818 68.9779 100.763 68.945C100.709 68.9122 100.664 68.8651 100.635 68.8089C100.605 68.7527 100.591 68.6894 100.595 68.6259C100.598 68.5624 100.619 68.5011 100.655 68.4485C101.055 67.8596 101.417 67.2821 101.732 66.7319C101.754 66.692 101.785 66.657 101.821 66.6288C101.858 66.6007 101.899 66.58 101.943 66.5679C101.988 66.5558 102.034 66.5525 102.08 66.5583C102.125 66.5641 102.169 66.5788 102.209 66.6016C102.249 66.6244 102.284 66.6548 102.312 66.6912C102.34 66.7275 102.361 66.769 102.373 66.8134C102.385 66.8577 102.389 66.904 102.383 66.9496C102.377 66.9952 102.362 67.0392 102.339 67.0791C102.016 67.6452 101.644 68.2382 101.233 68.8422C101.201 68.8894 101.158 68.928 101.108 68.9547C101.057 68.9814 101.001 68.9953 100.944 68.9953H100.944ZM100.872 65.6593H100.866C100.159 65.6625 99.4592 65.5095 98.8176 65.2113C98.776 65.1918 98.7386 65.1644 98.7075 65.1305C98.6765 65.0966 98.6524 65.0569 98.6367 65.0137C98.621 64.9705 98.614 64.9246 98.616 64.8787C98.618 64.8328 98.6291 64.7877 98.6485 64.746C98.668 64.7044 98.6954 64.667 98.7293 64.6359C98.7632 64.6049 98.8029 64.5808 98.8461 64.5651C98.8893 64.5494 98.9352 64.5424 98.9811 64.5444C99.027 64.5464 99.0721 64.5575 99.1137 64.5769C99.6628 64.8316 100.261 64.9619 100.867 64.9586C100.895 64.9586 100.924 64.9586 100.953 64.9586H100.96C101.006 64.9581 101.051 64.9668 101.094 64.984C101.137 65.0012 101.175 65.0266 101.208 65.0588C101.241 65.091 101.267 65.1293 101.285 65.1716C101.303 65.2139 101.313 65.2594 101.313 65.3053C101.313 65.3513 101.305 65.3969 101.288 65.4395C101.27 65.4822 101.245 65.521 101.213 65.5538C101.181 65.5866 101.142 65.6127 101.1 65.6307C101.058 65.6487 101.012 65.6581 100.966 65.6586C100.935 65.659 100.904 65.6593 100.872 65.6593H100.872ZM102.956 65.4213C102.876 65.3989 102.803 65.3556 102.745 65.2956C102.686 65.2356 102.645 65.1613 102.626 65.0801C102.606 64.999 102.608 64.9141 102.632 64.8341C102.656 64.754 102.701 64.6819 102.762 64.6249C102.968 64.1137 103.132 63.5865 103.252 63.0484C103.261 63.0031 103.279 62.96 103.305 62.9217C103.331 62.8834 103.364 62.8507 103.403 62.8254C103.442 62.8 103.485 62.7826 103.531 62.7742C103.576 62.7657 103.623 62.7664 103.668 62.7761C103.713 62.7859 103.756 62.8045 103.794 62.8309C103.832 62.8573 103.865 62.8909 103.89 62.93C103.915 62.969 103.931 63.0125 103.939 63.0581C103.947 63.1037 103.946 63.1504 103.936 63.1955C103.858 63.5535 103.76 63.9069 103.642 64.2539C103.962 64.1039 104.289 63.93 104.621 63.7336C104.7 63.6899 104.794 63.679 104.881 63.703C104.969 63.727 105.044 63.7841 105.09 63.8622C105.136 63.9403 105.15 64.0334 105.129 64.1217C105.108 64.21 105.053 64.2867 104.977 64.3356C104.44 64.6568 103.879 64.9335 103.297 65.163L103.278 65.2078C103.251 65.2708 103.206 65.3246 103.149 65.3625C103.092 65.4003 103.025 65.4206 102.956 65.4207L102.956 65.4213ZM97.2834 64.0773C97.1985 64.0774 97.1164 64.0465 97.0526 63.9905C96.4941 63.5231 96.0227 62.9605 95.6602 62.3288C95.6363 62.2882 95.6208 62.2432 95.6147 62.1965C95.6086 62.1498 95.612 62.1024 95.6247 62.057C95.6374 62.0116 95.6591 61.9693 95.6885 61.9325C95.718 61.8957 95.7545 61.8653 95.796 61.843C95.8375 61.8207 95.883 61.8069 95.9299 61.8027C95.9768 61.7984 96.0241 61.8036 96.069 61.818C96.1138 61.8324 96.1553 61.8558 96.1909 61.8866C96.2265 61.9174 96.2555 61.9551 96.2762 61.9974C96.5993 62.5553 97.0183 63.0518 97.5138 63.4642C97.5673 63.5111 97.6052 63.5733 97.6225 63.6423C97.6398 63.7114 97.6356 63.7841 97.6105 63.8507C97.5854 63.9173 97.5405 63.9746 97.482 64.0151C97.4235 64.0556 97.354 64.0773 97.2828 64.0773H97.2834ZM106.497 63.229C106.423 63.2291 106.352 63.2062 106.293 63.1636C106.233 63.121 106.188 63.0609 106.165 62.9915C106.141 62.9222 106.14 62.8473 106.161 62.7772C106.183 62.7072 106.225 62.6456 106.283 62.6011C106.786 62.2162 107.309 61.7786 107.839 61.3002C107.873 61.2694 107.913 61.2457 107.957 61.2303C108 61.2149 108.046 61.2082 108.092 61.2105C108.138 61.2129 108.183 61.2242 108.224 61.244C108.266 61.2637 108.303 61.2914 108.334 61.3256C108.364 61.3597 108.388 61.3995 108.404 61.4428C108.419 61.4862 108.426 61.5321 108.423 61.578C108.421 61.6239 108.41 61.6689 108.39 61.7104C108.37 61.7519 108.342 61.7891 108.308 61.8199C107.764 62.3107 107.226 62.7606 106.709 63.1568C106.648 63.2032 106.573 63.2282 106.497 63.2279L106.497 63.229ZM103.703 61.4315C103.618 61.4314 103.537 61.4011 103.474 61.3461C103.41 61.2911 103.369 61.2151 103.357 61.1319C103.281 60.5178 103.017 59.942 102.602 59.4833C102.539 59.4152 102.506 59.325 102.51 59.2325C102.514 59.14 102.554 59.0527 102.622 58.9898C102.689 58.9268 102.78 58.8933 102.872 58.8966C102.965 58.8999 103.052 58.9397 103.115 59.0073C103.628 59.5695 103.954 60.2763 104.049 61.031C104.056 61.0765 104.054 61.1228 104.042 61.1674C104.031 61.212 104.011 61.2539 103.984 61.2907C103.956 61.3276 103.922 61.3587 103.882 61.3822C103.843 61.4057 103.799 61.4213 103.753 61.4279C103.737 61.4303 103.72 61.4315 103.703 61.4315ZM95.7476 60.5347C95.6912 60.5347 95.6356 60.5211 95.5856 60.4951C95.5357 60.469 95.4927 60.4312 95.4604 60.385C95.4282 60.3388 95.4076 60.2854 95.4003 60.2295C95.3931 60.1736 95.3995 60.1168 95.419 60.0639C95.661 59.4059 96.189 58.8327 96.9471 58.4071C97.028 58.3617 97.1237 58.3502 97.2131 58.3753C97.3025 58.4004 97.3782 58.4599 97.4237 58.5409C97.4692 58.6218 97.4806 58.7175 97.4555 58.8069C97.4304 58.8963 97.3709 58.9721 97.29 59.0175C96.6794 59.3604 96.2597 59.8056 96.0761 60.3055C96.0514 60.3728 96.0066 60.4308 95.9479 60.4718C95.8891 60.5128 95.8192 60.5347 95.7476 60.5347ZM109.558 60.4846C109.489 60.4846 109.422 60.4642 109.364 60.4259C109.307 60.3877 109.262 60.3333 109.235 60.2697C109.209 60.206 109.202 60.1359 109.215 60.0681C109.228 60.0004 109.261 59.938 109.309 59.8889C109.765 59.4269 110.236 58.9261 110.709 58.4021C110.771 58.3332 110.858 58.2918 110.951 58.287C111.044 58.2823 111.135 58.3145 111.203 58.3767C111.272 58.4389 111.314 58.526 111.319 58.6187C111.323 58.7114 111.291 58.8022 111.229 58.8711C110.749 59.4031 110.271 59.9104 109.808 60.3803C109.775 60.4134 109.736 60.4396 109.693 60.4575C109.651 60.4754 109.605 60.4846 109.558 60.4846ZM101.105 58.5779C101.074 58.5779 101.043 58.5737 101.013 58.5656C100.392 58.4046 99.745 58.3635 99.108 58.4445C99.0624 58.45 99.0161 58.4465 98.9718 58.4341C98.9276 58.4218 98.8862 58.4008 98.85 58.3724C98.8138 58.3441 98.7836 58.3088 98.761 58.2688C98.7385 58.2288 98.724 58.1847 98.7185 58.139C98.713 58.0934 98.7165 58.0471 98.7289 58.0028C98.7413 57.9586 98.7622 57.9172 98.7906 57.881C98.8189 57.8448 98.8542 57.8146 98.8942 57.7921C98.9343 57.7695 98.9784 57.7551 99.024 57.7495C99.7505 57.6576 100.488 57.7052 101.197 57.8895C101.279 57.9116 101.35 57.9628 101.397 58.0334C101.444 58.1041 101.464 58.1894 101.452 58.2736C101.441 58.3578 101.4 58.435 101.336 58.4909C101.272 58.5468 101.19 58.5776 101.105 58.5775V58.5779ZM112.319 57.4343C112.252 57.4342 112.187 57.4151 112.131 57.3793C112.075 57.3434 112.03 57.2923 112.002 57.2319C111.974 57.1714 111.964 57.1043 111.973 57.0382C111.981 56.9722 112.009 56.91 112.052 56.859C112.475 56.355 112.911 55.8216 113.347 55.2725C113.375 55.2358 113.41 55.205 113.451 55.182C113.491 55.1591 113.535 55.1443 113.581 55.1387C113.628 55.1331 113.674 55.1366 113.719 55.1492C113.764 55.1618 113.805 55.1831 113.842 55.212C113.878 55.2408 113.908 55.2766 113.931 55.3172C113.953 55.3578 113.967 55.4025 113.972 55.4486C113.977 55.4948 113.973 55.5414 113.959 55.5859C113.946 55.6303 113.924 55.6717 113.895 55.7076C113.455 56.2619 113.015 56.8009 112.587 57.3095C112.554 57.3486 112.513 57.38 112.467 57.4016C112.421 57.4231 112.371 57.4343 112.32 57.4343H112.319ZM114.88 54.2127C114.815 54.2127 114.751 54.1945 114.696 54.1602C114.641 54.1259 114.596 54.0769 114.567 54.0186C114.538 53.9603 114.526 53.8951 114.532 53.8303C114.538 53.7655 114.562 53.7037 114.601 53.6517C115.001 53.1224 115.412 52.5676 115.821 52.0027C115.875 51.9275 115.957 51.877 116.049 51.8623C116.141 51.8477 116.234 51.87 116.309 51.9245C116.385 51.9789 116.435 52.061 116.45 52.1527C116.464 52.2444 116.442 52.3381 116.388 52.4133C115.976 52.9821 115.563 53.5407 115.16 54.0737C115.127 54.1168 115.085 54.1518 115.037 54.176C114.988 54.2001 114.935 54.2127 114.881 54.2127H114.88ZM117.296 50.8807C117.232 50.8807 117.169 50.8631 117.115 50.8298C117.06 50.7966 117.016 50.7491 116.986 50.6924C116.957 50.6357 116.943 50.5719 116.947 50.5081C116.951 50.4443 116.973 50.3828 117.01 50.3304C117.391 49.7844 117.782 49.2144 118.172 48.6381C118.224 48.5611 118.304 48.508 118.395 48.4904C118.486 48.4727 118.581 48.492 118.658 48.544C118.735 48.596 118.788 48.6764 118.805 48.7675C118.823 48.8587 118.804 48.9531 118.752 49.0301C118.36 49.6094 117.968 50.1818 117.584 50.7313C117.552 50.7775 117.509 50.8152 117.459 50.8411C117.409 50.8671 117.353 50.8807 117.297 50.8806L117.296 50.8807ZM119.601 47.4705C119.538 47.4704 119.476 47.4533 119.422 47.421C119.367 47.3886 119.323 47.3422 119.293 47.2867C119.263 47.2311 119.249 47.1685 119.251 47.1055C119.254 47.0424 119.274 46.9813 119.308 46.9285C119.679 46.3638 120.055 45.7823 120.426 45.2002C120.476 45.122 120.555 45.0668 120.646 45.0467C120.736 45.0267 120.831 45.0435 120.909 45.0935C120.988 45.1434 121.043 45.2224 121.063 45.313C121.083 45.4037 121.066 45.4986 121.016 45.5768C120.643 46.1613 120.266 46.7453 119.894 47.3128C119.862 47.3612 119.819 47.401 119.767 47.4285C119.716 47.456 119.659 47.4703 119.601 47.4703L119.601 47.4705ZM121.818 43.9985C121.755 43.9984 121.694 43.9817 121.64 43.95C121.586 43.9183 121.542 43.8728 121.512 43.8183C121.482 43.7637 121.466 43.7021 121.468 43.6397C121.47 43.5773 121.488 43.5165 121.521 43.4635C121.875 42.8939 122.238 42.3052 122.598 41.7135C122.646 41.6342 122.724 41.5773 122.814 41.5554C122.904 41.5334 122.999 41.5482 123.079 41.5965C123.158 41.6448 123.215 41.7225 123.237 41.8128C123.259 41.903 123.244 41.9982 123.196 42.0775C122.834 42.6711 122.471 43.2619 122.115 43.8334C122.083 43.8837 122.04 43.9251 121.988 43.9539C121.936 43.9826 121.877 43.9977 121.818 43.9976L121.818 43.9985ZM123.957 40.4822C123.896 40.4821 123.835 40.4657 123.782 40.4346C123.728 40.4034 123.684 40.3587 123.654 40.305C123.623 40.2512 123.607 40.1904 123.608 40.1286C123.609 40.0668 123.626 40.0063 123.657 39.9532C124.011 39.3594 124.359 38.7692 124.701 38.1827C124.724 38.1424 124.754 38.107 124.791 38.0786C124.828 38.0501 124.87 38.0293 124.914 38.0172C124.959 38.0051 125.006 38.002 125.052 38.0081C125.098 38.0142 125.142 38.0294 125.182 38.0528C125.222 38.0762 125.257 38.1072 125.285 38.1442C125.313 38.1812 125.333 38.2234 125.345 38.2683C125.356 38.3132 125.359 38.36 125.352 38.4059C125.345 38.4517 125.329 38.4958 125.306 38.5355C124.962 39.1235 124.613 39.7154 124.259 40.3113C124.228 40.3633 124.184 40.4064 124.131 40.4363C124.078 40.4662 124.019 40.4819 123.958 40.4819L123.957 40.4822ZM126.033 36.9272C125.972 36.9272 125.912 36.911 125.858 36.8803C125.805 36.8497 125.761 36.8056 125.731 36.7526C125.7 36.6995 125.684 36.6393 125.683 36.578C125.683 36.5167 125.699 36.4564 125.73 36.4032C126.076 35.7992 126.414 35.2032 126.745 34.6152C126.767 34.575 126.797 34.5395 126.833 34.511C126.87 34.4824 126.911 34.4612 126.955 34.4487C127 34.4362 127.046 34.4325 127.092 34.438C127.138 34.4434 127.182 34.4579 127.222 34.4805C127.262 34.5031 127.297 34.5334 127.326 34.5696C127.354 34.6059 127.375 34.6474 127.388 34.6919C127.4 34.7363 127.403 34.7827 127.398 34.8284C127.392 34.8741 127.377 34.9183 127.355 34.9584C127.023 35.5472 126.684 36.1446 126.337 36.7504C126.307 36.8038 126.262 36.8481 126.209 36.8789C126.156 36.9097 126.095 36.926 126.034 36.9259L126.033 36.9272ZM128.052 33.3387C127.991 33.3387 127.931 33.3227 127.878 33.2925C127.826 33.2623 127.782 33.2188 127.751 33.1663C127.72 33.1139 127.703 33.0543 127.702 32.9935C127.702 32.9326 127.717 32.8726 127.746 32.8193C128.086 32.2033 128.416 31.6021 128.734 31.0157C128.779 30.9341 128.854 30.8735 128.943 30.8472C129.032 30.8209 129.128 30.831 129.209 30.8754C129.291 30.9197 129.351 30.9946 129.378 31.0836C129.404 31.1726 129.394 31.2685 129.349 31.35C129.03 31.9372 128.7 32.5398 128.359 33.158C128.328 33.2126 128.284 33.258 128.23 33.2896C128.176 33.3213 128.115 33.3379 128.052 33.3379L128.052 33.3387ZM130.019 29.72C129.958 29.7199 129.899 29.7041 129.846 29.6743C129.794 29.6444 129.75 29.6015 129.719 29.5496C129.688 29.4978 129.671 29.4388 129.669 29.3784C129.668 29.318 129.682 29.2582 129.711 29.2049C130.049 28.5722 130.37 27.9662 130.674 27.3869C130.695 27.3453 130.724 27.3083 130.759 27.278C130.795 27.2478 130.836 27.2248 130.88 27.2106C130.924 27.1964 130.971 27.1911 131.017 27.1951C131.064 27.1991 131.109 27.2124 131.15 27.234C131.191 27.2557 131.227 27.2853 131.257 27.3212C131.287 27.3571 131.309 27.3985 131.322 27.4431C131.336 27.4876 131.34 27.5344 131.335 27.5807C131.33 27.627 131.316 27.6718 131.294 27.7125C130.989 28.2919 130.667 28.8993 130.328 29.5348C130.298 29.5905 130.253 29.6371 130.199 29.6696C130.145 29.702 130.082 29.7192 130.019 29.7192L130.019 29.72ZM131.935 26.0723C131.875 26.0723 131.816 26.0568 131.764 26.0273C131.712 25.9979 131.668 25.9555 131.637 25.9042C131.605 25.8529 131.588 25.7944 131.586 25.7344C131.584 25.6744 131.597 25.6149 131.625 25.5616C131.973 24.8875 132.287 24.2736 132.563 23.7288C132.583 23.6876 132.612 23.6508 132.647 23.6206C132.682 23.5904 132.722 23.5674 132.766 23.553C132.81 23.5385 132.856 23.5328 132.902 23.5363C132.948 23.5397 132.993 23.5522 133.034 23.5731C133.075 23.5939 133.112 23.6227 133.142 23.6578C133.172 23.6928 133.194 23.7334 133.209 23.7773C133.223 23.8212 133.228 23.8675 133.225 23.9134C133.221 23.9594 133.208 24.0042 133.187 24.0452C132.91 24.5912 132.596 25.2072 132.247 25.8829C132.217 25.9398 132.173 25.9875 132.118 26.0207C132.063 26.054 132 26.0715 131.936 26.0715L131.935 26.0723Z" fill="white"/>
    <path d="M96.4262 74.5501C96.3581 74.5501 96.2914 74.5302 96.2345 74.4929C96.1775 74.4556 96.1326 74.4025 96.1054 74.3401C96.0781 74.2777 96.0697 74.2087 96.0811 74.1415C96.0925 74.0744 96.1232 74.012 96.1696 73.9621C96.4114 73.7013 96.6462 73.4442 96.874 73.1908C96.9045 73.1557 96.9417 73.127 96.9833 73.1065C97.025 73.0859 97.0703 73.0738 97.1167 73.0709C97.1631 73.068 97.2096 73.0744 97.2535 73.0897C97.2974 73.105 97.3378 73.1289 97.3723 73.16C97.4069 73.191 97.4349 73.2287 97.4548 73.2707C97.4747 73.3127 97.486 73.3582 97.488 73.4047C97.4901 73.4511 97.4829 73.4975 97.4669 73.5411C97.4508 73.5847 97.4262 73.6247 97.3946 73.6587C97.1644 73.9148 96.9271 74.1745 96.6828 74.4379C96.6501 74.4734 96.6104 74.5016 96.5662 74.5209C96.5221 74.5402 96.4744 74.5501 96.4262 74.5501Z" fill="white"/>
    <path d="M81.7717 52.0231C81.7121 52.023 81.6536 52.0078 81.6016 51.9789C81.5496 51.9499 81.5058 51.9082 81.4745 51.8576C81.4431 51.807 81.4251 51.7493 81.4223 51.6898C81.4194 51.6304 81.4318 51.5712 81.4582 51.5178C81.7432 50.9413 81.8972 50.5879 81.8988 50.5844C81.936 50.4997 82.0053 50.4332 82.0915 50.3995C82.1777 50.3657 82.2737 50.3675 82.3586 50.4043C82.4435 50.4412 82.5103 50.5102 82.5445 50.5962C82.5786 50.6822 82.5773 50.7783 82.5408 50.8633C82.5344 50.8782 82.3793 51.2343 82.0856 51.8281C82.0566 51.8866 82.0119 51.9359 81.9564 51.9704C81.901 52.0048 81.837 52.0231 81.7717 52.0231Z" fill="white"/>
    <path d="M64.8316 68.8244C64.7636 68.8243 64.6971 68.8045 64.6402 68.7674C64.5833 68.7302 64.5385 68.6773 64.5112 68.615C64.4839 68.5528 64.4753 68.4839 64.4864 68.4169C64.4976 68.3499 64.528 68.2875 64.574 68.2375C65.0731 67.6943 65.5476 67.1586 65.9845 66.6457C66.0141 66.61 66.0505 66.5806 66.0915 66.5592C66.1326 66.5377 66.1775 66.5246 66.2236 66.5206C66.2698 66.5166 66.3163 66.5219 66.3604 66.536C66.4045 66.5501 66.4454 66.5729 66.4807 66.6029C66.5159 66.6329 66.5449 66.6697 66.5658 66.711C66.5868 66.7523 66.5994 66.7974 66.6028 66.8436C66.6062 66.8898 66.6004 66.9362 66.5857 66.9801C66.5711 67.0241 66.5478 67.0647 66.5173 67.0996C66.0748 67.6192 65.5945 68.1615 65.0893 68.7111C65.0566 68.7469 65.0168 68.7754 64.9724 68.7949C64.928 68.8144 64.8801 68.8244 64.8316 68.8244ZM67.5986 65.5605C67.5333 65.5605 67.4692 65.5422 67.4138 65.5077C67.3583 65.4732 67.3137 65.4238 67.2848 65.3652C67.2559 65.3067 67.244 65.2412 67.2504 65.1762C67.2568 65.1112 67.2813 65.0493 67.3211 64.9975C67.7792 64.4005 68.1923 63.8215 68.5489 63.2773C68.5741 63.2388 68.6066 63.2057 68.6446 63.1798C68.6825 63.1539 68.7253 63.1358 68.7703 63.1264C68.8153 63.117 68.8617 63.1166 68.9068 63.1252C68.952 63.1337 68.995 63.1511 69.0335 63.1763C69.0719 63.2015 69.1051 63.234 69.1309 63.272C69.1568 63.3099 69.175 63.3526 69.1844 63.3976C69.1937 63.4426 69.1942 63.4891 69.1856 63.5342C69.1771 63.5794 69.1597 63.6224 69.1345 63.6609C68.7684 64.2198 68.3452 64.8129 67.8765 65.4236C67.8438 65.4662 67.8017 65.5008 67.7535 65.5245C67.7053 65.5482 67.6523 65.5606 67.5986 65.5605ZM70.018 63.6501C69.929 63.6498 69.8435 63.6157 69.7788 63.5545C69.7141 63.4934 69.6751 63.41 69.6697 63.3211C69.6644 63.2323 69.6931 63.1448 69.75 63.0763C69.8069 63.0079 69.8877 62.9637 69.976 62.9528C70.6524 62.8656 71.3135 62.6858 71.9408 62.4185C72.0264 62.3826 72.1228 62.3822 72.2087 62.4173C72.2947 62.4525 72.3631 62.5204 72.399 62.606C72.4349 62.6916 72.4354 62.788 72.4002 62.8739C72.365 62.9598 72.2972 63.0283 72.2116 63.0642C71.5249 63.3561 70.8015 63.5524 70.0614 63.6476C70.047 63.6493 70.0325 63.6501 70.018 63.6501ZM67.89 63.5784C67.8677 63.5784 67.8455 63.5763 67.8235 63.5721C67.091 63.4271 66.3819 63.1819 65.7163 62.8433C65.634 62.8012 65.5718 62.7283 65.5431 62.6405C65.5143 62.5527 65.5215 62.4572 65.5629 62.3746C65.6044 62.2921 65.6768 62.2293 65.7644 62.1999C65.8519 62.1705 65.9476 62.1769 66.0304 62.2178C66.6385 62.5274 67.2864 62.7518 67.9557 62.8847C68.0412 62.9012 68.1175 62.9489 68.1697 63.0185C68.2219 63.0881 68.2462 63.1747 68.238 63.2614C68.2298 63.3481 68.1896 63.4285 68.1253 63.4871C68.061 63.5458 67.9771 63.5783 67.89 63.5784ZM73.9471 62.0583C73.8724 62.0584 73.7996 62.0345 73.7393 61.9902C73.6791 61.9459 73.6347 61.8835 73.6125 61.8121C73.5904 61.7407 73.5917 61.664 73.6162 61.5934C73.6407 61.5228 73.6872 61.4619 73.7489 61.4196C74.3221 61.0229 74.8659 60.5853 75.3761 60.1103C75.4099 60.0791 75.4494 60.0549 75.4926 60.039C75.5357 60.0231 75.5815 60.0158 75.6275 60.0176C75.6734 60.0194 75.7185 60.0303 75.7603 60.0495C75.802 60.0688 75.8395 60.096 75.8707 60.1298C75.9019 60.1636 75.9262 60.2031 75.9421 60.2462C75.958 60.2894 75.9653 60.3352 75.9635 60.3811C75.9616 60.4271 75.9508 60.4722 75.9316 60.5139C75.9123 60.5557 75.885 60.5932 75.8513 60.6244C75.3162 61.1223 74.7458 61.5808 74.1447 61.9964C74.0864 62.0367 74.0173 62.0583 73.9464 62.0583H73.9471ZM69.9116 61.9674C69.8522 61.9674 69.7938 61.9522 69.7419 61.9234C69.69 61.8945 69.6463 61.8529 69.6149 61.8025C69.5834 61.7521 69.5654 61.6945 69.5624 61.6352C69.5594 61.5759 69.5715 61.5168 69.5976 61.4634C69.9092 60.8554 70.1405 60.2095 70.2859 59.5419C70.3035 59.4508 70.3567 59.3704 70.4336 59.3184C70.5105 59.2665 70.6049 59.2472 70.6961 59.2649C70.7872 59.2825 70.8676 59.3357 70.9195 59.4126C70.9715 59.4895 70.9908 59.5839 70.9731 59.6751C70.8162 60.4033 70.5651 61.1079 70.2262 61.7713C70.1974 61.8303 70.1525 61.8799 70.0967 61.9146C70.041 61.9493 69.9766 61.9676 69.9109 61.9674H69.9116ZM64.1148 61.676C64.0222 61.676 63.9333 61.6393 63.8677 61.5739C63.2692 60.9776 62.9658 60.3419 62.9658 59.6825C62.9659 59.5776 62.9737 59.4729 62.9892 59.3692C63.003 59.2774 63.0526 59.1948 63.1273 59.1396C63.2019 59.0844 63.2954 59.0611 63.3872 59.0749C63.479 59.0886 63.5616 59.1383 63.6168 59.213C63.672 59.2876 63.6953 59.3811 63.6815 59.4729C63.6711 59.5424 63.6659 59.6126 63.6658 59.6829C63.6658 60.1488 63.9 60.6183 64.3619 61.0784C64.411 61.1273 64.4444 61.1897 64.458 61.2576C64.4717 61.3256 64.4648 61.396 64.4383 61.4601C64.4119 61.5241 64.367 61.5788 64.3094 61.6173C64.2518 61.6558 64.1841 61.6764 64.1148 61.6764V61.676ZM77.1027 59.1793C77.0355 59.1793 76.9697 59.1599 76.9133 59.1235C76.8568 59.087 76.812 59.0351 76.7842 58.9739C76.7565 58.9127 76.7469 58.8447 76.7567 58.7782C76.7665 58.7117 76.7953 58.6495 76.8395 58.5989C77.2826 58.0925 77.7278 57.5383 78.1628 56.9515C78.2184 56.8776 78.3008 56.8287 78.3923 56.8155C78.4837 56.8022 78.5767 56.8256 78.651 56.8806C78.7252 56.9357 78.7747 57.0178 78.7886 57.1092C78.8025 57.2005 78.7797 57.2937 78.7252 57.3683C78.279 57.9703 77.8218 58.5394 77.3662 59.0599C77.3333 59.0976 77.2927 59.1278 77.2471 59.1484C77.2016 59.169 77.1521 59.1795 77.102 59.1793H77.1027ZM64.5188 58.0523C64.4454 58.0523 64.3738 58.0292 64.3142 57.9863C64.2546 57.9433 64.21 57.8827 64.1868 57.813C64.1636 57.7433 64.1629 57.6681 64.1848 57.598C64.2067 57.5279 64.2501 57.4664 64.3088 57.4223C64.9204 56.9741 65.6072 56.639 66.3369 56.4328C66.4252 56.4094 66.5192 56.4215 66.5988 56.4664C66.6783 56.5114 66.7372 56.5857 66.7627 56.6734C66.7882 56.7612 66.7783 56.8555 66.7353 56.9361C66.6922 57.0167 66.6193 57.0772 66.5322 57.1048C65.8844 57.2888 65.2742 57.5856 64.7295 57.9816C64.6686 58.0275 64.5944 58.0521 64.5181 58.0518L64.5188 58.0523ZM70.3708 57.8885C70.3124 57.8885 70.2548 57.8739 70.2035 57.846C70.1521 57.818 70.1086 57.7776 70.0768 57.7285C69.7029 57.1503 69.019 56.9595 68.5112 56.9013C68.4652 56.8965 68.4206 56.8826 68.3799 56.8604C68.3393 56.8383 68.3035 56.8083 68.2745 56.7722C68.2455 56.7361 68.224 56.6946 68.2112 56.6502C68.1984 56.6057 68.1945 56.5591 68.1998 56.5132C68.205 56.4672 68.2194 56.4227 68.242 56.3823C68.2646 56.3419 68.2949 56.3064 68.3313 56.2778C68.3677 56.2493 68.4094 56.2282 68.454 56.2158C68.4986 56.2035 68.5452 56.2001 68.5912 56.2059C69.5342 56.3141 70.2511 56.7099 70.6646 57.3484C70.6988 57.4013 70.7181 57.4624 70.7205 57.5253C70.7228 57.5882 70.7082 57.6506 70.6781 57.7059C70.648 57.7612 70.6036 57.8073 70.5494 57.8395C70.4953 57.8716 70.4335 57.8886 70.3706 57.8885H70.3708ZM79.6607 55.7465C79.5978 55.7465 79.5361 55.7295 79.4821 55.6974C79.428 55.6653 79.3836 55.6192 79.3536 55.564C79.3235 55.5088 79.3088 55.4465 79.3111 55.3837C79.3135 55.3209 79.3326 55.2598 79.3667 55.207C79.7422 54.6242 80.1113 54.0129 80.4643 53.3902C80.4868 53.3499 80.517 53.3144 80.5533 53.2858C80.5895 53.2572 80.6311 53.236 80.6755 53.2236C80.72 53.2111 80.7665 53.2076 80.8123 53.2131C80.8581 53.2187 80.9024 53.2333 80.9426 53.2561C80.9827 53.2788 81.018 53.3093 81.0464 53.3458C81.0747 53.3822 81.0955 53.4239 81.1077 53.4685C81.1198 53.513 81.1231 53.5595 81.1171 53.6053C81.1112 53.6511 81.0963 53.6953 81.0733 53.7353C80.7139 54.3695 80.3377 54.9921 79.9552 55.586C79.9235 55.6355 79.8798 55.6762 79.8281 55.7044C79.7765 55.7326 79.7185 55.7472 79.6597 55.7471L79.6607 55.7465Z" fill="white"/>
    <path d="M62.6118 71.1369C62.5426 71.1369 62.475 71.1165 62.4175 71.0781C62.36 71.0397 62.3151 70.9852 62.2886 70.9213C62.262 70.8575 62.255 70.7872 62.2683 70.7194C62.2817 70.6515 62.3148 70.5891 62.3636 70.5401C62.6156 70.2881 62.8604 70.04 63.098 69.7957C63.1628 69.7292 63.2513 69.6912 63.3442 69.69C63.437 69.6888 63.5265 69.7246 63.593 69.7894C63.6595 69.8541 63.6975 69.9427 63.6987 70.0355C63.6999 70.1283 63.6641 70.2178 63.5993 70.2843C63.3595 70.5304 63.1127 70.7806 62.8589 71.0347C62.8264 71.0672 62.7879 71.0929 62.7455 71.1104C62.7031 71.128 62.6577 71.137 62.6118 71.1369Z" fill="white"/>
</svg>
