<svg viewBox="0 0 742 177" fill="none" xmlns="http://www.w3.org/2000/svg">
    <path d="M739.376 100.967C739.376 142.5 573.871 176.152 369.688 176.152C165.505 176.152 0 142.5 0 100.967C0 59.435 165.505 0.414307 369.688 0.414307C573.871 0.414307 739.376 59.435 739.376 100.967Z" fill="#D3EEFB"/>
    <path d="M737.081 105.123C712.164 125.665 676.563 135.807 643.056 140.954C611.387 145.822 576.811 147.616 545.334 140.462C545.122 140.429 544.928 140.323 544.785 140.164C544.641 140.005 544.556 139.801 544.544 139.587C544.224 137.251 543.665 134.954 542.877 132.733C542.364 130.96 541.83 131.046 539.543 130.747C534.893 130.096 530.186 129.945 525.504 130.298C516.18 131.237 506.986 133.192 498.087 136.128C481.791 141.368 465.202 145.646 448.404 148.94C418.337 154.492 387.138 157.139 356.516 153.787C340.617 152.036 324.889 149.046 308.991 147.146C291.895 145.011 274.8 143.388 257.704 141.936C227.787 139.437 197.871 138.263 167.954 135.53C150.623 133.95 127.202 130.384 121.839 113.664C116.09 95.7912 132.972 83.1073 150.559 76.5732C168.744 69.8042 187.677 69.8042 207.102 71.4484C230.074 73.3702 252.982 76.9361 276.125 76.9361C297.366 76.9361 319.611 73.8186 334.548 60.0029C312.431 48.4294 282.108 59.7467 262.812 42.3224C262.647 42.1989 262.537 42.016 262.505 41.8126C262.473 41.6092 262.522 41.4013 262.641 41.2333C271.723 30.3858 288.69 27.3323 303.413 26.286C324.227 24.8339 345.276 26.713 365.94 29.0406C400.43 32.9482 435.668 39.1193 470.521 33.8237C478.427 32.6066 488.086 30.8129 493.664 25.4746C499.839 19.5597 497.573 13.0305 492.273 7.5C452.201 2.88643 412.026 -0.00504129 371.688 8.26061e-06C167.505 8.26061e-06 2 59.0207 2 100.553C2 142.085 167.505 175.738 371.688 175.738C574.696 175.738 739.474 142.448 741.376 101.258C739.966 102.646 738.577 103.927 737.081 105.123Z" fill="#C3E5FF"/>

</svg>
