<svg width="40" height="40" viewBox="0 0 40 40" fill="none" xmlns="http://www.w3.org/2000/svg">
    <path d="M20 0C8.95429 0 0 8.95429 0 20C0 26.1909 2.81331 31.7243 7.23069 35.3929L7.31233 35.3545V34.28C7.31233 32.5245 8.74049 31.0963 10.496 31.0963H29.504C31.2595 31.0963 32.6877 32.5245 32.6877 34.28V35.3545L32.7693 35.3929C37.1867 31.7243 40 26.1909 40 20C40 8.95429 31.0457 0 20 0Z" fill="#F0643E"/>
    <path d="M11.9045 8.38892H11V18.3352H11.9045V8.38892Z" fill="#EAECF1"/>
    <path d="M13.859 9.60183C13.8598 10.0821 13.7167 10.5519 13.4479 10.9515C13.1792 11.3511 12.7968 11.6626 12.3493 11.8466C11.9018 12.0306 11.4092 12.0787 10.9341 11.9849C10.4589 11.8911 10.0226 11.6596 9.68026 11.3197C9.33795 10.9798 9.1051 10.5469 9.01123 10.0757C8.91735 9.60444 8.96666 9.11621 9.15292 8.67282C9.33918 8.22942 9.65399 7.85081 10.0575 7.58496C10.461 7.31911 10.935 7.17798 11.4195 7.17945C12.0668 7.18044 12.6873 7.43609 13.1447 7.89027C13.6021 8.34444 13.859 8.96002 13.859 9.60183Z" fill="#EAECF1"/>
    <path d="M29.5002 8.38892H28.5957V18.3352H29.5002V8.38892Z" fill="#EAECF1"/>
    <path d="M31.4551 9.60182C31.4551 10.0809 31.3118 10.5493 31.0433 10.9476C30.7748 11.346 30.3932 11.6565 29.9467 11.8398C29.5003 12.0231 29.009 12.0711 28.535 11.9777C28.0611 11.8842 27.6257 11.6535 27.284 11.3147C26.9423 10.9759 26.7096 10.5443 26.6153 10.0744C26.521 9.60451 26.5694 9.11745 26.7543 8.67482C26.9393 8.23219 27.2525 7.85386 27.6543 7.58769C28.0561 7.32151 28.5285 7.17944 29.0117 7.17944C29.6597 7.17944 30.2812 7.43466 30.7394 7.88894C31.1976 8.34322 31.4551 8.95937 31.4551 9.60182Z" fill="#EAECF1"/>
    <path d="M13.6348 29.4305H26.3695V31.0964H13.6348V29.4305Z" fill="white"/>
    <path d="M13.6348 29.4305H16.9001V31.0964H13.6348V29.4305Z" fill="#EAECF1"/>
    <path d="M29.5057 31.0146H10.4977C8.69438 31.0146 7.23242 32.4766 7.23242 34.28V35.3929C10.6965 38.2697 15.147 40 20.0017 40C24.8565 40 29.307 38.2697 32.771 35.3929V34.28C32.771 32.4765 31.3091 31.0146 29.5057 31.0146Z" fill="#F3F4F7"/>
    <path d="M10.6264 34.28C10.6264 32.4766 12.0883 31.0146 13.8917 31.0146H10.4977C8.69438 31.0146 7.23242 32.4766 7.23242 34.28V35.3929C8.27895 36.2619 9.41593 37.0255 10.6264 37.6693V34.28Z" fill="#EAECF1"/>
    <path d="M7.09542 25.6922V22.149C7.09542 21.4975 7.16023 20.861 7.28285 20.2449H6.68644C5.48089 20.2449 4.50366 21.2221 4.50366 22.4276V24.283C4.50366 25.4885 5.48089 26.4658 6.68644 26.4658H7.17648C7.12366 26.2161 7.09542 25.9574 7.09542 25.6922Z" fill="white"/>
    <path d="M33.3169 20.2446H32.7205C32.8431 20.8606 32.9079 21.4973 32.9079 22.1488V25.692C32.9079 25.9572 32.8796 26.2159 32.8269 26.4656H33.3169C34.5225 26.4656 35.4997 25.4884 35.4997 24.2828V22.4275C35.4996 21.2219 34.5224 20.2446 33.3169 20.2446Z" fill="white"/>
    <path d="M29.1689 29.5123H10.8335C8.72388 29.5123 7.01367 27.8021 7.01367 25.6925V22.1493C7.01367 16.7245 11.4113 12.3268 16.8361 12.3268H23.1662C28.591 12.3268 32.9887 16.7245 32.9887 22.1493V25.6925C32.9887 27.8021 31.2785 29.5123 29.1689 29.5123Z" fill="#F3F4F7"/>
    <path d="M11.2666 25.6924V24.4226C10.6511 23.5549 10.2879 22.4963 10.2879 21.3539C10.2879 19.4327 11.3119 17.7464 12.8427 16.8115C14.5933 14.1126 17.6324 12.3268 21.0891 12.3268H16.8362C11.4114 12.3268 7.01367 16.7245 7.01367 22.1493V25.6925C7.01367 27.8021 8.72388 29.5123 10.8335 29.5123H15.0864C12.9768 29.5123 11.2666 27.8021 11.2666 25.6924Z" fill="#EAECF1"/>
    <path d="M15.6077 26.6724C12.675 26.6724 10.2891 24.2864 10.2891 21.3538C10.2891 18.4211 12.675 16.0352 15.6077 16.0352H24.3972C27.3299 16.0352 29.7158 18.4211 29.7158 21.3538C29.7158 24.2864 27.3299 26.6724 24.3972 26.6724H15.6077Z" fill="#F37C5C"/>
    <path d="M13.7167 21.3538C13.7167 18.4211 16.1027 16.0352 19.0353 16.0352H15.6077C12.675 16.0352 10.2891 18.4211 10.2891 21.3538C10.2891 24.2864 12.675 26.6724 15.6077 26.6724H19.0353C16.1027 26.6724 13.7167 24.2864 13.7167 21.3538Z" fill="#FA633B"/>
    <path d="M22.8382 23.9182H17.1629C16.8615 23.9182 16.6172 23.6739 16.6172 23.3725V22.4993C16.6172 22.1979 16.8615 21.9536 17.1629 21.9536H22.8382C23.1396 21.9536 23.3839 22.1979 23.3839 22.4993V23.3725C23.3839 23.6739 23.1396 23.9182 22.8382 23.9182Z" fill="white"/>
    <path d="M15.6618 21.2993H14.243C13.9416 21.2993 13.6973 21.0549 13.6973 20.7536V19.3348C13.6973 19.0334 13.9416 18.7891 14.243 18.7891H15.6618C15.9631 18.7891 16.2075 19.0334 16.2075 19.3348V20.7536C16.2075 21.0549 15.9631 21.2993 15.6618 21.2993Z" fill="white"/>
    <path d="M25.7575 21.2993H24.3387C24.0373 21.2993 23.793 21.0549 23.793 20.7536V19.3348C23.793 19.0334 24.0373 18.7891 24.3387 18.7891H25.7575C26.0588 18.7891 26.3032 19.0334 26.3032 19.3348V20.7536C26.3032 21.0549 26.0588 21.2993 25.7575 21.2993Z" fill="white"/>
</svg>
