<svg viewBox="0 0 124 126" fill="none" xmlns="http://www.w3.org/2000/svg">
    <mask id="mask0_1623_50" style="mask-type:luminance" maskUnits="userSpaceOnUse" x="0" y="0" width="121" height="123">
        <path d="M54.4805 4.76096C52.114 5.70629 49.6923 6.72667 47.2742 7.82211C44.5142 9.13913 41.4176 9.01226 40.4133 7.64341C39.523 6.45326 40.9814 4.60548 43.485 3.46001C45.7535 2.51468 48.0007 1.64441 50.1678 0.868843C52.6607 0.0700494 55.6558 0.0772026 56.8399 0.96356C58.17 2.03577 57.1248 3.76916 54.4805 4.7538M36.0383 13.3672C33.8659 14.6556 31.7077 15.987 29.6137 17.3308C27.2579 18.9087 24.8932 18.9141 24.3465 17.4755C23.9316 16.1442 25.3739 13.9194 27.4769 12.4719C29.4053 11.1995 31.4104 9.94507 33.3922 8.76922C35.7071 7.46649 38.1644 7.27707 38.9443 8.41182C39.8346 9.67702 38.565 11.9447 36.0347 13.3743L36.0383 13.3672ZM20.3454 23.7015C18.6947 25.0346 17.06 26.4285 15.5198 27.7848C13.8264 29.3663 12.336 29.4145 12.2024 27.9974C12.1632 26.6786 13.3741 24.4002 14.8413 22.9134C16.2463 21.5517 17.6904 20.2329 19.1951 18.9284C20.9597 17.472 22.7261 17.1735 23.0876 18.4012C23.522 19.7647 22.3094 22.1736 20.3418 23.7086L20.3454 23.7015ZM9.14501 33.9786C8.10866 35.2152 7.1424 36.4417 6.24614 37.658C5.3202 39.009 4.69516 39.0465 4.88034 37.7188C5.11895 36.5358 5.94873 34.5022 6.74647 33.0904C7.51215 31.8699 8.32591 30.6833 9.23939 29.4181C10.3523 27.9885 11.2676 27.7687 11.2747 28.9821C11.3566 30.292 10.4057 32.5525 9.14144 33.9857L9.14501 33.9786ZM74.6856 9.85394C72.3815 10.6795 70.0221 11.5855 67.563 12.5595C64.7567 13.755 61.0351 13.008 59.4325 10.9512C57.9154 9.04441 58.9713 6.70343 61.6673 5.69556C64.0142 4.88783 66.3142 4.1629 68.5673 3.52077C71.0015 2.89353 74.317 3.62442 76.0639 5.19341C77.8071 6.9143 77.2729 9.03548 74.6821 9.86287L74.6856 9.85394ZM55.6059 17.5828C53.202 18.7997 50.7607 20.0613 48.3159 21.3676C45.5309 22.9009 42.2439 22.3487 40.9885 20.2436C39.8346 18.2404 41.0419 15.5116 43.6595 14.0856C46.0188 12.865 48.3301 11.7088 50.6486 10.5973C53.2626 9.40182 56.4767 9.84679 57.878 11.6392C59.34 13.5656 58.357 16.2639 55.6023 17.5917L55.6059 17.5828ZM36.95 27.4953C34.8025 28.8373 32.6977 30.1758 30.6037 31.559C28.2782 33.1333 25.6642 32.6794 24.7845 30.6565C23.985 28.7158 25.0997 25.9567 27.2935 24.402C29.2665 23.0546 31.243 21.759 33.2961 20.4455C35.6109 19.0159 38.362 19.3036 39.4197 21.1496C40.538 23.1082 39.4358 25.9888 36.9464 27.5042L36.95 27.4953ZM21.2802 37.7081C19.6402 38.959 18.0287 40.2546 16.4938 41.4929C14.8093 42.9118 12.9983 42.4901 12.4357 40.687C11.9567 38.9 12.831 36.3178 14.3944 34.8774C15.8011 33.6569 17.304 32.3578 18.8247 31.1158C20.6267 29.6862 22.6744 29.9167 23.3956 31.6751C24.1381 33.5533 23.2015 36.2785 21.2749 37.717L21.2802 37.7081ZM9.90179 46.9648C8.8423 48.0173 7.82376 49.1181 6.87467 50.151C5.8775 51.2679 4.83938 50.8658 4.55982 49.2575C4.32833 47.7493 4.86609 45.5334 5.75819 44.3468C6.62537 43.2389 7.53888 42.1738 8.49865 41.0891C9.67566 39.8078 10.972 40.0616 11.378 41.6859C11.8427 43.3497 11.175 45.7353 9.89648 46.9737L9.90179 46.9648ZM3.12286 54.5596C2.60825 55.3655 2.1417 56.1857 1.73037 56.9595C1.32973 57.8084 0.953997 57.4188 0.873867 56.041C0.838254 54.7901 1.05194 52.9906 1.37068 52.0846C1.71078 51.2536 2.10432 50.3726 2.54593 49.5131C3.10505 48.557 3.7354 48.7982 3.91524 50.1778C4.13426 51.6128 3.76923 53.6089 3.11751 54.5596H3.12286ZM105.37 16.4123C103.955 16.5944 102.551 16.8539 101.164 17.1896C99.2053 17.7936 95.7348 16.2103 93.6176 13.6621C91.4808 11.2585 91.5396 9.08731 93.5909 8.83713C95.0581 8.7402 96.5311 8.78028 97.9909 8.95685C99.2658 9.30353 101.78 11.0512 103.78 12.849C105.728 14.7897 106.522 16.3819 105.37 16.4123ZM91.8156 20.0435C89.6129 20.9924 87.2375 21.9877 84.798 23.0921C81.8991 24.4252 77.7982 23.1975 75.8377 20.3866C73.879 17.6846 74.6821 14.5716 77.5863 13.4637C79.9831 12.5541 82.362 11.7696 84.6074 11.0655C87.0202 10.3847 90.4712 11.666 92.4958 13.9712C94.4669 16.3783 94.2551 19.1321 91.8156 20.0435ZM72.2871 28.6354C69.6351 30.0078 66.9315 31.4231 64.1762 32.8813C61.0458 34.5862 57.034 33.6051 55.289 30.7369C53.6062 27.9635 54.7459 24.4324 57.7943 22.8383C60.4867 21.4802 63.1096 20.1811 65.745 18.9355C68.6599 17.6024 72.4242 18.5513 74.2494 21.0889C76.1191 23.7462 75.2537 27.145 72.2871 28.6354ZM51.1774 39.6094C48.6079 41.1105 46.058 42.6259 43.5455 44.1306C40.6965 45.8765 37.2278 44.9991 35.8015 42.281C34.4393 39.6219 35.5415 36.1212 38.2694 34.4039C40.6858 32.926 43.152 31.4482 45.6325 29.99C48.4637 28.3692 52.0018 29.1233 53.5688 31.6948C55.1447 34.3556 54.0906 37.9314 51.1756 39.6094H51.1774ZM32.0941 50.7622C29.9912 52.1489 27.9363 53.5231 25.9402 54.8634C23.7446 56.3859 21.0683 55.5782 19.9696 53.1425C18.9351 50.7389 19.7809 47.5134 21.8482 45.9944C23.75 44.5952 25.6998 43.2103 27.7066 41.811C30.0214 40.2438 32.9577 40.8872 34.206 43.3086C35.4862 45.8032 34.5372 49.1789 32.0923 50.7622H32.0941ZM7.59228 68.0962C6.7803 68.9057 6.03068 69.667 5.35581 70.4354C4.68094 71.2038 3.69623 70.4354 3.16737 68.6752C2.68838 66.965 2.75782 64.8867 3.34544 63.9986C3.93899 63.1861 4.60257 62.3313 5.3362 61.4342C6.24256 60.3924 7.53709 61.05 8.18525 62.9085C8.8708 64.7705 8.59479 67.1669 7.5905 68.089L7.59228 68.0962ZM2.96257 73.2428C2.72715 73.6893 2.53917 74.1595 2.40168 74.6456C2.3269 75.1155 2.01708 74.2882 1.70546 72.9408C1.41878 71.529 1.17127 69.9797 1.17127 69.4722C1.23342 68.9192 1.35278 68.3742 1.5274 67.846C1.79093 67.1312 2.37321 67.8013 2.77386 69.2899C3.22792 70.8124 3.29377 72.5994 2.95723 73.2356L2.96257 73.2428ZM94.5862 38.0547C92.2773 39.3557 89.8877 40.7067 87.4173 42.1077C84.5291 43.7517 80.5832 42.558 78.7366 39.4683C76.8723 36.4125 77.784 32.6776 80.6953 31.1533C83.1883 29.8738 85.6349 28.6676 87.996 27.515C90.5513 26.273 94.0716 27.5793 95.8487 30.3402C97.6383 33.2102 97.1041 36.6627 94.5862 38.0547ZM74.999 48.5981C72.4289 50.0611 69.8399 51.5467 67.2318 53.0549C65.7965 53.8783 64.0958 54.1011 62.498 53.6749C60.9002 53.2488 59.534 52.2081 58.6953 50.7783C58.2926 50.0766 58.0324 49.3018 57.9298 48.4986C57.8272 47.6955 57.8841 46.8799 58.0974 46.0989C58.3106 45.318 58.6759 44.5872 59.1722 43.9488C59.6685 43.3103 60.2859 42.7769 60.9888 42.3793C63.585 40.914 66.1652 39.476 68.7293 38.0655C71.6051 36.5018 75.3374 37.5437 77.0539 40.3761C78.7811 43.2675 77.8623 46.9576 74.9972 48.5999L74.999 48.5981ZM36.9393 69.6169C34.9984 70.7749 33.099 71.912 31.2412 73.0283C29.1988 74.2596 26.5314 73.3196 25.2813 70.9786C24.0616 68.6359 24.651 65.6909 26.6275 64.3988C28.4224 63.2051 30.2654 62.0185 32.1476 60.8248C34.3431 59.4256 37.2438 60.2637 38.5721 62.7012C39.9432 65.1565 39.19 68.282 36.9375 69.6187L36.9393 69.6169ZM22.986 77.4959C21.6238 78.3894 20.2866 79.1864 19.0099 79.9726C17.6512 80.8662 15.7334 79.9387 14.7185 77.9623C13.748 75.9965 13.9813 73.6252 15.2936 72.6959C16.5068 71.8274 17.7741 70.9339 19.0953 70.0154C20.6605 68.9432 22.8525 69.7545 23.9405 71.8417C25.057 73.9486 24.6154 76.5112 22.9843 77.4976L22.986 77.4959ZM13.5486 82.9891C12.733 83.552 11.946 84.0435 11.2498 84.5635C10.4876 85.0549 9.28214 84.1936 8.50043 82.5978C7.74543 80.9895 7.65994 79.2024 8.34906 78.6002C9.00434 78.0177 9.73619 77.4762 10.4858 76.8239C11.4296 76.1252 12.9058 76.8829 13.7729 78.6449C14.6597 80.389 14.5386 82.3512 13.5433 82.9909L13.5486 82.9891ZM8.36332 86.2057C7.84693 86.5899 7.84693 86.5899 7.43204 86.9295C7.19877 87.1797 6.54171 86.3219 5.95943 85.0781C5.40031 83.8272 5.06908 82.5513 5.27208 82.2725C5.50802 81.936 5.76875 81.6176 6.05203 81.3201C6.45268 80.9126 7.32341 81.6775 7.96089 83.0284C8.63576 84.4187 8.80314 85.8537 8.36154 86.2004L8.36332 86.2057ZM120.666 41.9415C119.857 42.8243 118.874 43.8518 117.697 44.9669C116.134 46.3107 113.483 44.8632 111.907 41.6091C110.244 38.3925 110.431 34.806 112.201 33.7373C113.557 32.8831 114.729 32.129 115.73 31.5125C117.754 30.0775 122.268 39.7274 120.66 41.9361L120.666 41.9415ZM109.939 50.5978C107.959 52.0274 105.853 53.5165 103.621 55.0653C100.95 56.8612 97.2857 55.6693 95.5318 52.3383C93.7173 48.9966 94.572 44.8329 97.3783 43.187C99.7181 41.7574 101.969 40.4511 104.084 39.1823C106.324 37.8278 109.364 39.252 110.947 42.3096C112.43 45.335 112.017 49.0377 109.934 50.5924L109.939 50.5978ZM91.8992 62.1419C89.3351 63.7573 86.7134 65.3877 84.0341 67.0329C83.2977 67.4767 82.4799 67.7674 81.6294 67.8879C80.7788 68.0083 79.9128 67.9559 79.0828 67.7339C78.2528 67.5119 77.4757 67.1247 76.7978 66.5954C76.1198 66.066 75.5547 65.4054 75.1361 64.6526C73.3127 61.436 74.4239 57.2705 77.5667 55.4263C80.3054 53.8215 82.9954 52.2394 85.6367 50.68C88.5623 48.9555 92.3141 50.1439 94.0058 53.2765C95.66 56.3662 94.7234 60.3531 91.8939 62.1365L91.8992 62.1419ZM71.0406 74.1524C68.4361 75.6499 65.831 77.1343 63.2253 78.6056C61.7972 79.3908 60.1224 79.5935 58.5491 79.1715C56.9759 78.7495 55.6252 77.7353 54.7779 76.3397C54.3693 75.6444 54.1023 74.8746 53.9923 74.0751C53.8823 73.2755 53.9315 72.4619 54.137 71.6815C54.3425 70.9012 54.7004 70.1695 55.1897 69.5289C55.679 68.8883 56.2902 68.3515 56.9877 67.9496C59.5993 66.4426 62.2258 64.929 64.8671 63.4088C66.2956 62.5815 67.9927 62.3562 69.5864 62.7823C71.1802 63.2084 72.5406 64.2511 73.3697 65.6819C74.1668 67.1181 74.3693 68.8111 73.9336 70.3958C73.4978 71.9804 72.4588 73.3297 71.0406 74.1524ZM51.1899 84.6475C48.9356 85.8448 46.708 87.001 44.5427 88.1357C42.1459 89.3866 38.9372 88.343 37.3844 85.8644C35.8282 83.3304 36.4763 80.1907 38.8499 78.8397C41.0188 77.6483 43.2185 76.407 45.449 75.1155C48.0417 73.6484 51.489 74.6313 53.0613 77.2993C54.6479 79.9351 53.7896 83.2447 51.1988 84.6475H51.1899ZM34.8078 92.4853C33.1091 93.2894 31.4869 94.0596 29.9093 94.7834C28.2123 95.5625 25.7692 94.5118 24.423 92.4603C23.0929 90.3748 23.3173 87.9516 24.9572 87.026C26.4975 86.2057 28.1108 85.3623 29.7437 84.4259C31.7024 83.3733 34.4749 84.333 35.8798 86.6168C37.3257 88.8898 36.8004 91.5132 34.8257 92.4853H34.8078ZM23.141 97.2691C22.0951 97.7159 21.0938 98.1025 20.137 98.4289C19.1434 98.772 17.4393 97.6783 16.3318 96.0736C15.2224 94.4028 15.0426 92.6783 15.9899 92.2369C16.8802 91.7705 17.8453 91.3005 18.8728 90.7823C20.1192 90.1658 22.1385 91.129 23.3369 92.9964C24.5495 94.8156 24.4533 96.7652 23.141 97.2691ZM16.289 99.183C15.8444 99.2753 15.3929 99.3302 14.9393 99.3474C14.56 99.3349 13.5557 98.2984 12.6387 97.0368C11.7483 95.7502 11.2604 94.6529 11.5952 94.5779C11.9513 94.4814 12.3395 94.2973 12.806 94.1293C13.3901 93.8756 14.7024 94.8531 15.6551 96.2898C16.654 97.7052 16.9318 99.0347 16.2944 99.1759L16.289 99.183ZM110.413 70.1334C108.454 71.7417 106.396 73.3357 104.255 74.9368C101.709 76.8132 98.509 76.0305 97.1326 73.1641C95.6903 70.2156 96.7337 66.2824 99.435 64.4525C101.727 62.8775 103.929 61.3431 106.041 59.8491C108.313 58.1497 111.082 59.1951 112.24 61.9935C113.312 64.7831 112.5 68.4089 110.413 70.1334ZM93.2062 82.1063C90.8641 83.6146 88.4774 85.1222 86.0462 86.6293C83.2666 88.3019 79.7943 87.5692 78.295 84.9602C76.7743 82.2547 77.8588 78.6127 80.7434 76.8918C83.2559 75.3782 85.7293 73.87 88.1937 72.3314C90.9163 70.6194 94.2479 71.4808 95.6101 74.1792C96.894 76.8472 95.8202 80.3747 93.2062 82.1099V82.1063ZM74.3776 92.8945C72.0627 94.1454 69.7479 95.3767 67.4847 96.5633C64.9134 97.8731 61.6227 97.1154 60.0985 94.8495C58.5849 92.5103 59.4379 89.4349 62.0697 88.0392C64.4255 86.7758 66.7635 85.4945 69.1193 84.1846C71.7903 82.6728 75.1735 83.4698 76.5981 85.9395C77.9852 88.3341 76.9577 91.4578 74.3776 92.8981V92.8945ZM42.3881 106.722C40.9208 107.225 39.539 107.7 38.1305 108.113C36.6134 108.531 34.3769 107.662 33.0966 106.174C31.8252 104.642 31.9303 102.92 33.4527 102.4C34.8452 101.896 36.2739 101.346 37.7388 100.75C39.4393 100.019 41.9696 100.863 43.241 102.578C44.5195 104.251 44.1189 106.117 42.3881 106.726V106.722ZM31.9338 109.256C31.017 109.423 30.0922 109.543 29.1632 109.614C28.2426 109.675 26.6293 108.804 25.5164 107.666C24.391 106.465 24.2058 105.386 25.114 105.228C25.9527 105.039 26.8643 104.837 27.8437 104.614C28.953 104.281 30.8708 105.139 31.9766 106.465C33.1269 107.786 33.0841 109.04 31.9338 109.26V109.256ZM25.3454 109.294C24.8588 109.21 24.3817 109.079 23.9209 108.901C23.5131 108.722 22.3824 107.829 21.4547 106.98C20.5484 106.12 20.0925 105.505 20.543 105.666C20.9866 105.769 21.4395 105.825 21.8945 105.834C22.5267 105.859 23.8319 106.676 24.8059 107.696C25.7497 108.665 25.974 109.383 25.3437 109.297L25.3454 109.294ZM105.286 91.4774C103.142 93.1334 100.959 94.7417 98.7352 96.3023C96.1034 98.0894 93.0371 97.8142 91.9509 95.5643C90.7044 93.2269 92.0257 89.6993 94.8195 87.8802C97.265 86.2266 99.632 84.5855 101.921 82.957C104.442 81.0842 107.199 81.6471 108.066 84.0685C108.837 86.3487 107.58 89.6439 105.284 91.481L105.286 91.4774ZM87.5936 102.986C85.3161 104.281 83.0067 105.547 80.7114 106.76C78.0529 108.106 74.8495 107.714 73.5567 105.834C72.1322 103.845 73.2451 100.974 75.998 99.5297C78.4588 98.2055 80.8645 96.8653 83.3129 95.4696C86.0266 93.872 89.2461 94.3724 90.391 96.5418C91.4559 98.5897 90.1898 101.456 87.5918 102.988L87.5936 102.986ZM69.787 111.547C67.7357 112.405 65.6808 113.212 63.6224 113.969C61.345 114.753 58.4354 114.219 57.0215 112.737C55.597 111.147 56.2897 109.062 58.6455 108.136C60.7555 107.264 62.8728 106.349 65.0416 105.375C67.5096 104.222 70.6631 104.796 71.9363 106.606C73.1774 108.315 72.1803 110.518 69.7942 111.551L69.787 111.547ZM54.4271 116.533C52.7408 116.914 51.1436 117.248 49.6461 117.537C47.9402 117.791 45.4775 117.105 44.1492 116.015C42.7691 114.823 43.0078 113.513 44.7083 113.118C46.2984 112.72 47.9134 112.267 49.6104 111.767C51.5495 111.133 54.2918 111.801 55.6255 113.225C56.8773 114.548 56.3199 116.033 54.4271 116.533ZM42.7923 117.963C41.6367 117.918 40.6057 117.852 39.5871 117.729C38.5187 117.537 36.6277 116.74 35.4008 115.986C34.1544 115.15 33.9887 114.535 35.0589 114.605C36.0739 114.617 37.1565 114.605 38.2534 114.508C39.6067 114.376 41.7809 115.125 42.9757 116.151C44.2204 117.123 44.0869 117.922 42.7923 117.957V117.963ZM102.736 104.494C100.913 105.845 99.0148 107.175 97.0916 108.468C94.8943 109.864 92.5652 110.107 91.9135 108.894C91.1211 107.564 92.4477 105.153 94.8711 103.64C97.0079 102.244 99.0432 100.866 101.066 99.4332C103.267 97.8124 105.452 97.7534 105.844 99.2652C106.12 100.647 104.716 102.945 102.736 104.494ZM87.7129 113.71C85.8094 114.662 83.8845 115.575 81.9863 116.429C79.8495 117.334 77.3424 117.409 76.404 116.521C75.4567 115.489 76.4805 113.761 78.8185 112.718C80.8627 111.755 82.8767 110.752 84.9084 109.712C87.2482 108.461 89.7482 108.504 90.4836 109.712C91.0997 110.827 89.8515 112.584 87.7129 113.71ZM72.9994 119.641C71.3059 120.15 69.5947 120.611 67.9815 121.015C66.1118 121.415 63.7845 121.285 62.7481 120.695C61.6797 119.993 62.3403 118.965 64.267 118.443C65.9871 117.932 67.7357 117.371 69.568 116.76C71.5802 116.015 74.0873 116.176 74.9794 117.082C75.8751 117.872 74.9029 119.013 72.9994 119.641ZM60.3318 122.143C59.023 122.235 57.7107 122.284 56.4606 122.284C55.0842 122.228 53.1112 121.926 52.0909 121.601C50.9691 121.176 51.2326 120.777 52.6785 120.727C53.9944 120.634 55.305 120.488 56.6654 120.298C58.3196 120.034 60.4671 120.332 61.4732 120.936C62.4454 121.458 61.8863 121.985 60.3353 122.146L60.3318 122.143ZM10.8936 94.9103C11.7626 96.2207 12.6743 97.4895 13.6287 98.7166C13.5717 98.6022 13.1194 97.9214 12.457 97.0118C11.7234 95.9628 11.0183 95.0407 10.8936 94.9103Z" fill="white"/>
    </mask>
    <g mask="url(#mask0_1623_50)">
        <path d="M0.509064 122.287H120.638V0.287354H0.509064V122.287Z" fill="#FC6238"/>
    </g>
    <g opacity="0.15">
        <mask id="mask1_1623_50" style="mask-type:luminance" maskUnits="userSpaceOnUse" x="3" y="3" width="121" height="123">
            <path d="M57.4805 8.2307C55.114 9.17204 52.6923 10.1881 50.2742 11.2789C47.5142 12.5904 44.4176 12.4641 43.4133 11.101C42.523 9.91586 43.9814 8.07588 46.485 6.93523C48.7535 5.99389 51.0007 5.12728 53.1678 4.35499C55.6607 3.55956 58.6558 3.56669 59.8399 4.44931C61.17 5.517 60.1248 7.24308 57.4805 8.22357M39.0383 16.8007C36.8659 18.0837 34.7077 19.4094 32.6137 20.7475C30.2579 22.3188 27.8932 22.3242 27.3465 20.8917C26.9316 19.566 28.3739 17.3505 30.4769 15.9091C32.4053 14.6422 34.4104 13.393 36.3922 12.2221C38.7071 10.9248 41.1644 10.7362 41.9443 11.8662C42.8346 13.126 41.565 15.3842 39.0347 16.8078L39.0383 16.8007ZM23.3454 27.0914C21.6947 28.4189 20.06 29.8069 18.5198 31.1575C16.8264 32.7323 15.336 32.7804 15.2024 31.3692C15.1632 30.056 16.3741 27.7872 17.8413 26.3066C19.2463 24.9507 20.6904 23.6374 22.1951 22.3384C23.9597 20.8881 25.7261 20.5909 26.0876 21.8134C26.522 23.1712 25.3094 25.5699 23.3418 27.0985L23.3454 27.0914ZM12.145 37.3251C11.1087 38.5565 10.1424 39.7779 9.24614 40.9891C8.3202 42.3344 7.69515 42.3718 7.88034 41.0496C8.11895 39.8716 8.94873 37.8465 9.74647 36.4408C10.5122 35.2254 11.3259 34.0438 12.2394 32.7839C13.3523 31.3604 14.2676 31.1415 14.2747 32.3497C14.3566 33.6541 13.4057 35.9051 12.1414 37.3323L12.145 37.3251ZM77.6856 13.3022C75.3815 14.1243 73.0221 15.0265 70.563 15.9963C67.7567 17.1868 64.0351 16.443 62.4325 14.3948C60.9154 12.4961 61.9713 10.165 64.6673 9.16136C67.0142 8.35704 69.3142 7.63517 71.5673 6.99574C74.0015 6.37115 77.317 7.09895 79.0639 8.66133C80.8071 10.375 80.2729 12.4872 77.6821 13.3111L77.6856 13.3022ZM58.6059 20.9985C56.202 22.2103 53.7607 23.4666 51.3159 24.7674C48.5309 26.2942 45.2439 25.7443 43.9885 23.6481C42.8346 21.6533 44.0419 18.936 46.6595 17.516C49.0188 16.3006 51.3301 15.1493 53.6486 14.0425C56.2626 12.852 59.4767 13.2951 60.878 15.0799C62.34 16.9982 61.357 19.6852 58.6023 21.0073L58.6059 20.9985ZM39.95 30.8692C37.8025 32.2056 35.6977 33.5384 33.6037 34.9157C31.2782 36.4835 28.6642 36.0315 27.7845 34.0171C26.985 32.0846 28.0997 29.3371 30.2935 27.7889C32.2664 26.4472 34.243 25.1571 36.2961 23.8492C38.6109 22.4256 41.362 22.7121 42.4197 24.5503C43.538 26.5006 42.4358 29.3691 39.9464 30.8781L39.95 30.8692ZM24.2802 41.0389C22.6402 42.2846 21.0287 43.5747 19.4938 44.8079C17.8093 46.2208 15.9983 45.8008 15.4357 44.0053C14.9567 42.2258 15.831 39.6545 17.3944 38.2202C18.8011 37.0048 20.304 35.7112 21.8247 34.4744C23.6267 33.0508 25.6744 33.2804 26.3956 35.0314C27.1381 36.9016 26.2015 39.6153 24.2749 41.0478L24.2802 41.0389ZM12.9018 50.2566C11.8423 51.3047 10.8238 52.4009 9.87467 53.4294C8.8775 54.5416 7.83938 54.1412 7.55981 52.5397C7.32833 51.0378 7.86609 48.8313 8.75819 47.6497C9.62537 46.5464 10.5389 45.4858 11.4986 44.4057C12.6757 43.1298 13.972 43.3825 14.378 45C14.8427 46.6567 14.175 49.0323 12.8965 50.2655L12.9018 50.2566ZM6.12286 57.8194C5.60825 58.6219 5.14171 59.4387 4.73037 60.2092C4.32973 61.0545 3.95399 60.6666 3.87386 59.2946C3.83826 58.049 4.05194 56.257 4.37067 55.3548C4.71078 54.5274 5.10432 53.6501 5.54593 52.7942C6.10506 51.8421 6.7354 52.0824 6.91525 53.4561C7.13426 54.885 6.76923 56.8727 6.11751 57.8194H6.12286ZM108.37 19.8329C106.955 20.0143 105.551 20.2727 104.164 20.607C102.205 21.2084 98.7348 19.6318 96.6176 17.0943C94.4808 14.7009 94.5396 12.5388 96.5909 12.2897C98.0581 12.1932 99.5311 12.2331 100.991 12.4089C102.266 12.7541 104.78 14.4945 106.78 16.2846C108.728 18.2171 109.522 19.8026 108.37 19.8329ZM94.8156 23.4488C92.6129 24.3937 90.2375 25.3849 87.798 26.4846C84.8991 27.8121 80.7982 26.5896 78.8377 23.7905C76.879 21.0999 77.6821 18 80.5863 16.8968C82.9831 15.991 85.362 15.2098 87.6074 14.5087C90.0202 13.8307 93.4712 15.1066 95.4958 17.4021C97.4669 19.7991 97.2551 22.5413 94.8156 23.4488ZM75.2871 32.0045C72.6351 33.3712 69.9315 34.7805 67.1762 36.2326C64.0458 37.9302 60.034 36.9532 58.289 34.0972C56.6062 31.3354 57.7459 27.8192 60.7943 26.2319C63.4867 24.8795 66.1096 23.5858 68.745 22.3455C71.6599 21.018 75.4242 21.9629 77.2494 24.4898C79.1191 27.1359 78.2537 30.5204 75.2871 32.0045ZM54.1774 42.9323C51.6079 44.427 49.058 45.9361 46.5455 47.4344C43.6965 49.1729 40.2278 48.2992 38.8015 45.5926C37.4393 42.9447 38.5415 39.4587 41.2694 37.7487C43.6858 36.277 46.152 34.8054 48.6325 33.3534C51.4637 31.7394 55.0018 32.4903 56.5688 35.051C58.1447 37.7006 57.0906 41.2614 54.1756 42.9323H54.1774ZM35.0941 54.038C32.9912 55.4189 30.9363 56.7873 28.9402 58.1219C26.7446 59.638 24.0683 58.8337 22.9696 56.4083C21.9351 54.0149 22.7809 50.8029 24.8482 49.2904C26.75 47.897 28.6998 46.5179 30.7066 45.1246C33.0214 43.564 35.9577 44.2046 37.206 46.6158C38.4862 49.1 37.5372 52.4614 35.0923 54.038H35.0941ZM10.5923 71.2989C9.7803 72.105 9.03068 72.8631 8.35581 73.6283C7.68094 74.3935 6.69623 73.6283 6.16737 71.8755C5.68838 70.1725 5.75782 68.103 6.34544 67.2186C6.939 66.4095 7.60257 65.5583 8.3362 64.6651C9.24255 63.6276 10.5371 64.2825 11.1852 66.1331C11.8708 67.9873 11.5948 70.3736 10.5905 71.2918L10.5923 71.2989ZM5.96257 76.4238C5.72715 76.8685 5.53916 77.3368 5.40169 77.8207C5.3269 78.2887 5.01707 77.4648 4.70546 76.1231C4.41878 74.7173 4.17126 73.1745 4.17126 72.6691C4.23342 72.1185 4.35278 71.5758 4.5274 71.0498C4.79093 70.338 5.37321 71.0053 5.77386 72.4876C6.22792 74.0037 6.29377 75.7832 5.95723 76.4167L5.96257 76.4238ZM97.5862 41.3841C95.2773 42.6796 92.8877 44.0249 90.4173 45.42C87.5291 47.0571 83.5832 45.8684 81.7366 42.7917C79.8723 39.7488 80.784 36.0297 83.6953 34.5118C86.1883 33.2377 88.6349 32.0365 90.996 30.8888C93.5513 29.652 97.0716 30.9528 98.8487 33.7021C100.638 36.56 100.104 39.9979 97.5862 41.3841ZM77.999 51.8831C75.4289 53.3399 72.8399 54.8192 70.2318 56.3211C68.7965 57.141 67.0958 57.3628 65.498 56.9385C63.9002 56.5142 62.534 55.4779 61.6953 54.054C61.2926 53.3553 61.0324 52.5838 60.9298 51.784C60.8272 50.9843 60.8841 50.1721 61.0974 49.3944C61.3106 48.6168 61.6759 47.8891 62.1722 47.2533C62.6685 46.6176 63.2859 46.0864 63.9888 45.6905C66.585 44.2313 69.1652 42.7994 71.7293 41.3948C74.6051 39.8378 78.3374 40.8752 80.0539 43.6957C81.7812 46.5749 80.8623 50.2495 77.9972 51.8848L77.999 51.8831ZM39.9393 72.8133C37.9984 73.9664 36.099 75.0987 34.2412 76.2103C32.1988 77.4364 29.5314 76.5004 28.2813 74.1692C27.0616 71.8363 27.651 68.9038 29.6275 67.6172C31.4224 66.4285 33.2654 65.2469 35.1476 64.0583C37.3431 62.6649 40.2438 63.4995 41.5721 65.9267C42.9432 68.3717 42.19 71.484 39.9375 72.8151L39.9393 72.8133ZM25.986 80.659C24.6238 81.5487 23.2866 82.3424 22.0099 83.1254C20.6512 84.0151 18.7334 83.0915 17.7185 81.1234C16.748 79.166 16.9813 76.8046 18.2936 75.8793C19.5068 75.0145 20.7741 74.1248 22.0953 73.2101C23.6605 72.1424 25.8525 72.9503 26.9405 75.0287C28.057 77.1267 27.6154 79.6785 25.9843 80.6608L25.986 80.659ZM16.5486 86.1291C15.733 86.6897 14.946 87.179 14.2498 87.6968C13.4876 88.1862 12.2821 87.3285 11.5004 85.7394C10.7454 84.1379 10.6599 82.3584 11.3491 81.7587C12.0043 81.1786 12.7362 80.6394 13.4858 79.9899C14.4296 79.2941 15.9058 80.0486 16.7729 81.8032C17.6597 83.54 17.5387 85.4938 16.5433 86.1309L16.5486 86.1291ZM11.3633 89.3322C10.8469 89.7148 10.8469 89.7148 10.432 90.0529C10.1988 90.302 9.54171 89.4478 8.95943 88.2093C8.40031 86.9637 8.06908 85.6931 8.27208 85.4155C8.50803 85.0804 8.76875 84.7634 9.05203 84.4671C9.45267 84.0614 10.3234 84.823 10.9609 86.1683C11.6358 87.5527 11.8031 88.9816 11.3615 89.3268L11.3633 89.3322ZM123.666 45.2545C122.857 46.1336 121.874 47.1568 120.697 48.2672C119.134 49.6053 116.483 48.164 114.907 44.9235C113.244 41.7205 113.431 38.1491 115.201 37.0849C116.557 36.2343 117.729 35.4834 118.73 34.8695C120.754 33.4406 125.268 43.0497 123.66 45.2492L123.666 45.2545ZM112.939 53.8743C110.959 55.2979 108.853 56.7808 106.621 58.323C103.95 60.1114 100.286 58.9245 98.5318 55.6075C96.7173 52.2799 97.572 48.1337 100.378 46.4948C102.718 45.0712 104.969 43.7704 107.084 42.507C109.324 41.1581 112.364 42.5764 113.947 45.6211C115.43 48.6337 115.017 52.3208 112.934 53.869L112.939 53.8743ZM94.8992 65.3697C92.3351 66.9784 89.7134 68.6018 87.0341 70.2402C86.2977 70.6821 85.4799 70.9716 84.6294 71.0915C83.7788 71.2114 82.9128 71.1593 82.0828 70.9382C81.2528 70.7171 80.4757 70.3315 79.7978 69.8045C79.1198 69.2774 78.5547 68.6195 78.1361 67.8699C76.3127 64.6668 77.4239 60.5189 80.5667 58.6824C83.3054 57.0845 85.9954 55.509 88.6367 53.9562C91.5623 52.239 95.3141 53.4223 97.0058 56.5417C98.66 59.6185 97.7234 63.5885 94.8939 65.3644L94.8992 65.3697ZM74.0406 77.3296C71.4361 78.8208 68.831 80.299 66.2253 81.7641C64.7972 82.546 63.1224 82.7478 61.5491 82.3276C59.9759 81.9074 58.6252 80.8974 57.7779 79.5077C57.3693 78.8153 57.1023 78.0488 56.9923 77.2526C56.8823 76.4564 56.9315 75.6463 57.137 74.8692C57.3425 74.0921 57.7004 73.3635 58.1897 72.7256C58.679 72.0877 59.2902 71.5532 59.9877 71.153C62.5993 69.6523 65.2258 68.1451 67.8671 66.6314C69.2956 65.8075 70.9927 65.5832 72.5864 66.0075C74.1802 66.4317 75.5406 67.47 76.3697 68.8949C77.1668 70.325 77.3693 72.0109 76.9336 73.5889C76.4978 75.1668 75.4588 76.5104 74.0406 77.3296ZM54.1899 87.7805C51.9356 88.9727 49.708 90.124 47.5427 91.254C45.1459 92.4996 41.9372 91.4604 40.3844 88.9923C38.8281 86.469 39.4763 83.3425 41.8499 81.9972C44.0188 80.8109 46.2185 79.5747 48.449 78.2887C51.0417 76.8278 54.489 77.8065 56.0613 80.4633C57.6479 83.088 56.7896 86.3836 54.1988 87.7805H54.1899ZM37.8078 95.5853C36.1091 96.386 34.4869 97.153 32.9093 97.8737C31.2123 98.6495 28.7692 97.6032 27.423 95.5604C26.0929 93.4837 26.3173 91.0707 27.9572 90.149C29.4975 89.3322 31.1108 88.4923 32.7437 87.5598C34.7024 86.5117 37.4749 87.4673 38.8798 89.7415C40.3257 92.005 39.8004 94.6172 37.8257 95.5853H37.8078ZM26.141 100.349C25.0951 100.794 24.0938 101.179 23.137 101.504C22.1434 101.845 20.4393 100.756 19.3318 99.1585C18.2224 97.4946 18.0426 95.7774 18.9899 95.3379C19.8802 94.8735 20.8453 94.4055 21.8728 93.8894C23.1192 93.2755 25.1385 94.2346 26.3369 96.0942C27.5495 97.9057 27.4533 99.8471 26.141 100.349ZM19.289 102.255C18.8444 102.347 18.3929 102.401 17.9393 102.418C17.56 102.406 16.5557 101.374 15.6387 100.118C14.7483 98.8364 14.2604 97.7438 14.5952 97.669C14.9513 97.5729 15.3395 97.3897 15.806 97.2224C16.3901 96.9697 17.7024 97.9431 18.6551 99.3738C19.654 100.783 19.9318 102.107 19.2944 102.248L19.289 102.255ZM113.413 73.3275C111.454 74.9291 109.396 76.5164 107.255 78.1108C104.709 79.9792 101.509 79.1998 100.133 76.3455C98.6903 73.4094 99.7337 69.4928 102.435 67.6706C104.727 66.1023 106.929 64.5743 109.041 63.0867C111.313 61.3944 114.082 62.4354 115.24 65.222C116.312 67.9998 115.5 71.6104 113.413 73.3275ZM96.2062 85.2501C93.8641 86.7519 91.4774 88.2532 89.0462 89.7539C86.2666 91.4195 82.7943 90.6899 81.295 88.0919C79.7743 85.3978 80.8588 81.7712 83.7434 80.0575C86.2559 78.5503 88.7293 77.0484 91.1937 75.5163C93.9163 73.8116 97.2479 74.6693 98.6101 77.3563C99.894 80.0131 98.8202 83.5257 96.2062 85.2536V85.2501ZM77.3776 95.9928C75.0627 97.2384 72.7479 98.4645 70.4847 99.646C67.9134 100.95 64.6227 100.196 63.0985 97.9395C61.5849 95.6102 62.4379 92.5477 65.0697 91.1579C67.4255 89.8998 69.7635 88.6239 72.1193 87.3196C74.7903 85.8142 78.1735 86.6078 79.5981 89.067C80.9852 91.4515 79.9577 94.5621 77.3776 95.9963V95.9928ZM45.3881 109.762C43.9208 110.262 42.539 110.736 41.1305 111.147C39.6134 111.563 37.3769 110.698 36.0966 109.216C34.8252 107.691 34.9303 105.976 36.4527 105.458C37.8452 104.956 39.2739 104.409 40.7388 103.815C42.4393 103.088 44.9696 103.927 46.241 105.636C47.5195 107.301 47.1189 109.159 45.3881 109.766V109.762ZM34.9338 112.286C34.017 112.452 33.0922 112.571 32.1632 112.642C31.2426 112.702 29.6293 111.835 28.5164 110.702C27.391 109.506 27.2058 108.431 28.114 108.275C28.9527 108.086 29.8643 107.885 30.8437 107.663C31.953 107.332 33.8708 108.186 34.9766 109.506C36.1269 110.821 36.0841 112.07 34.9338 112.289V112.286ZM28.3454 112.323C27.8588 112.24 27.3817 112.109 26.9209 111.932C26.5131 111.754 25.3824 110.864 24.4547 110.019C23.5484 109.163 23.0925 108.551 23.543 108.711C23.9866 108.813 24.4395 108.869 24.8945 108.878C25.5267 108.903 26.8319 109.716 27.8059 110.732C28.7497 111.697 28.974 112.412 28.3437 112.327L28.3454 112.323ZM108.286 94.5816C106.142 96.2306 103.959 97.8321 101.735 99.3862C99.1034 101.166 96.0371 100.892 94.9509 98.6513C93.7044 96.3237 95.0257 92.8111 97.8195 90.9995C100.265 89.3529 102.632 87.7188 104.921 86.0971C107.442 84.2322 110.199 84.7927 111.066 87.2039C111.837 89.4745 110.58 92.7559 108.284 94.5852L108.286 94.5816ZM90.5936 106.041C88.3161 107.332 86.0067 108.591 83.7114 109.8C81.0529 111.14 77.8495 110.75 76.5567 108.878C75.1322 106.897 76.2451 104.038 78.998 102.6C81.4588 101.281 83.8645 99.9468 86.3129 98.557C89.0266 96.9661 92.2461 97.4644 93.391 99.6247C94.4559 101.664 93.1898 104.518 90.5918 106.043L90.5936 106.041ZM72.787 114.567C70.7357 115.421 68.6809 116.225 66.6224 116.978C64.345 117.759 61.4354 117.227 60.0215 115.752C58.597 114.168 59.2897 112.092 61.6455 111.17C63.7555 110.302 65.8728 109.39 68.0416 108.421C70.5096 107.273 73.6631 107.844 74.9363 109.647C76.1774 111.348 75.1803 113.542 72.7942 114.571L72.787 114.567ZM57.4271 119.532C55.7408 119.911 54.1436 120.243 52.6461 120.532C50.9402 120.784 48.4775 120.101 47.1492 119.016C45.7691 117.829 46.0078 116.524 47.7083 116.131C49.2984 115.734 50.9135 115.284 52.6104 114.786C54.5496 114.154 57.2918 114.82 58.6255 116.238C59.8773 117.555 59.3199 119.033 57.4271 119.532ZM45.7923 120.955C44.6367 120.911 43.6057 120.845 42.5871 120.722C41.5187 120.532 39.6277 119.738 38.4008 118.987C37.1544 118.154 36.9887 117.542 38.0589 117.612C39.0739 117.624 40.1565 117.612 41.2534 117.516C42.6067 117.384 44.7809 118.129 45.9757 119.151C47.2204 120.119 47.0869 120.914 45.7923 120.95V120.955ZM105.736 107.543C103.913 108.889 102.015 110.213 100.092 111.501C97.8943 112.891 95.5652 113.133 94.9135 111.924C94.1211 110.6 95.4477 108.2 97.8711 106.693C100.008 105.303 102.043 103.931 104.066 102.504C106.267 100.89 108.452 100.831 108.844 102.337C109.12 103.712 107.716 106.001 105.736 107.543ZM90.7129 116.72C88.8094 117.669 86.8845 118.578 84.9863 119.428C82.8495 120.329 80.3424 120.404 79.404 119.519C78.4567 118.492 79.4805 116.772 81.8186 115.733C83.8627 114.773 85.8767 113.775 87.9084 112.739C90.2482 111.494 92.7482 111.537 93.4836 112.739C94.0997 113.85 92.8515 115.599 90.7129 116.72ZM75.9994 122.626C74.306 123.133 72.5947 123.592 70.9815 123.995C69.1118 124.393 66.7845 124.263 65.7481 123.676C64.6797 122.977 65.3403 121.954 67.267 121.434C68.9871 120.925 70.7357 120.366 72.568 119.758C74.5802 119.016 77.0873 119.176 77.9794 120.078C78.8751 120.865 77.9029 122.002 75.9994 122.626ZM63.3318 125.117C62.023 125.21 60.7107 125.258 59.4606 125.258C58.0842 125.203 56.1112 124.902 55.0909 124.578C53.9691 124.155 54.2326 123.758 55.6785 123.708C56.9944 123.616 58.305 123.47 59.6654 123.281C61.3196 123.018 63.4671 123.315 64.4732 123.916C65.4454 124.436 64.8863 124.961 63.3353 125.121L63.3318 125.117ZM13.8936 98C14.7626 99.305 15.6743 100.568 16.6287 101.79C16.5717 101.676 16.1194 100.998 15.457 100.093C14.7234 99.0481 14.0183 98.1299 13.8936 98Z" fill="white"/>
        </mask>
        <g mask="url(#mask1_1623_50)">
            <path d="M3.45804 125.262H123.587V3.77597H3.45804V125.262Z" fill="#FC6238"/>
        </g>
    </g>
</svg>
