<svg viewBox="0 0 124 126" fill="none" xmlns="http://www.w3.org/2000/svg">
    <mask id="mask0_1623_50" style="mask-type:luminance" maskUnits="userSpaceOnUse" x="0" y="0" width="121" height="123">
        <path d="M54.4805 5.25633C52.114 6.19768 49.6923 7.21376 47.2742 8.30458C44.5142 9.61606 41.4176 9.48971 40.4133 8.12663C39.523 6.9415 40.9814 5.10151 43.485 3.96087C45.7535 3.01953 48.0007 2.15292 50.1678 1.38063C52.6607 0.5852 55.6558 0.592323 56.8399 1.47494C58.17 2.54263 57.1248 4.26872 54.4805 5.24921M36.0383 13.8263C33.8659 15.1093 31.7077 16.435 29.6137 17.7732C27.2579 19.3445 24.8932 19.3498 24.3465 17.9173C23.9316 16.5916 25.3739 14.3762 27.4769 12.9348C29.4053 11.6678 31.4104 10.4186 33.3922 9.2477C35.7071 7.95046 38.1644 7.76184 38.9443 8.89181C39.8346 10.1517 38.565 12.4098 36.0347 13.8334L36.0383 13.8263ZM20.3454 24.117C18.6947 25.4445 17.06 26.8325 15.5198 28.1831C13.8264 29.758 12.336 29.806 12.2024 28.3949C12.1632 27.0816 13.3741 24.8128 14.8413 23.3323C16.2463 21.9763 17.6904 20.663 19.1951 19.364C20.9597 17.9138 22.7261 17.6166 23.0876 18.8391C23.522 20.1968 22.3094 22.5956 20.3418 24.1241L20.3454 24.117ZM9.14501 34.3508C8.10866 35.5822 7.1424 36.8035 6.24614 38.0147C5.3202 39.36 4.69516 39.3974 4.88034 38.0752C5.11895 36.8972 5.94873 34.8722 6.74647 33.4664C7.51215 32.251 8.32591 31.0694 9.23939 29.8096C10.3523 28.386 11.2676 28.1671 11.2747 29.3754C11.3566 30.6797 10.4057 32.9308 9.14144 34.3579L9.14501 34.3508ZM74.6856 10.3278C72.3815 11.15 70.0221 12.0522 67.563 13.022C64.7567 14.2124 61.0351 13.4686 59.4325 11.4204C57.9154 9.52173 58.9713 7.19062 61.6673 6.187C64.0142 5.38267 66.3142 4.6608 68.5673 4.02138C71.0015 3.39678 74.317 4.12458 76.0639 5.68696C77.8071 7.4006 77.2729 9.51284 74.6821 10.3367L74.6856 10.3278ZM55.6059 18.0241C53.202 19.2359 50.7607 20.4922 48.3159 21.793C45.5309 23.3198 42.2439 22.7699 40.9885 20.6737C39.8346 18.6789 41.0419 15.9617 43.6595 14.5416C46.0188 13.3263 48.3301 12.1749 50.6486 11.0681C53.2626 9.87763 56.4767 10.3207 57.878 12.1055C59.34 14.0238 58.357 16.7108 55.6023 18.033L55.6059 18.0241ZM36.95 27.8948C34.8025 29.2312 32.6977 30.5641 30.6037 31.9414C28.2782 33.5091 25.6642 33.0571 24.7845 31.0427C23.985 29.1102 25.0997 26.3627 27.2935 24.8146C29.2665 23.4728 31.243 22.1827 33.2961 20.8748C35.6109 19.4512 38.362 19.7377 39.4197 21.5759C40.538 23.5262 39.4358 26.3947 36.9464 27.9037L36.95 27.8948ZM21.2802 38.0646C19.6402 39.3102 18.0287 40.6003 16.4938 41.8335C14.8093 43.2464 12.9983 42.8264 12.4357 41.0309C11.9567 39.2515 12.831 36.6801 14.3944 35.2459C15.8011 34.0305 17.304 32.7368 18.8247 31.5001C20.6267 30.0765 22.6744 30.306 23.3956 32.057C24.1381 33.9273 23.2015 36.641 21.2749 38.0735L21.2802 38.0646ZM9.90179 47.2823C8.8423 48.3304 7.82376 49.4265 6.87467 50.4551C5.8775 51.5672 4.83938 51.1669 4.55982 49.5653C4.32833 48.0634 4.86609 45.8569 5.75819 44.6753C6.62537 43.572 7.53888 42.5115 8.49865 41.4313C9.67566 40.1554 10.972 40.4081 11.378 42.0257C11.8427 43.6824 11.175 46.058 9.89648 47.2912L9.90179 47.2823ZM3.12286 54.845C2.60825 55.6476 2.1417 56.4644 1.73037 57.2349C1.32973 58.0801 0.953997 57.6922 0.873867 56.3202C0.838254 55.0746 1.05194 53.2827 1.37068 52.3805C1.71078 51.553 2.10432 50.6757 2.54593 49.8198C3.10505 48.8678 3.7354 49.108 3.91524 50.4818C4.13426 51.9107 3.76923 53.8984 3.11751 54.845H3.12286ZM105.37 16.8585C103.955 17.0399 102.551 17.2983 101.164 17.6326C99.2053 18.2341 95.7348 16.6574 93.6176 14.1199C91.4808 11.7265 91.5396 9.56445 93.5909 9.31532C95.0581 9.21881 96.5311 9.25872 97.9909 9.43454C99.2658 9.77976 101.78 11.5201 103.78 13.3103C105.728 15.2428 106.522 16.8283 105.37 16.8585ZM91.8156 20.4744C89.6129 21.4193 87.2375 22.4105 84.798 23.5102C81.8991 24.8377 77.7982 23.6152 75.8377 20.8161C73.879 18.1255 74.6821 15.0257 77.5863 13.9224C79.9831 13.0166 82.362 12.2354 84.6074 11.5343C87.0202 10.8563 90.4712 12.1322 92.4958 14.4278C94.4669 16.8247 94.2551 19.5669 91.8156 20.4744ZM72.2871 29.0302C69.6351 30.3968 66.9315 31.8061 64.1762 33.2582C61.0458 34.9558 57.034 33.9789 55.289 31.1228C53.6062 28.3611 54.7459 24.8448 57.7943 23.2575C60.4867 21.9051 63.1096 20.6115 65.745 19.3712C68.6599 18.0437 72.4242 18.9886 74.2494 21.5154C76.1191 24.1615 75.2537 27.5461 72.2871 29.0302ZM51.1774 39.9579C48.6079 41.4527 46.058 42.9617 43.5455 44.46C40.6965 46.1986 37.2278 45.3248 35.8015 42.6182C34.4393 39.9704 35.5415 36.4844 38.2694 34.7743C40.6858 33.3027 43.152 31.8311 45.6325 30.379C48.4637 28.765 52.0018 29.5159 53.5688 32.0766C55.1447 34.7263 54.0906 38.287 51.1756 39.9579H51.1774ZM32.0941 51.0636C29.9912 52.4445 27.9363 53.8129 25.9402 55.1475C23.7446 56.6637 21.0683 55.8593 19.9696 53.4339C18.9351 51.0405 19.7809 47.8286 21.8482 46.316C23.75 44.9227 25.6998 43.5436 27.7066 42.1502C30.0214 40.5896 32.9577 41.2303 34.206 43.6414C35.4862 46.1256 34.5372 49.487 32.0923 51.0636H32.0941ZM7.59228 68.3246C6.7803 69.1307 6.03068 69.8887 5.35581 70.6539C4.68094 71.4191 3.69623 70.6539 3.16737 68.9011C2.68838 67.1982 2.75782 65.1286 3.34544 64.2442C3.93899 63.4352 4.60257 62.584 5.3362 61.6907C6.24256 60.6533 7.53709 61.3081 8.18525 63.1588C8.8708 65.013 8.59479 67.3993 7.5905 68.3175L7.59228 68.3246ZM2.96257 73.4495C2.72715 73.8942 2.53917 74.3624 2.40168 74.8464C2.3269 75.3144 2.01708 74.4905 1.70546 73.1487C1.41878 71.743 1.17127 70.2002 1.17127 69.6948C1.23342 69.1441 1.35278 68.6014 1.5274 68.0755C1.79093 67.3637 2.37321 68.031 2.77386 69.5133C3.22792 71.0294 3.29377 72.8089 2.95723 73.4424L2.96257 73.4495ZM94.5862 38.4098C92.2773 39.7052 89.8877 41.0505 87.4173 42.4456C84.5291 44.0828 80.5832 42.8941 78.7366 39.8173C76.8723 36.7744 77.784 33.0553 80.6953 31.5374C83.1883 30.2633 85.6349 29.0622 87.996 27.9144C90.5513 26.6777 94.0716 27.9785 95.8487 30.7278C97.6383 33.5856 97.1041 37.0236 94.5862 38.4098ZM74.999 48.9087C72.4289 50.3655 69.8399 51.8448 67.2318 53.3467C65.7965 54.1666 64.0958 54.3885 62.498 53.9641C60.9002 53.5398 59.534 52.5035 58.6953 51.0797C58.2926 50.381 58.0324 49.6094 57.9298 48.8097C57.8272 48.0099 57.8841 47.1977 58.0974 46.4201C58.3106 45.6424 58.6759 44.9147 59.1722 44.279C59.6685 43.6432 60.2859 43.112 60.9888 42.7161C63.585 41.2569 66.1652 39.8251 68.7293 38.4205C71.6051 36.8634 75.3374 37.9008 77.0539 40.7213C78.7811 43.6005 77.8623 47.2751 74.9972 48.9105L74.999 48.9087ZM36.9393 69.8389C34.9984 70.992 33.099 72.1244 31.2412 73.2359C29.1988 74.462 26.5314 73.526 25.2813 71.1949C24.0616 68.862 24.651 65.9294 26.6275 64.6428C28.4224 63.4541 30.2654 62.2726 32.1476 61.0839C34.3431 59.6906 37.2438 60.5251 38.5721 62.9523C39.9432 65.3973 39.19 68.5096 36.9375 69.8407L36.9393 69.8389ZM22.986 77.6846C21.6238 78.5744 20.2866 79.368 19.0099 80.151C17.6512 81.0407 15.7334 80.1172 14.7185 78.1491C13.748 76.1917 13.9813 73.8303 15.2936 72.905C16.5068 72.0401 17.7741 71.1504 19.0953 70.2357C20.6605 69.1681 22.8525 69.9759 23.9405 72.0544C25.057 74.1524 24.6154 76.7041 22.9843 77.6864L22.986 77.6846ZM13.5486 83.1548C12.733 83.7153 11.946 84.2046 11.2498 84.7225C10.4876 85.2118 9.28214 84.3541 8.50043 82.765C7.74543 81.1635 7.65994 79.384 8.34906 78.7844C9.00434 78.2042 9.73619 77.6651 10.4858 77.0156C11.4296 76.3198 12.9058 77.0743 13.7729 78.8288C14.6597 80.5656 14.5386 82.5195 13.5433 83.1565L13.5486 83.1548ZM8.36332 86.3578C7.84693 86.7404 7.84693 86.7404 7.43204 87.0785C7.19877 87.3276 6.54171 86.4735 5.95943 85.235C5.40031 83.9893 5.06908 82.7188 5.27208 82.4412C5.50802 82.106 5.76875 81.789 6.05203 81.4927C6.45268 81.087 7.32341 81.8486 7.96089 83.1939C8.63576 84.5783 8.80314 86.0073 8.36154 86.3525L8.36332 86.3578ZM120.666 42.2801C119.857 43.1592 118.874 44.1824 117.697 45.2928C116.134 46.631 113.483 45.1896 111.907 41.9492C110.244 38.7461 110.431 35.1747 112.201 34.1106C113.557 33.26 114.729 32.509 115.73 31.8951C117.754 30.4662 122.268 40.0754 120.66 42.2748L120.666 42.2801ZM109.939 50.8999C107.959 52.3235 105.853 53.8064 103.621 55.3486C100.95 57.137 97.2857 55.9501 95.5318 52.6331C93.7173 49.3055 94.572 45.1593 97.3783 43.5204C99.7181 42.0969 101.969 40.7961 104.084 39.5326C106.324 38.1838 109.364 39.602 110.947 42.6467C112.43 45.6594 112.017 49.3464 109.934 50.8946L109.939 50.8999ZM91.8992 62.3954C89.3351 64.004 86.7134 65.6275 84.0341 67.2658C83.2977 67.7077 82.4799 67.9972 81.6294 68.1171C80.7788 68.2371 79.9128 68.1849 79.0828 67.9638C78.2528 67.7427 77.4757 67.3572 76.7978 66.8301C76.1198 66.303 75.5547 65.6451 75.1361 64.8955C73.3127 61.6925 74.4239 57.5445 77.5667 55.7081C80.3054 54.1101 82.9954 52.5347 85.6367 50.9818C88.5623 49.2646 92.3141 50.4479 94.0058 53.5674C95.66 56.6441 94.7234 60.6141 91.8939 62.39L91.8992 62.3954ZM71.0406 74.3552C68.4361 75.8464 65.831 77.3246 63.2253 78.7897C61.7972 79.5716 60.1224 79.7735 58.5491 79.3532C56.9759 78.933 55.6252 77.9231 54.7779 76.5333C54.3693 75.841 54.1023 75.0745 53.9923 74.2783C53.8823 73.482 53.9315 72.6719 54.137 71.8948C54.3425 71.1178 54.7004 70.3892 55.1897 69.7513C55.679 69.1134 56.2902 68.5788 56.9877 68.1787C59.5993 66.678 62.2258 65.1708 64.8671 63.657C66.2956 62.8332 67.9927 62.6088 69.5864 63.0331C71.1802 63.4574 72.5406 64.4957 73.3697 65.9205C74.1668 67.3506 74.3693 69.0365 73.9336 70.6145C73.4978 72.1925 72.4588 73.536 71.0406 74.3552ZM51.1899 84.8061C48.9356 85.9984 46.708 87.1497 44.5427 88.2796C42.1459 89.5253 38.9372 88.4861 37.3844 86.0179C35.8282 83.4946 36.4763 80.3681 38.8499 79.0228C41.0188 77.8365 43.2185 76.6003 45.449 75.3144C48.0417 73.8534 51.489 74.8321 53.0613 77.4889C54.6479 80.1136 53.7896 83.4092 51.1988 84.8061H51.1899ZM34.8078 92.6109C33.1091 93.4117 31.4869 94.1786 29.9093 94.8993C28.2123 95.6752 25.7692 94.6288 24.423 92.586C23.0929 90.5093 23.3173 88.0964 24.9572 87.1746C26.4975 86.3578 28.1108 85.5179 29.7437 84.5855C31.7024 83.5373 34.4749 84.4929 35.8798 86.7671C37.3257 89.0306 36.8004 91.6429 34.8257 92.6109H34.8078ZM23.141 97.3746C22.0951 97.8194 21.0938 98.2044 20.137 98.5294C19.1434 98.8711 17.4393 97.7821 16.3318 96.1841C15.2224 94.5203 15.0426 92.8031 15.9899 92.3636C16.8802 91.8991 17.8453 91.4311 18.8728 90.9151C20.1192 90.3011 22.1385 91.2603 23.3369 93.1198C24.5495 94.9313 24.4533 96.8727 23.141 97.3746ZM16.289 99.2804C15.8444 99.3722 15.3929 99.427 14.9393 99.4441C14.56 99.4316 13.5557 98.3995 12.6387 97.1432C11.7483 95.862 11.2604 94.7694 11.5952 94.6947C11.9513 94.5986 12.3395 94.4153 12.806 94.248C13.3901 93.9953 14.7024 94.9687 15.6551 96.3994C16.654 97.8088 16.9318 99.1327 16.2944 99.2733L16.289 99.2804ZM110.413 70.3532C108.454 71.9547 106.396 73.542 104.255 75.1364C101.709 77.0049 98.509 76.2255 97.1326 73.3712C95.6903 70.435 96.7337 66.5184 99.435 64.6962C101.727 63.1279 103.929 61.5999 106.041 60.1123C108.313 58.42 111.082 59.461 112.24 62.2477C113.312 65.0254 112.5 68.636 110.413 70.3532ZM93.2062 82.2757C90.8641 83.7776 88.4774 85.2789 86.0462 86.7796C83.2666 88.4451 79.7943 87.7156 78.295 85.1175C76.7743 82.4234 77.8588 78.7968 80.7434 77.0832C83.2559 75.576 85.7293 74.0741 88.1937 72.5419C90.9163 70.8372 94.2479 71.6949 95.6101 74.3819C96.894 77.0387 95.8202 80.5514 93.2062 82.2792V82.2757ZM74.3776 93.0184C72.0627 94.264 69.7479 95.4901 67.4847 96.6717C64.9134 97.976 61.6227 97.2215 60.0985 94.9651C58.5849 92.6358 59.4379 89.5733 62.0697 88.1836C64.4255 86.9255 66.7635 85.6496 69.1193 84.3452C71.7903 82.8398 75.1735 83.6334 76.5981 86.0927C77.9852 88.4772 76.9577 91.5877 74.3776 93.022V93.0184ZM42.3881 106.788C40.9208 107.288 39.539 107.761 38.1305 108.172C36.6134 108.589 34.3769 107.724 33.0966 106.242C31.8252 104.717 31.9303 103.001 33.4527 102.483C34.8452 101.982 36.2739 101.434 37.7388 100.841C39.4393 100.113 41.9696 100.953 43.241 102.661C44.5195 104.327 44.1189 106.185 42.3881 106.792V106.788ZM31.9338 109.311C31.017 109.477 30.0922 109.596 29.1632 109.667C28.2426 109.728 26.6293 108.861 25.5164 107.728C24.391 106.532 24.2058 105.457 25.114 105.3C25.9527 105.112 26.8643 104.911 27.8437 104.688C28.953 104.357 30.8708 105.211 31.9766 106.532C33.1269 107.847 33.0841 109.096 31.9338 109.315V109.311ZM25.3454 109.349C24.8588 109.265 24.3817 109.134 23.9209 108.957C23.5131 108.779 22.3824 107.889 21.4547 107.044C20.5484 106.188 20.0925 105.576 20.543 105.736C20.9866 105.838 21.4395 105.894 21.8945 105.904C22.5267 105.929 23.8319 106.742 24.8059 107.758C25.7497 108.722 25.974 109.438 25.3437 109.352L25.3454 109.349ZM105.286 91.6073C103.142 93.2563 100.959 94.8578 98.7352 96.4119C96.1034 98.1913 93.0371 97.9173 91.9509 95.6769C90.7044 93.3494 92.0257 89.8367 94.8195 88.0252C97.265 86.3786 99.632 84.7444 101.921 83.1227C104.442 81.2578 107.199 81.8184 108.066 84.2296C108.837 86.5002 107.58 89.7815 105.284 91.6108L105.286 91.6073ZM87.5936 103.067C85.3161 104.357 83.0067 105.617 80.7114 106.825C78.0529 108.165 74.8495 107.776 73.5567 105.904C72.1322 103.923 73.2451 101.063 75.998 99.6256C78.4588 98.307 80.8645 96.9724 83.3129 95.5826C86.0266 93.9918 89.2461 94.49 90.391 96.6503C91.4559 98.6896 90.1898 101.544 87.5918 103.069L87.5936 103.067ZM69.787 111.593C67.7357 112.447 65.6808 113.25 63.6224 114.004C61.345 114.785 58.4354 114.253 57.0215 112.778C55.597 111.194 56.2897 109.117 58.6455 108.196C60.7555 107.327 62.8728 106.416 65.0416 105.446C67.5096 104.299 70.6631 104.87 71.9363 106.672C73.1774 108.374 72.1803 110.568 69.7942 111.596L69.787 111.593ZM54.4271 116.557C52.7408 116.936 51.1436 117.269 49.6461 117.557C47.9402 117.81 45.4775 117.127 44.1492 116.041C42.7691 114.854 43.0078 113.55 44.7083 113.157C46.2984 112.76 47.9134 112.31 49.6104 111.811C51.5495 111.18 54.2918 111.845 55.6255 113.264C56.8773 114.58 56.3199 116.059 54.4271 116.557ZM42.7923 117.981C41.6367 117.936 40.6057 117.871 39.5871 117.748C38.5187 117.557 36.6277 116.764 35.4008 116.013C34.1544 115.18 33.9887 114.568 35.0589 114.637C36.0739 114.65 37.1565 114.637 38.2534 114.541C39.6067 114.41 41.7809 115.155 42.9757 116.177C44.2204 117.145 44.0869 117.94 42.7923 117.976V117.981ZM102.736 104.569C100.913 105.914 99.0148 107.238 97.0916 108.527C94.8943 109.916 92.5652 110.158 91.9135 108.95C91.1211 107.626 92.4477 105.226 94.8711 103.718C97.0079 102.329 99.0432 100.957 101.066 99.5295C103.267 97.9155 105.452 97.8568 105.844 99.3622C106.12 100.738 104.716 103.026 102.736 104.569ZM87.7129 113.746C85.8094 114.694 83.8845 115.604 81.9863 116.454C79.8495 117.355 77.3424 117.429 76.404 116.545C75.4567 115.518 76.4805 113.797 78.8185 112.758C80.8627 111.799 82.8767 110.801 84.9084 109.765C87.2482 108.519 89.7482 108.562 90.4836 109.765C91.0997 110.875 89.8515 112.625 87.7129 113.746ZM72.9994 119.652C71.3059 120.159 69.5947 120.618 67.9815 121.02C66.1118 121.419 63.7845 121.289 62.7481 120.702C61.6797 120.002 62.3403 118.979 64.267 118.46C65.9871 117.951 67.7357 117.392 69.568 116.783C71.5802 116.041 74.0873 116.201 74.9794 117.104C75.8751 117.89 74.9029 119.027 72.9994 119.652ZM60.3318 122.143C59.023 122.236 57.7107 122.284 56.4606 122.284C55.0842 122.229 53.1112 121.928 52.0909 121.604C50.9691 121.18 51.2326 120.784 52.6785 120.734C53.9944 120.641 55.305 120.495 56.6654 120.307C58.3196 120.043 60.4671 120.341 61.4732 120.942C62.4454 121.462 61.8863 121.987 60.3353 122.147L60.3318 122.143ZM10.8936 95.0257C11.7626 96.3306 12.6743 97.594 13.6287 98.8159C13.5717 98.7021 13.1194 98.0241 12.457 97.1183C11.7234 96.0738 11.0183 95.1556 10.8936 95.0257Z" fill="white"/>
    </mask>
    <g mask="url(#mask0_1623_50)">
        <path d="M0.509064 122.287H120.638V0.7966H0.509064V122.287Z" fill="#FC6238"/>
    </g>
    <g opacity="0.15">
        <mask id="mask1_1623_50" style="mask-type:luminance" maskUnits="userSpaceOnUse" x="3" y="3" width="121" height="123">
            <path d="M57.4805 8.2307C55.114 9.17204 52.6923 10.1881 50.2742 11.2789C47.5142 12.5904 44.4176 12.4641 43.4133 11.101C42.523 9.91587 43.9814 8.07588 46.485 6.93523C48.7535 5.99389 51.0007 5.12728 53.1678 4.35499C55.6607 3.55956 58.6558 3.56669 59.8399 4.44931C61.17 5.517 60.1248 7.24308 57.4805 8.22357M39.0383 16.8007C36.8659 18.0837 34.7077 19.4094 32.6137 20.7475C30.2579 22.3188 27.8932 22.3242 27.3465 20.8917C26.9316 19.566 28.3739 17.3505 30.4769 15.9091C32.4053 14.6422 34.4104 13.393 36.3922 12.2221C38.7071 10.9248 41.1644 10.7362 41.9443 11.8662C42.8346 13.126 41.565 15.3842 39.0347 16.8078L39.0383 16.8007ZM23.3454 27.0914C21.6947 28.4189 20.06 29.8069 18.5198 31.1575C16.8264 32.7323 15.336 32.7804 15.2024 31.3692C15.1632 30.056 16.3741 27.7872 17.8413 26.3066C19.2463 24.9507 20.6904 23.6374 22.1951 22.3384C23.9597 20.8881 25.7261 20.5909 26.0876 21.8134C26.522 23.1712 25.3094 25.5699 23.3418 27.0985L23.3454 27.0914ZM12.145 37.3252C11.1087 38.5566 10.1424 39.7779 9.24614 40.9891C8.3202 42.3344 7.69516 42.3718 7.88034 41.0496C8.11895 39.8716 8.94873 37.8465 9.74647 36.4408C10.5122 35.2254 11.3259 34.0438 12.2394 32.7839C13.3523 31.3603 14.2676 31.1415 14.2747 32.3497C14.3566 33.6541 13.4057 35.9051 12.1414 37.3323L12.145 37.3252ZM77.6856 13.3022C75.3815 14.1243 73.0221 15.0265 70.563 15.9963C67.7567 17.1868 64.0351 16.443 62.4325 14.3948C60.9154 12.4961 61.9713 10.165 64.6673 9.16136C67.0142 8.35704 69.3142 7.63517 71.5673 6.99574C74.0015 6.37114 77.317 7.09895 79.0639 8.66133C80.8071 10.375 80.2729 12.4872 77.6821 13.3111L77.6856 13.3022ZM58.6059 20.9985C56.202 22.2103 53.7607 23.4666 51.3159 24.7674C48.5309 26.2942 45.2439 25.7443 43.9885 23.6481C42.8346 21.6533 44.0419 18.936 46.6595 17.516C49.0188 16.3006 51.3301 15.1493 53.6486 14.0425C56.2626 12.852 59.4767 13.2951 60.878 15.0799C62.34 16.9982 61.357 19.6852 58.6023 21.0073L58.6059 20.9985ZM39.95 30.8692C37.8025 32.2056 35.6977 33.5384 33.6037 34.9157C31.2782 36.4835 28.6642 36.0315 27.7845 34.0171C26.985 32.0846 28.0997 29.3371 30.2935 27.7889C32.2665 26.4472 34.243 25.1571 36.2961 23.8492C38.6109 22.4256 41.362 22.7121 42.4197 24.5503C43.538 26.5006 42.4358 29.3691 39.9464 30.8781L39.95 30.8692ZM24.2802 41.0389C22.6402 42.2846 21.0287 43.5747 19.4938 44.8079C17.8093 46.2208 15.9983 45.8008 15.4357 44.0053C14.9567 42.2258 15.831 39.6545 17.3944 38.2202C18.8011 37.0048 20.304 35.7112 21.8247 34.4744C23.6267 33.0508 25.6744 33.2804 26.3956 35.0314C27.1381 36.9016 26.2015 39.6153 24.2749 41.0478L24.2802 41.0389ZM12.9018 50.2566C11.8423 51.3047 10.8238 52.4009 9.87467 53.4294C8.8775 54.5416 7.83938 54.1412 7.55982 52.5397C7.32833 51.0378 7.86609 48.8313 8.75819 47.6497C9.62537 46.5464 10.5389 45.4858 11.4986 44.4057C12.6757 43.1298 13.972 43.3825 14.378 45C14.8427 46.6567 14.175 49.0323 12.8965 50.2655L12.9018 50.2566ZM6.12286 57.8194C5.60825 58.6219 5.1417 59.4387 4.73037 60.2092C4.32973 61.0545 3.954 60.6666 3.87387 59.2946C3.83825 58.049 4.05194 56.257 4.37068 55.3548C4.71078 54.5274 5.10432 53.6501 5.54593 52.7942C6.10505 51.8421 6.7354 52.0824 6.91524 53.4561C7.13426 54.885 6.76923 56.8727 6.11751 57.8194H6.12286ZM108.37 19.8329C106.955 20.0143 105.551 20.2727 104.164 20.607C102.205 21.2084 98.7348 19.6318 96.6176 17.0943C94.4808 14.7009 94.5396 12.5388 96.5909 12.2897C98.0581 12.1932 99.5311 12.2331 100.991 12.4089C102.266 12.7541 104.78 14.4945 106.78 16.2846C108.728 18.2171 109.522 19.8026 108.37 19.8329ZM94.8156 23.4488C92.6129 24.3937 90.2375 25.3849 87.798 26.4846C84.8991 27.8121 80.7982 26.5896 78.8377 23.7905C76.879 21.0999 77.6821 18 80.5863 16.8968C82.9831 15.991 85.362 15.2098 87.6074 14.5087C90.0202 13.8307 93.4712 15.1066 95.4958 17.4021C97.4669 19.7991 97.2551 22.5413 94.8156 23.4488ZM75.2871 32.0045C72.6351 33.3712 69.9315 34.7805 67.1762 36.2326C64.0458 37.9302 60.034 36.9532 58.289 34.0972C56.6062 31.3354 57.7459 27.8192 60.7943 26.2319C63.4867 24.8795 66.1096 23.5858 68.745 22.3455C71.6599 21.018 75.4242 21.9629 77.2494 24.4898C79.1191 27.1359 78.2537 30.5204 75.2871 32.0045ZM54.1774 42.9323C51.6079 44.4271 49.058 45.9361 46.5455 47.4344C43.6965 49.1729 40.2278 48.2992 38.8015 45.5926C37.4393 42.9447 38.5415 39.4587 41.2694 37.7487C43.6858 36.277 46.152 34.8054 48.6325 33.3534C51.4637 31.7394 55.0018 32.4903 56.5688 35.051C58.1447 37.7006 57.0906 41.2614 54.1756 42.9323H54.1774ZM35.0941 54.038C32.9912 55.4189 30.9363 56.7873 28.9402 58.1219C26.7446 59.638 24.0683 58.8337 22.9696 56.4083C21.9351 54.0149 22.7809 50.8029 24.8482 49.2904C26.75 47.897 28.6998 46.5179 30.7066 45.1246C33.0214 43.564 35.9577 44.2046 37.206 46.6158C38.4862 49.1 37.5372 52.4614 35.0923 54.038H35.0941ZM10.5923 71.2989C9.7803 72.1051 9.03068 72.8631 8.35581 73.6283C7.68094 74.3935 6.69623 73.6283 6.16737 71.8755C5.68838 70.1725 5.75782 68.103 6.34544 67.2186C6.93899 66.4095 7.60257 65.5584 8.3362 64.6651C9.24256 63.6276 10.5371 64.2825 11.1853 66.1331C11.8708 67.9873 11.5948 70.3736 10.5905 71.2918L10.5923 71.2989ZM5.96257 76.4238C5.72715 76.8685 5.53917 77.3367 5.40168 77.8207C5.3269 78.2887 5.01708 77.4648 4.70546 76.1231C4.41878 74.7173 4.17127 73.1745 4.17127 72.6691C4.23342 72.1185 4.35278 71.5758 4.5274 71.0498C4.79093 70.338 5.37321 71.0053 5.77386 72.4876C6.22792 74.0038 6.29377 75.7832 5.95723 76.4167L5.96257 76.4238ZM97.5862 41.3841C95.2773 42.6796 92.8877 44.0249 90.4173 45.42C87.5291 47.0571 83.5832 45.8684 81.7366 42.7917C79.8723 39.7488 80.784 36.0297 83.6953 34.5118C86.1883 33.2377 88.6349 32.0365 90.996 30.8888C93.5513 29.652 97.0716 30.9528 98.8487 33.7021C100.638 36.56 100.104 39.9979 97.5862 41.3841ZM77.999 51.8831C75.4289 53.3399 72.8399 54.8192 70.2318 56.3211C68.7965 57.141 67.0958 57.3628 65.498 56.9385C63.9002 56.5142 62.534 55.4779 61.6953 54.054C61.2926 53.3553 61.0324 52.5838 60.9298 51.784C60.8272 50.9843 60.8841 50.1721 61.0974 49.3944C61.3106 48.6168 61.6759 47.8891 62.1722 47.2533C62.6685 46.6176 63.2859 46.0864 63.9888 45.6905C66.585 44.2313 69.1652 42.7994 71.7293 41.3948C74.6051 39.8378 78.3374 40.8752 80.0539 43.6957C81.7811 46.5749 80.8623 50.2495 77.9972 51.8848L77.999 51.8831ZM39.9393 72.8133C37.9984 73.9664 36.099 75.0987 34.2412 76.2103C32.1988 77.4364 29.5314 76.5004 28.2813 74.1692C27.0616 71.8363 27.651 68.9038 29.6275 67.6172C31.4224 66.4285 33.2654 65.2469 35.1476 64.0583C37.3431 62.6649 40.2438 63.4995 41.5721 65.9267C42.9432 68.3717 42.19 71.484 39.9375 72.8151L39.9393 72.8133ZM25.986 80.659C24.6238 81.5487 23.2866 82.3424 22.0099 83.1254C20.6512 84.0151 18.7334 83.0916 17.7185 81.1234C16.748 79.166 16.9813 76.8046 18.2936 75.8793C19.5068 75.0145 20.7741 74.1248 22.0953 73.2101C23.6605 72.1424 25.8525 72.9503 26.9405 75.0287C28.057 77.1267 27.6154 79.6785 25.9843 80.6608L25.986 80.659ZM16.5486 86.1291C15.733 86.6897 14.946 87.179 14.2498 87.6968C13.4876 88.1862 12.2821 87.3285 11.5004 85.7394C10.7454 84.1379 10.6599 82.3584 11.3491 81.7587C12.0043 81.1786 12.7362 80.6394 13.4858 79.9899C14.4296 79.2941 15.9058 80.0486 16.7729 81.8032C17.6597 83.54 17.5386 85.4938 16.5433 86.1309L16.5486 86.1291ZM11.3633 89.3322C10.8469 89.7148 10.8469 89.7148 10.432 90.0529C10.1988 90.302 9.54171 89.4478 8.95943 88.2093C8.40031 86.9637 8.06908 85.6931 8.27208 85.4155C8.50802 85.0804 8.76875 84.7634 9.05203 84.4671C9.45268 84.0614 10.3234 84.823 10.9609 86.1683C11.6358 87.5527 11.8031 88.9816 11.3615 89.3268L11.3633 89.3322ZM123.666 45.2545C122.857 46.1336 121.874 47.1568 120.697 48.2672C119.134 49.6053 116.483 48.164 114.907 44.9235C113.244 41.7205 113.431 38.1491 115.201 37.0849C116.557 36.2343 117.729 35.4834 118.73 34.8695C120.754 33.4406 125.268 43.0497 123.66 45.2492L123.666 45.2545ZM112.939 53.8743C110.959 55.2979 108.853 56.7808 106.621 58.323C103.95 60.1114 100.286 58.9245 98.5318 55.6075C96.7173 52.2799 97.572 48.1337 100.378 46.4948C102.718 45.0712 104.969 43.7704 107.084 42.507C109.324 41.1582 112.364 42.5764 113.947 45.6211C115.43 48.6337 115.017 52.3208 112.934 53.869L112.939 53.8743ZM94.8992 65.3697C92.3351 66.9784 89.7134 68.6018 87.0341 70.2402C86.2977 70.6821 85.4799 70.9716 84.6294 71.0915C83.7788 71.2114 82.9128 71.1593 82.0828 70.9382C81.2528 70.7171 80.4757 70.3315 79.7978 69.8045C79.1198 69.2774 78.5547 68.6195 78.1361 67.8699C76.3127 64.6668 77.4239 60.5189 80.5667 58.6824C83.3054 57.0845 85.9954 55.509 88.6367 53.9562C91.5623 52.239 95.3141 53.4223 97.0058 56.5417C98.66 59.6185 97.7234 63.5885 94.8939 65.3644L94.8992 65.3697ZM74.0406 77.3296C71.4361 78.8208 68.831 80.299 66.2253 81.7641C64.7972 82.546 63.1224 82.7478 61.5491 82.3276C59.9759 81.9074 58.6252 80.8974 57.7779 79.5077C57.3693 78.8153 57.1023 78.0488 56.9923 77.2526C56.8823 76.4564 56.9315 75.6463 57.137 74.8692C57.3425 74.0921 57.7004 73.3635 58.1897 72.7256C58.679 72.0877 59.2902 71.5532 59.9877 71.153C62.5993 69.6523 65.2258 68.1451 67.8671 66.6314C69.2956 65.8075 70.9927 65.5832 72.5864 66.0075C74.1802 66.4317 75.5406 67.47 76.3697 68.8949C77.1668 70.325 77.3693 72.0109 76.9336 73.5889C76.4978 75.1668 75.4588 76.5104 74.0406 77.3296ZM54.1899 87.7805C51.9356 88.9727 49.708 90.124 47.5427 91.254C45.1459 92.4996 41.9372 91.4604 40.3844 88.9923C38.8282 86.469 39.4763 83.3425 41.8499 81.9972C44.0188 80.8109 46.2185 79.5747 48.449 78.2887C51.0417 76.8278 54.489 77.8065 56.0613 80.4633C57.6479 83.088 56.7896 86.3836 54.1988 87.7805H54.1899ZM37.8078 95.5853C36.1091 96.386 34.4869 97.153 32.9093 97.8737C31.2123 98.6495 28.7692 97.6032 27.423 95.5604C26.0929 93.4837 26.3173 91.0707 27.9572 90.149C29.4975 89.3322 31.1108 88.4923 32.7437 87.5598C34.7024 86.5117 37.4749 87.4673 38.8798 89.7415C40.3257 92.005 39.8004 94.6172 37.8257 95.5853H37.8078ZM26.141 100.349C25.0951 100.794 24.0938 101.179 23.137 101.504C22.1434 101.845 20.4393 100.756 19.3318 99.1585C18.2224 97.4946 18.0426 95.7774 18.9899 95.3379C19.8802 94.8735 20.8453 94.4055 21.8728 93.8894C23.1192 93.2755 25.1385 94.2346 26.3369 96.0942C27.5495 97.9057 27.4533 99.8471 26.141 100.349ZM19.289 102.255C18.8444 102.347 18.3929 102.401 17.9393 102.418C17.56 102.406 16.5557 101.374 15.6387 100.118C14.7483 98.8364 14.2604 97.7438 14.5952 97.669C14.9513 97.5729 15.3395 97.3897 15.806 97.2224C16.3901 96.9697 17.7024 97.9431 18.6551 99.3738C19.654 100.783 19.9318 102.107 19.2944 102.248L19.289 102.255ZM113.413 73.3276C111.454 74.9291 109.396 76.5164 107.255 78.1108C104.709 79.9792 101.509 79.1998 100.133 76.3455C98.6903 73.4094 99.7337 69.4928 102.435 67.6706C104.727 66.1023 106.929 64.5743 109.041 63.0867C111.313 61.3944 114.082 62.4354 115.24 65.222C116.312 67.9998 115.5 71.6104 113.413 73.3276ZM96.2062 85.2501C93.8641 86.7519 91.4774 88.2532 89.0462 89.7539C86.2666 91.4195 82.7943 90.6899 81.295 88.0919C79.7743 85.3978 80.8588 81.7712 83.7434 80.0575C86.2559 78.5503 88.7293 77.0484 91.1937 75.5163C93.9163 73.8116 97.2479 74.6693 98.6101 77.3563C99.894 80.0131 98.8202 83.5257 96.2062 85.2536V85.2501ZM77.3776 95.9928C75.0627 97.2384 72.7479 98.4645 70.4847 99.646C67.9134 100.95 64.6227 100.196 63.0985 97.9395C61.5849 95.6102 62.4379 92.5477 65.0697 91.1579C67.4255 89.8998 69.7635 88.6239 72.1193 87.3196C74.7903 85.8142 78.1735 86.6078 79.5981 89.067C80.9852 91.4515 79.9577 94.5621 77.3776 95.9963V95.9928ZM45.3881 109.762C43.9208 110.262 42.539 110.736 41.1305 111.147C39.6134 111.563 37.3769 110.698 36.0966 109.216C34.8252 107.691 34.9303 105.976 36.4527 105.458C37.8452 104.956 39.2739 104.409 40.7388 103.815C42.4393 103.088 44.9696 103.927 46.241 105.636C47.5195 107.301 47.1189 109.159 45.3881 109.766V109.762ZM34.9338 112.286C34.017 112.452 33.0922 112.571 32.1632 112.642C31.2426 112.702 29.6293 111.835 28.5164 110.702C27.391 109.506 27.2058 108.431 28.114 108.275C28.9527 108.086 29.8643 107.885 30.8437 107.663C31.953 107.332 33.8708 108.186 34.9766 109.506C36.1269 110.821 36.0841 112.07 34.9338 112.289V112.286ZM28.3454 112.323C27.8588 112.24 27.3817 112.109 26.9209 111.932C26.5131 111.754 25.3824 110.864 24.4547 110.019C23.5484 109.163 23.0925 108.551 23.543 108.711C23.9866 108.813 24.4395 108.869 24.8945 108.878C25.5267 108.903 26.8319 109.716 27.8059 110.732C28.7497 111.697 28.974 112.412 28.3437 112.327L28.3454 112.323ZM108.286 94.5816C106.142 96.2306 103.959 97.8322 101.735 99.3862C99.1034 101.166 96.0371 100.892 94.9509 98.6513C93.7044 96.3237 95.0257 92.8111 97.8195 90.9996C100.265 89.3529 102.632 87.7188 104.921 86.0971C107.442 84.2322 110.199 84.7927 111.066 87.2039C111.837 89.4745 110.58 92.7559 108.284 94.5852L108.286 94.5816ZM90.5936 106.041C88.3161 107.332 86.0067 108.591 83.7114 109.8C81.0529 111.14 77.8495 110.75 76.5567 108.878C75.1322 106.897 76.2451 104.038 78.998 102.6C81.4588 101.281 83.8645 99.9468 86.3129 98.557C89.0266 96.9661 92.2461 97.4644 93.391 99.6247C94.4559 101.664 93.1898 104.518 90.5918 106.043L90.5936 106.041ZM72.787 114.567C70.7357 115.421 68.6808 116.225 66.6224 116.978C64.345 117.759 61.4354 117.227 60.0215 115.752C58.597 114.168 59.2897 112.092 61.6455 111.17C63.7555 110.302 65.8728 109.39 68.0416 108.421C70.5096 107.273 73.6631 107.844 74.9363 109.647C76.1774 111.348 75.1803 113.542 72.7942 114.571L72.787 114.567ZM57.4271 119.532C55.7408 119.911 54.1436 120.243 52.6461 120.532C50.9402 120.784 48.4775 120.101 47.1492 119.016C45.7691 117.829 46.0078 116.524 47.7083 116.131C49.2984 115.734 50.9134 115.284 52.6104 114.786C54.5495 114.154 57.2918 114.82 58.6255 116.238C59.8773 117.555 59.3199 119.033 57.4271 119.532ZM45.7923 120.955C44.6367 120.911 43.6057 120.845 42.5871 120.722C41.5187 120.532 39.6277 119.738 38.4008 118.987C37.1544 118.154 36.9887 117.542 38.0589 117.612C39.0739 117.624 40.1565 117.612 41.2534 117.516C42.6067 117.384 44.7809 118.129 45.9757 119.151C47.2204 120.119 47.0869 120.914 45.7923 120.95V120.955ZM105.736 107.543C103.913 108.889 102.015 110.213 100.092 111.501C97.8943 112.891 95.5652 113.133 94.9135 111.924C94.1211 110.6 95.4477 108.2 97.8711 106.693C100.008 105.303 102.043 103.931 104.066 102.504C106.267 100.89 108.452 100.831 108.844 102.337C109.12 103.712 107.716 106.001 105.736 107.543ZM90.7129 116.72C88.8094 117.669 86.8845 118.578 84.9863 119.428C82.8495 120.329 80.3424 120.404 79.404 119.519C78.4567 118.492 79.4805 116.772 81.8185 115.733C83.8627 114.773 85.8767 113.775 87.9084 112.739C90.2482 111.494 92.7482 111.537 93.4836 112.739C94.0997 113.85 92.8515 115.599 90.7129 116.72ZM75.9994 122.626C74.3059 123.133 72.5947 123.592 70.9815 123.995C69.1118 124.393 66.7845 124.263 65.7481 123.676C64.6797 122.977 65.3403 121.954 67.267 121.434C68.9871 120.925 70.7357 120.366 72.568 119.758C74.5802 119.016 77.0873 119.176 77.9794 120.078C78.8751 120.865 77.9029 122.002 75.9994 122.626ZM63.3318 125.117C62.023 125.21 60.7107 125.258 59.4606 125.258C58.0842 125.203 56.1112 124.902 55.0909 124.578C53.9691 124.155 54.2326 123.758 55.6785 123.708C56.9944 123.616 58.305 123.47 59.6654 123.281C61.3196 123.018 63.4671 123.315 64.4732 123.916C65.4454 124.436 64.8863 124.961 63.3353 125.121L63.3318 125.117ZM13.8936 98C14.7626 99.305 15.6743 100.568 16.6287 101.79C16.5717 101.676 16.1194 100.998 15.457 100.093C14.7234 99.0481 14.0183 98.1299 13.8936 98Z" fill="white"/>
        </mask>
        <g mask="url(#mask1_1623_50)">
            <path d="M3.45804 125.262H123.587V3.77597H3.45804V125.262Z" fill="#FC6238"/>
        </g>
    </g>
</svg>
