<svg viewBox="0 0 221 228" fill="none" xmlns="http://www.w3.org/2000/svg">
    <path d="M23.663 100.029C23.663 100.029 62.4339 98.4767 70.8124 34.7456C78.2527 -21.8537 143.631 3.90825 162.529 26.4701C187.01 55.6971 173.96 105.974 205.629 112.325C237.298 118.676 216.618 189.292 168.546 182.533C108.746 174.125 123.214 209.069 105.262 223.859C92.3785 234.475 39.5513 224.256 37.7907 185.723C36.3091 153.297 22.6314 153.4 12.9365 149.723C-1.04572 144.421 -9.85605 106.017 23.663 100.029Z" fill="#FDA188" fill-opacity="0.15"/>
    <path d="M155.462 170.807L117.371 133.168L109.828 140.801L147.92 178.44L155.462 170.807Z" fill="#FD9174"/>
    <path d="M170.013 180.92L140.378 151.637C140.213 151.474 139.947 151.476 139.784 151.641L128.567 162.992C128.404 163.157 128.406 163.423 128.571 163.586L158.206 192.869C158.371 193.032 158.637 193.031 158.8 192.866L170.017 181.514C170.18 181.349 170.178 181.083 170.013 180.92Z" fill="#EAECF1"/>
    <path d="M83.6106 152.097C109.816 152.097 131.06 130.853 131.06 104.648C131.06 78.4421 109.816 57.1982 83.6106 57.1982C57.405 57.1982 36.1611 78.4421 36.1611 104.648C36.1611 130.853 57.405 152.097 83.6106 152.097Z" fill="#EAECF1"/>
    <path d="M83.6105 144.355C105.54 144.355 123.318 126.578 123.318 104.648C123.318 82.7183 105.54 64.9407 83.6105 64.9407C61.6808 64.9407 43.9033 82.7183 43.9033 104.648C43.9033 126.578 61.6808 144.355 83.6105 144.355Z" fill="#FDB09B"/>
</svg>
