<svg viewBox="0 0 214 229" fill="none" xmlns="http://www.w3.org/2000/svg">
    <path d="M201.507 91.7517C201.507 91.7517 167.02 111.466 189.498 173.314C209.46 228.241 137.909 235.704 110.09 224.132C74.0536 209.14 62.1721 157.308 30.4061 166.49C-1.35995 175.672 -15.9128 101.761 30.9465 85.2058C89.2377 64.6118 59.5983 39.6991 68.9222 17.789C75.6142 2.0639 128.426 -13.5938 148.217 20.5785C164.871 49.3345 177.247 42.7825 187.79 41.546C202.994 39.762 229.128 70.4879 201.507 91.7517Z" fill="#FDA188" fill-opacity="0.15"/>
    <path d="M112.637 87.5233C112.637 87.5233 58.1897 148.681 57.5605 155.463C57.5605 155.463 60.0199 156.553 62.7629 159.732C65.9381 163.413 69.7433 164.817 71.6487 163.781C74.394 162.289 74.1582 160.233 74.1582 160.233L116.179 175.455C116.179 175.455 131.019 170.802 161.114 139.431L169.119 127.993L112.637 87.5233Z" fill="#FC6238"/>
    <path d="M50.2433 96.3577C50.2433 96.3577 56.9445 101.165 64.9532 96.6333L90.1416 82.1759C90.1416 82.1759 98.7177 75.8465 107.537 81.9349C107.537 81.9349 99.5243 101.399 116.033 104.73C116.033 104.73 132.144 112.114 140.669 119.694C144.956 123.507 154.123 129.975 158.482 133.628C159.652 134.607 162.045 136.07 163.259 137.537C164.946 139.574 168.168 144.017 162.998 148.327C162.998 148.327 159.552 152.375 152.648 148.114C146.231 144.155 135.045 134.971 128.265 130.698C127.897 130.467 126.217 130.124 128.561 132.411C131.452 135.229 144.955 145.21 144.955 145.21C144.955 145.21 150.005 148.717 151.205 150.498C152.259 152.059 153.882 155.488 150.861 159.211C150.861 159.211 146.571 164.865 139.218 160.372L122.334 148.586C122.334 148.586 118.743 146.268 121.63 149.651C121.63 149.651 138.765 161.69 139.439 163.522C141.36 168.744 137.643 175.461 129.293 172.219L109.948 161.642C109.948 161.642 108.18 161.383 109.627 162.793C109.627 162.793 127.576 172.056 128.819 173.074C130.446 174.405 126.497 180.678 118.315 178.165C106.644 174.583 83.055 168.133 71.6483 163.78C67.6351 162.249 59.3911 158.159 56.2136 156.236C56.2136 156.236 43.468 148.215 26.0146 147.882L38.589 94.2849L50.2433 96.3577Z" fill="#FF9679"/>
    <path d="M69.739 167.393C69.739 167.393 73.4246 162.525 75.7029 160.763C80.325 157.192 88.6647 160.653 89.0699 165.03C89.0699 165.03 90.8677 169.331 83.412 175.674C82.0336 176.845 77.6537 179.63 71.2494 174.368C71.2493 174.368 67.4284 170.854 69.739 167.393Z" fill="#FD8160"/>
    <path d="M77.1255 124.116C77.1255 124.116 87.8048 132.574 98.86 107.413C98.86 107.413 104.742 109.462 113.881 104.163L115.785 101.202C115.785 101.202 97.2245 103.177 97.3064 103.542C97.3883 103.907 77.1255 124.116 77.1255 124.116Z" fill="#FC6238"/>
    <path d="M85.62 176.915C85.4887 173.686 90.0151 167.762 91.9963 165.671C94.3307 163.207 103.523 160.852 104.591 170.638C104.591 170.638 104.021 177.496 98.9148 181.405C96.4874 183.265 85.8979 183.761 85.62 176.915Z" fill="#FD8160"/>
    <path d="M106.224 172.031C107.789 169.543 115.543 168.356 115.716 175.501C115.782 178.207 114.372 182.667 110.354 184.435C107.433 185.72 99.7236 183.628 101.189 180.495C102.196 178.341 102.688 177.653 106.224 172.031Z" fill="#FD8160"/>
    <path d="M56.0372 161.013C56.711 159.532 57.8244 158.112 60.0477 156.321C61.393 155.238 65.173 154.817 67.4462 156.237C69.0777 157.256 72.2941 159.645 71.5732 161.771C70.2019 165.809 67.8772 171.28 62.8441 169.699C62.8438 169.698 53.033 167.616 56.0372 161.013Z" fill="#FD8160"/>
    <path d="M48.2333 91.0837L37.9608 157.863L4.97559 151.515L19.5942 83.4868L48.2333 91.0837Z" fill="#FD8160"/>
    <path d="M59.6698 158.763C59.6698 158.763 58.0571 163.339 60.9206 165.261C60.9206 165.261 64.6054 169.683 69.1666 162.379C69.9266 161.162 68.2272 159.013 65.2167 158.21C65.2169 158.21 62.3648 157.111 59.6698 158.763Z" fill="#FDA188"/>
    <path d="M74.2668 166.991C74.2668 166.991 76.1442 162.789 77.7388 162.143C79.381 161.478 84.3146 161.371 86.3876 166.217C86.7442 167.051 85.4565 168.791 84.8769 169.714C83.8085 171.417 81.0501 173.966 77.8433 172.215C77.843 172.215 73.7406 170.734 74.2668 166.991Z" fill="#FDA188"/>
    <path d="M91.0538 170.588C91.4993 169.367 93.2281 167.142 94.8017 166.985C97.39 166.727 103.367 168.647 101.788 172.474C101.788 172.474 100.432 175.719 97.5215 176.476C97.5215 176.476 92.4747 178.285 90.6078 173.589C90.3269 172.884 90.7955 171.3 91.0538 170.588Z" fill="#FDA188"/>
    <path d="M104.759 177.927C105.504 179.786 108.7 181.707 110.651 179.935C111.442 179.218 113.071 176.819 113.16 175.756C113.309 173.957 109.77 170.16 106.67 173.696C105.939 174.531 104.346 176.896 104.759 177.927Z" fill="#FDA188"/>
    <path d="M119.933 80.2017C119.933 80.2017 109.139 76.7978 100.884 85.0868L87.0454 93.5597C87.0454 93.5597 81.1433 95.5166 79.3174 103.413L73.0314 116.483C73.0314 116.483 67.9529 125.452 82.7632 124.223C82.7632 124.223 91.2398 120.641 97.9699 107.029L97.9225 105.292C97.9225 105.292 98.8817 107.435 103.773 106.575C103.773 106.575 108.825 104.826 115.812 102.512C115.812 102.512 116.946 103.892 123.658 107.578C123.658 107.578 140.068 116.165 143.884 120.742L163.543 135.705C163.543 135.705 166.595 134.486 174.189 122.677L191.133 116.654L173.357 68.1557C173.357 68.1557 146.293 78.755 138.345 79.5474L119.933 80.2017Z" fill="#FD8160"/>
    <path d="M161.529 69.3352L184.944 124.457L209.862 114.786L185.384 58.993L161.529 69.3352Z" fill="#FDA188"/>
    <path d="M76.1538 109.991C76.1538 109.991 82.1021 107.74 83.856 111.857C83.856 111.857 82.0489 119.199 80.0157 120.826C78.4439 122.087 73.2257 122.602 72.1995 119.916C72.1995 119.916 71.5539 117.148 76.1538 109.991Z" fill="#FDA188"/>
    <path d="M129.787 110.955C129.787 110.955 140.852 115.501 152.029 106.547C152.029 106.547 144.351 116.894 134.016 113.454L129.787 110.955Z" fill="#FC6238"/>
    <path d="M26.7897 145C26.862 145.724 26.7181 146.452 26.3763 147.094C26.0344 147.736 25.51 148.262 24.8692 148.605C24.2285 148.949 23.5003 149.094 22.7766 149.024C22.053 148.954 21.3665 148.67 20.8039 148.21C20.2414 147.749 19.828 147.132 19.6161 146.437C19.4042 145.741 19.4033 144.999 19.6136 144.303C19.8238 143.607 20.2357 142.989 20.7972 142.527C21.3587 142.065 22.0445 141.78 22.768 141.708C23.7378 141.612 24.7063 141.904 25.4605 142.522C26.2147 143.139 26.6928 144.031 26.7897 145Z" fill="white"/>
    <path d="M197.799 109.419C197.871 110.142 197.727 110.871 197.385 111.512C197.043 112.153 196.519 112.679 195.878 113.022C195.238 113.366 194.509 113.512 193.786 113.441C193.063 113.371 192.376 113.087 191.814 112.627C191.251 112.167 190.838 111.55 190.626 110.854C190.415 110.159 190.414 109.417 190.624 108.721C190.834 108.025 191.246 107.407 191.807 106.945C192.368 106.483 193.054 106.198 193.777 106.126C194.257 106.078 194.742 106.126 195.204 106.265C195.667 106.405 196.097 106.634 196.47 106.94C196.844 107.245 197.153 107.622 197.381 108.047C197.609 108.473 197.751 108.939 197.799 109.419Z" fill="white"/>
</svg>
