<svg viewBox="0 0 277 329" fill="none" xmlns="http://www.w3.org/2000/svg">
    <path d="M232.505 132.345C230.879 134.003 229.481 135.869 228.347 137.894C227.191 139.81 225.998 141.672 224.733 143.515C222.148 147.311 219.636 151.161 216.87 154.848L215.117 157.252L214.105 158.607L213.49 159.403C212.984 160.071 213.834 158.969 213.273 159.692C211.9 161.499 210.49 163.198 209.062 164.915C206.261 168.313 203.224 171.513 200.405 174.91C198.904 176.718 197.458 178.525 195.85 180.333C195.108 181.15 194.323 181.929 193.5 182.664C193.322 182.831 193.135 182.988 192.94 183.134C192.108 183.839 193.482 182.773 192.795 183.261L192.343 183.586C191.982 183.839 190.211 185.159 191.44 184.237C190.523 184.825 189.84 185.713 189.506 186.749C189.284 187.556 189.308 188.41 189.574 189.203C189.84 189.997 190.336 190.693 191 191.202C191.663 191.712 192.463 192.013 193.298 192.067C194.132 192.12 194.964 191.924 195.687 191.503C197.735 190.424 199.572 188.985 201.109 187.255C202.61 185.701 203.983 184.038 205.339 182.357C208.14 178.905 211.014 175.489 213.761 171.982C216.744 168.187 219.636 164.319 222.347 160.343C223.666 158.391 224.895 156.384 226.106 154.36C227.317 152.336 228.546 150.329 229.54 148.215C230.679 145.775 231.745 143.299 232.74 140.804C233.852 138.404 234.467 135.803 234.547 133.159C234.543 132.936 234.474 132.72 234.349 132.536C234.224 132.353 234.047 132.21 233.841 132.125C233.636 132.041 233.41 132.018 233.192 132.061C232.973 132.103 232.772 132.208 232.613 132.364L232.505 132.345Z" fill="#8C6239"/>
    <path d="M35.7713 140.117C34.5242 141.925 35.0483 144.401 35.5905 146.407C36.1841 148.613 36.8961 150.785 37.7233 152.914C39.3861 157.342 41.6093 161.572 43.5975 165.837C45.5856 170.103 47.7726 174.874 50.05 179.158C52.1301 183.555 54.5472 187.785 57.2797 191.81C58.8341 193.961 60.5873 195.949 62.2502 198.028L62.8466 198.769C62.4309 198.244 62.8466 198.769 62.9912 198.967C63.1358 199.166 63.7142 199.98 64.0395 200.486C64.3648 200.992 64.636 201.552 64.9613 202.058C65.6328 203.117 66.6674 203.895 67.8713 204.245C68.7503 204.469 69.682 204.344 70.4706 203.896C71.2593 203.448 71.8436 202.711 72.1007 201.841C73.167 198.895 70.474 195.985 68.775 193.816C67.4013 192.009 65.9192 190.418 64.5094 188.701L63.5334 187.49C63.5334 187.599 63.9672 188.087 63.5334 187.49L62.9912 186.731C62.3044 185.737 61.6718 184.707 61.0392 183.677C59.7559 181.616 58.5268 179.519 57.3159 177.405C54.8578 173.067 52.5623 168.639 50.0861 164.283C47.9353 160.379 45.676 156.547 43.5975 152.607C42.4046 150.366 41.1755 148.179 40.1272 145.865C39.0789 143.552 38.4824 141.256 36.5123 139.955C36.3822 139.881 36.2286 139.86 36.0837 139.898C35.9387 139.935 35.8138 140.026 35.7351 140.154L35.7713 140.117Z" fill="#8C6239"/>
    <path d="M179.138 83.6352C179.336 84.6417 179.911 85.5342 180.747 86.1294C181.813 87.0151 182.843 87.9369 183.856 88.8948C185.804 91.1321 188.084 93.0582 190.615 94.6063C190.64 94.6183 190.668 94.6219 190.695 94.6167C190.722 94.6114 190.746 94.5976 190.765 94.5771C190.783 94.5567 190.794 94.5309 190.797 94.5036C190.799 94.4762 190.793 94.4488 190.778 94.4256C189.544 91.7755 187.835 89.3741 185.735 87.3404C184.782 86.3955 183.727 85.559 182.59 84.8462C181.578 84.2136 180.367 84.087 179.355 83.4906C179.332 83.4767 179.305 83.4697 179.277 83.4704C179.25 83.4712 179.224 83.4796 179.201 83.4947C179.178 83.5098 179.161 83.531 179.149 83.5559C179.138 83.5807 179.134 83.6082 179.138 83.6352Z" fill="#4D4D4D"/>
    <path d="M134.83 328.994C183.982 328.994 223.828 289.148 223.828 239.996C223.828 190.844 183.982 150.998 134.83 150.998C85.6778 150.998 45.832 190.844 45.832 239.996C45.832 289.148 85.6778 328.994 134.83 328.994Z" fill="#DBF0FF"/>
    <path d="M164.061 155.914C181.996 167.989 194.924 186.177 200.433 207.084C205.942 227.991 203.655 250.188 193.999 269.532C184.343 288.877 167.979 304.047 147.959 312.211C127.94 320.376 105.633 320.977 85.2031 313.902C95.7071 320.95 107.593 325.679 120.068 327.772C132.543 329.866 145.32 329.277 157.55 326.044C169.779 322.812 181.179 317.01 190.99 309.025C200.801 301.04 208.798 291.056 214.447 279.739C220.096 268.421 223.268 256.029 223.752 243.389C224.236 230.748 222.02 218.15 217.253 206.434C212.485 194.717 205.275 184.151 196.103 175.44C186.931 166.729 176.008 160.072 164.061 155.914Z" fill="#C3E5FF"/>
    <path d="M144.228 200.233C143.229 199.417 142.081 198.804 140.848 198.425C139.272 197.882 137.66 197.453 136.022 197.142C132.658 196.474 129.252 196.039 125.828 195.841C124.726 195.841 123.623 195.714 122.521 195.714C122.45 195.693 122.375 195.693 122.304 195.714C118.374 195.703 114.452 196.066 110.592 196.799C107.374 197.341 104.175 198.046 100.994 198.769C97.8131 199.492 95.12 200.106 92.2281 200.956C86.6351 202.486 81.2952 204.824 76.377 207.896C71.4046 211.106 67.2564 215.44 64.2672 220.548C61.0712 226.095 59.0818 232.254 58.4292 238.622C57.8275 244.935 58.1809 251.303 59.4775 257.51C60.7578 263.875 62.5716 270.121 64.8998 276.181C66.9532 281.869 69.6071 287.322 72.8163 292.448C75.9337 297.626 80.0724 302.115 84.9803 305.642C88.4615 307.893 92.3897 309.36 96.4937 309.944C100.199 310.522 104.699 310.576 107.844 308.136C112.11 304.865 110.935 298.539 109.941 294.002C109.598 292.412 109.218 290.821 108.911 289.212C108.603 287.604 108.423 285.833 108.242 284.152C107.862 280.284 107.573 276.434 107.519 272.548C107.344 265.358 107.803 258.167 108.893 251.058C109.953 244.03 112.042 237.197 115.092 230.778C116.642 227.67 118.456 224.701 120.514 221.904C122.491 219.079 124.756 216.468 127.274 214.114C131.793 210.065 138.119 209.252 142.909 205.601C144.008 204.915 144.833 203.867 145.24 202.637C145.3 202.182 145.237 201.72 145.059 201.298C144.882 200.875 144.595 200.508 144.228 200.233Z" fill="#F0F8FF"/>
    <path d="M187.403 109.42C189.816 80.3823 168.232 54.8865 139.194 52.4736C110.156 50.0608 84.6606 71.6446 82.2478 100.682C79.8349 129.72 101.419 155.216 130.457 157.629C159.494 160.042 184.99 138.458 187.403 109.42Z" fill="#DBF0FF"/>
    <path d="M143.312 52.9813C153.472 58.6974 161.453 67.6177 166.007 78.3487C170.562 89.0797 171.435 101.017 168.488 112.296C165.542 123.575 158.943 133.561 149.722 140.694C140.501 147.826 129.177 151.704 117.52 151.721C114.681 151.719 111.847 151.496 109.043 151.052C115.762 154.825 123.225 157.08 130.908 157.659C138.592 158.238 146.309 157.127 153.517 154.404C160.725 151.681 167.249 147.413 172.631 141.898C178.013 136.384 182.121 129.758 184.668 122.485C187.214 115.213 188.137 107.471 187.371 99.8043C186.605 92.1373 184.169 84.7311 180.234 78.1063C176.299 71.4816 170.961 65.7992 164.594 61.4585C158.228 57.1178 150.988 54.2243 143.384 52.9813H143.312Z" fill="#C3E5FF"/>
    <path d="M89.4249 115.048C90.377 118.367 91.7242 121.558 93.4374 124.555C95.0531 127.424 97.1153 130.017 99.5465 132.237C100.657 133.239 101.869 134.123 103.161 134.876C103.27 134.876 103.451 134.876 103.559 134.876C103.667 134.876 103.722 134.876 103.758 134.749C104.487 135.011 105.236 135.211 105.999 135.346C108.276 135.725 111.186 135.527 112.632 133.448C113.37 132.182 113.668 130.708 113.482 129.255C113.311 127.379 112.947 125.526 112.397 123.724C111.853 121.858 111.442 119.955 111.168 118.031C110.983 116.212 111.13 114.375 111.602 112.608C112.42 109.376 113.911 106.352 115.976 103.734C118.05 101.111 120.368 98.6898 122.899 96.5042C125.411 94.2629 128.032 92.1121 130.472 89.7805C132.993 87.5851 135.12 84.975 136.762 82.0628C137.314 81.0688 137.656 79.9714 137.765 78.8393C137.873 77.7072 137.747 76.5648 137.394 75.4837C136.517 73.5283 134.982 71.9422 133.056 71.0013C130.799 69.8045 128.354 69.0037 125.827 68.6336C123.115 68.1883 120.358 68.085 117.621 68.3263C114.455 68.6228 111.363 69.454 108.475 70.7844C105.193 72.3281 102.193 74.4114 99.6007 76.9478C96.9691 79.5103 94.7117 82.4309 92.8951 85.6234C91.0446 88.8106 89.634 92.2336 88.7019 95.7993C87.9139 98.8665 87.591 102.035 87.744 105.198C87.9124 108.536 88.4766 111.843 89.4249 115.048Z" fill="#F0F8FF"/>
    <path d="M139.21 216.698C139.228 218.232 138.79 219.737 137.953 221.023C137.115 222.308 135.914 223.316 134.503 223.919C133.092 224.521 131.534 224.692 130.026 224.409C128.518 224.126 127.128 223.402 126.032 222.328C124.936 221.255 124.183 219.88 123.868 218.379C123.553 216.877 123.691 215.316 124.264 213.892C124.837 212.469 125.82 211.248 127.087 210.383C128.354 209.518 129.85 209.049 131.384 209.035C133.438 209.015 135.415 209.812 136.882 211.248C138.349 212.685 139.187 214.645 139.21 216.698Z" fill="#703801"/>
    <path d="M137.883 258.339C141.656 255.041 142.042 249.309 138.744 245.536C135.447 241.763 129.715 241.377 125.941 244.674C122.168 247.972 121.782 253.704 125.08 257.477C128.377 261.25 134.109 261.636 137.883 258.339Z" fill="#703801"/>
    <path d="M139.97 289.194C139.984 290.706 139.55 292.187 138.723 293.452C137.896 294.717 136.712 295.708 135.321 296.3C133.931 296.892 132.396 297.059 130.911 296.78C129.426 296.5 128.057 295.787 126.977 294.729C125.897 293.672 125.154 292.319 124.843 290.84C124.532 289.361 124.667 287.823 125.229 286.42C125.792 285.017 126.758 283.813 128.004 282.959C129.251 282.105 130.723 281.639 132.234 281.621C133.241 281.607 134.24 281.792 135.174 282.165C136.108 282.539 136.96 283.094 137.679 283.797C138.398 284.501 138.971 285.341 139.364 286.267C139.757 287.193 139.963 288.188 139.97 289.194Z" fill="#703801"/>
    <path d="M132.555 209.107C133.865 210.069 134.839 211.419 135.338 212.966C135.838 214.512 135.837 216.177 135.337 217.723C134.837 219.27 133.863 220.62 132.552 221.581C131.241 222.542 129.661 223.066 128.036 223.079C127.669 223.106 127.301 223.106 126.934 223.079C128.284 224.087 129.93 224.62 131.615 224.597C133.589 224.603 135.492 223.855 136.932 222.504C138.373 221.153 139.242 219.303 139.362 217.332C139.482 215.361 138.844 213.418 137.579 211.903C136.313 210.387 134.516 209.413 132.555 209.179V209.107Z" fill="#4D2601"/>
    <path d="M133.438 242.563C135.065 243.639 136.3 245.212 136.959 247.048C137.618 248.884 137.665 250.883 137.093 252.748C136.522 254.613 135.363 256.243 133.788 257.394C132.214 258.546 130.31 259.157 128.36 259.137C127.809 259.14 127.259 259.098 126.715 259.01C127.832 259.737 129.097 260.207 130.418 260.388C131.739 260.568 133.083 260.454 134.355 260.054C135.626 259.653 136.793 258.977 137.773 258.072C138.752 257.168 139.519 256.058 140.019 254.822C140.518 253.586 140.739 252.255 140.663 250.924C140.588 249.593 140.219 248.295 139.584 247.123C138.948 245.952 138.061 244.935 136.986 244.147C135.911 243.358 134.675 242.817 133.366 242.563H133.438Z" fill="#4D2601"/>
    <path d="M133.299 281.73C134.579 282.685 135.528 284.017 136.012 285.539C136.497 287.06 136.492 288.696 136 290.215C135.507 291.734 134.552 293.061 133.266 294.01C131.981 294.958 130.431 295.48 128.834 295.502C128.473 295.53 128.111 295.53 127.75 295.502C128.688 296.199 129.772 296.671 130.921 296.883C132.07 297.096 133.252 297.042 134.376 296.726C135.501 296.41 136.538 295.841 137.408 295.062C138.279 294.283 138.959 293.315 139.397 292.232C139.835 291.149 140.019 289.98 139.935 288.815C139.851 287.65 139.501 286.52 138.912 285.511C138.323 284.502 137.511 283.642 136.538 282.996C135.565 282.35 134.457 281.935 133.299 281.784V281.73Z" fill="#4D2601"/>
    <path d="M130.449 211.475C129.184 210.499 127.449 211.945 126.672 212.939C125.894 213.933 124.864 216.174 126.039 217.475C127.214 218.777 127.611 216.499 127.846 215.795C128.038 214.943 128.471 214.165 129.093 213.553C129.636 213.029 130.395 212.686 130.666 211.963C130.681 211.869 130.669 211.773 130.63 211.687C130.592 211.6 130.529 211.526 130.449 211.475Z" fill="#844710"/>
    <path d="M132.519 243.774C130.295 243.069 127.096 244.985 125.921 246.846C125.262 247.772 124.885 248.87 124.837 250.005C124.789 251.141 125.072 252.266 125.65 253.245C125.674 253.279 125.708 253.305 125.748 253.318C125.787 253.332 125.83 253.333 125.87 253.321C125.91 253.309 125.945 253.285 125.971 253.251C125.996 253.218 126.011 253.178 126.012 253.136C126.091 252.205 126.36 251.3 126.801 250.477C127.243 249.653 127.847 248.928 128.578 248.346C129.862 247.135 131.832 246.539 132.898 245.165C132.996 245.06 133.066 244.93 133.1 244.79C133.135 244.65 133.133 244.503 133.095 244.364C133.057 244.225 132.984 244.097 132.883 243.994C132.782 243.891 132.657 243.815 132.519 243.774Z" fill="#844710"/>
    <path d="M127.666 256.408C127.506 256.054 127.279 255.735 126.998 255.468C126.758 255.144 126.449 254.879 126.094 254.691C126.032 254.662 125.964 254.646 125.895 254.645C125.826 254.644 125.758 254.658 125.695 254.685C125.632 254.713 125.575 254.753 125.529 254.804C125.482 254.854 125.447 254.914 125.425 254.98C125.377 255.223 125.379 255.474 125.432 255.717C125.485 255.959 125.587 256.188 125.732 256.39C125.881 256.594 126.044 256.787 126.22 256.968C126.445 257.155 126.712 257.286 126.998 257.348C127.54 257.492 127.901 256.859 127.666 256.408Z" fill="#844710"/>
    <path d="M133.383 283.646C132.751 281.838 129.552 283.103 128.558 283.862C127.716 284.429 127.082 285.254 126.75 286.212C126.604 286.594 126.552 287.005 126.599 287.411C126.646 287.817 126.791 288.206 127.021 288.544C127.071 288.571 127.127 288.585 127.184 288.585C127.241 288.585 127.297 288.571 127.347 288.544C127.905 288.225 128.396 287.802 128.793 287.297C129.293 286.69 129.857 286.139 130.473 285.652C130.961 285.345 133.781 284.567 133.383 283.646Z" fill="#844710"/>
    <path d="M127.926 292.086C127.637 291.454 127.691 290.731 127.347 290.116C127.296 290.055 127.233 290.006 127.161 289.973C127.089 289.939 127.011 289.922 126.932 289.922C126.852 289.922 126.774 289.939 126.702 289.973C126.63 290.006 126.567 290.055 126.516 290.116C125.721 290.803 125.956 292.032 126.299 292.881C126.642 293.731 127.438 294.689 128.396 294.327C128.469 294.304 128.533 294.259 128.578 294.197C128.624 294.135 128.648 294.061 128.649 293.984C128.721 293.243 128.197 292.646 127.926 292.086Z" fill="#844710"/>
    <path d="M137.295 214.529C137.285 214.515 137.271 214.502 137.256 214.494C137.24 214.485 137.222 214.481 137.204 214.481C137.186 214.481 137.169 214.485 137.153 214.494C137.137 214.502 137.124 214.515 137.114 214.529C137.165 215.292 137.116 216.057 136.969 216.807C136.813 217.462 136.602 218.103 136.337 218.723C136.027 219.388 135.612 219.998 135.108 220.53C134.764 220.892 134.511 221.09 134.457 221.597C134.461 221.649 134.48 221.699 134.512 221.741C134.545 221.783 134.588 221.814 134.638 221.831C135.975 222.247 137.277 220.024 137.674 218.976C137.955 218.255 138.067 217.479 138.001 216.709C137.935 215.938 137.694 215.192 137.295 214.529Z" fill="#703801"/>
    <path d="M138.886 248.889C139.147 249.871 139.208 250.895 139.065 251.901C138.922 252.907 138.578 253.874 138.054 254.745C137.035 256.063 135.885 257.275 134.62 258.36C134.582 258.396 134.557 258.443 134.547 258.495C134.538 258.546 134.544 258.599 134.566 258.647C134.588 258.694 134.624 258.734 134.669 258.76C134.714 258.787 134.767 258.798 134.819 258.793C135.786 258.617 136.69 258.19 137.442 257.556C138.193 256.922 138.765 256.102 139.102 255.179C139.502 254.172 139.69 253.093 139.652 252.011C139.615 250.928 139.354 249.865 138.886 248.889Z" fill="#703801"/>
    <path d="M182.082 79.424L174.599 9.42222L108.646 3.62036L90.6804 71.6521C90.4623 72.1255 90.3278 72.633 90.2828 73.1522C89.596 80.9965 109.622 89.148 135.035 91.3711C160.447 93.5943 181.576 89.0215 182.263 81.1772C182.31 80.5867 182.248 79.9926 182.082 79.424Z" fill="#999999"/>
    <path d="M182.073 79.4239L174.59 9.42206L163.438 8.44604L170.776 77.1284C170.949 77.7143 171.011 78.3274 170.957 78.9359C170.27 86.7801 149.123 91.3529 123.729 89.1298C120.259 88.8225 116.897 88.4068 113.68 87.9007C120.688 89.6484 127.827 90.8271 135.025 91.4252C140.986 91.9637 146.975 92.1146 152.955 91.8771C152.937 91.9968 152.937 92.1188 152.955 92.2385C152.687 94.3323 153.139 96.4551 154.238 98.2573C154.754 98.9878 155.493 99.5309 156.343 99.8048C157.194 100.079 158.111 100.068 158.956 99.7755C159.768 99.3139 160.439 98.6386 160.894 97.8229C161.35 97.0072 161.573 96.0823 161.54 95.1485C161.814 93.8344 161.688 92.4684 161.179 91.2264C173.56 89.7262 181.91 86.1294 182.344 81.2313C182.368 80.6171 182.276 80.0039 182.073 79.4239ZM155.233 91.8771L155.088 91.7144H155.287L155.233 91.8771Z" fill="#808080"/>
    <path d="M174.858 9.65706C174.551 13.037 159.477 14.4648 141.186 12.8924C122.894 11.3199 108.272 7.25318 108.652 3.85521C109.031 0.457236 123.943 -0.934486 142.252 0.656053C160.561 2.24659 175.147 6.29524 174.858 9.65706Z" fill="#B3B3B3"/>
    <path d="M176.048 58.5119C175.487 53.7222 174.927 48.8964 174.24 44.0525C173.879 41.3232 173.499 38.6302 173.011 35.8829C172.776 34.5092 172.451 29.34 170.914 28.6531C169.378 29.1773 170.499 34.9791 170.517 35.2141C170.643 37.6541 170.842 40.0942 171.077 42.5523C171.547 47.3601 172.035 52.1859 172.631 57.0117C172.794 58.3312 172.631 62.1991 174.439 62.6148C176.246 63.0305 176.156 59.4698 176.048 58.5119Z" fill="#999999"/>
    <path d="M177.169 73.8389C177.006 72.6641 176.862 71.4712 176.681 70.2241C176.649 69.1716 176.364 68.1424 175.849 67.2237C175.819 67.1891 175.781 67.1614 175.739 67.1424C175.697 67.1234 175.652 67.1136 175.605 67.1136C175.559 67.1136 175.514 67.1234 175.472 67.1424C175.429 67.1614 175.392 67.1891 175.361 67.2237C173.915 68.6697 174.313 71.5435 174.44 73.3871C174.44 74.5077 174.241 78.466 176.012 78.5744C177.783 78.6828 177.259 74.8511 177.169 73.8389Z" fill="#999999"/>
    <path d="M116.863 78.3756C114.857 77.2189 114.767 74.6162 114.785 72.5376C114.828 69.4383 115.033 66.3434 115.399 63.2655C116.122 56.325 117.406 49.3844 118.815 42.5523C120.334 35.1961 122.123 27.876 124.238 20.6643C124.798 18.7304 126.407 15.4951 123.659 14.5914C122.087 14.0672 120.388 13.8323 118.779 13.4527C117.171 13.0731 115.164 12.314 113.357 11.6453C113.029 11.5663 112.683 11.616 112.391 11.7841C112.098 11.9522 111.881 12.2259 111.785 12.549C111.622 13.037 111.441 13.525 111.297 14.0311C111.28 14.151 111.28 14.2726 111.297 14.3926C110.411 16.9591 109.742 19.598 109.073 22.2187C108.188 25.5806 107.266 28.9062 106.182 32.2319C104.157 38.811 102.404 45.4442 100.506 52.1136C99.5663 55.367 98.5903 58.6023 97.542 61.8196C96.6015 64.2573 95.9935 66.8107 95.7346 69.4108C95.4996 75.1042 100.47 78.7733 105.133 80.9422C107.673 82.0691 110.303 82.982 112.996 83.6714C115.633 84.588 118.369 85.1945 121.147 85.4788C123.659 85.4788 123.967 83.2918 122.485 81.6652C121.002 80.0385 118.689 79.4059 116.863 78.3756Z" fill="#B3B3B3"/>
    <path d="M128.216 19.616C127.321 22.0437 126.679 24.5573 126.3 27.1169C125.758 28.9243 125.27 30.7317 124.854 32.5392C123.715 37.3108 122.902 42.1547 122.016 46.9986C121.239 51.2822 120.625 55.6381 119.576 59.8675C118.853 62.8136 117.769 66.6273 119.395 69.4469C119.614 69.8082 119.964 70.0706 120.372 70.1785C120.78 70.2864 121.214 70.2315 121.582 70.0253C123.607 68.8866 123.896 65.7959 124.185 63.7354C124.601 60.6447 125.107 57.6986 125.613 54.5717C127.041 46.0045 128.469 37.4734 130.258 28.9785C130.909 25.8697 132.499 22.3633 131.126 19.2545C130.511 17.8628 128.65 18.4954 128.216 19.616Z" fill="#B3B3B3"/>
    <path d="M162.037 45.3357C161.874 38.7567 161.241 30.4064 161.097 29.0689C161.097 28.4001 160.952 27.7133 160.844 27.0265C160.591 25.5082 160.464 23.9719 160.211 22.4356C160.03 21.4053 159.38 17.3025 157.934 19.0195C156.488 20.7366 157.482 24.5503 157.644 26.3758C158.042 30.8221 158.349 35.4129 158.783 40.0038C159.018 42.3715 159.181 44.9381 159.542 47.3781C159.722 48.645 159.976 49.9002 160.301 51.1376C160.428 51.5895 160.699 53.4692 161.314 53.5776C161.928 53.6861 162.145 49.9447 162.037 45.3357Z" fill="#B3B3B3"/>
    <path d="M117.981 20.1402C117.672 19.7696 117.258 19.5008 116.794 19.3686C116.33 19.2365 115.837 19.2471 115.379 19.3991C114.005 19.8329 113.571 22.2549 113.282 23.3935C112.595 25.5805 111.963 27.7675 111.348 29.9545C110.083 34.4912 109.161 39.1001 107.986 43.6548C107.516 45.1698 107.154 46.7159 106.902 48.2819C106.721 49.9086 107.607 51.8967 109.613 51.4268C111.149 51.0653 111.836 49.3121 112.342 48.0108C115.198 40.9437 115.957 33.6598 117.765 26.3216C118.307 24.5142 119.319 21.8392 117.981 20.1402Z" fill="#E6E6E6"/>
    <path d="M106.237 56.1442H106.038C105.145 56.601 104.445 57.3646 104.068 58.295C103.433 59.5295 102.878 60.8033 102.405 62.1087C101.36 64.6621 100.814 67.3925 100.797 70.1518C100.803 70.4024 100.865 70.6485 100.979 70.8716C101.093 71.0948 101.256 71.2892 101.456 71.4404C101.656 71.5917 101.887 71.6957 102.133 71.7449C102.379 71.794 102.633 71.787 102.875 71.7243C105.478 71.0013 106.617 67.6937 107.286 65.3802C108.175 62.798 108.507 60.057 108.262 57.3371C108.147 56.9133 107.871 56.5511 107.492 56.3282C107.114 56.1053 106.664 56.0392 106.237 56.1442Z" fill="#E6E6E6"/>
    <path d="M168.216 6.6928C167.637 5.10226 165.125 4.65041 163.697 4.307C161.076 3.63825 158.419 3.13216 155.762 2.69838C149.23 1.59705 142.641 0.872878 136.025 0.529464C132.751 0.36994 129.469 0.472689 126.211 0.836727C128.958 1.07169 131.633 1.52355 134.417 1.81274C137.67 2.17423 140.905 2.57186 144.141 3.04179C150.087 3.87321 156.07 4.84922 161.908 6.16865C163.046 6.43976 164.149 6.78318 165.27 7.05429C166.102 7.32856 166.989 7.39678 167.854 7.25311C167.968 7.21332 168.066 7.13659 168.131 7.03509C168.197 6.93358 168.226 6.81312 168.216 6.6928Z" fill="#CCCCCC"/>
    <path d="M143.232 11.2837C141.208 9.78354 138.171 9.80162 135.767 9.47628C132.731 9.11479 129.713 8.51834 126.73 7.97611C124.037 7.4881 121.308 6.80128 118.687 6.16868C117.494 5.91564 116.301 5.62645 115.072 5.26496C113.843 4.90348 112.668 4.57814 111.602 4.12628C111.602 4.12628 111.421 4.12628 111.494 4.2528C112.278 5.10683 113.216 5.80579 114.259 6.31327C115.362 6.80128 116.518 7.19892 117.657 7.57848C120.386 8.48219 123.079 9.24131 125.935 9.91006C128.791 10.5788 131.827 11.121 134.791 11.5368C137.538 12.0983 140.353 12.2385 143.142 11.9525C143.485 11.8802 143.449 11.4464 143.232 11.2837Z" fill="#CCCCCC"/>
    <path d="M157.607 11.7537C155.726 11.3079 153.78 11.1977 151.86 11.4284C150.008 11.2648 148.144 11.3377 146.311 11.6453C146.202 11.6453 146.184 11.8622 146.311 11.8802C148.141 12.3139 149.993 12.6458 151.86 12.8743C153.802 13.1272 155.775 12.9858 157.662 12.4586C157.741 12.4352 157.81 12.3852 157.857 12.3171C157.904 12.2489 157.926 12.1667 157.919 12.0842C157.913 12.0018 157.879 11.9239 157.822 11.8638C157.765 11.8036 157.689 11.7648 157.607 11.7537Z" fill="#CCCCCC"/>
    <path d="M158.023 93.6484C157.819 93.5327 157.588 93.4719 157.354 93.4719C157.119 93.4719 156.889 93.5327 156.685 93.6484C156.501 93.6851 156.331 93.7722 156.194 93.8998C156.057 94.0275 155.958 94.1907 155.908 94.3713C155.83 94.7464 155.892 95.137 156.081 95.4698C156.271 95.8026 156.576 96.0547 156.938 96.1788C157.121 96.2423 157.314 96.2671 157.507 96.2516C157.7 96.2362 157.887 96.1808 158.057 96.089C158.227 95.9972 158.376 95.8709 158.494 95.7184C158.613 95.5658 158.699 95.3902 158.746 95.2028C158.791 94.9013 158.746 94.5933 158.618 94.3169C158.489 94.0405 158.282 93.808 158.023 93.6484Z" fill="#666666"/>
    <path d="M197.57 102.469C195.407 97.8559 192.253 93.7768 188.334 90.5215C187.376 89.6901 185.948 91.0999 186.924 91.9494C189.961 94.576 192.56 97.6692 194.624 101.113C195.722 102.763 196.347 104.682 196.431 106.662C196.467 107.532 196.245 108.393 195.796 109.138C195.346 109.884 194.687 110.481 193.901 110.855C191.921 111.249 189.869 111.042 188.009 110.259C185.98 109.619 184.003 108.821 182.099 107.873C178.231 106.065 174.435 103.933 170.639 101.89C166.32 99.4141 161.946 97.0463 157.734 94.4798C156.632 93.7929 155.62 95.5281 156.722 96.2872C161.006 98.908 165.38 101.384 169.79 103.77C174.2 106.156 178.556 108.596 183.111 110.602C185.201 111.568 187.388 112.307 189.636 112.807C191.576 113.416 193.675 113.268 195.51 112.391C198.944 110.259 198.98 105.758 197.57 102.469Z" fill="#4D4D4D"/>
    <path d="M51.312 112.554C51.3426 111.385 51.0457 110.231 50.4548 109.221C49.864 108.212 49.0027 107.388 47.9683 106.843C43.2509 104.186 39.2022 108.65 36.7441 112.771C34.697 108.342 32.0115 104.238 28.7733 100.589C26.6057 98.5026 23.9851 96.9457 21.1163 96.0396C18.2475 95.1335 15.2081 94.9027 12.2353 95.3654C5.92741 96.3775 1.69803 102.017 0.414749 108.017C-1.0312 114.687 1.84262 120.922 5.83704 126.092C8.3313 129.399 11.0244 132.598 13.6632 135.798C14.9284 137.37 16.3021 138.87 17.5492 140.461C18.0914 141.13 21.1641 144.781 21.5978 145.178C24.9054 147.727 28.6468 143.515 31.846 142.069C33.9787 141.111 36.1115 140.262 38.2624 139.34C39.7083 138.744 41.0819 138.057 42.5098 137.406C43.6124 136.882 48.4201 137.027 48.0225 135.852C47.3381 133.284 47.1601 130.607 47.4983 127.971C47.6932 124.939 48.3013 121.947 49.3058 119.079C50.304 117.019 50.9806 114.819 51.312 112.554Z" fill="#FF5020"/>
    <path d="M26.5833 100.39C29.8215 104.039 32.507 108.144 34.5541 112.572C35.5663 114.38 36.235 114.054 36.7411 112.771C34.7331 108.321 32.0439 104.211 28.7703 100.589C25.2734 97.2243 20.6441 95.29 15.793 95.1666C19.8585 95.6999 23.6431 97.532 26.5833 100.39Z" fill="#D34F2B" fill-opacity="0.64"/>
    <path d="M47.4955 127.953C47.6923 124.927 48.3003 121.941 49.3029 119.079C50.27 117.014 50.9161 114.814 51.2188 112.554C51.2515 111.385 50.9555 110.229 50.3644 109.22C49.7733 108.21 48.9109 107.387 47.8751 106.843C46.8313 106.203 45.6019 105.936 44.3867 106.084C44.8418 106.216 45.2789 106.404 45.6881 106.644C46.7259 107.192 47.5904 108.018 48.1843 109.03C48.7782 110.042 49.078 111.2 49.0499 112.373C48.7338 114.63 48.0883 116.829 47.134 118.898C46.0989 121.756 45.4603 124.742 45.2362 127.773C44.8988 130.415 45.0768 133.097 45.7604 135.671C45.7604 135.852 45.3266 136.34 44.4229 137.027C46.1399 136.846 48.2004 136.647 47.9293 135.852C47.2755 133.272 47.1281 130.59 47.4955 127.953Z" fill="#D34F2B" fill-opacity="0.64"/>
    <path d="M52.9402 140.75C52.7319 138.241 51.8721 135.83 50.4459 133.755C49.4157 132.11 48.1324 130.683 46.09 131.297C43.7958 131.999 41.5395 132.82 39.3302 133.755C36.5648 134.912 33.9079 136.159 31.1245 137.37C27.7446 139.178 23.5333 140.786 21.2378 143.877C21.1966 143.927 21.1659 143.985 21.1472 144.047C21.1286 144.109 21.1225 144.174 21.1294 144.238C21.061 144.339 21.0063 144.448 20.9667 144.564C20.7536 145.248 20.7408 145.98 20.9297 146.671C21.1187 147.363 21.5015 147.986 22.0331 148.468C23.0452 149.606 23.9309 150.763 24.8708 151.956C25.2494 152.533 25.7499 153.019 26.337 153.382C26.9241 153.744 27.5835 153.973 28.2687 154.053C29.8889 153.876 31.4766 153.474 32.9861 152.86C34.7935 152.354 36.4925 151.811 38.2096 151.233C41.3422 150.174 44.3438 148.761 47.1564 147.022C49.4157 145.648 52.904 143.786 52.9402 140.75Z" fill="#DAE7F5"/>
    <path d="M52.9419 140.822C52.7407 138.287 51.8741 135.849 50.4296 133.755C49.4174 132.11 48.1342 130.683 46.0918 131.297C45.2965 131.532 44.5374 131.803 43.7602 132.074C44.43 132.285 45.0465 132.638 45.5674 133.109C46.0884 133.58 46.5015 134.158 46.7786 134.804C48.2537 137.071 49.1248 139.678 49.309 142.377C49.309 145.612 45.6941 147.618 43.3987 149.1L42.8203 149.462C44.2843 148.757 45.7303 147.98 47.1581 147.112C49.3994 145.72 52.9058 143.859 52.9419 140.822Z" fill="#C8D8E8"/>
    <path d="M14.5013 121.935C12.6939 118.193 11.5733 113.693 12.8566 109.644C13.5358 107.402 14.7807 105.373 16.4714 103.752C17.3411 102.917 18.4223 102.336 19.5983 102.071C19.9992 102.047 20.3903 101.938 20.7457 101.751C21.101 101.564 21.4123 101.304 21.6588 100.986C22.436 99.5948 20.9539 98.691 19.8513 98.3476L19.3995 98.2211C17.9577 97.7895 16.458 97.5822 14.9532 97.6066C12.8645 97.4202 10.7657 97.8274 8.89829 98.7814C7.07671 99.6741 5.48036 100.967 4.22846 102.563C2.97656 104.159 2.10148 106.017 1.66857 107.999C1.07825 112.115 1.88658 116.309 3.96401 119.91C6.07384 123.766 8.43461 127.479 11.0311 131.026C12.2277 132.811 13.6023 134.471 15.1339 135.978C16.602 137.504 18.3044 138.785 20.1767 139.774C20.9145 140.252 21.8012 140.445 22.6709 140.316C23.054 140.194 23.3882 139.952 23.6254 139.628C23.8625 139.303 23.9903 138.911 23.9903 138.509C23.7347 136.522 22.9339 134.646 21.6768 133.086C19.3452 129.237 16.3088 126.001 14.5013 121.935Z" fill="#FC6238"/>
    <path d="M45.2267 107.728C43.7627 106.59 41.6118 108.56 40.6539 109.536C39.7406 110.44 38.967 111.476 38.3584 112.608C37.9697 112.981 37.6604 113.429 37.4491 113.924C37.2378 114.42 37.1289 114.953 37.1289 115.491C37.1289 116.03 37.2378 116.563 37.4491 117.058C37.6604 117.554 37.9697 118.001 38.3584 118.374C38.5985 118.556 38.8783 118.679 39.1749 118.733C39.4715 118.787 39.7766 118.77 40.0654 118.684C40.3542 118.598 40.6186 118.444 40.8371 118.237C41.0555 118.029 41.2219 117.773 41.3226 117.488C42.0116 116.212 42.8163 115.002 43.7265 113.874C44.811 112.5 47.3414 109.355 45.2267 107.728Z" fill="#FC6238"/>
    <path d="M22.0352 144.6C22.4984 144.632 22.9549 144.729 23.3907 144.889L22.0352 144.6Z" fill="#EDF2F7"/>
    <path d="M21.9824 145.196C22.3883 145.236 22.7884 145.321 23.1753 145.449C23.3241 145.503 23.488 145.498 23.6328 145.434C23.7776 145.37 23.8921 145.252 23.9525 145.106C24.0063 144.957 24.0007 144.793 23.9367 144.649C23.8728 144.504 23.7554 144.389 23.6091 144.329C23.1199 144.156 22.6088 144.052 22.0908 144.022C22.0124 144.014 21.9333 144.022 21.8581 144.046C21.7829 144.069 21.713 144.107 21.6525 144.157C21.592 144.208 21.5421 144.269 21.5057 144.339C21.4692 144.409 21.4469 144.485 21.4401 144.564C21.4327 144.641 21.441 144.719 21.4645 144.794C21.4879 144.868 21.5261 144.936 21.5767 144.995C21.6274 145.054 21.6894 145.103 21.7591 145.137C21.8288 145.172 21.9047 145.192 21.9824 145.196Z" fill="#EDF2F7"/>
    <path d="M25.0273 141.943C25.1932 142.294 25.4127 142.617 25.678 142.901L25.0273 141.943Z" fill="#EDF2F7"/>
    <path d="M24.4912 142.196C24.6767 142.592 24.9204 142.957 25.2142 143.28C25.2697 143.337 25.3358 143.381 25.4087 143.412C25.4816 143.442 25.5599 143.458 25.6389 143.458C25.7179 143.458 25.7962 143.442 25.8691 143.412C25.942 143.381 26.0082 143.337 26.0637 143.28C26.173 143.166 26.2341 143.014 26.2341 142.856C26.2341 142.697 26.173 142.545 26.0637 142.431L25.7202 141.997C25.6674 141.919 25.6249 141.834 25.5937 141.744C25.5605 141.673 25.5136 141.609 25.4556 141.556C25.3977 141.503 25.3298 141.462 25.256 141.435C25.1821 141.408 25.1037 141.396 25.0252 141.399C24.9467 141.403 24.8697 141.422 24.7985 141.455C24.7272 141.488 24.6633 141.535 24.6102 141.593C24.5571 141.651 24.516 141.719 24.4892 141.793C24.4623 141.867 24.4503 141.945 24.4537 142.023C24.4572 142.102 24.476 142.179 24.5093 142.25L24.4912 142.196Z" fill="#EDF2F7"/>
    <path d="M23.1016 148.106C23.6073 147.92 24.1365 147.804 24.674 147.763L23.1016 148.106Z" fill="#EDF2F7"/>
    <path d="M23.2053 148.703C23.6644 148.527 24.1443 148.412 24.6332 148.359C25.3923 148.359 25.5007 147.203 24.7235 147.167C24.1069 147.2 23.4982 147.322 22.9161 147.528C22.1751 147.709 22.392 148.884 23.133 148.703H23.2053Z" fill="#EDF2F7"/>
    <path d="M28.9524 150.98C28.6488 151.403 28.4168 151.873 28.2656 152.372L28.9524 150.98Z" fill="#EDF2F7"/>
    <path d="M28.2999 150.763C27.983 151.243 27.7393 151.766 27.5769 152.318C27.5694 152.396 27.5776 152.475 27.6009 152.55C27.6241 152.626 27.6621 152.695 27.7125 152.756C27.7629 152.816 27.8248 152.866 27.8946 152.903C27.9644 152.939 28.0407 152.962 28.1191 152.968C28.1975 152.976 28.2766 152.968 28.3518 152.944C28.4271 152.921 28.4969 152.883 28.5574 152.833C28.6179 152.782 28.6678 152.72 28.7043 152.651C28.7407 152.581 28.763 152.505 28.7698 152.426C28.9284 151.983 29.1474 151.563 29.4205 151.179C29.4736 151.033 29.4675 150.871 29.4033 150.73C29.3391 150.588 29.2221 150.477 29.0771 150.42C28.9282 150.366 28.7643 150.372 28.6196 150.436C28.4748 150.5 28.3603 150.617 28.2999 150.763Z" fill="#EDF2F7"/>
    <path d="M26.5312 149.805C27.1277 149.48 27.5796 148.902 28.176 148.558L26.5312 149.805Z" fill="#EDF2F7"/>
    <path d="M26.7828 150.329C27.3974 149.986 27.8492 149.462 28.4457 149.1C28.5895 149.031 28.6998 148.907 28.7523 148.756C28.8049 148.605 28.7953 148.44 28.7258 148.296C28.6563 148.152 28.5325 148.042 28.3817 147.989C28.2309 147.937 28.0653 147.946 27.9215 148.016C27.3251 148.377 26.8732 148.92 26.2768 149.263C26.1949 149.288 26.1195 149.331 26.0555 149.388C25.9915 149.444 25.9406 149.514 25.9061 149.593C25.8715 149.671 25.8543 149.756 25.8555 149.842C25.8567 149.927 25.8764 150.012 25.9131 150.089C25.9498 150.166 26.0027 150.235 26.0683 150.29C26.1338 150.345 26.2104 150.385 26.293 150.408C26.3755 150.431 26.4619 150.436 26.5465 150.422C26.631 150.409 26.7116 150.377 26.7828 150.329Z" fill="#EDF2F7"/>
    <path d="M31.1484 149.064C31.35 149.554 31.525 150.055 31.6726 150.564L31.1484 149.064Z" fill="#EDF2F7"/>
    <path d="M30.5972 149.317C30.7807 149.759 30.9376 150.212 31.0672 150.673C31.1056 150.826 31.1982 150.96 31.3279 151.049C31.4575 151.139 31.6154 151.179 31.7721 151.161C31.9292 151.13 32.0681 151.039 32.1593 150.908C32.2504 150.776 32.2866 150.614 32.2601 150.456C32.1025 149.896 31.9093 149.347 31.6817 148.811C31.3744 148.106 30.29 148.612 30.5972 149.317Z" fill="#EDF2F7"/>
    <path d="M34.1875 148.594C34.5275 148.967 34.7914 149.403 34.9647 149.877L34.1875 148.594Z" fill="#EDF2F7"/>
    <path d="M33.7277 148.992C34.0472 149.319 34.2883 149.715 34.4326 150.149C34.7398 150.854 35.8243 150.33 35.517 149.625C35.3244 149.102 35.0295 148.622 34.6495 148.215C34.5381 148.107 34.389 148.046 34.2338 148.046C34.0785 148.046 33.9294 148.107 33.818 148.215C33.6958 148.317 33.618 148.463 33.6011 148.621C33.5842 148.78 33.6296 148.939 33.7277 149.064V148.992Z" fill="#EDF2F7"/>
    <path d="M37.6367 147.347C38.2851 147.698 38.97 147.977 39.6791 148.179L37.6367 147.347Z" fill="#EDF2F7"/>
    <path d="M37.29 147.835C37.9795 148.211 38.7064 148.514 39.459 148.739C40.2 148.974 40.6157 147.853 39.8927 147.618C39.2376 147.425 38.6022 147.171 37.9949 146.859C37.8618 146.78 37.705 146.752 37.5526 146.778C37.4002 146.805 37.2623 146.885 37.1635 147.004C37.1184 147.068 37.0863 147.14 37.0692 147.217C37.052 147.293 37.0501 147.372 37.0635 147.449C37.0769 147.527 37.1055 147.6 37.1474 147.667C37.1894 147.733 37.244 147.79 37.3081 147.835H37.29Z" fill="#EDF2F7"/>
    <path d="M27.3984 145.395C27.9821 145.21 28.5942 145.13 29.2059 145.16L27.3984 145.395Z" fill="#EDF2F7"/>
    <path d="M27.6535 145.937C28.1933 145.781 28.7549 145.714 29.3163 145.739C29.3945 145.728 29.4697 145.701 29.5372 145.66C29.6046 145.619 29.663 145.565 29.7088 145.501C29.7545 145.436 29.7865 145.363 29.803 145.286C29.8194 145.209 29.8199 145.129 29.8043 145.052C29.7736 144.895 29.6827 144.756 29.551 144.665C29.4194 144.573 29.2573 144.537 29.0994 144.564C28.435 144.539 27.772 144.643 27.1474 144.871C26.4425 145.16 26.9486 146.245 27.6535 145.937Z" fill="#EDF2F7"/>
    <path d="M28.2109 140.841C28.7293 141.273 29.2928 141.649 29.8918 141.961L28.2109 140.841Z" fill="#EDF2F7"/>
    <path d="M27.7448 141.22C28.3004 141.695 28.9065 142.107 29.5522 142.449C29.6816 142.54 29.8419 142.576 29.9978 142.549C30.1538 142.522 30.2925 142.434 30.3836 142.304C30.4747 142.175 30.5106 142.015 30.4835 141.859C30.4564 141.703 30.3684 141.564 30.239 141.473C29.6834 141.187 29.1568 140.848 28.6666 140.461C28.1605 139.882 27.2387 140.66 27.7448 141.22Z" fill="#EDF2F7"/>
    <path d="M32.9844 138.256C33.091 138.715 33.2423 139.163 33.4362 139.593L32.9844 138.256Z" fill="#EDF2F7"/>
    <path d="M32.3829 138.364C32.5135 138.871 32.6827 139.366 32.889 139.846C32.922 139.918 32.9688 139.982 33.0267 140.035C33.0847 140.088 33.1525 140.13 33.2264 140.156C33.3004 140.183 33.3789 140.195 33.4574 140.192C33.536 140.188 33.6131 140.169 33.6842 140.136C33.8251 140.065 33.9337 139.944 33.9875 139.796C34.0413 139.648 34.0363 139.485 33.9734 139.34C33.8059 138.955 33.6728 138.556 33.5758 138.147C33.5267 138.01 33.4305 137.895 33.3044 137.823C33.1784 137.75 33.0306 137.724 32.8874 137.75C32.7442 137.776 32.6149 137.852 32.5225 137.965C32.4301 138.077 32.3807 138.219 32.3829 138.364Z" fill="#EDF2F7"/>
    <path d="M37.9868 135.761C37.895 136.36 37.895 136.97 37.9868 137.569V135.761Z" fill="#EDF2F7"/>
    <path d="M37.3949 135.725C37.2954 136.397 37.2954 137.079 37.3949 137.75C37.5576 138.491 38.7324 138.292 38.5697 137.533C38.4686 136.935 38.4686 136.324 38.5697 135.725C38.5697 135.567 38.5069 135.416 38.395 135.304C38.2832 135.192 38.1315 135.129 37.9733 135.129C37.8151 135.129 37.6634 135.192 37.5515 135.304C37.4397 135.416 37.3768 135.567 37.3768 135.725H37.3949Z" fill="#EDF2F7"/>
    <path d="M44.2064 133.556C43.8629 134.207 43.8268 135.075 43.5195 135.761L44.2064 133.556Z" fill="#EDF2F7"/>
    <path d="M43.6481 133.34C43.3047 134.044 43.2505 134.84 42.9613 135.563C42.6721 136.286 43.7927 136.683 44.0819 135.978C44.3711 135.273 44.4253 134.46 44.7688 133.755C45.1122 133.05 43.9735 132.653 43.6481 133.34Z" fill="#EDF2F7"/>
    <path d="M41.0815 135.798C41.0368 136.405 41.0917 137.016 41.2441 137.605L41.0815 135.798Z" fill="#EDF2F7"/>
    <path d="M40.4806 135.743C40.4328 136.406 40.4938 137.071 40.6614 137.714C40.6901 137.869 40.7796 138.007 40.9101 138.097C41.0406 138.187 41.2014 138.221 41.3572 138.193C41.513 138.164 41.651 138.074 41.7408 137.944C41.8307 137.813 41.865 137.652 41.8362 137.497C41.6929 136.961 41.6379 136.405 41.6735 135.852C41.782 135.075 40.5891 134.984 40.4806 135.743Z" fill="#EDF2F7"/>
    <path d="M35.1875 139.015C35.57 139.701 36.0719 140.313 36.6696 140.822L35.1875 139.015Z" fill="#EDF2F7"/>
    <path d="M34.649 139.268C35.0667 139.95 35.5915 140.56 36.2033 141.075C36.3177 141.185 36.4699 141.246 36.6281 141.246C36.7863 141.246 36.9385 141.185 37.0528 141.075C37.1091 141.02 37.1538 140.954 37.1843 140.881C37.2148 140.808 37.2306 140.73 37.2306 140.651C37.2306 140.572 37.2148 140.493 37.1843 140.42C37.1538 140.347 37.1091 140.281 37.0528 140.226C36.509 139.757 36.0397 139.209 35.6611 138.599C35.2996 137.912 34.2152 138.418 34.5767 139.105L34.649 139.268Z" fill="#EDF2F7"/>
    <path d="M31.9766 143.28C32.3835 143.245 32.7935 143.281 33.1875 143.389L31.9766 143.28Z" fill="#EDF2F7"/>
    <path d="M31.9158 143.877C32.2698 143.831 32.6282 143.831 32.9822 143.877C33.6871 144.184 34.1028 143.064 33.3979 142.756C32.9522 142.627 32.4871 142.578 32.0242 142.612C31.866 142.597 31.7086 142.646 31.5866 142.748C31.4646 142.85 31.3879 142.996 31.3736 143.154C31.3592 143.312 31.4082 143.47 31.5099 143.592C31.6116 143.714 31.7576 143.79 31.9158 143.805V143.877Z" fill="#EDF2F7"/>
    <path d="M33.3711 146.082C33.7326 145.757 34.2748 145.522 34.6544 145.232L33.3711 146.082Z" fill="#EDF2F7"/>
    <path d="M33.7421 146.552C34.1512 146.236 34.5798 145.946 35.0254 145.684C35.0879 145.635 35.14 145.574 35.1786 145.504C35.2171 145.435 35.2413 145.358 35.2497 145.279C35.2581 145.2 35.2506 145.119 35.2276 145.043C35.2046 144.967 35.1666 144.896 35.1157 144.835C34.9994 144.729 34.848 144.671 34.691 144.671C34.534 144.671 34.3826 144.729 34.2662 144.835C33.8505 145.142 33.3625 145.359 32.9649 145.702C32.5673 146.046 33.1637 147.13 33.7421 146.624V146.552Z" fill="#EDF2F7"/>
    <path d="M41.6055 145.269C42.1209 145.565 42.6106 145.903 43.0695 146.281L41.6055 145.269Z" fill="#EDF2F7"/>
    <path d="M41.3566 145.829C41.8161 146.105 42.2514 146.419 42.658 146.769C43.3086 147.184 43.9955 146.208 43.3629 145.793C42.8677 145.382 42.3352 145.019 41.7723 144.708C41.0674 144.383 40.6517 145.503 41.3566 145.829Z" fill="#EDF2F7"/>
    <path d="M45.5273 143.497C46.2503 143.371 46.7564 143.768 47.4432 143.823L45.5273 143.497Z" fill="#EDF2F7"/>
    <path d="M45.6389 144.094C46.2536 144.118 46.8618 144.228 47.4464 144.419C48.2236 144.419 48.3139 143.317 47.5548 143.226C46.8772 143.036 46.1795 142.927 45.4763 142.901C44.7171 143.009 44.934 144.184 45.6932 144.094H45.6389Z" fill="#EDF2F7"/>
    <path d="M45.7266 138.4C46.3054 138.193 46.9275 138.137 47.534 138.238L45.7266 138.4Z" fill="#EDF2F7"/>
    <path d="M45.8327 138.979C46.3839 138.788 46.9743 138.738 47.5497 138.834C48.3089 138.961 48.4173 137.768 47.6582 137.641C46.9741 137.532 46.274 137.588 45.6158 137.804C45.462 137.839 45.3274 137.931 45.2399 138.062C45.1525 138.194 45.1188 138.353 45.1458 138.509C45.1588 138.585 45.1871 138.659 45.2289 138.724C45.2708 138.789 45.3254 138.846 45.3895 138.89C45.4536 138.933 45.5259 138.964 45.602 138.979C45.6782 138.995 45.7566 138.994 45.8327 138.979Z" fill="#EDF2F7"/>
    <path d="M43.418 141.13C44.1023 141.129 44.7793 141.271 45.4061 141.545L43.418 141.13Z" fill="#EDF2F7"/>
    <path d="M43.407 141.726C44.0282 141.735 44.6419 141.864 45.2144 142.106C45.9193 142.431 46.317 141.31 45.6301 140.985C44.9485 140.699 44.2185 140.545 43.4793 140.533C43.3211 140.521 43.1646 140.572 43.0443 140.676C42.924 140.779 42.8496 140.926 42.8376 141.084C42.8257 141.243 42.877 141.399 42.9804 141.519C43.0838 141.64 43.2307 141.714 43.3889 141.726H43.407Z" fill="#EDF2F7"/>
    <path d="M40.3416 139.72C40.2512 140.226 39.8175 140.624 39.6367 141.112L40.3416 139.72Z" fill="#EDF2F7"/>
    <path d="M39.7998 139.666C39.7285 139.853 39.6312 140.029 39.5106 140.19C39.3661 140.421 39.2392 140.663 39.1311 140.913C39.1038 140.986 39.0912 141.065 39.0942 141.143C39.0971 141.221 39.1155 141.298 39.1482 141.37C39.1809 141.441 39.2274 141.505 39.2849 141.559C39.3424 141.612 39.4099 141.654 39.4835 141.681C39.5571 141.708 39.6353 141.721 39.7138 141.718C39.7922 141.715 39.8693 141.696 39.9406 141.664C40.0119 141.631 40.0761 141.585 40.1295 141.527C40.1829 141.47 40.2244 141.402 40.2517 141.328C40.3565 141.094 40.4836 140.87 40.6312 140.66C40.7961 140.378 40.918 140.074 40.9927 139.756C40.9976 139.678 40.987 139.599 40.9615 139.525C40.9359 139.451 40.896 139.382 40.8439 139.323C40.7919 139.265 40.7287 139.217 40.6581 139.182C40.5875 139.148 40.5108 139.128 40.4324 139.123C40.355 139.116 40.2769 139.124 40.2027 139.148C40.1285 139.171 40.0599 139.209 40.0008 139.26C39.9418 139.311 39.8935 139.373 39.859 139.442C39.8244 139.512 39.8043 139.588 39.7998 139.666Z" fill="#EDF2F7"/>
    <path d="M37.4805 143.443C37.9865 143.624 38.4565 144.383 38.836 144.781L37.4805 143.443Z" fill="#EDF2F7"/>
    <path d="M37.2911 144.003C37.7248 144.184 38.0502 144.799 38.3755 145.16C38.7008 145.522 39.8215 144.961 39.2973 144.401C38.8941 143.777 38.3491 143.256 37.7068 142.883C36.9838 142.575 36.5681 143.714 37.2911 144.003Z" fill="#EDF2F7"/>
    <path d="M225.339 105.071C225.5 103.91 225.983 102.816 226.734 101.915C227.485 101.014 228.473 100.342 229.587 99.9744C234.611 98.1669 237.901 103.137 239.672 107.529C242.371 103.5 245.647 99.8885 249.396 96.8114C251.847 95.1057 254.658 93.9885 257.611 93.5465C260.564 93.1044 263.579 93.3496 266.422 94.2629C272.459 96.233 275.73 102.414 276.074 108.469C276.453 115.247 272.658 120.904 267.976 125.423C265.012 128.279 261.885 131.008 258.777 133.719C257.258 135.057 255.704 136.322 254.222 137.677C253.589 138.256 250.083 141.292 249.505 141.69C245.89 143.678 242.853 138.961 239.925 137.045C237.991 135.78 236.039 134.587 234.069 133.43C232.75 132.617 231.484 131.731 230.201 130.863C228.918 129.996 224.454 129.598 225.032 128.496C226.121 126.081 226.735 123.479 226.839 120.832C227.087 117.812 226.923 114.771 226.351 111.795C225.681 109.617 225.34 107.35 225.339 105.071Z" fill="#FF5020"/>
    <path d="M237.671 103.752C236.882 102.446 235.822 101.324 234.562 100.462C235.464 101.836 236.216 103.302 236.804 104.836C238.286 108.777 239.388 107.728 239.515 107.548C239.02 106.227 238.403 104.957 237.671 103.752Z" fill="#D34F2B" fill-opacity="0.64"/>
    <path d="M275.997 108.451C275.922 106.065 275.334 103.722 274.274 101.583C273.213 99.4435 271.705 97.5573 269.852 96.0522C271.903 98.8832 273.09 102.248 273.268 105.74C273.647 112.5 269.852 118.175 265.17 122.676C262.206 125.531 259.079 128.279 255.971 130.99C254.47 132.309 252.916 133.593 251.416 134.948C250.783 135.527 247.277 138.563 246.716 138.961C243.102 140.931 240.047 136.231 237.137 134.316C235.203 133.05 233.233 131.839 231.263 130.701C229.944 129.887 228.696 128.893 227.395 128.134C226.769 127.825 226.107 127.594 225.425 127.447C225.28 127.791 225.136 128.134 224.955 128.478C224.377 129.58 229.112 130.177 230.124 130.845C231.136 131.514 232.673 132.653 233.992 133.412C235.962 134.623 237.914 135.816 239.848 137.027C242.776 138.943 245.795 143.66 249.428 141.672C250.006 141.365 253.512 138.238 254.145 137.659C255.627 136.304 257.182 135.039 258.7 133.701C261.809 130.99 264.935 128.279 267.9 125.405C272.581 120.904 276.376 115.247 275.997 108.451Z" fill="#D34F2B" fill-opacity="0.64"/>
    <path d="M219.368 132.49C219.973 130.017 221.22 127.748 222.983 125.911C224.248 124.465 225.73 123.272 227.646 124.104C229.784 125.203 231.865 126.409 233.882 127.718C236.412 129.273 238.888 130.936 241.346 132.617C244.419 134.713 248.287 137.027 250.058 140.407C250.083 140.467 250.096 140.531 250.096 140.596C250.096 140.662 250.083 140.726 250.058 140.786C250.11 140.895 250.147 141.011 250.166 141.13C250.273 141.829 250.173 142.544 249.877 143.186C249.582 143.829 249.104 144.371 248.504 144.744C247.347 145.702 246.299 146.715 245.196 147.745C244.741 148.246 244.181 148.642 243.557 148.904C242.932 149.166 242.258 149.289 241.581 149.263C240.018 148.884 238.519 148.275 237.135 147.456C235.49 146.678 233.863 145.883 232.255 145.052C229.352 143.549 226.625 141.731 224.121 139.629C222.079 137.84 218.916 135.563 219.368 132.49Z" fill="#DAE7F5"/>
    <path d="M250.141 141.184C250.121 141.065 250.085 140.949 250.032 140.841C250.058 140.78 250.071 140.716 250.071 140.651C250.071 140.586 250.058 140.521 250.032 140.461C249.081 138.81 247.816 137.361 246.309 136.195C246.69 136.684 247.029 137.204 247.321 137.75C247.364 137.866 247.364 137.995 247.321 138.111L247.43 138.473C247.521 139.171 247.413 139.88 247.119 140.52C246.825 141.159 246.356 141.703 245.767 142.088C244.592 143.046 243.562 144.058 242.441 145.07C241.987 145.574 241.428 145.972 240.803 146.237C240.179 146.503 239.504 146.628 238.826 146.606C237.266 146.218 235.769 145.61 234.38 144.799C232.735 144.022 231.109 143.226 229.5 142.377C226.59 140.887 223.861 139.068 221.367 136.955L220.535 136.105C221.615 137.375 222.827 138.526 224.15 139.539C226.653 141.64 229.381 143.459 232.283 144.961C233.892 145.793 235.519 146.588 237.164 147.365C238.548 148.184 240.046 148.793 241.61 149.173C242.287 149.199 242.961 149.076 243.585 148.814C244.21 148.551 244.769 148.156 245.225 147.655C246.327 146.624 247.376 145.612 248.532 144.654C249.098 144.284 249.549 143.763 249.833 143.149C250.118 142.536 250.224 141.855 250.141 141.184Z" fill="#C8D8E8"/>
    <path d="M233.422 107.945C234.073 106.138 235.229 102.179 232.319 101.456C229.789 100.788 227.837 103.878 227.801 106.029C227.885 107.553 228.079 109.069 228.379 110.566C228.488 111.379 228.578 112.193 228.741 112.988C228.547 113.742 228.538 114.531 228.714 115.29C228.89 116.048 229.247 116.753 229.753 117.344C229.805 117.39 229.868 117.423 229.935 117.441C230.002 117.458 230.073 117.46 230.141 117.446C230.209 117.432 230.273 117.403 230.328 117.36C230.383 117.317 230.428 117.262 230.458 117.199C231.239 115.831 231.783 114.34 232.066 112.789C232.419 111.148 232.871 109.531 233.422 107.945Z" fill="#FC6238"/>
    <path d="M271.152 100.806C270.657 99.5604 269.891 98.4407 268.909 97.5278C267.927 96.615 266.755 95.932 265.477 95.5282C262.869 94.8509 260.132 94.8509 257.524 95.5282C255.064 96.0612 252.731 97.068 250.656 98.4924C248.114 100.398 245.919 102.728 244.167 105.379C242.669 107.067 241.448 108.982 240.552 111.054C239.405 112.645 238.366 114.311 237.444 116.043C237.309 116.362 237.281 116.715 237.361 117.052C237.442 117.388 237.627 117.691 237.892 117.914C238.156 118.138 238.484 118.272 238.829 118.296C239.175 118.32 239.519 118.234 239.811 118.049C241.022 117.145 242.143 116.241 243.3 115.193C244.48 114.277 245.731 113.455 247.041 112.735C249.58 111.154 252.253 109.799 255.03 108.686C257.623 107.599 260.365 106.911 263.163 106.644C264.534 106.559 265.909 106.62 267.266 106.825C268.369 107.005 269.471 107.566 270.574 107.042C272.96 105.957 272.092 102.613 271.152 100.806Z" fill="#FC6238"/>
    <path d="M226.851 125.242L227.194 127.05C227.216 127.203 227.296 127.342 227.416 127.439C227.537 127.537 227.69 127.585 227.845 127.574C227.922 127.569 227.998 127.549 228.068 127.515C228.138 127.48 228.2 127.432 228.25 127.373C228.301 127.314 228.339 127.245 228.363 127.171C228.386 127.097 228.394 127.019 228.387 126.941C228.26 126.327 228.152 125.73 228.025 125.134C228.003 124.979 227.924 124.838 227.804 124.738C227.684 124.638 227.531 124.586 227.375 124.592C227.219 124.61 227.078 124.688 226.98 124.81C226.882 124.931 226.835 125.087 226.851 125.242Z" fill="#EDF2F7"/>
    <path d="M231.481 127.086C231.448 127.735 231.37 128.382 231.246 129.02L231.481 127.086Z" fill="#EDF2F7"/>
    <path d="M230.899 126.977C230.879 127.629 230.794 128.277 230.646 128.911C230.625 129.066 230.664 129.224 230.754 129.352C230.845 129.479 230.981 129.567 231.134 129.598C231.212 129.614 231.292 129.613 231.369 129.597C231.446 129.58 231.519 129.548 231.583 129.503C231.648 129.457 231.702 129.398 231.743 129.331C231.784 129.264 231.81 129.188 231.821 129.11C231.969 128.475 232.054 127.828 232.074 127.176C232.096 127.021 232.057 126.864 231.967 126.736C231.876 126.608 231.74 126.52 231.586 126.489C231.509 126.474 231.429 126.474 231.352 126.491C231.275 126.507 231.202 126.539 231.137 126.585C231.073 126.631 231.019 126.689 230.978 126.757C230.937 126.824 230.91 126.899 230.899 126.977Z" fill="#EDF2F7"/>
    <path d="M224.156 126.2C224.46 126.558 224.726 126.946 224.952 127.357L224.156 126.2Z" fill="#EDF2F7"/>
    <path d="M223.725 126.652C223.991 126.976 224.221 127.327 224.412 127.7C224.454 127.765 224.508 127.821 224.572 127.865C224.636 127.908 224.708 127.938 224.784 127.954C224.86 127.969 224.938 127.969 225.014 127.953C225.089 127.938 225.161 127.907 225.225 127.863C225.35 127.769 225.436 127.632 225.466 127.479C225.496 127.325 225.468 127.166 225.388 127.032C225.145 126.565 224.841 126.134 224.484 125.748C224.362 125.673 224.217 125.644 224.076 125.667C223.934 125.69 223.806 125.763 223.714 125.872C223.622 125.982 223.572 126.121 223.574 126.264C223.576 126.407 223.63 126.545 223.725 126.652Z" fill="#EDF2F7"/>
    <path d="M221.516 129.327C222.006 129.456 222.489 129.613 222.962 129.797L221.516 129.327Z" fill="#EDF2F7"/>
    <path d="M221.426 129.906C221.862 130.026 222.29 130.17 222.71 130.339C222.855 130.394 223.015 130.395 223.161 130.342C223.307 130.289 223.429 130.185 223.505 130.05C223.568 129.906 223.573 129.743 223.519 129.595C223.465 129.447 223.357 129.325 223.216 129.255C222.689 129.053 222.152 128.878 221.607 128.731C220.866 128.568 220.667 129.743 221.426 129.906Z" fill="#EDF2F7"/>
    <path d="M220.344 133.557C220.747 133.52 221.152 133.52 221.555 133.557H220.344Z" fill="#EDF2F7"/>
    <path d="M220.394 134.153C220.797 134.117 221.202 134.117 221.605 134.153C221.691 134.158 221.776 134.144 221.856 134.113C221.936 134.081 222.008 134.033 222.068 133.972C222.127 133.91 222.173 133.836 222.201 133.755C222.23 133.674 222.24 133.588 222.233 133.503C222.225 133.417 222.198 133.335 222.156 133.26C222.113 133.186 222.055 133.122 221.985 133.072C221.915 133.022 221.835 132.988 221.751 132.972C221.667 132.956 221.58 132.958 221.497 132.978C221.094 132.933 220.688 132.933 220.286 132.978C220.129 132.996 219.986 133.074 219.885 133.195C219.784 133.316 219.733 133.471 219.744 133.629C219.75 133.707 219.773 133.784 219.809 133.853C219.845 133.923 219.895 133.985 219.956 134.035C220.016 134.086 220.086 134.124 220.161 134.147C220.237 134.17 220.316 134.178 220.394 134.171V134.153Z" fill="#EDF2F7"/>
    <path d="M223.305 137.37C223.695 137.226 224.07 137.045 224.425 136.828L223.305 137.37Z" fill="#EDF2F7"/>
    <path d="M223.505 137.894C223.94 137.73 224.357 137.524 224.752 137.28C224.818 137.236 224.874 137.18 224.918 137.114C224.961 137.049 224.992 136.975 225.007 136.898C225.022 136.821 225.022 136.741 225.006 136.664C224.99 136.587 224.959 136.514 224.915 136.448C224.821 136.323 224.683 136.238 224.528 136.211C224.373 136.184 224.214 136.217 224.084 136.304C223.77 136.496 223.437 136.654 223.089 136.774C222.947 136.834 222.833 136.946 222.769 137.086C222.706 137.227 222.697 137.386 222.746 137.533C222.77 137.608 222.81 137.677 222.861 137.736C222.913 137.795 222.977 137.843 223.048 137.877C223.119 137.911 223.196 137.93 223.275 137.933C223.353 137.936 223.432 137.923 223.505 137.894Z" fill="#EDF2F7"/>
    <path d="M227.144 138.653C227.144 139.033 226.981 139.431 226.891 139.81L227.144 138.653Z" fill="#EDF2F7"/>
    <path d="M226.557 138.563C226.557 138.943 226.394 139.322 226.286 139.702C226.259 139.858 226.296 140.017 226.388 140.146C226.479 140.275 226.618 140.362 226.774 140.389C226.929 140.41 227.086 140.372 227.214 140.281C227.341 140.19 227.43 140.054 227.46 139.901C227.569 139.521 227.641 139.142 227.732 138.762C227.753 138.607 227.714 138.449 227.624 138.322C227.533 138.194 227.397 138.106 227.244 138.075C227.088 138.054 226.931 138.092 226.803 138.183C226.676 138.274 226.587 138.41 226.557 138.563Z" fill="#EDF2F7"/>
    <path d="M232.145 142.196C232.145 142.575 232.036 143.009 232 143.389L232.145 142.196Z" fill="#EDF2F7"/>
    <path d="M231.575 142.088C231.575 142.503 231.466 142.883 231.412 143.28C231.391 143.436 231.429 143.593 231.52 143.721C231.611 143.848 231.747 143.937 231.9 143.967C232.056 143.993 232.216 143.957 232.344 143.865C232.473 143.774 232.56 143.635 232.587 143.479C232.587 143.082 232.713 142.684 232.75 142.286C232.763 142.133 232.721 141.979 232.632 141.853C232.542 141.728 232.411 141.638 232.262 141.6C232.106 141.578 231.949 141.617 231.821 141.707C231.694 141.798 231.606 141.934 231.575 142.088Z" fill="#EDF2F7"/>
    <path d="M235.203 143.208C235.384 143.714 235.474 144.238 235.619 144.744L235.203 143.208Z" fill="#EDF2F7"/>
    <path d="M234.643 143.425C234.805 143.913 234.932 144.437 235.058 144.943C235.12 145.08 235.23 145.189 235.368 145.248C235.506 145.307 235.661 145.312 235.802 145.262C235.944 145.211 236.061 145.11 236.131 144.977C236.2 144.845 236.218 144.691 236.179 144.546C236.034 144.04 235.926 143.515 235.763 143.009C235.708 142.861 235.596 142.74 235.452 142.674C235.308 142.608 235.144 142.602 234.995 142.657C234.847 142.712 234.726 142.824 234.66 142.968C234.594 143.112 234.588 143.276 234.643 143.425Z" fill="#EDF2F7"/>
    <path d="M238.941 143.624C238.998 144.184 239.095 144.74 239.231 145.287L238.941 143.624Z" fill="#EDF2F7"/>
    <path d="M238.379 143.823C238.43 144.39 238.526 144.952 238.668 145.504C238.957 146.19 240.078 145.793 239.771 145.088C239.645 144.539 239.548 143.984 239.481 143.425C239.428 143.277 239.319 143.156 239.176 143.088C239.034 143.02 238.871 143.011 238.722 143.064C238.58 143.124 238.466 143.235 238.402 143.376C238.339 143.517 238.33 143.676 238.379 143.823Z" fill="#EDF2F7"/>
    <path d="M240.965 142.106C241.543 142.377 242.049 142.756 242.61 143.009L240.965 142.106Z" fill="#EDF2F7"/>
    <path d="M240.711 142.648C241.271 142.919 241.795 143.281 242.356 143.552C242.916 143.823 243.549 142.811 242.862 142.467C242.175 142.124 241.777 141.853 241.217 141.582C241.08 141.54 240.932 141.548 240.801 141.606C240.67 141.664 240.564 141.767 240.503 141.896C240.442 142.025 240.429 142.173 240.467 142.311C240.505 142.449 240.592 142.568 240.711 142.648Z" fill="#EDF2F7"/>
    <path d="M243.039 139.81C243.636 139.955 244.286 140.099 244.846 140.28L243.039 139.81Z" fill="#EDF2F7"/>
    <path d="M242.936 140.407L244.744 140.859C244.82 140.874 244.898 140.874 244.974 140.859C245.05 140.844 245.123 140.813 245.187 140.769C245.251 140.726 245.306 140.669 245.347 140.604C245.389 140.538 245.418 140.465 245.431 140.389C245.457 140.233 245.42 140.073 245.329 139.944C245.237 139.816 245.098 139.728 244.943 139.702C244.346 139.521 243.713 139.376 243.135 139.232C242.557 139.087 242.195 140.226 242.936 140.407Z" fill="#EDF2F7"/>
    <path d="M244.474 136.304C244.022 136.412 243.552 136.593 243.082 136.72L244.474 136.304Z" fill="#EDF2F7"/>
    <path d="M244.278 135.743C243.808 135.852 243.357 136.033 242.887 136.159C242.741 136.216 242.623 136.326 242.556 136.467C242.489 136.608 242.478 136.769 242.525 136.918C242.586 137.065 242.699 137.184 242.843 137.251C242.987 137.318 243.151 137.328 243.302 137.28C243.772 137.153 244.224 136.972 244.694 136.864C244.84 136.804 244.958 136.689 245.022 136.544C245.086 136.399 245.091 136.236 245.038 136.087C244.981 135.942 244.87 135.825 244.728 135.761C244.586 135.696 244.425 135.69 244.278 135.743Z" fill="#EDF2F7"/>
    <path d="M241.251 133.755C240.838 133.959 240.465 134.234 240.148 134.569L241.251 133.755Z" fill="#EDF2F7"/>
    <path d="M240.906 133.304C240.448 133.541 240.032 133.852 239.677 134.225C239.568 134.337 239.508 134.486 239.508 134.641C239.508 134.796 239.568 134.945 239.677 135.057C239.791 135.166 239.943 135.227 240.101 135.227C240.26 135.227 240.412 135.166 240.526 135.057C240.814 134.761 241.15 134.516 241.52 134.334C241.645 134.243 241.729 134.108 241.756 133.956C241.783 133.805 241.75 133.648 241.665 133.52C241.573 133.392 241.436 133.303 241.282 133.273C241.127 133.243 240.966 133.273 240.833 133.358L240.906 133.304Z" fill="#EDF2F7"/>
    <path d="M237.188 131.803C236.715 132.075 236.317 132.46 236.031 132.924L237.188 131.803Z" fill="#EDF2F7"/>
    <path d="M236.984 131.243C236.35 131.555 235.826 132.053 235.483 132.671C235.441 132.808 235.45 132.955 235.508 133.086C235.565 133.217 235.668 133.323 235.798 133.385C235.927 133.446 236.074 133.459 236.212 133.421C236.351 133.383 236.47 133.296 236.55 133.177C236.569 133.123 236.6 133.073 236.64 133.032L236.911 132.743L237.128 132.562L237.291 132.454C237.433 132.394 237.547 132.282 237.611 132.141C237.674 132.001 237.683 131.841 237.634 131.695C237.581 131.547 237.471 131.425 237.329 131.358C237.187 131.29 237.024 131.281 236.875 131.333L236.984 131.243Z" fill="#EDF2F7"/>
    <path d="M234.309 129.725C233.961 130.025 233.709 130.421 233.586 130.863L234.309 129.725Z" fill="#EDF2F7"/>
    <path d="M233.98 129.237C233.556 129.604 233.238 130.078 233.058 130.61C233.008 130.752 233.012 130.907 233.071 131.045C233.13 131.183 233.238 131.294 233.375 131.355C233.512 131.417 233.667 131.425 233.809 131.377C233.952 131.329 234.071 131.23 234.143 131.098C234.234 130.761 234.416 130.455 234.667 130.213C235.3 129.797 234.667 128.821 233.98 129.237Z" fill="#EDF2F7"/>
    <path d="M228.738 128.695C228.761 129.185 228.846 129.671 228.991 130.14L228.738 128.695Z" fill="#EDF2F7"/>
    <path d="M228.135 128.749C228.176 129.288 228.273 129.821 228.424 130.339C228.486 130.476 228.596 130.585 228.734 130.644C228.872 130.703 229.027 130.708 229.168 130.658C229.31 130.607 229.427 130.506 229.497 130.373C229.566 130.241 229.584 130.087 229.545 129.942C229.42 129.518 229.347 129.081 229.328 128.64C229.314 128.482 229.237 128.336 229.115 128.234C228.993 128.133 228.836 128.084 228.678 128.098C228.519 128.112 228.373 128.189 228.272 128.311C228.17 128.433 228.121 128.591 228.135 128.749Z" fill="#EDF2F7"/>
    <path d="M225.031 130.357C225.464 130.527 225.839 130.815 226.116 131.189L225.031 130.357Z" fill="#EDF2F7"/>
    <path d="M224.777 130.899C225.117 131.021 225.412 131.241 225.626 131.532C226.078 132.147 227.054 131.532 226.602 130.845C226.266 130.386 225.809 130.03 225.283 129.815C225.138 129.752 224.975 129.747 224.827 129.801C224.679 129.855 224.558 129.963 224.487 130.104C224.429 130.249 224.426 130.41 224.479 130.557C224.533 130.704 224.639 130.826 224.777 130.899Z" fill="#EDF2F7"/>
    <path d="M223.453 134.749C223.855 134.635 224.266 134.556 224.682 134.514L223.453 134.749Z" fill="#EDF2F7"/>
    <path d="M223.645 135.31C224 135.213 224.363 135.146 224.73 135.111C224.815 135.116 224.901 135.102 224.981 135.071C225.061 135.039 225.133 134.991 225.193 134.93C225.252 134.868 225.298 134.794 225.326 134.713C225.354 134.632 225.365 134.546 225.357 134.461C225.349 134.375 225.323 134.292 225.28 134.218C225.238 134.144 225.179 134.079 225.109 134.03C225.04 133.98 224.96 133.946 224.876 133.93C224.791 133.913 224.705 133.916 224.621 133.936C224.15 133.975 223.684 134.059 223.23 134.189C223.081 134.244 222.96 134.356 222.894 134.5C222.828 134.644 222.822 134.809 222.877 134.957C222.932 135.106 223.044 135.226 223.188 135.293C223.332 135.359 223.497 135.365 223.645 135.31Z" fill="#EDF2F7"/>
    <path d="M228.223 135.563C227.843 135.78 227.536 136.195 227.156 136.394L228.223 135.563Z" fill="#EDF2F7"/>
    <path d="M227.878 135.021C227.499 135.255 227.21 135.617 226.812 135.852C226.682 135.943 226.595 136.082 226.567 136.238C226.54 136.394 226.576 136.554 226.667 136.683C226.758 136.813 226.897 136.901 227.053 136.928C227.209 136.955 227.369 136.919 227.499 136.828C227.896 136.611 228.167 136.231 228.547 135.997C228.672 135.903 228.758 135.766 228.788 135.612C228.818 135.459 228.79 135.299 228.71 135.165C228.665 135.101 228.607 135.046 228.541 135.004C228.475 134.962 228.401 134.934 228.324 134.921C228.247 134.907 228.168 134.909 228.091 134.926C228.015 134.943 227.942 134.975 227.878 135.021Z" fill="#EDF2F7"/>
    <path d="M228.48 132.96C228.876 133.098 229.221 133.35 229.475 133.683L228.48 132.96Z" fill="#EDF2F7"/>
    <path d="M228.229 133.502C228.527 133.589 228.788 133.774 228.97 134.026C229.059 134.158 229.196 134.249 229.352 134.28C229.508 134.31 229.669 134.278 229.801 134.189C229.933 134.1 230.024 133.963 230.055 133.807C230.085 133.651 230.053 133.489 229.964 133.358C229.658 132.928 229.23 132.6 228.735 132.418C228.59 132.355 228.428 132.35 228.28 132.404C228.132 132.458 228.01 132.566 227.94 132.707C227.906 132.778 227.887 132.855 227.883 132.934C227.88 133.012 227.892 133.091 227.919 133.165C227.946 133.239 227.987 133.307 228.04 133.364C228.093 133.422 228.157 133.469 228.229 133.502Z" fill="#EDF2F7"/>
    <path d="M231.389 132.165L231.715 133.755C231.737 133.909 231.816 134.048 231.937 134.145C232.058 134.242 232.211 134.29 232.365 134.279C232.522 134.261 232.665 134.184 232.766 134.062C232.867 133.941 232.918 133.786 232.907 133.629L232.582 132.056C232.575 131.978 232.552 131.902 232.516 131.832C232.479 131.763 232.429 131.701 232.369 131.65C232.309 131.6 232.239 131.562 232.164 131.539C232.089 131.515 232.01 131.507 231.931 131.514C231.853 131.521 231.777 131.544 231.707 131.58C231.638 131.617 231.576 131.667 231.526 131.727C231.475 131.788 231.437 131.857 231.414 131.932C231.39 132.007 231.382 132.086 231.389 132.165Z" fill="#EDF2F7"/>
    <path d="M231.625 137.75C231.354 138.093 230.992 138.382 230.703 138.726L231.625 137.75Z" fill="#EDF2F7"/>
    <path d="M231.165 137.37C230.876 137.714 230.532 138.003 230.243 138.346C229.954 138.69 230.659 139.702 231.147 139.105C231.436 138.78 231.78 138.473 232.069 138.147C232.164 138.027 232.21 137.874 232.195 137.72C232.18 137.567 232.107 137.425 231.99 137.325C231.873 137.224 231.722 137.173 231.568 137.181C231.415 137.19 231.27 137.257 231.165 137.37Z" fill="#EDF2F7"/>
    <path d="M234.714 138.997C234.569 139.591 234.569 140.21 234.714 140.804V138.997Z" fill="#EDF2F7"/>
    <path d="M234.17 138.744C233.943 139.498 233.943 140.303 234.17 141.057C234.226 141.203 234.337 141.321 234.478 141.388C234.619 141.455 234.78 141.466 234.929 141.419C235.074 141.362 235.191 141.251 235.255 141.109C235.319 140.967 235.325 140.806 235.272 140.66C235.163 140.196 235.163 139.714 235.272 139.25C235.336 139.108 235.344 138.946 235.294 138.799C235.243 138.651 235.139 138.528 235.001 138.455C234.93 138.421 234.853 138.402 234.774 138.398C234.696 138.395 234.617 138.407 234.543 138.434C234.469 138.461 234.401 138.502 234.344 138.555C234.286 138.608 234.239 138.672 234.206 138.744H234.17Z" fill="#EDF2F7"/>
    <path d="M236.803 135.129C236.26 135.264 235.746 135.497 235.285 135.816L236.803 135.129Z" fill="#EDF2F7"/>
    <path d="M236.633 134.569C236.047 134.732 235.492 134.988 234.988 135.328C234.924 135.373 234.869 135.43 234.827 135.496C234.785 135.562 234.757 135.636 234.743 135.713C234.73 135.791 234.732 135.87 234.749 135.946C234.766 136.023 234.798 136.095 234.843 136.159C234.887 136.223 234.942 136.277 235.007 136.319C235.071 136.36 235.144 136.389 235.219 136.402C235.295 136.416 235.373 136.414 235.448 136.397C235.523 136.38 235.594 136.348 235.657 136.304C236.083 136.022 236.553 135.815 237.048 135.689C237.122 135.662 237.189 135.62 237.247 135.567C237.304 135.514 237.351 135.449 237.384 135.378C237.416 135.307 237.435 135.23 237.438 135.151C237.441 135.073 237.428 134.995 237.401 134.921C237.373 134.847 237.332 134.78 237.279 134.722C237.225 134.665 237.161 134.618 237.09 134.586C237.018 134.553 236.941 134.535 236.863 134.532C236.784 134.529 236.706 134.541 236.633 134.569Z" fill="#EDF2F7"/>
    <path d="M238.488 138.292C238.928 137.865 239.479 137.57 240.079 137.443L238.488 138.292Z" fill="#EDF2F7"/>
    <path d="M238.934 138.689C239.315 138.342 239.784 138.105 240.289 138.003C241.012 137.768 240.596 136.647 239.873 136.882C239.187 137.051 238.561 137.408 238.066 137.912C237.578 138.491 238.482 139.268 238.97 138.689H238.934Z" fill="#EDF2F7"/>
    <path d="M238.04 140.407C238.04 140.895 238.04 141.437 237.949 141.907L238.04 140.407Z" fill="#EDF2F7"/>
    <path d="M237.442 140.316C237.442 140.804 237.442 141.31 237.442 141.798C237.423 141.95 237.464 142.104 237.556 142.227C237.648 142.349 237.783 142.432 237.934 142.458C238.086 142.483 238.241 142.45 238.368 142.364C238.495 142.278 238.584 142.147 238.617 141.997C238.617 141.509 238.617 141.003 238.707 140.515C238.725 140.363 238.684 140.21 238.593 140.087C238.501 139.964 238.365 139.881 238.214 139.856C238.063 139.83 237.908 139.864 237.781 139.949C237.654 140.035 237.565 140.167 237.532 140.316H237.442Z" fill="#EDF2F7"/>
    <path d="M232.594 135.942C232.653 136.098 232.753 136.235 232.883 136.34L232.594 135.942Z" fill="#EDF2F7"/>
    <path d="M232.035 136.159C232.141 136.398 232.295 136.614 232.487 136.792C232.601 136.901 232.754 136.962 232.912 136.962C233.07 136.962 233.222 136.901 233.337 136.792C233.442 136.675 233.5 136.524 233.5 136.367C233.5 136.21 233.442 136.059 233.337 135.942L233.427 136.051C233.356 135.968 233.296 135.877 233.246 135.78V135.906C233.19 135.762 233.08 135.645 232.939 135.581C232.868 135.549 232.791 135.533 232.713 135.533C232.635 135.533 232.558 135.549 232.487 135.581C232.341 135.642 232.22 135.75 232.144 135.888C232.09 136.04 232.09 136.206 232.144 136.358L232.035 136.159Z" fill="#EDF2F7"/>
    <path d="M144.756 72.3027C144.756 72.4834 144.756 72.3027 144.847 72.1219C144.918 71.8729 144.973 71.6192 145.009 71.3628C145.108 70.8366 145.181 70.3057 145.226 69.7723L146.347 70.2783C146.819 70.5991 147.386 70.7518 147.956 70.7121C147.965 70.6956 147.97 70.6769 147.97 70.6579C147.97 70.6389 147.965 70.6202 147.956 70.6037C147.903 70.317 147.782 70.0472 147.602 69.8175C147.423 69.5878 147.191 69.4048 146.925 69.2843C146.395 68.9496 145.832 68.6709 145.244 68.4528L145.534 65.0729L145.949 65.3079L147.016 65.9405C147.077 65.981 147.148 66.0051 147.221 66.0107C147.295 66.0163 147.368 66.0031 147.435 65.9723C147.502 65.9416 147.56 65.8943 147.604 65.835C147.647 65.7757 147.675 65.7063 147.684 65.6332V64.2054C147.684 63.9162 147.684 63.6089 147.793 63.3017L149.04 64.0969L150.341 65.0006C150.087 65.9479 150.087 66.9453 150.341 67.8925C150.364 67.9606 150.408 68.0197 150.466 68.0616C150.525 68.1035 150.595 68.126 150.667 68.126C150.738 68.126 150.809 68.1035 150.867 68.0616C150.925 68.0197 150.969 67.9606 150.992 67.8925C151.203 67.2123 151.324 66.5075 151.353 65.7959C151.916 66.4165 152.575 66.9415 153.306 67.3503C153.345 67.3641 153.387 67.3671 153.428 67.3591C153.469 67.3511 153.507 67.3323 153.538 67.3047C153.57 67.2771 153.593 67.2416 153.606 67.202C153.619 67.1624 153.622 67.12 153.613 67.0792C153.305 66.1037 152.69 65.254 151.86 64.6572C152.438 63.9162 153.667 63.9162 154.39 63.374C154.406 63.3588 154.418 63.3405 154.427 63.3203C154.436 63.3001 154.44 63.2784 154.44 63.2565C154.44 63.2345 154.436 63.2128 154.427 63.1926C154.418 63.1724 154.406 63.1542 154.39 63.139C154.082 63.0046 153.75 62.9353 153.414 62.9353C153.078 62.9353 152.746 63.0046 152.438 63.139C151.86 63.2509 151.341 63.5648 150.974 64.0246L150.305 63.5728C149.727 63.1751 149.13 62.7956 148.498 62.416C149.04 62.1268 149.6 61.8557 150.143 61.5304C150.199 61.4959 150.247 61.45 150.284 61.3957C150.321 61.3414 150.347 61.2799 150.359 61.2151C150.371 61.1504 150.369 61.0838 150.353 61.0198C150.338 60.9558 150.309 60.8957 150.269 60.8435C149.957 60.5 149.598 60.2019 149.203 59.9579C150.215 59.5603 151.191 59.1265 152.167 58.6746C152.454 59.0576 152.833 59.3622 153.269 59.5603C153.598 59.714 153.955 59.8 154.318 59.8133C154.61 59.7947 154.892 59.6945 155.131 59.5241C155.131 59.5241 155.131 59.4337 155.131 59.4157C155.131 59.3976 154.788 59.1084 154.607 59L153.956 58.6566C153.735 58.5223 153.529 58.3648 153.342 58.1866C154.235 57.9281 155.062 57.4778 155.764 56.8672C155.8 56.826 155.824 56.7759 155.835 56.7221C155.845 56.6682 155.841 56.6126 155.822 56.5609C155.804 56.5093 155.772 56.4635 155.73 56.4284C155.688 56.3933 155.637 56.37 155.583 56.3611C154.552 56.3607 153.547 56.683 152.709 57.2829C152.709 56.9937 152.709 56.6684 152.709 56.3973C152.906 55.8601 152.962 55.2813 152.872 54.7164C152.858 54.701 152.841 54.6886 152.823 54.6802C152.804 54.6718 152.784 54.6674 152.763 54.6674C152.743 54.6674 152.722 54.6718 152.704 54.6802C152.685 54.6886 152.668 54.701 152.655 54.7164C152.149 55.2224 151.137 57.0479 151.607 57.8613C150.793 58.2408 149.998 58.6204 149.167 58.9638L147.992 59.4518C147.992 59.1265 147.992 58.765 148.118 58.4577C148.235 57.9768 148.235 57.4747 148.118 56.9937C148.092 56.893 148.03 56.8056 147.943 56.7488C147.856 56.6919 147.751 56.6697 147.648 56.6865C147.083 56.8186 146.532 57.0063 146.004 57.2468H145.877C145.877 55.9093 146.022 54.5718 146.076 53.2343V53.0354C146.902 52.7157 147.657 52.2367 148.299 51.6256C148.324 51.6076 148.343 51.5828 148.355 51.5541C148.366 51.5255 148.369 51.4942 148.363 51.4639C148.358 51.4336 148.344 51.4055 148.323 51.3829C148.302 51.3604 148.275 51.3443 148.245 51.3365C147.772 51.3422 147.306 51.4404 146.871 51.6256L146.184 51.8606C146.257 51.1274 146.257 50.3888 146.184 49.6555C146.172 49.6151 146.146 49.5797 146.112 49.5546C146.078 49.5295 146.037 49.516 145.994 49.516C145.952 49.516 145.911 49.5295 145.877 49.5546C145.843 49.5797 145.817 49.6151 145.805 49.6555C145.604 50.4984 145.477 51.3572 145.425 52.2221L144.63 51.5172C144.305 51.1738 143.907 50.6677 143.437 50.5773C143.437 50.5773 143.274 50.5773 143.292 50.7039C143.422 51.2039 143.684 51.6597 144.051 52.0233C144.395 52.4932 144.756 52.9812 145.154 53.4331C145.064 54.626 144.973 55.8189 144.865 57.0479L144.72 56.9395C144.227 56.5707 143.707 56.2385 143.166 55.9454C143.109 55.9078 143.043 55.8855 142.975 55.8806C142.907 55.8757 142.839 55.8884 142.777 55.9174C142.716 55.9464 142.662 55.9909 142.623 56.0464C142.583 56.102 142.559 56.1668 142.551 56.2346C142.551 56.7226 141.991 57.5721 141.901 58.2408L139.605 56.7768C139.226 56.5599 138.864 56.2888 138.485 56.0358C138.521 55.7477 138.521 55.4563 138.485 55.1682C138.485 54.8609 138.485 54.5356 138.485 54.2103C138.485 53.8849 138.376 53.1258 137.87 52.8366C137.762 53.415 137.744 54.0115 137.671 54.6441C137.66 54.8608 137.66 55.078 137.671 55.2947C136.814 54.5918 135.858 54.0193 134.834 53.5957C134.834 53.5957 134.707 53.5957 134.834 53.7042C135.379 54.768 136.212 55.6573 137.237 56.2707L136.406 56.7045C135.858 56.8765 135.339 57.1326 134.87 57.4637C134.858 57.4721 134.849 57.483 134.843 57.4955C134.837 57.5081 134.834 57.5219 134.834 57.5359C134.834 57.55 134.837 57.5638 134.843 57.5764C134.849 57.5889 134.858 57.5998 134.87 57.6082C135.418 57.7496 135.999 57.6986 136.514 57.4637C137.069 57.3443 137.604 57.1497 138.105 56.8853L138.882 57.3914L141.539 59.1988L141.16 59.4338L139.659 60.3736C139.599 60.4086 139.55 60.4588 139.515 60.519C139.48 60.5793 139.462 60.6475 139.462 60.717C139.462 60.7865 139.48 60.8548 139.515 60.915C139.55 60.9753 139.599 61.0254 139.659 61.0604L141.105 62.0364L141.413 62.2533L138.882 63.4101C138.852 63.3414 138.807 63.28 138.751 63.2301C138.695 63.1802 138.629 63.143 138.557 63.1209C137.94 62.8757 137.337 62.5982 136.749 62.2895C136.352 62.0125 135.878 61.8671 135.394 61.8738C135.394 62.416 135.954 62.7956 136.37 63.0667C136.831 63.3842 137.314 63.6681 137.816 63.9162C137 64.2306 136.228 64.6498 135.52 65.1633C135.412 65.1633 135.52 65.3983 135.629 65.3802C136.393 65.1891 137.133 64.9101 137.834 64.5488C137.725 65.0729 137.617 65.6152 137.545 66.1574C137.472 66.6996 137.364 67.1876 137.762 67.3864C138.159 67.5853 138.991 64.5126 139.117 63.9885L142.172 62.7413C142.172 63.0667 142.172 63.4282 142.172 63.7354C142.172 64.0427 142.172 64.7657 142.172 65.2718C142.172 65.4886 142.389 65.7417 142.624 65.6513L144.847 64.9103C144.847 66.1393 144.684 67.3503 144.612 68.5251C143.65 69.0414 142.835 69.794 142.244 70.7121C142.244 70.8929 142.244 71.164 142.515 71.1098C143.27 70.8382 143.964 70.4205 144.558 69.8807C144.558 70.3326 144.558 70.7844 144.558 71.2543C144.558 71.7243 144.558 71.7604 144.558 72.0135C144.558 72.2665 144.558 72.4111 144.558 72.2304C144.583 72.2571 144.614 72.2776 144.648 72.2902C144.683 72.3027 144.72 72.307 144.756 72.3027ZM142.407 62.5606L142.768 62.416L144.576 61.7111L144.413 63.9704L142.407 64.8018C142.407 64.4765 142.407 64.1511 142.407 63.8439C142.438 63.4046 142.438 62.9637 142.407 62.5245V62.5606ZM142.045 59.5422L144.07 60.8978L142.606 61.5123L142.136 61.7292C141.898 61.5379 141.644 61.3685 141.376 61.2231L140.382 60.6086L141.376 59.9037L142.045 59.5422ZM144.955 57.8432L144.793 60.0663L142.822 58.7108C142.949 58.3937 143.052 58.0674 143.13 57.7348C143.242 57.4574 143.339 57.1737 143.419 56.8853L144.612 57.6082L144.955 57.8432ZM147.522 59.6506L145.714 60.3375C145.714 59.5964 145.714 58.8734 145.841 58.1505L146.238 57.9878C146.614 57.8166 147 57.6717 147.395 57.554C147.328 58.2552 147.37 58.9627 147.522 59.6506ZM147.793 62.0364L146.275 61.0966L148.245 60.3194C148.57 60.5724 148.968 60.7893 149.293 61.0604C148.751 61.3496 148.245 61.6388 147.793 61.9642V62.0364ZM145.588 64.3138C145.588 63.5547 145.588 62.7775 145.714 62.0184L146.998 62.8317C146.971 63.2952 146.971 63.7599 146.998 64.2234V64.9826L146.437 64.6572L145.588 64.3138Z" fill="#EDF2F7"/>
    <path d="M142.245 99.8117C142.459 98.8168 142.96 97.9065 143.686 97.1933C144.412 96.4802 145.331 95.9955 146.33 95.7992C147.408 95.6663 148.502 95.8606 149.469 96.3569C150.436 96.8533 151.231 97.6287 151.752 98.5826C152.714 100.424 153.163 102.49 153.053 104.565C153.096 105.634 152.779 106.687 152.153 107.555C151.527 108.423 150.629 109.057 149.601 109.355C148.624 109.576 147.603 109.494 146.673 109.12C143.149 108.252 141.504 102.866 142.245 99.8117Z" fill="#1F0800"/>
    <path d="M123.894 99.0165C123.676 98.0272 123.173 97.1235 122.447 96.4169C121.721 95.7103 120.804 95.2317 119.81 95.0402C118.747 94.9244 117.674 95.1251 116.726 95.6171C115.777 96.1091 114.995 96.8705 114.478 97.8055C113.516 99.6538 113.067 101.726 113.176 103.806C113.117 104.591 113.262 105.379 113.597 106.091C113.932 106.804 114.445 107.418 115.086 107.875C115.728 108.331 116.477 108.614 117.26 108.696C118.043 108.778 118.834 108.656 119.556 108.343C122.936 107.475 124.635 102.089 123.894 99.0165Z" fill="#1F0800"/>
    <path d="M151.695 131.948C150.809 132.978 149.887 133.99 148.875 134.948C147.862 135.816 146.8 136.625 145.694 137.37C144.646 138.165 143.471 138.762 142.35 139.449C138.783 141.73 134.597 142.854 130.367 142.666C127.554 142.422 124.834 141.538 122.414 140.081C119.577 138.527 117.299 136.159 114.516 134.659C114.445 134.625 114.365 134.614 114.288 134.627C114.211 134.641 114.139 134.678 114.084 134.733C114.028 134.789 113.991 134.86 113.978 134.937C113.965 135.015 113.976 135.094 114.01 135.165C115.673 137.738 117.778 139.995 120.227 141.835C122.681 143.862 125.622 145.214 128.758 145.757C132.012 146.326 135.354 146.128 138.518 145.178C141.551 144.335 144.322 142.744 146.58 140.551C147.227 139.995 147.831 139.391 148.387 138.744L149.725 136.936C150.712 135.484 151.548 133.933 152.219 132.309C152.363 131.948 151.966 131.623 151.695 131.948Z" fill="#1F0800"/>
    <path d="M128.527 125.947C132.322 125.947 136.371 124.664 138.323 121.176C139.031 119.868 139.439 118.419 139.517 116.934C139.595 115.449 139.342 113.965 138.775 112.59C138.479 111.645 137.922 110.804 137.166 110.164C136.411 109.524 135.49 109.112 134.509 108.975C134.379 108.938 134.242 108.938 134.112 108.975C126.087 109.698 117.845 112.952 109.946 110.006C109.368 109.789 108.88 110.349 108.844 110.855C107.976 120.615 120.447 125.875 128.527 125.947Z" fill="#F7931E"/>
    <path d="M138.775 112.59C138.48 111.645 137.922 110.804 137.167 110.164C136.411 109.524 135.49 109.112 134.509 108.975C134.38 108.938 134.242 108.938 134.112 108.975L132.81 109.12C133.28 109.664 133.67 110.273 133.967 110.927C134.531 112.304 134.782 113.788 134.701 115.273C134.619 116.758 134.208 118.206 133.497 119.513C131.545 123.001 127.497 124.32 123.701 124.284C121.929 124.254 120.165 124.03 118.441 123.616C121.622 125.026 125.049 125.799 128.527 125.893C132.322 125.893 136.371 124.61 138.323 121.121C139.023 119.821 139.426 118.381 139.505 116.906C139.583 115.431 139.334 113.958 138.775 112.59Z" fill="#F08100"/>
    <path d="M111.251 114.669C112.227 114.289 113.474 113.404 113.402 112.211C113.402 111.813 112.751 111.669 112.661 112.102C112.593 112.586 112.42 113.048 112.155 113.458C111.887 113.879 111.572 114.267 111.215 114.615L111.251 114.669Z" fill="#FFC285"/>
    <path d="M116.777 112.066C116.904 112.368 117.068 112.654 117.265 112.916C117.498 113.337 117.628 113.808 117.645 114.289C117.645 115.085 117.392 115.826 117.41 116.603C117.412 116.638 117.423 116.672 117.442 116.701C117.46 116.731 117.486 116.756 117.516 116.774C117.546 116.791 117.58 116.802 117.615 116.803C117.65 116.805 117.685 116.798 117.717 116.784C118.657 116.296 118.747 114.976 118.585 114.054C118.422 113.133 117.988 111.759 116.976 111.813C116.945 111.812 116.913 111.818 116.885 111.831C116.856 111.844 116.831 111.864 116.812 111.889C116.793 111.914 116.779 111.943 116.773 111.973C116.767 112.004 116.769 112.036 116.777 112.066Z" fill="#FFC285"/>
    <path d="M121.221 117.633C120.88 118.392 120.381 119.07 119.757 119.621C119.287 120.055 118.257 120.398 118.094 121.067C118.083 121.104 118.08 121.142 118.084 121.181C118.088 121.219 118.099 121.256 118.118 121.29C118.136 121.323 118.161 121.353 118.191 121.377C118.222 121.401 118.256 121.418 118.293 121.429C119.052 121.573 119.992 120.597 120.498 120.091C121.104 119.439 121.434 118.577 121.42 117.687C121.42 117.687 121.257 117.543 121.221 117.687V117.633Z" fill="#FFC285"/>
    <path d="M124.985 115.392C124.981 115.674 125.024 115.955 125.111 116.223C125.156 116.583 125.156 116.948 125.111 117.308C125.111 117.868 124.822 118.537 125.201 119.007C125.248 119.05 125.31 119.074 125.373 119.074C125.437 119.074 125.498 119.05 125.545 119.007C126.177 118.428 126.268 115.301 124.985 115.392Z" fill="#FFC285"/>
    <path d="M128.524 111.379C129.662 111.578 129.699 113.187 129.807 114.072C129.807 114.615 130.331 116.277 131.054 115.283C131.777 114.289 131.054 112.879 130.675 112.066C130.295 111.253 129.409 110.548 128.488 111.036C128.451 111.048 128.42 111.071 128.398 111.102C128.375 111.132 128.363 111.17 128.363 111.208C128.363 111.246 128.375 111.283 128.398 111.314C128.42 111.344 128.451 111.367 128.488 111.379H128.524Z" fill="#FFC285"/>
    <path d="M130.812 119.603C130.812 120.688 129.891 121.664 129.204 122.35C128.951 122.621 127.921 123.76 128.933 123.796C129.945 123.832 130.559 122.423 130.903 121.88C131.174 121.555 131.342 121.156 131.387 120.735C131.432 120.314 131.352 119.888 131.156 119.513C131.156 119.368 130.794 119.422 130.812 119.513V119.603Z" fill="#FFC285"/>
    <path d="M246.649 227.742C240.473 226.784 234.681 224.138 229.912 220.096C224.732 215.996 220.177 211.161 216.393 205.745C213.277 201.166 210.676 196.256 208.639 191.105C206.634 185.908 204.216 180.879 201.409 176.067C198.427 171.223 194.487 166.849 188.974 165.006C188.935 164.855 188.861 164.715 188.757 164.599C188.653 164.482 188.523 164.393 188.378 164.337C183.949 162.421 177.931 165.295 174.533 168.133C170.141 171.747 171.442 177.802 172.563 182.719C174.153 189.677 175.581 196.654 177.352 203.558C178.383 207.571 179.467 211.565 180.551 215.56C181.122 217.87 181.877 220.13 182.811 222.319C185.028 227.047 187.742 231.524 190.908 235.676C194.294 240.416 198.191 244.768 202.53 248.654C204.436 250.37 206.507 251.896 208.711 253.208C209.669 253.769 210.916 254.69 212.037 254.239L212.453 254.04C215.164 252.756 217.875 251.365 220.423 249.937C224.942 247.479 229.352 244.876 233.618 242.002C237.968 239.22 241.978 235.939 245.565 232.224C246.331 231.399 247.049 230.53 247.716 229.621C248.348 228.844 247.481 227.904 246.649 227.742Z" fill="#FF5020"/>
    <path d="M247.002 227.904C240.83 226.931 235.042 224.287 230.265 220.259C225.078 216.124 220.523 211.253 216.746 205.799C213.623 201.221 211.017 196.311 208.974 191.159C206.976 185.964 204.559 180.941 201.744 176.14C201.527 175.76 201.274 175.38 201.039 175.019C201.599 176.176 202.124 177.35 202.63 178.525C204.636 183.225 206.244 188.069 208.052 192.876C209.752 197.764 211.719 202.555 213.944 207.227C216.257 211.919 219.121 216.318 222.475 220.331C225.671 224.403 229.717 227.728 234.332 230.073C234.42 230.13 234.488 230.213 234.527 230.31C234.565 230.407 234.573 230.514 234.549 230.615C233.758 233.517 232.598 236.305 231.097 238.912C228.78 242.781 225.822 246.228 222.349 249.106C226.289 246.919 230.175 244.587 233.916 242.075C238.263 239.287 242.272 236.006 245.863 232.296C246.629 231.464 247.347 230.589 248.014 229.676C248.701 228.935 247.833 227.995 247.002 227.904Z" fill="#D34F2B" fill-opacity="0.64"/>
    <path d="M198.465 161.933C198.274 160.133 197.917 158.354 197.399 156.619C196.71 154.653 196.155 152.642 195.736 150.601C195.122 146.588 196.098 142.395 194.832 138.473C193.627 134.923 191.529 131.743 188.741 129.237C187.459 128.025 185.988 127.03 184.386 126.291C184.12 126.144 183.809 126.105 183.516 126.182C183.223 126.26 182.971 126.448 182.813 126.706C181.569 128.773 180.154 130.731 178.584 132.562C175.792 135.475 172.597 137.97 169.095 139.973C162.315 144.621 154.563 147.657 146.429 148.847C136.516 150.152 126.472 150.109 116.571 148.721C105.455 146.913 97.6288 141.365 90.3991 132.906C89.4231 131.767 88.5917 130.918 86.9288 131.351C85.7964 131.787 84.7711 132.461 83.9228 133.328C83.0744 134.195 82.4229 135.234 82.0126 136.376C80.9635 139.091 80.2591 141.927 79.916 144.817C79.6775 147.5 79.0188 150.129 77.964 152.607C75.8131 156.89 73.0839 162.765 74.3491 167.572C77.6748 180.224 113.245 187.852 143.248 187.291C158.593 187.02 185.145 185.484 196.152 172.019C197.184 170.573 197.919 168.938 198.316 167.207C198.713 165.476 198.764 163.684 198.465 161.933Z" fill="#FF5020"/>
    <path d="M198.476 161.933C198.285 160.133 197.928 158.354 197.41 156.619C196.721 154.653 196.165 152.642 195.747 150.601C195.132 146.588 196.108 142.395 194.843 138.473C193.637 134.923 191.54 131.743 188.752 129.237C187.47 128.025 185.998 127.03 184.396 126.291C184.131 126.144 183.819 126.105 183.526 126.182C183.233 126.26 182.982 126.448 182.824 126.706C181.579 128.773 180.165 130.731 178.594 132.562C178.305 132.888 177.998 133.213 177.691 133.52C179.25 132.759 180.985 132.428 182.715 132.562C183.785 132.701 184.797 133.128 185.644 133.796C186.49 134.464 187.14 135.35 187.523 136.358C188.171 137.859 188.497 139.479 188.478 141.114C188.459 142.749 188.097 144.361 187.415 145.847C185.721 148.715 183.382 151.147 180.583 152.95C179.444 153.836 178.305 154.758 177.112 155.535C175.815 156.325 174.666 157.334 173.714 158.517C173.52 158.715 173.374 158.954 173.288 159.217C173.201 159.48 173.176 159.76 173.214 160.034C173.253 160.308 173.354 160.57 173.509 160.799C173.665 161.028 173.871 161.218 174.112 161.355C175.274 161.92 176.564 162.17 177.853 162.078C180.583 162.078 183.276 161.301 186.005 162.078C186.994 162.283 187.863 162.867 188.427 163.704C188.641 164.103 188.774 164.539 188.817 164.989C188.861 165.439 188.814 165.894 188.68 166.325C187.726 168.824 186.005 170.957 183.764 172.416C180.46 174.756 176.847 176.624 173.028 177.965C164.661 181.179 155.842 183.064 146.892 183.55C137.66 183.824 128.42 183.456 119.238 182.448C112.732 181.887 106.225 181.291 99.7723 180.098C93.18 178.989 86.7586 177.033 80.6678 174.278C79.6315 173.772 78.6615 173.26 77.7578 172.742C87.8794 182.303 117.63 187.779 143.313 187.291C158.658 187.02 185.21 185.484 196.217 172.019C197.239 170.569 197.965 168.932 198.353 167.201C198.74 165.471 198.782 163.68 198.476 161.933Z" fill="#D34F2B" fill-opacity="0.64"/>
    <path d="M89.5005 137.37C89.139 137.117 89.5005 136.738 89.5005 137.37V137.37Z" fill="#FC6238"/>
    <path d="M162.18 148.63C160.591 148.134 158.889 148.134 157.3 148.63C155.095 149.028 152.926 149.606 150.739 150.167L148.1 150.836L147.197 151.034H146.925C147.088 151.034 146.094 151.034 145.913 151.143C142.063 151.522 138.196 151.775 134.31 151.848C126.66 152.179 119.004 151.338 111.608 149.353C104.545 147.225 97.9212 143.845 92.0518 139.376C91.5277 138.979 91.0035 138.563 90.4974 138.129L89.7925 137.479C89.7131 137.384 89.6286 137.293 89.5395 137.208C89.5582 137.454 89.5582 137.702 89.5395 137.949C89.8648 136.141 87.0633 135.328 86.738 137.171C86.6779 137.494 86.6957 137.826 86.79 138.141C86.8843 138.455 87.0524 138.742 87.2802 138.979C87.6598 142.467 90.3709 145.522 93.0459 147.6C97.071 150.566 101.511 152.922 106.222 154.595C119.462 159.692 133.872 160.945 147.793 158.21C151.308 157.596 154.762 156.671 158.113 155.444C159.897 154.88 161.487 153.828 162.704 152.408C162.931 152.131 163.097 151.81 163.194 151.465C163.29 151.12 163.315 150.76 163.266 150.405C163.216 150.05 163.095 149.71 162.908 149.405C162.721 149.099 162.473 148.836 162.18 148.63Z" fill="#FC6238"/>
    <path d="M135.68 168.476C127.311 166.199 118.509 166.542 110.141 164.247C106.161 163.18 102.279 161.777 98.5369 160.053C96.838 159.258 95.1932 158.354 93.5846 157.415C92.814 156.445 91.9069 155.593 90.8915 154.884C89.5902 153.926 88.3611 152.932 87.0959 151.938C86.632 151.462 86.0642 151.1 85.437 150.881C84.8099 150.661 84.1404 150.59 83.481 150.673C82.8602 150.92 82.3131 151.322 81.8922 151.841C81.4713 152.36 81.1907 152.978 81.0772 153.637C79.5408 158.698 82.0893 163.108 86.156 166.018C90.3314 168.7 94.9342 170.65 99.766 171.784C105.211 173.425 110.816 174.479 116.485 174.929C123.389 175.398 130.583 174.712 136.186 170.338C136.312 170.194 136.4 170.021 136.444 169.835C136.487 169.649 136.483 169.455 136.433 169.271C136.383 169.086 136.288 168.917 136.156 168.779C136.025 168.64 135.861 168.536 135.68 168.476Z" fill="#FC6238"/>
    <path d="M221.173 244.732C204.075 236.201 194.387 218.759 185.802 202.51C184.381 200.047 183.136 197.486 182.079 194.847C181.03 191.9 180.271 188.882 178.97 186.026C178.301 184.49 176.06 185.809 176.729 187.328C177.903 189.985 178.536 192.75 179.566 195.551C179.946 196.582 180.38 197.594 180.832 198.57C181.265 200.63 181.645 202.691 181.988 204.787C182.839 210.377 184.244 215.869 186.181 221.181C188.164 226.59 190.844 231.719 194.152 236.436C196.962 240.741 200.884 244.207 205.503 246.467C210.166 248.419 217.034 249.865 221.39 246.467C221.507 246.346 221.596 246.201 221.649 246.042C221.702 245.883 221.719 245.714 221.698 245.547C221.677 245.381 221.619 245.221 221.529 245.08C221.438 244.939 221.316 244.82 221.173 244.732Z" fill="#FC6238"/>
</svg>
