<svg viewBox="0 0 137 85" fill="none" xmlns="http://www.w3.org/2000/svg">
    <rect x="26.5" y="0.5" width="110" height="79" rx="15.5" fill="url(#paint0_linear_1601_2)" stroke="#FFA99C"/>
    <path opacity="0.5" d="M125.252 22H103.162C101.974 22 101.012 22.9626 101.012 24.15V27.64C101.012 28.8274 101.974 29.79 103.162 29.79H125.252C126.439 29.79 127.402 28.8274 127.402 27.64V24.15C127.402 22.9626 126.439 22 125.252 22Z" fill="white"/>
    <path opacity="0.65" d="M125.09 36.47H78.31C77.0342 36.47 76 37.5042 76 38.78V41.95C76 43.2257 77.0342 44.26 78.31 44.26H125.09C126.366 44.26 127.4 43.2257 127.4 41.95V38.78C127.4 37.5042 126.366 36.47 125.09 36.47Z" fill="white"/>
    <path opacity="0.5" d="M125.251 50.9399H89.3414C88.154 50.9399 87.1914 51.9025 87.1914 53.0899V56.5799C87.1914 57.7674 88.154 58.7299 89.3414 58.7299H125.251C126.439 58.7299 127.401 57.7674 127.401 56.5799V53.0899C127.401 51.9025 126.439 50.9399 125.251 50.9399Z" fill="white"/>
    <path opacity="0.9" d="M25 26C27.4873 26 29.9188 26.6904 31.9869 27.9839C34.0551 29.2773 35.667 31.1158 36.6188 33.2667C37.5707 35.4177 37.8197 37.7846 37.3345 40.068C36.8492 42.3515 35.6515 44.4489 33.8927 46.0952C32.1339 47.7415 29.893 48.8626 27.4535 49.3168C25.014 49.771 22.4853 49.5379 20.1873 48.6469C17.8893 47.756 15.9252 46.2472 14.5433 44.3114C13.1615 42.3756 12.4239 40.0997 12.4239 37.7715C12.4239 34.6495 13.7489 31.6554 16.1073 29.4478C18.4658 27.2402 21.6646 26 25 26ZM25 85C11.1927 85 0 84.2379 0 73.3772C0 62.5164 11.1927 53.7064 25 53.7064C38.8073 53.7064 50 62.5102 50 73.3772C50 84.2441 38.8073 85 25 85Z" fill="#EAECF1"/>
    <path opacity="0.9" d="M51 26C53.5868 26 56.1155 26.6904 58.2664 27.9839C60.4173 29.2773 62.0936 31.1158 63.0836 33.2667C64.0735 35.4177 64.3325 37.7846 63.8278 40.068C63.3232 42.3515 62.0775 44.4489 60.2484 46.0952C58.4192 47.7415 56.0887 48.8626 53.5516 49.3168C51.0145 49.771 48.3847 49.5379 45.9948 48.6469C43.6049 47.756 41.5622 46.2472 40.1251 44.3114C38.6879 42.3756 37.9208 40.0997 37.9208 37.7715C37.9208 34.6495 39.2988 31.6554 41.7516 29.4478C44.2045 27.2402 47.5312 26 51 26ZM51 85C36.6405 85 25 84.2379 25 73.3772C25 62.5164 36.6405 53.7064 51 53.7064C65.3595 53.7064 77 62.5102 77 73.3772C77 84.2441 65.3595 85 51 85Z" fill="#EAECF1"/>
    <defs>
        <linearGradient id="paint0_linear_1601_2" x1="26" y1="34" x2="137" y2="34" gradientUnits="userSpaceOnUse">
            <stop stop-color="#FA633B"/>
            <stop offset="0.432292" stop-color="#D5512D"/>
            <stop offset="1" stop-color="#FA633B"/>
        </linearGradient>
    </defs>
</svg>
