<svg viewBox="0 0 121 121" fill="none" xmlns="http://www.w3.org/2000/svg">
    <mask id="mask0_1614_2" style="mask-type:luminance" maskUnits="userSpaceOnUse" x="0" y="0" width="118" height="118">
        <path d="M52.9278 4.42852C50.6197 5.33661 48.2579 6.31681 45.8995 7.3691C43.2076 8.63425 40.1875 8.51237 39.208 7.19744C38.3397 6.05416 39.762 4.27917 42.2038 3.17881C44.4163 2.27072 46.608 1.43472 48.7216 0.689709C51.1529 -0.0776214 54.074 -0.0707499 55.2289 0.780695C56.5262 1.81067 55.5068 3.47579 52.9278 4.42165M34.941 12.6958C32.8222 13.9335 30.7174 15.2123 28.6751 16.5032C26.3775 18.019 24.0711 18.0242 23.538 16.6423C23.1333 15.3634 24.54 13.2262 26.5911 11.8357C28.4719 10.6135 30.4274 9.40844 32.3603 8.27891C34.618 7.02749 37.0146 6.84553 37.7753 7.93558C38.6436 9.15095 37.4053 11.3293 34.9375 12.7026L34.941 12.6958ZM19.6357 22.623C18.0258 23.9036 16.4315 25.2426 14.9292 26.5455C13.2777 28.0647 11.8241 28.1111 11.6938 26.7498C11.6556 25.4829 12.8365 23.2942 14.2676 21.866C15.6378 20.5579 17.0463 19.291 18.5138 18.0379C20.2348 16.6389 21.9576 16.3522 22.3101 17.5315C22.7339 18.8413 21.5512 21.1553 19.6322 22.6299L19.6357 22.623ZM8.71192 32.4953C7.70117 33.6832 6.75877 34.8614 5.88464 36.0298C4.98157 37.3276 4.37196 37.3637 4.55258 36.0882C4.78529 34.9518 5.59458 32.9983 6.37261 31.6421C7.11939 30.4697 7.91305 29.3299 8.80397 28.1145C9.88939 26.7412 10.7821 26.53 10.789 27.6956C10.8689 28.9539 9.94148 31.1254 8.70844 32.5022L8.71192 32.4953ZM72.6339 9.3209C70.3866 10.114 68.0855 10.9843 65.6872 11.9199C62.9502 13.0683 59.3205 12.3507 57.7575 10.3749C56.2779 8.54326 57.3077 6.29449 59.937 5.32631C62.226 4.5504 64.4692 3.85402 66.6667 3.23718C69.0407 2.63465 72.2744 3.33675 73.9781 4.84394C75.6783 6.49705 75.1573 8.53468 72.6304 9.32948L72.6339 9.3209ZM54.0254 16.7453C51.6809 17.9143 49.2998 19.1263 46.9154 20.3811C44.1992 21.854 40.9933 21.3235 39.769 19.3013C38.6436 17.377 39.8211 14.7557 42.374 13.3859C44.6751 12.2134 46.9293 11.1027 49.1905 10.035C51.7399 8.88659 54.8746 9.31403 56.2414 11.0358C57.6672 12.8863 56.7086 15.4784 54.0219 16.7539L54.0254 16.7453ZM35.8302 26.2674C33.7358 27.5566 31.683 28.8423 29.6406 30.171C27.3725 31.6833 24.8231 31.2473 23.9652 29.3041C23.1854 27.4399 24.2726 24.7894 26.4122 23.2959C28.3364 22.0016 30.2641 20.757 32.2665 19.4953C34.5242 18.122 37.2074 18.3984 38.2389 20.1717C39.3296 22.0531 38.2546 24.8203 35.8267 26.276L35.8302 26.2674ZM20.5474 36.0779C18.9479 37.2795 17.3762 38.5241 15.8792 39.7137C14.2363 41.0767 12.4701 40.6716 11.9213 38.9395C11.4541 37.2229 12.3068 34.7424 13.8316 33.3588C15.2036 32.1863 16.6694 30.9383 18.1525 29.7453C19.91 28.372 21.9072 28.5934 22.6106 30.2826C23.3348 32.0868 22.4213 34.7046 20.5422 36.0865L20.5474 36.0779ZM9.45001 44.97C8.41668 45.9811 7.4233 47.0385 6.49765 48.0307C5.52511 49.1036 4.51262 48.7174 4.23997 47.1724C4.0142 45.7236 4.53867 43.595 5.40875 42.4552C6.25451 41.3909 7.14545 40.3677 8.08152 39.3258C9.22947 38.0949 10.4938 38.3387 10.8897 39.8991C11.343 41.4973 10.6918 43.789 9.44483 44.9786L9.45001 44.97ZM2.8385 52.2657C2.3366 53.0399 1.88157 53.8278 1.4804 54.5711C1.08965 55.3865 0.723198 55.0123 0.645048 53.6887C0.610314 52.4871 0.818722 50.7585 1.12959 49.8881C1.46129 49.0899 1.84512 48.2436 2.27581 47.4179C2.82113 46.4995 3.43591 46.7313 3.61131 48.0565C3.82492 49.435 3.46891 51.3524 2.83328 52.2657H2.8385ZM102.56 15.6209C101.18 15.7959 99.8109 16.0451 98.4583 16.3676C96.548 16.9479 93.1632 15.4269 91.0983 12.979C89.0143 10.6702 89.0716 8.58447 91.0722 8.34414C92.5032 8.25103 93.9398 8.28953 95.3636 8.45915C96.607 8.79217 99.0592 10.471 101.01 12.198C102.909 14.0622 103.684 15.5917 102.56 15.6209ZM89.3408 19.1091C87.1925 20.0206 84.8758 20.9768 82.4965 22.0376C79.6692 23.3182 75.6696 22.1389 73.7575 19.4387C71.8472 16.8431 72.6304 13.8528 75.463 12.7885C77.8005 11.9147 80.1207 11.1611 82.3107 10.4848C84.6639 9.83073 88.0296 11.0616 90.0042 13.276C91.9267 15.5883 91.72 18.2336 89.3408 19.1091ZM70.2946 27.3626C67.7081 28.681 65.0712 30.0405 62.384 31.4413C59.3309 33.079 55.4182 32.1365 53.7163 29.3814C52.0751 26.7172 53.1866 23.3251 56.1598 21.7939C58.7856 20.4892 61.3437 19.2413 63.914 18.0448C66.757 16.7642 70.4283 17.6757 72.2084 20.1133C74.0319 22.6659 73.1879 25.9309 70.2946 27.3626ZM49.7062 37.9044C47.2002 39.3464 44.7133 40.8021 42.2629 42.2474C39.4842 43.9246 36.1011 43.0817 34.71 40.4707C33.3815 37.9164 34.4565 34.5535 37.1171 32.9039C39.4737 31.4842 41.879 30.0646 44.2982 28.6638C47.0596 27.1068 50.5103 27.8312 52.0386 30.3015C53.5756 32.8575 52.5474 36.2925 49.7045 37.9044H49.7062ZM31.0943 48.6178C29.0432 49.9499 27.0391 51.27 25.0923 52.5575C22.951 54.0201 20.3407 53.2441 19.2692 50.9044C18.2602 48.5955 19.0851 45.497 21.1014 44.0379C22.9562 42.6938 24.8578 41.3634 26.8151 40.0193C29.0727 38.5138 31.9365 39.1318 33.1539 41.4578C34.4026 43.8542 33.477 47.0969 31.0925 48.6178H31.0943ZM7.19754 65.2691C6.40561 66.0467 5.6745 66.778 5.0163 67.5161C4.3581 68.2543 3.39771 67.5161 2.88191 65.8253C2.41475 64.1825 2.48248 62.186 3.05558 61.3329C3.63447 60.5524 4.28167 59.7313 4.99718 58.8695C5.88115 57.8687 7.14371 58.5004 7.77586 60.2857C8.44449 62.0744 8.17529 64.3764 7.1958 65.2622L7.19754 65.2691ZM2.68217 70.213C2.45256 70.642 2.26922 71.0936 2.13513 71.5605C2.06219 72.012 1.76002 71.2172 1.45611 69.9229C1.1765 68.5667 0.935102 67.0784 0.935102 66.5909C0.995725 66.0597 1.11213 65.5361 1.28244 65.0288C1.53947 64.3421 2.10736 64.9858 2.49811 66.4158C2.94097 67.8784 3.00519 69.595 2.67695 70.2061L2.68217 70.213ZM92.043 36.4109C89.7911 37.6606 87.4605 38.9584 85.0512 40.3042C82.2343 41.8835 78.3858 40.7368 76.5848 37.7688C74.7665 34.8333 75.6557 31.2456 78.4952 29.7813C80.9265 28.5522 83.3127 27.3935 85.6156 26.2863C88.1077 25.0932 91.5411 26.3481 93.2743 29.0003C95.0197 31.7572 94.4987 35.0737 92.043 36.4109ZM72.9395 46.539C70.4329 47.9444 67.9078 49.3714 65.3642 50.8203C63.9643 51.6112 62.3056 51.8252 60.7472 51.4159C59.1889 51.0065 57.8564 50.0068 57.0385 48.6333C56.6457 47.9593 56.392 47.215 56.2919 46.4435C56.1918 45.6719 56.2473 44.8885 56.4553 44.1383C56.6633 43.3881 57.0196 42.6861 57.5036 42.0728C57.9877 41.4595 58.5898 40.9471 59.2754 40.5652C61.8074 39.1575 64.3239 37.7762 66.8247 36.4212C69.6294 34.9192 73.2695 35.92 74.9437 38.6408C76.6283 41.4183 75.7321 44.9631 72.9378 46.5407L72.9395 46.539ZM35.8198 66.7299C33.9268 67.8423 32.0743 68.9347 30.2624 70.007C28.2704 71.1897 25.6689 70.2868 24.4497 68.038C23.2601 65.7875 23.835 62.9585 25.7627 61.7174C27.5132 60.5707 29.3107 59.4308 31.1464 58.2841C33.2877 56.94 36.1167 57.7451 37.4123 60.0866C38.7495 62.4452 38.0149 65.4476 35.818 66.7316L35.8198 66.7299ZM22.2111 74.2985C20.8826 75.1568 19.5783 75.9225 18.3331 76.6778C17.0081 77.5361 15.1376 76.6452 14.1477 74.7466C13.2012 72.8583 13.4287 70.5803 14.7087 69.6877C15.8919 68.8534 17.1279 67.9951 18.4165 67.1127C19.943 66.0828 22.0809 66.8621 23.142 68.8671C24.2309 70.891 23.8002 73.3527 22.2094 74.3002L22.2111 74.2985ZM13.0067 79.5754C12.2113 80.1162 11.4437 80.5882 10.7647 81.0878C10.0214 81.5598 8.84566 80.7324 8.08326 79.1995C7.34691 77.6545 7.26353 75.9379 7.93563 75.3594C8.57472 74.7998 9.2885 74.2796 10.0196 73.6531C10.9401 72.9819 12.3798 73.7097 13.2255 75.4023C14.0904 77.0777 13.9724 78.9626 13.0015 79.5771L13.0067 79.5754ZM7.94953 82.6654C7.4459 83.0344 7.4459 83.0344 7.04125 83.3606C6.81375 83.6009 6.17291 82.7769 5.60502 81.5822C5.0597 80.3805 4.73666 79.1549 4.93464 78.8871C5.16475 78.5638 5.41904 78.2579 5.69533 77.9721C6.08608 77.5807 6.93531 78.3154 7.55704 79.6132C8.21524 80.9487 8.37849 82.3272 7.94779 82.6602L7.94953 82.6654ZM117.478 40.1446C116.69 40.9926 115.731 41.9797 114.583 43.0508C113.059 44.3417 110.473 42.9513 108.936 39.8253C107.314 36.7354 107.496 33.2901 109.222 32.2636C110.546 31.443 111.688 30.7186 112.664 30.1264C114.639 28.7479 119.041 38.0177 117.473 40.1394L117.478 40.1446ZM107.017 48.4599C105.085 49.8332 103.032 51.2637 100.855 52.7515C98.2499 54.4767 94.6758 53.3317 92.9652 50.1319C91.1955 46.9218 92.0291 42.9221 94.7662 41.3411C97.0481 39.9678 99.2433 38.7129 101.306 37.4941C103.491 36.1929 106.456 37.5611 108 40.4982C109.446 43.4045 109.043 46.9613 107.011 48.4548L107.017 48.4599ZM89.4224 59.5493C86.9216 61.1011 84.3646 62.6673 81.7515 64.2477C81.0332 64.674 80.2357 64.9533 79.4061 65.069C78.5766 65.1847 77.732 65.1344 76.9225 64.9211C76.113 64.7078 75.3551 64.3358 74.6939 63.8274C74.0326 63.3189 73.4815 62.6843 73.0733 61.9612C71.2949 58.8712 72.3786 54.8698 75.4439 53.0982C78.1149 51.5567 80.7384 50.0369 83.3145 48.5389C86.1678 46.8823 89.827 48.0239 91.4769 51.0331C93.0902 54.0012 92.1768 57.831 89.4172 59.5441L89.4224 59.5493ZM69.0789 71.0867C66.5387 72.5253 63.998 73.9512 61.4566 75.3646C60.0637 76.1189 58.4303 76.3136 56.8959 75.9082C55.3615 75.5028 54.0442 74.5285 53.2178 73.1879C52.8193 72.52 52.5589 71.7806 52.4516 71.0125C52.3444 70.2444 52.3923 69.4629 52.5928 68.7132C52.7932 67.9636 53.1422 67.2607 53.6195 66.6454C54.0967 66.03 54.6927 65.5144 55.3731 65.1283C57.9202 63.6806 60.4818 62.2267 63.0578 60.7664C64.4511 59.9717 66.1062 59.7552 67.6606 60.1645C69.215 60.5738 70.5418 61.5754 71.3505 62.9499C72.1278 64.3295 72.3254 65.9559 71.9004 67.4781C71.4754 69.0004 70.462 70.2964 69.0789 71.0867ZM49.7184 81.1685C47.5198 82.3186 45.3472 83.4292 43.2354 84.5193C40.8978 85.7209 37.7683 84.7184 36.2539 82.3375C34.7361 79.9033 35.3682 76.8872 37.6832 75.5894C39.7985 74.445 41.9439 73.2525 44.1194 72.012C46.648 70.6026 50.0102 71.5468 51.5437 74.1097C53.091 76.6417 52.254 79.8209 49.7271 81.1685H49.7184ZM33.741 88.6976C32.0842 89.47 30.502 90.2099 28.9634 90.9051C27.3083 91.6536 24.9256 90.6442 23.6126 88.6735C22.3153 86.6702 22.5342 84.3425 24.1336 83.4533C25.6359 82.6654 27.2093 81.8551 28.8019 80.9556C30.7122 79.9445 33.4162 80.8663 34.7864 83.0602C36.1966 85.2437 35.6843 87.7637 33.7583 88.6976H33.741ZM22.3622 93.293C21.3422 93.7221 20.3656 94.0935 19.4324 94.4071C18.4634 94.7367 16.8014 93.6861 15.7212 92.1445C14.6392 90.5395 14.4638 88.883 15.3877 88.459C16.2561 88.0109 17.1974 87.5594 18.1994 87.0616C19.4151 86.4694 21.3845 87.3946 22.5533 89.1885C23.736 90.936 23.6422 92.8089 22.3622 93.293ZM15.6795 95.1315C15.2459 95.2201 14.8055 95.2729 14.3631 95.2894C13.9932 95.2774 13.0137 94.2817 12.1193 93.0698C11.251 91.8338 10.7751 90.7798 11.1016 90.7077C11.4489 90.615 11.8275 90.4382 12.2825 90.2769C12.8522 90.0331 14.1321 90.9721 15.0612 92.3523C16.0355 93.7118 16.3064 94.989 15.6847 95.1246L15.6795 95.1315ZM107.479 67.226C105.568 68.771 103.561 70.3022 101.473 71.8403C98.9898 73.6428 95.8689 72.8909 94.5265 70.1374C93.1198 67.305 94.1375 63.5267 96.772 61.7689C99.0077 60.256 101.155 58.782 103.215 57.3469C105.431 55.7144 108.132 56.7186 109.26 59.4068C110.306 62.0865 109.514 65.5695 107.479 67.226ZM90.6971 78.7274C88.4128 80.1762 86.0851 81.6245 83.7139 83.0722C81.003 84.679 77.6164 83.9751 76.1541 81.4689C74.671 78.8699 75.7287 75.3714 78.5421 73.7183C80.9925 72.2643 83.4048 70.8155 85.8083 69.3375C88.4637 67.693 91.7131 68.5204 93.0416 71.1125C94.2938 73.6754 93.2465 77.064 90.6971 78.7309V78.7274ZM72.3334 89.0907C70.0758 90.2923 67.8181 91.4751 65.6108 92.6149C63.103 93.8732 59.8936 93.1453 58.407 90.9687C56.9308 88.7216 57.7627 85.7673 60.3295 84.4266C62.6271 83.213 64.9074 81.9821 67.205 80.7239C69.81 79.2716 73.1097 80.0372 74.4991 82.4096C75.852 84.7099 74.8499 87.7105 72.3334 89.0941V89.0907ZM41.134 102.374C39.703 102.856 38.3553 103.313 36.9816 103.709C35.5019 104.111 33.3207 103.277 32.072 101.847C30.832 100.376 30.9345 98.7209 32.4193 98.2214C33.7774 97.7373 35.1708 97.2092 36.5995 96.637C38.2581 95.9349 40.7259 96.7451 41.9658 98.3931C43.2128 99.9998 42.8221 101.792 41.134 102.377V102.374ZM30.9379 104.808C30.0437 104.968 29.1418 105.083 28.2357 105.151C27.3378 105.21 25.7644 104.374 24.679 103.28C23.5814 102.127 23.4008 101.09 24.2865 100.939C25.1045 100.757 25.9936 100.563 26.9488 100.348C28.0307 100.029 29.9012 100.853 30.9797 102.127C32.1016 103.395 32.0598 104.6 30.9379 104.812V104.808ZM24.5122 104.844C24.0377 104.764 23.5723 104.637 23.1229 104.466C22.7252 104.295 21.6224 103.436 20.7176 102.621C19.8336 101.795 19.389 101.205 19.8284 101.359C20.261 101.458 20.7027 101.512 21.1466 101.521C21.7631 101.545 23.0361 102.329 23.986 103.309C24.9065 104.24 25.1253 104.93 24.5105 104.848L24.5122 104.844ZM102.479 87.7294C100.388 89.3201 98.258 90.8651 96.0895 92.3643C93.5227 94.0809 90.5321 93.8165 89.4728 91.6553C88.2571 89.41 89.5457 86.0214 92.2705 84.2738C94.6556 82.6854 96.9642 81.1089 99.1964 79.5445C101.656 77.7455 104.344 78.2862 105.19 80.6123C105.942 82.8027 104.716 85.9681 102.477 87.7328L102.479 87.7294ZM85.2231 98.7844C83.0019 100.029 80.7494 101.244 78.5108 102.41C75.918 103.703 72.7937 103.327 71.5328 101.521C70.1435 99.6101 71.2289 96.8515 73.9138 95.4645C76.3139 94.1925 78.6602 92.905 81.0481 91.5643C83.6948 90.0297 86.8347 90.5103 87.9514 92.5943C88.99 94.5616 87.7552 97.315 85.2213 98.7862L85.2231 98.7844ZM67.8563 107.009C65.8556 107.833 63.8515 108.608 61.8439 109.335C59.6227 110.088 56.785 109.575 55.406 108.152C54.0167 106.624 54.6922 104.621 56.9899 103.732C59.0478 102.894 61.1128 102.015 63.228 101.08C65.6351 99.9724 68.7107 100.523 69.9525 102.262C71.1629 103.903 70.1904 106.02 67.8632 107.012L67.8563 107.009ZM52.8757 111.798C51.231 112.164 49.6733 112.485 48.2127 112.763C46.549 113.007 44.1471 112.347 42.8516 111.3C41.5056 110.155 41.7384 108.897 43.3969 108.518C44.9478 108.135 46.5229 107.701 48.178 107.22C50.0692 106.611 52.7437 107.253 54.0445 108.621C55.2654 109.891 54.7218 111.318 52.8757 111.798ZM41.5282 113.171C40.4011 113.129 39.3956 113.065 38.4022 112.947C37.3602 112.763 35.5159 111.997 34.3193 111.273C33.1036 110.47 32.9421 109.879 33.9858 109.946C34.9757 109.958 36.0317 109.946 37.1015 109.853C38.4213 109.726 40.5418 110.445 41.7071 111.431C42.921 112.365 42.7908 113.132 41.5282 113.166V113.171ZM99.9918 100.233C98.2135 101.531 96.3622 102.808 94.4865 104.051C92.3435 105.392 90.0719 105.625 89.4363 104.46C88.6634 103.182 89.9573 100.867 92.3209 99.4127C94.4049 98.072 96.3899 96.7485 98.3628 95.3718C100.509 93.8148 102.64 93.7582 103.022 95.2104C103.291 96.5374 101.923 98.745 99.9918 100.233ZM85.3394 109.086C83.4829 110.001 81.6056 110.878 79.7543 111.699C77.6703 112.567 75.225 112.639 74.3098 111.786C73.3859 110.796 74.3845 109.136 76.6647 108.133C78.6585 107.208 80.6226 106.245 82.6042 105.246C84.8862 104.044 87.3245 104.085 88.0417 105.246C88.6426 106.317 87.4252 108.004 85.3394 109.086ZM70.9893 114.783C69.3377 115.273 67.6687 115.716 66.0953 116.103C64.2718 116.488 62.002 116.363 60.9912 115.796C59.9492 115.122 60.5935 114.134 62.4726 113.633C64.1502 113.142 65.8556 112.603 67.6427 112.016C69.6051 111.3 72.0504 111.455 72.9204 112.325C73.794 113.084 72.8458 114.181 70.9893 114.783ZM58.6345 117.187C57.3581 117.276 56.0781 117.322 54.859 117.322C53.5165 117.269 51.5923 116.979 50.5972 116.667C49.5031 116.258 49.7601 115.875 51.1703 115.827C52.4537 115.738 53.7319 115.597 55.0587 115.415C56.6721 115.161 58.7665 115.448 59.7477 116.028C60.696 116.529 60.1506 117.036 58.638 117.19L58.6345 117.187ZM10.4173 91.027C11.2648 92.2859 12.154 93.5047 13.0849 94.6834C13.0293 94.5736 12.5882 93.9195 11.9422 93.0458C11.2266 92.0381 10.5389 91.1523 10.4173 91.027Z" fill="white"/>
    </mask>
    <g mask="url(#mask0_1614_2)">
        <path d="M0.604195 117.326H119.041V-0.0705261H0.604195V117.326Z" fill="#FC6238"/>
    </g>
    <g opacity="0.15">
        <mask id="mask1_1614_2" style="mask-type:luminance" maskUnits="userSpaceOnUse" x="3" y="2" width="118" height="119">
            <path d="M55.7647 7.23394C53.4567 8.14203 51.0948 9.12223 48.7364 10.1745C46.0445 11.4397 43.0244 11.3178 42.0449 10.0029C41.1766 8.85958 42.5989 7.08459 45.0407 5.98423C47.2532 5.07614 49.4449 4.24014 51.5585 3.49513C53.9898 2.7278 56.9109 2.73467 58.0658 3.58612C59.3631 4.61609 58.3437 6.28121 55.7647 7.22707M37.7779 15.5012C35.6592 16.7389 33.5543 18.0178 31.512 19.3087C29.2144 20.8244 26.908 20.8296 26.3749 19.4477C25.9702 18.1688 27.377 16.0316 29.428 14.6412C31.3088 13.4189 33.2643 12.2139 35.1972 11.0843C37.4549 9.83291 39.8515 9.65095 40.6122 10.741C41.4805 11.9564 40.2422 14.1348 37.7744 15.5081L37.7779 15.5012ZM22.4726 25.4284C20.8627 26.709 19.2684 28.048 17.7662 29.3509C16.1146 30.8701 14.661 30.9165 14.5307 29.5552C14.4925 28.2883 15.6734 26.0996 17.1045 24.6714C18.4747 23.3633 19.8832 22.0965 21.3507 20.8433C23.0717 19.4443 24.7945 19.1576 25.147 20.3369C25.5708 21.6467 24.3881 23.9607 22.4691 25.4353L22.4726 25.4284ZM11.5488 35.3007C10.5381 36.4886 9.59568 37.6668 8.72155 38.8353C7.81848 40.133 7.20888 40.1691 7.38949 38.8936C7.62221 37.7572 8.4315 35.8037 9.20953 34.4476C9.9563 33.2751 10.75 32.1353 11.6409 30.9199C12.7263 29.5466 13.619 29.3355 13.6259 30.5011C13.7058 31.7593 12.7784 33.9309 11.5454 35.3076L11.5488 35.3007ZM75.4708 12.1263C73.2235 12.9194 70.9224 13.7897 68.5241 14.7253C65.7871 15.8737 62.1574 15.1562 60.5944 13.1803C59.1148 11.3487 60.1446 9.09991 62.7739 8.13173C65.0629 7.35582 67.3061 6.65944 69.5036 6.0426C71.8776 5.44007 75.1113 6.14216 76.815 7.64936C78.5152 9.30247 77.9942 11.3401 75.4673 12.1349L75.4708 12.1263ZM56.8623 19.5507C54.5178 20.7197 52.1368 21.9317 49.7523 23.1865C47.0361 24.6594 43.8302 24.1289 42.6059 22.1068C41.4805 20.1824 42.658 17.5611 45.2109 16.1913C47.512 15.0188 49.7662 13.9082 52.0274 12.8404C54.5768 11.692 57.7115 12.1194 59.0783 13.8412C60.5041 15.6917 59.5455 18.2838 56.8588 19.5593L56.8623 19.5507ZM38.6671 29.0728C36.5727 30.362 34.5199 31.6478 32.4776 32.9764C30.2094 34.4888 27.66 34.0527 26.8021 32.1095C26.0223 30.2453 27.1095 27.5948 29.2491 26.1013C31.1733 24.807 33.101 23.5625 35.1034 22.3007C37.3611 20.9274 40.0443 21.2038 41.0759 22.9771C42.1665 24.8585 41.0915 27.6257 38.6636 29.0814L38.6671 29.0728ZM23.3843 38.8833C21.7848 40.085 20.2131 41.3295 18.7161 42.5191C17.0732 43.8821 15.307 43.477 14.7582 41.7449C14.291 40.0283 15.1438 37.5478 16.6686 36.1642C18.0405 34.9917 19.5063 33.7438 20.9894 32.5507C22.747 31.1774 24.7441 31.3988 25.4475 33.088C26.1717 34.8922 25.2582 37.51 23.3791 38.8919L23.3843 38.8833ZM12.2869 47.7754C11.2536 48.7865 10.2602 49.844 9.33456 50.8362C8.36202 51.9091 7.34954 51.5228 7.07688 49.9779C6.85111 48.529 7.37559 46.4004 8.24566 45.2606C9.09143 44.1963 9.98237 43.1732 10.9184 42.1312C12.0664 40.9004 13.3307 41.1441 13.7266 42.7045C14.1799 44.3027 13.5287 46.5944 12.2817 47.784L12.2869 47.7754ZM5.67541 55.0711C5.17351 55.8453 4.71849 56.6332 4.31731 57.3765C3.92656 58.1919 3.56011 57.8177 3.48196 56.4942C3.44723 55.2925 3.65564 53.5639 3.9665 52.6936C4.29821 51.8953 4.68203 51.049 5.11273 50.2233C5.65805 49.3049 6.27282 49.5367 6.44822 50.8619C6.66184 52.2404 6.30582 54.1578 5.6702 55.0711H5.67541ZM105.397 18.4263C104.017 18.6013 102.648 18.8506 101.295 19.1731C99.3849 19.7533 96.0001 18.2323 93.9352 15.7844C91.8512 13.4756 91.9085 11.3899 93.9091 11.1496C95.3401 11.0565 96.7767 11.095 98.2005 11.2646C99.4439 11.5976 101.896 13.2765 103.846 15.0034C105.746 16.8676 106.521 18.3971 105.397 18.4263ZM92.1777 21.9145C90.0294 22.826 87.7127 23.7822 85.3334 24.8431C82.5061 26.1237 78.5065 24.9443 76.5944 22.2441C74.6841 19.6486 75.4673 16.6582 78.2999 15.5939C80.6374 14.7201 82.9576 13.9665 85.1476 13.2902C87.5008 12.6361 90.8665 13.867 92.8411 16.0814C94.7636 18.3937 94.5569 21.039 92.1777 21.9145ZM73.1315 30.168C70.545 31.4864 67.9081 32.846 65.2209 34.2467C62.1678 35.8844 58.2551 34.942 56.5532 32.1868C54.912 29.5226 56.0235 26.1305 58.9967 24.5993C61.6225 23.2947 64.1807 22.0467 66.7509 20.8502C69.5939 19.5696 73.2652 20.4811 75.0453 22.9187C76.8688 25.4713 76.0248 28.7364 73.1315 30.168ZM52.5432 40.7098C50.0371 42.1518 47.5502 43.6075 45.0998 45.0529C42.3211 46.73 38.938 45.8871 37.547 43.2762C36.2184 40.7218 37.2934 37.359 39.954 35.7093C42.3106 34.2896 44.716 32.87 47.1352 31.4692C49.8965 29.9123 53.3472 30.6367 54.8755 33.1069C56.4125 35.6629 55.3844 39.0979 52.5414 40.7098H52.5432ZM33.9312 51.4233C31.8802 52.7554 29.876 54.0754 27.9292 55.3629C25.7879 56.8255 23.1776 56.0496 22.1061 53.7098C21.0971 51.4009 21.922 48.3024 23.9383 46.8433C25.7931 45.4992 27.6947 44.1688 29.652 42.8247C31.9097 41.3192 34.7734 41.9372 35.9909 44.2632C37.2395 46.6596 36.3139 49.9023 33.9294 51.4233H33.9312ZM10.0345 68.0745C9.24252 68.8521 8.51141 69.5834 7.85321 70.3216C7.19501 71.0597 6.23462 70.3216 5.71883 68.6307C5.25166 66.9879 5.31939 64.9915 5.8925 64.1383C6.47139 63.3578 7.11858 62.5367 7.83409 61.6749C8.71806 60.6741 9.98063 61.3059 10.6128 63.0911C11.2814 64.8799 11.0122 67.1819 10.0327 68.0676L10.0345 68.0745ZM5.51908 73.0184C5.28947 73.4474 5.10613 73.899 4.97205 74.3659C4.89911 74.8174 4.59694 74.0226 4.29302 72.7283C4.01341 71.3721 3.77202 69.8838 3.77202 69.3963C3.83264 68.8651 3.94905 68.3416 4.11935 67.8342C4.37638 67.1475 4.94427 67.7913 5.33503 69.2212C5.77788 70.6838 5.8421 72.4004 5.51387 73.0115L5.51908 73.0184ZM94.8799 39.2163C92.628 40.4661 90.2974 41.7638 87.8881 43.1097C85.0712 44.6889 81.2227 43.5422 79.4218 40.5742C77.6035 37.6388 78.4926 34.051 81.3321 32.5867C83.7635 31.3576 86.1497 30.1989 88.4525 29.0917C90.9446 27.8986 94.378 29.1535 96.1112 31.8057C97.8566 34.5626 97.3356 37.8791 94.8799 39.2163ZM75.7765 49.3444C73.2699 50.7498 70.7447 52.1769 68.2011 53.6257C66.8012 54.4167 65.1425 54.6306 63.5841 54.2213C62.0258 53.812 60.6933 52.8122 59.8754 51.4387C59.4826 50.7647 59.2289 50.0204 59.1288 49.2489C59.0287 48.4774 59.0842 47.6939 59.2922 46.9437C59.5002 46.1935 59.8565 45.4915 60.3405 44.8782C60.8246 44.2649 61.4268 43.7525 62.1123 43.3706C64.6444 41.9629 67.1608 40.5816 69.6616 39.2266C72.4664 37.7246 76.1064 38.7254 77.7806 41.4462C79.4652 44.2237 78.569 47.7686 75.7747 49.3461L75.7765 49.3444ZM38.6567 69.5354C36.7637 70.6477 34.9112 71.7401 33.0993 72.8124C31.1073 73.9951 28.5058 73.0922 27.2866 70.8434C26.097 68.5929 26.6719 65.7639 28.5996 64.5228C30.3502 63.3761 32.1476 62.2363 33.9833 61.0896C36.1246 59.7454 38.9536 60.5505 40.2492 62.892C41.5864 65.2507 40.8518 68.253 38.6549 69.5371L38.6567 69.5354ZM25.048 77.1039C23.7195 77.9623 22.4153 78.7279 21.1701 79.4832C19.845 80.3415 17.9746 79.4506 16.9846 77.552C16.0382 75.6637 16.2657 73.3857 17.5456 72.4931C18.7288 71.6588 19.9648 70.8005 21.2534 69.9182C22.78 68.8882 24.9178 69.6675 25.9789 71.6725C27.0678 73.6964 26.6371 76.1581 25.0463 77.1057L25.048 77.1039ZM15.8436 82.3808C15.0482 82.9216 14.2806 83.3937 13.6016 83.8932C12.8583 84.3653 11.6826 83.5379 10.9202 82.0049C10.1838 80.4599 10.1004 78.7433 10.7725 78.1648C11.4116 77.6052 12.1254 77.0851 12.8566 76.4585C13.777 75.7873 15.2167 76.5151 16.0625 78.2077C16.9273 79.8832 16.8093 81.768 15.8385 82.3826L15.8436 82.3808ZM10.7864 85.4708C10.2828 85.8398 10.2828 85.8398 9.87817 86.166C9.65066 86.4063 9.00982 85.5824 8.44193 84.3876C7.89661 83.1859 7.57357 81.9603 7.77155 81.6925C8.00167 81.3692 8.25596 81.0633 8.53224 80.7775C8.92299 80.3861 9.77222 81.1208 10.394 82.4186C11.0522 83.7541 11.2154 85.1326 10.7847 85.4656L10.7864 85.4708ZM120.315 42.95C119.527 43.798 118.568 44.7851 117.42 45.8562C115.896 47.1471 113.31 45.7567 111.773 42.6307C110.151 39.5408 110.333 36.0955 112.059 35.069C113.383 34.2484 114.525 33.524 115.501 32.9318C117.476 31.5533 121.878 40.8231 120.31 42.9449L120.315 42.95ZM109.854 51.2653C107.922 52.6386 105.868 54.0691 103.692 55.5569C101.087 57.2821 97.5128 56.1371 95.8021 52.9373C94.0325 49.7272 94.8661 45.7275 97.6031 44.1465C99.8851 42.7732 102.08 41.5183 104.143 40.2995C106.328 38.9983 109.293 40.3665 110.837 43.3036C112.283 46.2099 111.88 49.7667 109.848 51.2602L109.854 51.2653ZM92.2593 62.3547C89.7585 63.9065 87.2015 65.4727 84.5884 67.0531C83.8702 67.4794 83.0726 67.7587 82.2431 67.8744C81.4135 67.9901 80.5689 67.9398 79.7594 67.7265C78.9499 67.5132 78.192 67.1413 77.5308 66.6328C76.8695 66.1243 76.3184 65.4897 75.9102 64.7666C74.1318 61.6767 75.2155 57.6752 78.2808 55.9036C80.9518 54.3621 83.5753 52.8423 86.1514 51.3443C89.0048 49.6878 92.6639 50.8293 94.3138 53.8385C95.9272 56.8066 95.0137 60.6364 92.2541 62.3496L92.2593 62.3547ZM71.9158 73.8921C69.3756 75.3307 66.8349 76.7566 64.2935 78.17C62.9006 78.9243 61.2672 79.119 59.7328 78.7136C58.1984 78.3082 56.8811 77.3339 56.0547 75.9933C55.6562 75.3254 55.3959 74.586 55.2886 73.8179C55.1813 73.0498 55.2292 72.2683 55.4297 71.5187C55.6301 70.769 55.9791 70.0662 56.4564 69.4508C56.9336 68.8354 57.5297 68.3198 58.21 67.9337C60.7571 66.4861 63.3187 65.0321 65.8948 63.5718C67.288 62.7771 68.9431 62.5606 70.4975 62.9699C72.0519 63.3792 73.3788 64.3808 74.1874 65.7553C74.9648 67.1349 75.1623 68.7613 74.7373 70.2835C74.3123 71.8058 73.299 73.1019 71.9158 73.8921ZM52.5553 83.9739C50.3567 85.124 48.1841 86.2347 46.0723 87.3247C43.7347 88.5264 40.6052 87.5239 39.0908 85.1429C37.573 82.7087 38.2051 79.6926 40.5201 78.3948C42.6354 77.2504 44.7808 76.058 46.9563 74.8174C49.4849 73.4081 52.8471 74.3522 54.3806 76.9151C55.928 79.4471 55.0909 82.6263 52.564 83.9739H52.5553ZM36.5779 91.503C34.9211 92.2755 33.339 93.0153 31.8003 93.7106C30.1452 94.459 27.7625 93.4496 26.4496 91.479C25.1523 89.4757 25.3711 87.1479 26.9706 86.2587C28.4728 85.4708 30.0462 84.6605 31.6388 83.761C33.5491 82.7499 36.2531 83.6718 37.6234 85.8656C39.0335 88.0491 38.5212 90.5691 36.5953 91.503H36.5779ZM25.1991 96.0984C24.1791 96.5275 23.2025 96.8989 22.2694 97.2125C21.3003 97.5421 19.6383 96.4915 18.5581 94.95C17.4761 93.3449 17.3007 91.6884 18.2247 91.2644C19.093 90.8163 20.0343 90.3649 21.0363 89.867C22.252 89.2748 24.2214 90.2001 25.3902 91.9939C26.5729 93.7415 26.4791 95.6143 25.1991 96.0984ZM18.5164 97.9369C18.0828 98.0255 17.6425 98.0783 17.2 98.0948C16.8301 98.0828 15.8506 97.0872 14.9562 95.8752C14.0879 94.6393 13.612 93.5853 13.9385 93.5132C14.2858 93.4205 14.6644 93.2436 15.1195 93.0823C15.6891 92.8385 16.969 93.7775 17.8981 95.1577C18.8724 96.5172 19.1434 97.7944 18.5216 97.93L18.5164 97.9369ZM110.316 70.0315C108.405 71.5764 106.398 73.1076 104.31 74.6457C101.827 76.4482 98.7059 75.6963 97.3634 72.9428C95.9567 70.1104 96.9744 66.3321 99.6089 64.5743C101.845 63.0614 103.992 61.5874 106.052 60.1523C108.268 58.5198 110.969 59.524 112.097 62.2122C113.143 64.8919 112.351 68.3749 110.316 70.0315ZM93.534 81.5328C91.2497 82.9817 88.922 84.4299 86.5508 85.8776C83.8399 87.4844 80.4533 86.7806 78.9911 84.2743C77.5079 81.6753 78.5656 78.1768 81.379 76.5237C83.8295 75.0698 86.2417 73.6209 88.6453 72.1429C91.3006 70.4984 94.55 71.3258 95.8785 73.9179C97.1307 76.4808 96.0835 79.8694 93.534 81.5363V81.5328ZM75.1704 91.8961C72.9127 93.0977 70.655 94.2805 68.4477 95.4203C65.9399 96.6786 62.7305 95.9508 61.2439 93.7741C59.7678 91.527 60.5996 88.5727 63.1664 87.232C65.4641 86.0184 67.7443 84.7876 70.0419 83.5293C72.647 82.077 75.9467 82.8426 77.336 85.215C78.6889 87.5153 77.6868 90.5159 75.1704 91.8995V91.8961ZM43.9709 105.179C42.5399 105.662 41.1922 106.118 39.8185 106.515C38.3389 106.917 36.1576 106.082 34.9089 104.652C33.6689 103.181 33.7714 101.526 35.2562 101.027C36.6143 100.543 38.0077 100.015 39.4364 99.4424C41.095 98.7403 43.5628 99.5505 44.8028 101.198C46.0497 102.805 45.659 104.597 43.9709 105.183V105.179ZM33.7748 107.613C32.8807 107.774 31.9787 107.888 31.0726 107.957C30.1747 108.015 28.6013 107.179 27.5159 106.086C26.4183 104.932 26.2377 103.895 27.1234 103.744C27.9414 103.562 28.8305 103.368 29.7857 103.154C30.8677 102.834 32.7381 103.658 33.8166 104.932C34.9385 106.201 34.8967 107.406 33.7748 107.617V107.613ZM27.3491 107.65C26.8746 107.569 26.4092 107.443 25.9598 107.272C25.5621 107.1 24.4593 106.242 23.5545 105.427C22.6705 104.601 22.2259 104.01 22.6653 104.165C23.0979 104.263 23.5397 104.317 23.9835 104.326C24.6 104.35 25.873 105.135 26.823 106.115C27.7434 107.045 27.9622 107.735 27.3474 107.653L27.3491 107.65ZM105.316 90.5348C103.225 92.1255 101.095 93.6705 98.9264 95.1697C96.3596 96.8863 93.369 96.622 92.3097 94.4607C91.094 92.2154 92.3826 88.8268 95.1075 87.0792C97.4925 85.4908 99.8011 83.9144 102.033 82.35C104.492 80.5509 107.181 81.0917 108.027 83.4177C108.779 85.6081 107.553 88.7736 105.314 90.5382L105.316 90.5348ZM88.06 101.59C85.8388 102.834 83.5863 104.05 81.3477 105.215C78.7549 106.508 75.6306 106.132 74.3698 104.326C72.9804 102.416 74.0658 99.6569 76.7507 98.2699C79.1508 96.9979 81.4971 95.7104 83.885 94.3697C86.5317 92.8351 89.6717 93.3157 90.7883 95.3997C91.8269 97.367 90.5921 100.12 88.0583 101.592L88.06 101.59ZM70.6932 109.814C68.6925 110.638 66.6884 111.414 64.6808 112.14C62.4596 112.894 59.6219 112.381 58.243 110.957C56.8536 109.43 57.5292 107.426 59.8268 106.537C61.8847 105.699 63.9497 104.821 66.065 103.885C68.472 102.778 71.5477 103.329 72.7894 105.068C73.9998 106.709 73.0273 108.825 70.7002 109.818L70.6932 109.814ZM55.7126 114.604C54.068 114.969 52.5102 115.29 51.0496 115.568C49.3859 115.812 46.9841 115.153 45.6885 114.106C44.3426 112.961 44.5753 111.702 46.2338 111.323C47.7847 110.94 49.3598 110.506 51.0149 110.025C52.9061 109.416 55.5806 110.058 56.8814 111.426C58.1023 112.696 57.5587 114.123 55.7126 114.604ZM44.3652 115.977C43.2381 115.934 42.2325 115.87 41.2391 115.752C40.1971 115.568 38.3528 114.803 37.1562 114.078C35.9405 113.275 35.779 112.684 36.8227 112.751C37.8126 112.763 38.8686 112.751 39.9384 112.659C41.2582 112.532 43.3787 113.251 44.544 114.236C45.7579 115.17 45.6277 115.937 44.3652 115.972V115.977ZM102.829 103.039C101.05 104.336 99.1991 105.614 97.3235 106.856C95.1804 108.197 92.9088 108.431 92.2732 107.265C91.5004 105.988 92.7942 103.672 95.1578 102.218C97.2418 100.877 99.2269 99.554 101.2 98.1772C103.346 96.6202 105.477 96.5636 105.859 98.0159C106.128 99.3428 104.76 101.55 102.829 103.039ZM88.1764 111.891C86.3199 112.806 84.4425 113.683 82.5912 114.504C80.5072 115.373 78.0619 115.445 77.1467 114.592C76.2228 113.601 77.2214 111.941 79.5017 110.939C81.4954 110.013 83.4595 109.05 85.4411 108.051C87.7231 106.85 90.1614 106.891 90.8786 108.051C91.4795 109.122 90.2621 110.81 88.1764 111.891ZM73.8262 117.589C72.1746 118.078 70.5056 118.521 68.9322 118.909C67.1087 119.293 64.8389 119.168 63.8281 118.602C62.7861 117.927 63.4304 116.94 65.3095 116.439C66.9871 115.948 68.6925 115.409 70.4796 114.822C72.442 114.106 74.8873 114.26 75.7574 115.131C76.6309 115.889 75.6827 116.986 73.8262 117.589ZM61.4715 119.992C60.195 120.081 58.9151 120.128 57.6959 120.128C56.3535 120.074 54.4292 119.784 53.4341 119.472C52.34 119.063 52.597 118.681 54.0072 118.633C55.2906 118.543 56.5688 118.402 57.8956 118.221C59.509 117.966 61.6034 118.253 62.5847 118.833C63.5329 119.335 62.9875 119.841 61.4749 119.996L61.4715 119.992ZM13.2543 93.8324C14.1018 95.0913 14.991 96.3101 15.9218 97.4889C15.8662 97.379 15.4251 96.725 14.7791 95.8512C14.0636 94.8435 13.3758 93.9578 13.2543 93.8324Z" fill="white"/>
        </mask>
        <g mask="url(#mask1_1614_2)">
            <path d="M3.44111 120.131H121.877V2.73489H3.44111V120.131Z" fill="#FC6238"/>
        </g>
    </g>
</svg>
