<svg width="99" height="64" viewBox="0 0 99 64" fill="none" xmlns="http://www.w3.org/2000/svg">
<g id="Frame" clip-path="url(#clip0_1156_12404)">
<path id="Vector" d="M19.2939 30.6246V2.55026H65.3909C72.2972 2.55026 77.9296 8.17372 77.9439 15.0866V30.6246H80.4917V15.0795C80.4774 6.76964 73.6999 0 65.3909 0H16.7461V30.6246H19.2939Z" fill="#FA633B"/>
<path id="Vector_2" d="M77.9439 50.74V61.4496H19.2939V50.74H16.7461V61.4496V63.9999H19.2939H80.4917V50.74H77.9439Z" fill="#FA633B"/>
<g id="Group">
<path id="Vector_3" d="M6.06896 35.854V46.8359H3.56409V35.854H0V33.8124H9.63305V35.854H6.06896Z" fill="#181D25"/>
<path id="Vector_4" d="M11.5371 46.8288V33.8053H19.3666V35.8756H14.0205V39.1136H19.1162V41.1337H14.0205V44.7513H19.3666V46.8216H11.5371V46.8288Z" fill="#181D25"/>
<path id="Vector_5" d="M31.1107 37.953C31.1107 38.6336 30.9962 39.2568 30.7743 39.8299C30.5524 40.403 30.2161 40.8973 29.7723 41.32C29.3286 41.7355 28.7704 42.065 28.112 42.2942C27.4535 42.5235 26.6806 42.6452 25.8003 42.6452H24.555V46.8288H22.0859V33.8053H25.9005C26.745 33.8053 27.4893 33.8984 28.1334 34.0775C28.7775 34.2566 29.3215 34.5288 29.7652 34.8798C30.2089 35.2309 30.5381 35.6678 30.7671 36.1765C30.9962 36.6922 31.1107 37.2797 31.1107 37.9459V37.953ZM28.5414 38.125C28.5414 37.7811 28.4841 37.4659 28.3768 37.1865C28.2694 36.9072 28.0976 36.6636 27.8758 36.463C27.6539 36.2624 27.3748 36.112 27.0313 36.0045C26.6949 35.8971 26.2941 35.8469 25.8289 35.8469H24.5479V40.6179H25.9148C26.3371 40.6179 26.7164 40.5606 27.0384 40.446C27.3605 40.3314 27.6396 40.1595 27.8615 39.9445C28.0833 39.7225 28.2551 39.4646 28.3696 39.1565C28.4841 38.8485 28.5414 38.5118 28.5414 38.1321V38.125Z" fill="#181D25"/>
<path id="Vector_6" d="M41.8255 37.953C41.8255 38.6336 41.711 39.2568 41.4891 39.8299C41.2673 40.403 40.9309 40.8973 40.4872 41.32C40.0435 41.7355 39.4852 42.065 38.8268 42.2942C38.1684 42.5235 37.3954 42.6452 36.5152 42.6452H35.2699V46.8288H32.8008V33.8053H36.6154C37.4599 33.8053 38.2042 33.8984 38.8483 34.0775C39.4924 34.2566 40.0363 34.5288 40.48 34.8798C40.9237 35.2309 41.253 35.6678 41.482 36.1765C41.711 36.6922 41.8255 37.2797 41.8255 37.9459V37.953ZM39.2562 38.125C39.2562 37.7811 39.199 37.4659 39.0916 37.1865C38.9843 36.9072 38.8125 36.6636 38.5906 36.463C38.3688 36.2624 38.0897 36.112 37.7461 36.0045C37.4098 35.8971 37.009 35.8469 36.5438 35.8469H35.2627V40.6179H36.6297C37.0519 40.6179 37.4312 40.5606 37.7533 40.446C38.0753 40.3314 38.3545 40.1595 38.5763 39.9445C38.7982 39.7225 38.9699 39.4646 39.0844 39.1565C39.199 38.8485 39.2562 38.5118 39.2562 38.1321V38.125Z" fill="#181D25"/>
<path id="Vector_7" d="M50.5551 46.8288L49.8394 44.2571H45.302L44.5648 46.8288H42.1387L45.989 33.8053H49.41L53.2603 46.8288H50.5551ZM47.5993 36.198L45.8888 42.2584H49.2955L47.6065 36.198H47.5993Z" fill="#181D25"/>
<path id="Vector_8" d="M53.9915 44.6296C54.1847 44.6439 54.3636 44.6367 54.5354 44.6224C54.7071 44.6081 54.8717 44.5436 55.0292 44.4361C55.1866 44.3359 55.3298 44.1783 55.4658 43.9705C55.6017 43.7628 55.7306 43.4834 55.8522 43.1252C55.9739 42.767 56.0812 42.33 56.1743 41.7928C56.2673 41.2555 56.3604 40.6179 56.4462 39.8657C56.5321 39.1136 56.6037 38.2324 56.6609 37.2367C56.7182 36.2338 56.7683 35.0948 56.8112 33.8053H63.9108V46.8288H61.4417V35.9687H59.0513C58.9941 37.6665 58.8939 39.1351 58.765 40.36C58.6291 41.5922 58.4645 42.6237 58.2498 43.4691C58.0422 44.3144 57.7917 44.9806 57.5055 45.4749C57.2192 45.9692 56.8971 46.3345 56.5321 46.5638C56.1671 46.793 55.7664 46.9148 55.3226 46.9291C54.8789 46.9363 54.3994 46.879 53.877 46.7428L53.9986 44.6224L53.9915 44.6296Z" fill="#181D25"/>
<path id="Vector_9" d="M73.4721 46.8288V38.4975H73.4506L68.949 46.8288H66.5801V33.8053H69.0492V42.1366H69.0706L73.5794 33.8053H75.9412V46.8288H73.4721Z" fill="#181D25"/>
<path id="Vector_10" d="M84.9435 46.8288V41.1624H80.5277V46.8288H78.0801V33.8053H80.5277V39.0348H84.9435V33.8053H87.3911V46.8288H84.9435Z" fill="#181D25"/>
<path id="Vector_11" d="M95.837 46.8288L91.9222 40.532V46.8288H89.4316V33.8053H91.9222V39.7296L95.8155 33.8053H98.7713L94.3555 40.009L99.0003 46.8216H95.837V46.8288Z" fill="#181D25"/>
</g>
</g>
<defs>
<clipPath id="clip0_1156_12404">
<rect width="99" height="64" fill="white"/>
</clipPath>
</defs>
</svg>
