<svg  viewBox="0 0 122 124" fill="none" xmlns="http://www.w3.org/2000/svg">
    <path id="Vector" d="M56.0324 7.41338C53.6913 8.34521 51.2957 9.35102 48.9036 10.4308C46.1733 11.729 43.1101 11.604 42.1166 10.2547C41.2358 9.08151 42.6785 7.26012 45.1551 6.131C47.3993 5.19917 49.6223 4.34133 51.766 3.57684C54.2321 2.78945 57.1949 2.79651 58.3663 3.6702C59.6822 4.7271 58.6482 6.43575 56.0324 7.40633M37.7886 15.8967C35.6395 17.1668 33.5047 18.4791 31.4331 19.8037C29.1027 21.3591 26.7634 21.3644 26.2226 19.9464C25.8122 18.6341 27.239 16.441 29.3194 15.0142C31.227 13.76 33.2105 12.5235 35.171 11.3644C37.461 10.0803 39.8918 9.89355 40.6633 11.0121C41.5441 12.2592 40.2881 14.4946 37.785 15.9038L37.7886 15.8967ZM22.2646 26.0834C20.6317 27.3975 19.0146 28.7715 17.4909 30.1084C15.8157 31.6674 14.3414 31.7149 14.2093 30.3181C14.1705 29.0181 15.3683 26.7722 16.8198 25.3066C18.2096 23.9644 19.6382 22.6644 21.1266 21.3785C22.8723 19.9429 24.6197 19.6487 24.9772 20.8588C25.4071 22.2029 24.2075 24.5774 22.261 26.0905L22.2646 26.0834ZM11.1848 36.2138C10.1596 37.4327 9.2037 38.6417 8.31708 39.8407C7.4011 41.1724 6.78279 41.2094 6.96599 39.9006C7.20203 38.7345 8.02287 36.7299 8.81203 35.3383C9.56947 34.1352 10.3745 32.9656 11.2781 31.7185C12.3791 30.3093 13.2845 30.0926 13.2915 31.2886C13.3726 32.5798 12.4319 34.8081 11.1812 36.2208L11.1848 36.2138ZM76.02 12.4336C73.7406 13.2474 71.4067 14.1405 68.974 15.1005C66.1979 16.279 62.5164 15.5427 60.9311 13.5152C59.4303 11.6357 60.4748 9.32812 63.1417 8.33463C65.4634 7.53844 67.7387 6.82387 69.9675 6.1909C72.3755 5.57262 75.6554 6.29307 77.3834 7.83965C79.1079 9.53597 78.5795 11.6269 76.0165 12.4424L76.02 12.4336ZM57.1456 20.0521C54.7676 21.2517 52.3526 22.4953 49.9341 23.7829C47.1791 25.2943 43.9274 24.75 42.6855 22.6749C41.5441 20.7003 42.7384 18.0105 45.3278 16.6048C47.6617 15.4017 49.9482 14.2621 52.2416 13.1664C54.8275 11.988 58.007 12.4266 59.3933 14.1934C60.8395 16.0922 59.8671 18.7521 57.1421 20.0609L57.1456 20.0521ZM38.6905 29.8231C36.5661 31.146 34.484 32.4653 32.4125 33.8287C30.112 35.3806 27.5261 34.9332 26.656 32.9392C25.865 31.0262 26.9678 28.3064 29.1379 26.7739C31.0896 25.4458 33.0449 24.1687 35.0759 22.874C37.3658 21.4648 40.0873 21.7484 41.1336 23.568C42.2399 25.4986 41.1495 28.3381 38.687 29.8319L38.6905 29.8231ZM23.1893 39.89C21.567 41.1231 19.9728 42.4001 18.4544 43.6208C16.7881 45.0195 14.9966 44.6038 14.44 42.8264C13.9661 41.0649 14.831 38.5196 16.3776 37.0998C17.7692 35.8967 19.2559 34.6161 20.7602 33.3919C22.5429 31.9827 24.5686 32.2099 25.282 33.9432C26.0165 35.7945 25.09 38.4808 23.1841 39.8988L23.1893 39.89ZM11.9334 49.0145C10.8853 50.0521 9.87772 51.1371 8.93885 52.1553C7.95242 53.2562 6.92546 52.8599 6.64891 51.2745C6.41991 49.7878 6.95188 47.6036 7.83439 46.434C8.69224 45.3418 9.5959 44.292 10.5453 43.2228C11.7097 41.9598 12.9921 42.2099 13.3937 43.8111C13.8534 45.451 13.1929 47.8026 11.9281 49.0233L11.9334 49.0145ZM5.22742 56.5009C4.71835 57.2953 4.25682 58.1038 3.84991 58.8666C3.45358 59.7033 3.08189 59.3193 3.00262 57.9612C2.9674 56.7281 3.17878 54.9543 3.49409 54.0612C3.83054 53.2421 4.21984 52.3737 4.65669 51.5264C5.2098 50.584 5.83336 50.8218 6.01127 52.1817C6.22794 53.5962 5.86683 55.5638 5.22212 56.5009H5.22742ZM106.374 18.8983C104.974 19.0778 103.585 19.3336 102.213 19.6646C100.276 20.2599 96.8426 18.6993 94.7482 16.1874C92.6344 13.8182 92.6925 11.6779 94.7218 11.4313C96.1732 11.3358 97.6303 11.3753 99.0744 11.5494C100.336 11.8911 102.823 13.6138 104.801 15.3859C106.728 17.2989 107.514 18.8684 106.374 18.8983ZM92.9656 22.4777C90.7866 23.413 88.4368 24.3942 86.0235 25.4828C83.1558 26.7968 79.0991 25.5867 77.1597 22.8159C75.2221 20.1525 76.0165 17.084 78.8895 15.9919C81.2605 15.0952 83.6138 14.3219 85.835 13.6279C88.2219 12.9568 91.6356 14.2198 93.6385 16.4921C95.5884 18.8648 95.3788 21.5793 92.9656 22.4777ZM73.6473 30.9469C71.0238 32.2997 68.3493 33.6948 65.6237 35.1322C62.527 36.8127 58.5583 35.8456 56.8321 33.0184C55.1675 30.2846 56.2948 26.8039 59.3105 25.2326C61.9739 23.8939 64.5686 22.6133 67.1756 21.3855C70.0591 20.0715 73.7829 21.0068 75.5885 23.5081C77.438 26.1275 76.5819 29.4778 73.6473 30.9469ZM52.7648 41.7642C50.223 43.2439 47.7005 44.7376 45.215 46.2208C42.3967 47.9418 38.9653 47.0769 37.5543 44.3977C36.2068 41.7766 37.2971 38.3258 39.9957 36.633C42.3861 35.1763 44.8258 33.7195 47.2795 32.2821C50.0803 30.6845 53.5803 31.4278 55.1305 33.9626C56.6894 36.5854 55.6466 40.1102 52.763 41.7642H52.7648ZM33.8869 52.7577C31.8066 54.1246 29.7738 55.4792 27.7992 56.8003C25.6272 58.3011 22.9797 57.5049 21.8929 55.104C20.8694 52.7348 21.7062 49.5553 23.7513 48.0581C25.6325 46.6788 27.5613 45.3136 29.5465 43.9344C31.8365 42.3896 34.7412 43.0237 35.976 45.4105C37.2425 47.8696 36.3036 51.197 33.8851 52.7577H33.8869ZM9.64874 69.8442C8.8455 70.6421 8.10394 71.3925 7.43633 72.15C6.76873 72.9074 5.79462 72.15 5.27145 70.4149C4.79761 68.7292 4.86631 66.6806 5.4476 65.8051C6.03477 65.0042 6.6912 64.1616 7.41694 63.2773C8.31354 62.2504 9.59414 62.8986 10.2353 64.7306C10.9135 66.5661 10.6404 68.9282 9.64697 69.8371L9.64874 69.8442ZM5.06886 74.9173C4.83596 75.3575 4.65 75.821 4.514 76.3001C4.44002 76.7633 4.13354 75.9478 3.82527 74.6196C3.54167 73.228 3.29682 71.7008 3.29682 71.2005C3.35831 70.6554 3.47639 70.1182 3.64912 69.5976C3.90983 68.893 4.48583 69.5535 4.88217 71.0209C5.33135 72.5217 5.39648 74.2832 5.06356 74.9102L5.06886 74.9173ZM95.7065 40.2317C93.4224 41.5141 91.0585 42.8458 88.6147 44.2268C85.7575 45.8474 81.8541 44.6707 80.0274 41.6251C78.1831 38.6129 79.085 34.9314 81.965 33.4288C84.4311 32.1676 86.8514 30.9786 89.1872 29.8425C91.7149 28.6182 95.1974 29.9059 96.9553 32.6274C98.7256 35.4563 98.1972 38.8595 95.7065 40.2317ZM76.33 50.6245C73.7876 52.0666 71.2264 53.531 68.6464 55.0177C67.2266 55.8294 65.5441 56.0489 63.9635 55.6289C62.3829 55.2089 61.0314 54.183 60.2018 52.7736C59.8034 52.0819 59.5461 51.3182 59.4445 50.5265C59.343 49.7348 59.3993 48.9309 59.6103 48.1611C59.8212 47.3913 60.1826 46.6709 60.6736 46.0416C61.1645 45.4123 61.7753 44.8865 62.4706 44.4946C65.0389 43.0501 67.5913 41.6327 70.1278 40.2423C72.9726 38.701 76.6647 39.728 78.3628 42.5199C80.0715 45.37 79.1625 49.0075 76.3283 50.6263L76.33 50.6245ZM38.6799 71.3432C36.7599 72.4847 34.8809 73.6056 33.0431 74.7059C31.0227 75.9196 28.384 74.993 27.1474 72.6855C25.9408 70.3762 26.5239 67.4732 28.4791 66.1997C30.2547 65.023 32.0778 63.8534 33.9397 62.6767C36.1117 61.2974 38.9811 62.1236 40.2952 64.5262C41.6515 66.9465 40.9064 70.0274 38.6781 71.345L38.6799 71.3432ZM24.8768 79.1096C23.5293 79.9904 22.2064 80.776 20.9434 81.5511C19.5994 82.4318 17.7023 81.5176 16.6982 79.5694C15.7382 77.6318 15.969 75.2942 17.2672 74.3783C18.4674 73.5222 19.721 72.6414 21.028 71.736C22.5763 70.6791 24.7447 71.4789 25.821 73.5363C26.9255 75.6131 26.4886 78.1391 24.8751 79.1114L24.8768 79.1096ZM15.5409 84.5245C14.7342 85.0793 13.9556 85.5638 13.2668 86.0763C12.5129 86.5608 11.3204 85.7117 10.5471 84.1387C9.80024 82.5534 9.71567 80.7919 10.3974 80.1982C11.0456 79.624 11.7696 79.0903 12.5112 78.4473C13.4447 77.7586 14.905 78.5055 15.7629 80.2423C16.6401 81.9615 16.5203 83.8956 15.5357 84.5262L15.5409 84.5245ZM10.4115 87.6952C9.90064 88.0739 9.90064 88.0739 9.49022 88.4086C9.25946 88.6552 8.60947 87.8097 8.03346 86.5837C7.48035 85.3506 7.15269 84.0929 7.35351 83.8181C7.58691 83.4864 7.84483 83.1725 8.12506 82.8792C8.52139 82.4776 9.38276 83.2315 10.0134 84.5632C10.681 85.9337 10.8466 87.3481 10.4097 87.6899L10.4115 87.6952ZM121.505 44.063C120.706 44.9332 119.733 45.946 118.569 47.0452C117.022 48.3698 114.399 46.943 112.84 43.7353C111.195 40.5647 111.38 37.0294 113.131 35.976C114.473 35.134 115.632 34.3906 116.622 33.7829C118.625 32.3684 123.091 41.8805 121.5 44.0577L121.505 44.063ZM110.894 52.5956C108.935 54.0048 106.852 55.4728 104.644 56.9994C102.002 58.7697 98.3769 57.5948 96.6418 54.3113C94.8469 51.0174 95.6924 46.9131 98.4685 45.2907C100.783 43.8815 103.01 42.5939 105.102 41.3432C107.318 40.008 110.325 41.4119 111.891 44.4259C113.358 47.4081 112.95 51.0579 110.889 52.5904L110.894 52.5956ZM93.0484 63.9749C90.5118 65.5673 87.9183 67.1744 85.2678 68.7961C84.5394 69.2336 83.7304 69.5202 82.889 69.6389C82.0476 69.7575 81.1909 69.7059 80.3699 69.4871C79.5488 69.2682 78.7801 68.8866 78.1094 68.3648C77.4387 67.843 76.8797 67.1918 76.4657 66.4498C74.6619 63.2791 75.7611 59.1731 78.8701 57.3552C81.5793 55.7734 84.2403 54.2139 86.8532 52.6767C89.7473 50.9768 93.4588 52.1482 95.1322 55.2361C96.7686 58.2818 95.8421 62.2116 93.0431 63.9696L93.0484 63.9749ZM72.4142 75.8139C69.8378 77.29 67.2607 78.7532 64.683 80.2035C63.2702 80.9776 61.6135 81.1774 60.0572 80.7614C58.5009 80.3454 57.1647 79.3457 56.3265 77.97C55.9224 77.2846 55.6582 76.5259 55.5494 75.7377C55.4406 74.9495 55.4892 74.1476 55.6925 73.3784C55.8959 72.6091 56.2498 71.8879 56.7339 71.2565C57.218 70.625 57.8225 70.0959 58.5126 69.6997C61.0961 68.2142 63.6943 66.7222 66.3071 65.2238C67.7203 64.4083 69.3991 64.1862 70.9757 64.6062C72.5523 65.0262 73.8981 66.054 74.7183 67.4644C75.5067 68.8801 75.7071 70.5489 75.276 72.111C74.845 73.673 73.8171 75.003 72.4142 75.8139ZM52.7771 86.1591C50.5471 87.3393 48.3434 88.479 46.2015 89.5976C43.8305 90.8306 40.6563 89.8019 39.1203 87.3587C37.5807 84.8609 38.2219 81.766 40.57 80.4343C42.7155 79.26 44.8915 78.0363 47.0981 76.7633C49.6628 75.3172 53.0731 76.286 54.6285 78.9159C56.1979 81.5141 55.3489 84.7764 52.7859 86.1591H52.7771ZM36.5714 93.885C34.8909 94.6777 33.2862 95.4369 31.7255 96.1503C30.0468 96.9183 27.6301 95.8826 26.2984 93.8604C24.9825 91.8047 25.2045 89.4161 26.8268 88.5037C28.3505 87.6952 29.9464 86.8637 31.5617 85.9407C33.4994 84.9032 36.242 85.8491 37.6318 88.1003C39.0621 90.3409 38.5425 92.9268 36.589 93.885H36.5714ZM25.0301 98.6006C23.9955 99.0409 23.005 99.422 22.0584 99.7438C21.0755 100.082 19.3898 99.0039 18.2942 97.4221C17.1967 95.7751 17.0188 94.0753 17.956 93.6402C18.8367 93.1804 19.7914 92.7172 20.8078 92.2063C22.0408 91.5986 24.0384 92.5481 25.2239 94.3888C26.4235 96.182 26.3283 98.1038 25.0301 98.6006ZM18.2519 100.487C17.8121 100.578 17.3654 100.632 16.9167 100.649C16.5415 100.637 15.548 99.6152 14.6408 98.3716C13.7601 97.1033 13.2774 96.0217 13.6086 95.9478C13.9609 95.8526 14.3449 95.6712 14.8064 95.5056C15.3842 95.2555 16.6824 96.219 17.6248 97.6353C18.613 99.0304 18.8878 100.341 18.2572 100.48L18.2519 100.487ZM111.363 71.8523C109.425 73.4376 107.389 75.0089 105.271 76.5872C102.752 78.4368 99.587 77.6652 98.2254 74.8398C96.7986 71.9333 97.8308 68.0563 100.503 66.2525C102.771 64.7 104.949 63.1875 107.038 61.7149C109.286 60.0397 112.025 61.0702 113.17 63.8287C114.23 66.5784 113.427 70.1525 111.363 71.8523ZM94.3413 83.6543C92.0243 85.141 89.6634 86.6271 87.2583 88.1126C84.5087 89.7614 81.0737 89.0392 79.5906 86.4674C78.0862 83.8005 79.159 80.2106 82.0126 78.5143C84.4981 77.0223 86.9448 75.5356 89.3827 74.0189C92.076 72.3314 95.3718 73.1805 96.7193 75.8403C97.9893 78.4702 96.9272 81.9474 94.3413 83.6578V83.6543ZM75.7153 94.2884C73.4253 95.5215 71.1354 96.7351 68.8965 97.9048C66.353 99.1959 63.0977 98.4491 61.5899 96.2155C60.0926 93.9097 60.9364 90.8782 63.5398 89.5025C65.8703 88.2571 68.1831 86.9941 70.5136 85.7029C73.1558 84.2127 76.5027 84.9983 77.9119 87.4327C79.2841 89.7931 78.2677 92.8722 75.7153 94.2919V94.2884ZM44.0701 107.919C42.6186 108.414 41.2517 108.882 39.8583 109.289C38.3575 109.701 36.1451 108.845 34.8786 107.378C33.6209 105.868 33.7248 104.17 35.2309 103.658C36.6084 103.161 38.0217 102.619 39.4708 102.032C41.153 101.311 43.6561 102.143 44.9138 103.834C46.1786 105.483 45.7822 107.322 44.0701 107.922V107.919ZM33.7283 110.417C32.8214 110.581 31.9066 110.699 30.9875 110.769C30.0768 110.829 28.4809 109.971 27.3799 108.849C26.2667 107.665 26.0835 106.601 26.9818 106.446C27.8115 106.26 28.7134 106.06 29.6822 105.84C30.7796 105.513 32.6768 106.358 33.7706 107.665C34.9086 108.967 34.8662 110.204 33.7283 110.42V110.417ZM27.2108 110.454C26.7295 110.371 26.2574 110.241 25.8016 110.066C25.3982 109.89 24.2797 109.009 23.362 108.173C22.4654 107.325 22.0144 106.719 22.4601 106.878C22.8989 106.979 23.3469 107.034 23.7971 107.043C24.4224 107.068 25.7136 107.873 26.6771 108.879C27.6107 109.834 27.8327 110.542 27.2091 110.457L27.2108 110.454ZM106.291 92.8916C104.17 94.5239 102.01 96.1092 99.8107 97.6476C97.2073 99.4091 94.174 99.1378 93.0995 96.9201C91.8664 94.6161 93.1734 91.1389 95.9372 89.3457C98.3563 87.7157 100.698 86.0981 102.962 84.4928C105.456 82.6467 108.183 83.2016 109.041 85.5884C109.804 87.8361 108.56 91.0843 106.29 92.8951L106.291 92.8916ZM88.7891 104.236C86.5361 105.513 84.2515 106.76 81.9809 107.956C79.351 109.282 76.1821 108.896 74.9032 107.043C73.494 105.083 74.595 102.252 77.3182 100.829C79.7526 99.5236 82.1324 98.2025 84.5545 96.8267C87.239 95.252 90.4238 95.7452 91.5564 97.8836C92.6098 99.9023 91.3573 102.728 88.7873 104.237L88.7891 104.236ZM71.1741 112.675C69.1449 113.52 67.1121 114.316 65.0759 115.062C62.8229 115.835 59.9446 115.308 58.546 113.848C57.1368 112.28 57.822 110.225 60.1525 109.312C62.2398 108.453 64.3343 107.551 66.4798 106.591C68.9212 105.455 72.0408 106.02 73.3003 107.804C74.528 109.488 73.5416 111.66 71.1812 112.678L71.1741 112.675ZM55.9795 117.589C54.3114 117.965 52.7313 118.294 51.2499 118.579C49.5624 118.83 47.1263 118.153 45.8122 117.079C44.447 115.904 44.6831 114.613 46.3653 114.223C47.9383 113.83 49.536 113.385 51.2147 112.892C53.1329 112.266 55.8456 112.925 57.165 114.329C58.4033 115.632 57.852 117.096 55.9795 117.589ZM44.4699 118.999C43.3267 118.955 42.3068 118.889 41.2993 118.768C40.2424 118.579 38.3717 117.794 37.158 117.05C35.9249 116.226 35.7611 115.62 36.8197 115.689C37.8238 115.701 38.8948 115.689 39.9799 115.594C41.3186 115.463 43.4694 116.201 44.6513 117.212C45.8826 118.171 45.7505 118.958 44.4699 118.993V118.999ZM103.769 105.722C101.965 107.054 100.087 108.365 98.1849 109.64C96.0112 111.016 93.7072 111.255 93.0625 110.059C92.2786 108.749 93.5909 106.372 95.9883 104.88C98.1021 103.505 100.115 102.146 102.117 100.734C104.294 99.1361 106.455 99.0779 106.843 100.568C107.116 101.93 105.728 104.195 103.769 105.722ZM88.9071 114.806C87.0241 115.745 85.1199 116.645 83.2421 117.487C81.1283 118.379 78.6482 118.453 77.7199 117.577C76.7827 116.561 77.7956 114.857 80.1085 113.829C82.1306 112.879 84.1229 111.891 86.1327 110.866C88.4473 109.633 90.9205 109.675 91.648 110.866C92.2574 111.965 91.0227 113.697 88.9071 114.806ZM74.3519 120.653C72.6767 121.155 70.9839 121.609 69.388 122.007C67.5384 122.402 65.2362 122.273 64.211 121.692C63.1541 121 63.8076 119.987 65.7135 119.472C67.4151 118.969 69.1449 118.416 70.9575 117.813C72.948 117.079 75.4282 117.237 76.3107 118.13C77.1967 118.909 76.2349 120.034 74.3519 120.653ZM61.8206 123.119C60.5259 123.21 59.2277 123.258 57.9912 123.258C56.6295 123.203 54.6778 122.906 53.6684 122.585C52.5587 122.166 52.8194 121.773 54.2497 121.724C55.5515 121.632 56.8479 121.488 58.1937 121.301C59.8301 121.04 61.9545 121.334 62.9497 121.93C63.9115 122.444 63.3584 122.964 61.8241 123.122L61.8206 123.119ZM12.9146 96.2754C13.7742 97.5672 14.6761 98.8178 15.6202 100.027C15.5639 99.9146 15.1164 99.2435 14.4611 98.3469C13.7354 97.3129 13.0378 96.404 12.9146 96.2754Z" fill="#FC6238" fill-opacity="0.15"/>
    <path id="Vector_2" d="M53.0324 4.41338C50.6913 5.34521 48.2957 6.35102 45.9036 7.43082C43.1733 8.72903 40.1101 8.60397 39.1166 7.25467C38.2358 6.08151 39.6785 4.26012 42.1551 3.131C44.3993 2.19917 46.6223 1.34133 48.766 0.576843C51.2321 -0.210548 54.1949 -0.203491 55.3663 0.670204C56.6822 1.7271 55.6482 3.43575 53.0324 4.40633M34.7886 12.8967C32.6395 14.1668 30.5047 15.4791 28.4331 16.8037C26.1027 18.3591 23.7634 18.3644 23.2226 16.9464C22.8122 15.6341 24.239 13.441 26.3194 12.0142C28.227 10.76 30.2105 9.52347 32.171 8.3644C34.461 7.08028 36.8918 6.89355 37.6633 8.01211C38.5441 9.25924 37.2881 11.4946 34.785 12.9038L34.7886 12.8967ZM19.2646 23.0834C17.6317 24.3975 16.0146 25.7715 14.4909 27.1084C12.8157 28.6674 11.3414 28.7149 11.2093 27.3181C11.1705 26.0181 12.3683 23.7722 13.8198 22.3066C15.2096 20.9644 16.6382 19.6644 18.1266 18.3785C19.8723 16.9429 21.6197 16.6487 21.9772 17.8588C22.4071 19.2029 21.2075 21.5774 19.261 23.0905L19.2646 23.0834ZM8.18475 33.2138C7.15956 34.4327 6.2037 35.6417 5.31708 36.8407C4.4011 38.1724 3.78279 38.2094 3.96599 36.9006C4.20203 35.7345 5.02287 33.7299 5.81203 32.3383C6.56947 31.1352 7.37447 29.9656 8.27811 28.7185C9.37905 27.3093 10.2845 27.0926 10.2915 28.2886C10.3726 29.5798 9.43188 31.8081 8.18122 33.2208L8.18475 33.2138ZM73.02 9.43363C70.7406 10.2474 68.4067 11.1405 65.974 12.1005C63.1979 13.279 59.5164 12.5427 57.9311 10.5152C56.4303 8.63567 57.4748 6.32812 60.1417 5.33463C62.4634 4.53844 64.7387 3.82387 66.9675 3.1909C69.3755 2.57262 72.6554 3.29307 74.3834 4.83965C76.1079 6.53597 75.5795 8.62687 73.0165 9.44244L73.02 9.43363ZM54.1456 17.0521C51.7676 18.2517 49.3526 19.4953 46.9341 20.7829C44.1791 22.2943 40.9274 21.75 39.6855 19.6749C38.5441 17.7003 39.7384 15.0105 42.3278 13.6048C44.6617 12.4017 46.9482 11.2621 49.2416 10.1664C51.8275 8.98797 55.007 9.42658 56.3933 11.1934C57.8395 13.0922 56.8671 15.7521 54.1421 17.0609L54.1456 17.0521ZM35.6905 26.8231C33.5661 28.146 31.484 29.4653 29.4125 30.8287C27.112 32.3806 24.5261 31.9332 23.656 29.9392C22.865 28.0262 23.9678 25.3064 26.1379 23.7739C28.0896 22.4458 30.0449 21.1687 32.0759 19.874C34.3658 18.4648 37.0873 18.7484 38.1336 20.568C39.2399 22.4986 38.1495 25.3381 35.687 26.8319L35.6905 26.8231ZM20.1893 36.89C18.567 38.1231 16.9728 39.4001 15.4544 40.6208C13.7881 42.0195 11.9966 41.6038 11.44 39.8264C10.9661 38.0649 11.831 35.5196 13.3776 34.0998C14.7692 32.8967 16.2559 31.6161 17.7602 30.3919C19.5429 28.9827 21.5686 29.2099 22.282 30.9432C23.0165 32.7945 22.09 35.4808 20.1841 36.8988L20.1893 36.89ZM8.93339 46.0145C7.8853 47.0521 6.87772 48.1371 5.93885 49.1553C4.95242 50.2562 3.92546 49.8599 3.64891 48.2745C3.41991 46.7878 3.95188 44.6036 4.83439 43.434C5.69224 42.3418 6.5959 41.292 7.54535 40.2228C8.70969 38.9598 9.99205 39.2099 10.3937 40.8111C10.8534 42.451 10.1929 44.8026 8.92814 46.0233L8.93339 46.0145ZM2.22742 53.5009C1.71835 54.2953 1.25682 55.1038 0.849915 55.8666C0.453575 56.7033 0.0818939 56.3193 0.00262451 54.9612C-0.0326004 53.7281 0.17878 51.9543 0.494087 51.0612C0.830536 50.2421 1.21984 49.3737 1.65669 48.5264C2.2098 47.584 2.83336 47.8218 3.01127 49.1817C3.22794 50.5962 2.86683 52.5638 2.22212 53.5009H2.22742ZM103.374 15.8983C101.974 16.0778 100.585 16.3336 99.2134 16.6646C97.2758 17.2599 93.8426 15.6993 91.7482 13.1874C89.6344 10.8182 89.6925 8.67795 91.7218 8.43134C93.1732 8.3358 94.6303 8.37531 96.0744 8.54936C97.3357 8.89109 99.8229 10.6138 101.801 12.3859C103.728 14.2989 104.514 15.8684 103.374 15.8983ZM89.9656 19.4777C87.7866 20.413 85.4368 21.3942 83.0235 22.4828C80.1558 23.7968 76.0991 22.5867 74.1597 19.8159C72.2221 17.1525 73.0165 14.084 75.8895 12.9919C78.2605 12.0952 80.6138 11.3219 82.835 10.6279C85.2219 9.95679 88.6356 11.2198 90.6385 13.4921C92.5884 15.8648 92.3788 18.5793 89.9656 19.4777ZM70.6473 27.9469C68.0238 29.2997 65.3493 30.6948 62.6237 32.1322C59.527 33.8127 55.5583 32.8456 53.8321 30.0184C52.1675 27.2846 53.2948 23.8039 56.3105 22.2326C58.9739 20.8939 61.5686 19.6133 64.1756 18.3855C67.0591 17.0715 70.7829 18.0068 72.5885 20.5081C74.438 23.1275 73.5819 26.4778 70.6473 27.9469ZM49.7648 38.7642C47.223 40.2439 44.7005 41.7376 42.215 43.2208C39.3967 44.9418 35.9653 44.0769 34.5543 41.3977C33.2068 38.7766 34.2971 35.3258 36.9957 33.633C39.3861 32.1763 41.8258 30.7195 44.2795 29.2821C47.0803 27.6845 50.5803 28.4278 52.1305 30.9626C53.6894 33.5854 52.6466 37.1102 49.763 38.7642H49.7648ZM30.8869 49.7577C28.8066 51.1246 26.7738 52.4792 24.7992 53.8003C22.6272 55.3011 19.9797 54.5049 18.8929 52.104C17.8694 49.7348 18.7062 46.5553 20.7513 45.0581C22.6325 43.6788 24.5613 42.3136 26.5465 40.9344C28.8365 39.3896 31.7412 40.0237 32.976 42.4105C34.2425 44.8696 33.3036 48.197 30.8851 49.7577H30.8869ZM6.64874 66.8442C5.8455 67.6421 5.10394 68.3925 4.43633 69.15C3.76873 69.9074 2.79462 69.15 2.27145 67.4149C1.79761 65.7292 1.86631 63.6806 2.4476 62.8051C3.03477 62.0042 3.6912 61.1616 4.41694 60.2773C5.31354 59.2504 6.59414 59.8986 7.23533 61.7306C7.9135 63.5661 7.64045 65.9282 6.64697 66.8371L6.64874 66.8442ZM2.06886 71.9173C1.83596 72.3575 1.65 72.821 1.514 73.3001C1.44002 73.7633 1.13354 72.9478 0.825272 71.6196C0.541672 70.228 0.296822 68.7008 0.296822 68.2005C0.358315 67.6554 0.476387 67.1182 0.649124 66.5976C0.909828 65.893 1.48583 66.5535 1.88217 68.0209C2.33135 69.5217 2.39648 71.2832 2.06356 71.9102L2.06886 71.9173ZM92.7065 37.2317C90.4224 38.5141 88.0585 39.8458 85.6147 41.2268C82.7575 42.8474 78.8541 41.6707 77.0274 38.6251C75.1831 35.6129 76.085 31.9314 78.965 30.4288C81.4311 29.1676 83.8514 27.9786 86.1872 26.8425C88.7149 25.6182 92.1974 26.9059 93.9553 29.6274C95.7256 32.4563 95.1972 35.8595 92.7065 37.2317ZM73.33 47.6245C70.7876 49.0666 68.2264 50.531 65.6464 52.0177C64.2266 52.8294 62.5441 53.0489 60.9635 52.6289C59.3829 52.2089 58.0314 51.183 57.2018 49.7736C56.8034 49.0819 56.5461 48.3182 56.4445 47.5265C56.343 46.7348 56.3993 45.9309 56.6103 45.1611C56.8212 44.3913 57.1826 43.6709 57.6736 43.0416C58.1645 42.4123 58.7753 41.8865 59.4706 41.4946C62.0389 40.0501 64.5913 38.6327 67.1278 37.2423C69.9726 35.701 73.6647 36.728 75.3628 39.5199C77.0715 42.37 76.1625 46.0075 73.3283 47.6263L73.33 47.6245ZM35.6799 68.3432C33.7599 69.4847 31.8809 70.6056 30.0431 71.7059C28.0227 72.9196 25.384 71.993 24.1474 69.6855C22.9408 67.3762 23.5239 64.4732 25.4791 63.1997C27.2547 62.023 29.0778 60.8534 30.9397 59.6767C33.1117 58.2974 35.9811 59.1236 37.2952 61.5262C38.6515 63.9465 37.9064 67.0274 35.6781 68.345L35.6799 68.3432ZM21.8768 76.1096C20.5293 76.9904 19.2064 77.776 17.9434 78.5511C16.5994 79.4318 14.7023 78.5176 13.6982 76.5694C12.7382 74.6318 12.969 72.2942 14.2672 71.3783C15.4674 70.5222 16.721 69.6414 18.028 68.736C19.5763 67.6791 21.7447 68.4789 22.821 70.5363C23.9255 72.6131 23.4886 75.1391 21.8751 76.1114L21.8768 76.1096ZM12.5409 81.5245C11.7342 82.0793 10.9556 82.5638 10.2668 83.0763C9.51292 83.5608 8.3204 82.7117 7.54711 81.1387C6.80024 79.5534 6.71567 77.7919 7.39737 77.1982C8.0456 76.624 8.76957 76.0903 9.51116 75.4473C10.4447 74.7586 11.905 75.5055 12.7629 77.2423C13.6401 78.9615 13.5203 80.8956 12.5357 81.5262L12.5409 81.5245ZM7.41148 84.6952C6.90064 85.0739 6.90064 85.0739 6.49022 85.4086C6.25946 85.6552 5.60947 84.8097 5.03346 83.5837C4.48035 82.3506 4.15269 81.0929 4.35351 80.8181C4.58691 80.4864 4.84483 80.1725 5.12506 79.8792C5.52139 79.4776 6.38276 80.2315 7.01337 81.5632C7.68098 82.9337 7.84656 84.3481 7.40971 84.6899L7.41148 84.6952ZM118.505 41.063C117.706 41.9332 116.733 42.946 115.569 44.0452C114.022 45.3698 111.399 43.943 109.84 40.7353C108.195 37.5647 108.38 34.0294 110.131 32.976C111.473 32.134 112.632 31.3906 113.622 30.7829C115.625 29.3684 120.091 38.8805 118.5 41.0577L118.505 41.063ZM107.894 49.5956C105.935 51.0048 103.852 52.4728 101.644 53.9994C99.002 55.7697 95.3769 54.5948 93.6418 51.3113C91.8469 48.0174 92.6924 43.9131 95.4685 42.2907C97.7831 40.8815 100.01 39.5939 102.102 38.3432C104.318 37.008 107.325 38.4119 108.891 41.4259C110.358 44.4081 109.95 48.0579 107.889 49.5904L107.894 49.5956ZM90.0484 60.9749C87.5118 62.5673 84.9183 64.1744 82.2678 65.7961C81.5394 66.2336 80.7304 66.5202 79.889 66.6389C79.0476 66.7575 78.1909 66.7059 77.3699 66.4871C76.5488 66.2682 75.7801 65.8866 75.1094 65.3648C74.4387 64.843 73.8797 64.1918 73.4657 63.4498C71.6619 60.2791 72.7611 56.1731 75.8701 54.3552C78.5793 52.7734 81.2403 51.2139 83.8532 49.6767C86.7473 47.9768 90.4588 49.1482 92.1322 52.2361C93.7686 55.2818 92.8421 59.2116 90.0431 60.9696L90.0484 60.9749ZM69.4142 72.8139C66.8378 74.29 64.2607 75.7532 61.683 77.2035C60.2702 77.9776 58.6135 78.1774 57.0572 77.7614C55.5009 77.3454 54.1647 76.3457 53.3265 74.97C52.9224 74.2846 52.6582 73.5259 52.5494 72.7377C52.4406 71.9495 52.4892 71.1476 52.6925 70.3784C52.8959 69.6091 53.2498 68.8879 53.7339 68.2565C54.218 67.625 54.8225 67.0959 55.5126 66.6997C58.0961 65.2142 60.6943 63.7222 63.3071 62.2238C64.7203 61.4083 66.3991 61.1862 67.9757 61.6062C69.5523 62.0262 70.8981 63.054 71.7183 64.4644C72.5067 65.8801 72.7071 67.5489 72.276 69.111C71.845 70.673 70.8171 72.003 69.4142 72.8139ZM49.7771 83.1591C47.5471 84.3393 45.3434 85.479 43.2015 86.5976C40.8305 87.8306 37.6563 86.8019 36.1203 84.3587C34.5807 81.8609 35.2219 78.766 37.57 77.4343C39.7155 76.26 41.8915 75.0363 44.0981 73.7633C46.6628 72.3172 50.0731 73.286 51.6285 75.9159C53.1979 78.5141 52.3489 81.7764 49.7859 83.1591H49.7771ZM33.5714 90.885C31.8909 91.6777 30.2862 92.4369 28.7255 93.1503C27.0468 93.9183 24.6301 92.8826 23.2984 90.8604C21.9825 88.8047 22.2045 86.4161 23.8268 85.5037C25.3505 84.6952 26.9464 83.8637 28.5617 82.9407C30.4994 81.9032 33.242 82.8491 34.6318 85.1003C36.0621 87.3409 35.5425 89.9268 33.589 90.885H33.5714ZM22.0301 95.6006C20.9955 96.0409 20.005 96.422 19.0584 96.7438C18.0755 97.082 16.3898 96.0039 15.2942 94.4221C14.1967 92.7751 14.0188 91.0753 14.956 90.6402C15.8367 90.1804 16.7914 89.7172 17.8078 89.2063C19.0408 88.5986 21.0384 89.5481 22.2239 91.3888C23.4235 93.182 23.3283 95.1038 22.0301 95.6006ZM15.2519 97.4871C14.8121 97.5781 14.3654 97.6323 13.9167 97.6492C13.5415 97.6368 12.548 96.6152 11.6408 95.3716C10.7601 94.1033 10.2774 93.0217 10.6086 92.9478C10.9609 92.8526 11.3449 92.6712 11.8064 92.5056C12.3842 92.2555 13.6824 93.219 14.6248 94.6353C15.613 96.0304 15.8878 97.3409 15.2572 97.4801L15.2519 97.4871ZM108.363 68.8523C106.425 70.4376 104.389 72.0089 102.271 73.5872C99.7524 75.4368 96.587 74.6652 95.2254 71.8398C93.7986 68.9333 94.8308 65.0563 97.503 63.2525C99.7706 61.7 101.949 60.1875 104.038 58.7149C106.286 57.0397 109.025 58.0702 110.17 60.8287C111.23 63.5784 110.427 67.1525 108.363 68.8523ZM91.3413 80.6543C89.0243 82.141 86.6634 83.6271 84.2583 85.1126C81.5087 86.7614 78.0737 86.0392 76.5906 83.4674C75.0862 80.8005 76.159 77.2106 79.0126 75.5143C81.4981 74.0223 83.9448 72.5356 86.3827 71.0189C89.076 69.3314 92.3718 70.1805 93.7193 72.8403C94.9893 75.4702 93.9272 78.9474 91.3413 80.6578V80.6543ZM72.7153 91.2884C70.4253 92.5215 68.1354 93.7351 65.8965 94.9048C63.353 96.1959 60.0977 95.4491 58.5899 93.2155C57.0926 90.9097 57.9364 87.8782 60.5398 86.5025C62.8703 85.2571 65.1831 83.9941 67.5136 82.7029C70.1558 81.2127 73.5027 81.9983 74.9119 84.4327C76.2841 86.7931 75.2677 89.8722 72.7153 91.2919V91.2884ZM41.0701 104.919C39.6186 105.414 38.2517 105.882 36.8583 106.289C35.3575 106.701 33.1451 105.845 31.8786 104.378C30.6209 102.868 30.7248 101.17 32.2309 100.658C33.6084 100.161 35.0217 99.6191 36.4708 99.0319C38.153 98.3115 40.6561 99.1429 41.9138 100.834C43.1786 102.483 42.7822 104.322 41.0701 104.922V104.919ZM30.7283 107.417C29.8214 107.581 28.9066 107.699 27.9875 107.769C27.0768 107.829 25.4809 106.971 24.3799 105.849C23.2667 104.665 23.0835 103.601 23.9818 103.446C24.8115 103.26 25.7134 103.06 26.6822 102.84C27.7796 102.513 29.6768 103.358 30.7706 104.665C31.9086 105.967 31.8662 107.204 30.7283 107.42V107.417ZM24.2108 107.454C23.7295 107.371 23.2574 107.241 22.8016 107.066C22.3982 106.89 21.2797 106.009 20.362 105.173C19.4654 104.325 19.0144 103.719 19.4601 103.878C19.8989 103.979 20.3469 104.034 20.7971 104.043C21.4224 104.068 22.7136 104.873 23.6771 105.879C24.6107 106.834 24.8327 107.542 24.2091 107.457L24.2108 107.454ZM103.291 89.8916C101.17 91.5239 99.0103 93.1092 96.8107 94.6476C94.2073 96.4091 91.174 96.1378 90.0995 93.9201C88.8664 91.6161 90.1734 88.1389 92.9372 86.3457C95.3563 84.7157 97.698 83.0981 99.9621 81.4928C102.456 79.6467 105.183 80.2016 106.041 82.5884C106.804 84.8361 105.56 88.0843 103.29 89.8951L103.291 89.8916ZM85.7891 101.236C83.5361 102.513 81.2515 103.76 78.9809 104.956C76.351 106.282 73.1821 105.896 71.9032 104.043C70.494 102.083 71.595 99.2521 74.3182 97.8288C76.7526 96.5236 79.1324 95.2025 81.5545 93.8267C84.239 92.252 87.4238 92.7452 88.5564 94.8836C89.6098 96.9023 88.3573 99.7277 85.7873 101.237L85.7891 101.236ZM68.1741 109.675C66.1449 110.52 64.1121 111.316 62.0759 112.062C59.8229 112.835 56.9446 112.308 55.546 110.848C54.1368 109.28 54.822 107.225 57.1525 106.312C59.2398 105.453 61.3343 104.551 63.4798 103.591C65.9212 102.455 69.0408 103.02 70.3003 104.804C71.528 106.488 70.5416 108.66 68.1812 109.678L68.1741 109.675ZM52.9795 114.589C51.3114 114.965 49.7313 115.294 48.2499 115.579C46.5624 115.83 44.1263 115.153 42.8122 114.079C41.447 112.904 41.6831 111.613 43.3653 111.223C44.9383 110.83 46.536 110.385 48.2147 109.892C50.1329 109.266 52.8456 109.925 54.165 111.329C55.4033 112.632 54.852 114.096 52.9795 114.589ZM41.4699 115.999C40.3267 115.955 39.3068 115.889 38.2993 115.768C37.2424 115.579 35.3717 114.794 34.158 114.05C32.9249 113.226 32.7611 112.62 33.8197 112.689C34.8238 112.701 35.8948 112.689 36.9799 112.594C38.3186 112.463 40.4694 113.201 41.6513 114.212C42.8826 115.171 42.7505 115.958 41.4699 115.993V115.999ZM100.769 102.722C98.965 104.054 97.0873 105.365 95.1849 106.64C93.0112 108.016 90.7072 108.255 90.0625 107.059C89.2786 105.749 90.5909 103.372 92.9883 101.88C95.1021 100.505 97.1155 99.1464 99.1165 97.7337C101.294 96.1361 103.455 96.0779 103.843 97.5681C104.116 98.9298 102.728 101.195 100.769 102.722ZM85.9071 111.806C84.0241 112.745 82.1199 113.645 80.2421 114.487C78.1283 115.379 75.6482 115.453 74.7199 114.577C73.7827 113.561 74.7956 111.857 77.1085 110.829C79.1306 109.879 81.1229 108.891 83.1327 107.866C85.4473 106.633 87.9205 106.675 88.648 107.866C89.2574 108.965 88.0227 110.697 85.9071 111.806ZM71.3519 117.653C69.6767 118.155 67.9839 118.609 66.388 119.007C64.5384 119.402 62.2362 119.273 61.211 118.692C60.1541 118 60.8076 116.987 62.7135 116.472C64.4151 115.969 66.1449 115.416 67.9575 114.813C69.948 114.079 72.4282 114.237 73.3107 115.13C74.1967 115.909 73.2349 117.034 71.3519 117.653ZM58.8206 120.119C57.5259 120.21 56.2277 120.258 54.9912 120.258C53.6295 120.203 51.6778 119.906 50.6684 119.585C49.5587 119.166 49.8194 118.773 51.2497 118.724C52.5515 118.632 53.8479 118.488 55.1937 118.301C56.8301 118.04 58.9545 118.334 59.9497 118.93C60.9115 119.444 60.3584 119.964 58.8241 120.122L58.8206 120.119ZM9.91455 93.2754C10.7742 94.5672 11.6761 95.8178 12.6202 97.0274C12.5639 96.9146 12.1164 96.2435 11.4611 95.3469C10.7354 94.3129 10.0378 93.404 9.91455 93.2754Z" fill="#FC6238"/>
</svg>
