<svg width="168" height="109" viewBox="0 0 168 109" fill="none" xmlns="http://www.w3.org/2000/svg">
<rect x="99.7744" y="0.149414" width="49.0234" height="27.8052" rx="13.9026" fill="#FC6238"/>
<rect x="49.2031" y="44.9951" width="117.934" height="46.6416" rx="23.3208" fill="#FC6238"/>
<rect x="0.863281" y="20" width="97.6055" height="55.6089" rx="27.8045" fill="#FC6238"/>
<path d="M87.8268 5C84.3883 5 80.9736 6.20517 78.3074 8.71594C72.4418 14.2372 72.339 23.4721 77.9942 29.1273L99.7757 50.9088L121.557 29.1273C127.212 23.4721 127.11 14.2372 121.244 8.71594C118.578 6.20517 115.166 5 111.725 5C107.853 5 103.944 6.52559 101.026 9.44525L99.7757 10.6959L98.5251 9.44047C95.6078 6.52559 91.6982 5 87.8268 5Z" fill="url(#paint0_linear_127_795)"/>
<path d="M73.2951 58.5635C66.9751 58.5635 61.3152 61.0838 57.4366 65.0604L36.834 85.345L59.7896 108.301L67.4414 100.649H106.186C110.043 100.649 113.766 99.2331 116.645 96.6745L142.879 67.2459C144.481 65.8232 144.39 63.2048 142.619 61.9996C139.271 59.7304 135.325 60.3736 131.834 62.3894C128.341 64.4052 108.286 81.5525 108.286 81.5525L88.5438 81.5573C87.6256 81.5573 86.6309 80.5243 86.6309 79.6109C86.6309 78.5348 87.5682 77.6979 88.5438 77.6979H100.622C104.849 77.6979 109.582 74.9432 109.582 70.046C109.582 64.8428 104.849 62.3942 100.622 62.3942C93.288 62.3942 91.8604 62.4253 91.8604 62.4253C88.9216 62.4253 85.9422 62.2483 83.6466 61.0216C80.5859 59.453 77.0589 58.5659 73.2927 58.5659L73.2951 58.5635Z" fill="url(#paint1_linear_127_795)"/>
<defs>
<linearGradient id="paint0_linear_127_795" x1="96.6212" y1="27.866" x2="104.031" y2="49.9568" gradientUnits="userSpaceOnUse">
<stop stop-color="#FAFAFA"/>
<stop offset="1" stop-color="#D6D6D6"/>
</linearGradient>
<linearGradient id="paint1_linear_127_795" x1="83.9103" y1="83.3363" x2="88.4541" y2="109.163" gradientUnits="userSpaceOnUse">
<stop stop-color="#FAFAFA"/>
<stop offset="1" stop-color="#D6D6D6"/>
</linearGradient>
</defs>
</svg>
