<svg width="183" height="101" viewBox="0 0 183 101" fill="none" xmlns="http://www.w3.org/2000/svg">
<rect x="144.393" y="76.168" width="38.4199" height="21.7544" rx="10.8772" fill="#FC6238"/>
<rect x="78.1348" y="0.123047" width="38.4199" height="21.7544" rx="10.8772" fill="#FC6238"/>
<rect x="0.189453" y="46.1709" width="131.938" height="48.416" rx="24.208" fill="#FC6238"/>
<rect x="40.3184" y="30.7256" width="122.82" height="31.2734" rx="15.6367" fill="#FC6238"/>
<path d="M88.9422 83.1653C85.163 84.5581 80.3614 86.3214 74.2905 88.5728C63.9205 87.1255 53.0251 83.7511 48.3125 76.0089C50.0298 71.3882 51.5231 67.339 52.847 63.7637C61.7236 74.0187 77.2369 80.5319 88.9422 83.1653Z" fill="url(#paint0_linear_94_2418)"/>
<path d="M91.9496 48.5761C81.8582 38.4876 68.8692 31.0382 63.5708 36.3453C62.4393 37.4767 62.7811 36.8019 54.9297 58.1161C63.3037 70.2034 84.4629 78.6406 99.2008 79.3815C103.609 77.7245 103.503 77.6412 104.183 76.9577C110.679 70.4618 98.4426 55.0663 91.9496 48.5761ZM100.522 73.2991C100.031 73.7988 97.7391 73.8218 93.6669 71.8144C89.2415 69.6261 84.193 65.8124 79.4517 61.0711C68.4643 50.0838 65.897 41.3249 67.2208 40.001C67.4276 39.7943 67.8153 39.6823 68.3609 39.6823C71.3275 39.6823 79.0152 42.9618 88.2938 52.2319C93.0351 56.9731 96.8546 62.0217 99.0428 66.4471C101.053 70.5106 101.019 72.8052 100.522 73.2962V73.2991Z" fill="url(#paint1_linear_94_2418)"/>
<path d="M64.8248 92.0837C58.8573 94.3035 51.9737 96.8738 43.9844 99.869C41.9053 100.633 39.8922 98.6141 40.6618 96.5464C42.6749 91.1561 44.4899 86.2856 46.144 81.8401C50.6871 87.0581 57.5162 90.2199 64.8248 92.0865V92.0837Z" fill="url(#paint2_linear_94_2418)"/>
<path d="M101.386 10.0688C99.7776 10.3502 98.224 10.6087 97.1672 11.1371C98.7524 13.5694 102.064 16.6681 100.042 20.7144C98.2326 24.3328 94.4734 24.1203 91.2111 24.2323C93.2127 26.9691 95.5274 29.7432 93.744 33.3157C91.8946 37.0203 87.0413 37.7899 84.1782 38.2551C83.2506 38.4073 82.3891 37.787 82.2168 36.8652L81.5907 33.4823C81.4155 32.5403 82.0473 31.6357 82.9893 31.4691C84.6204 31.182 86.1453 30.935 87.2079 30.4008C85.6169 27.9857 82.3173 24.8555 84.3304 20.8264C86.1367 17.2195 89.893 17.4205 93.161 17.3085C91.1537 14.5717 88.8448 11.7976 90.6282 8.22509C92.4804 4.52339 97.3337 3.75088 100.191 3.28566C101.119 3.13345 101.98 3.75375 102.15 4.67559L102.776 8.05853C102.96 9.00047 102.331 9.9022 101.386 10.0688Z" fill="url(#paint3_linear_94_2418)"/>
<path d="M132.473 37.7414L135.856 38.3674C136.78 38.5397 137.395 39.4013 137.246 40.326C136.78 43.1805 136.008 48.0367 132.306 49.8889C128.734 51.6752 125.96 49.3605 123.223 47.3561C123.111 50.627 123.312 54.3861 119.705 56.1896C115.676 58.2027 112.546 54.9031 110.131 53.3121C109.596 54.3746 109.347 55.8996 109.062 57.5307C108.896 58.4755 107.991 59.1044 107.049 58.9293L103.666 58.3032C102.741 58.1309 102.127 57.2694 102.276 56.3418C102.741 53.4815 103.514 48.6282 107.216 46.776C110.785 44.9926 113.565 47.3072 116.299 49.3089C116.414 46.0465 116.199 42.2816 119.817 40.4782C123.863 38.4536 126.959 41.7676 129.394 43.3528C129.926 42.2989 130.181 40.7424 130.463 39.1342C130.623 38.2009 131.528 37.572 132.473 37.7443V37.7414Z" fill="url(#paint4_linear_94_2418)"/>
<path d="M122.174 69.0149H115.627C115.055 69.0149 114.593 68.5525 114.593 67.981V64.8795C114.593 64.3081 115.055 63.8457 115.627 63.8457H122.174C122.746 63.8457 123.208 64.3081 123.208 64.8795V67.981C123.208 68.5525 122.746 69.0149 122.174 69.0149Z" fill="url(#paint5_linear_94_2418)"/>
<path d="M129.371 7.92793L124.739 12.5572C124.337 12.9621 123.682 12.9621 123.277 12.5572L121.086 10.3632C120.681 9.95827 120.681 9.30351 121.086 8.90146L125.715 4.26931C126.12 3.86726 126.775 3.86726 127.177 4.26931L129.368 6.46046C129.77 6.86251 129.77 7.51727 129.368 7.92506L129.371 7.92793Z" fill="url(#paint6_linear_94_2418)"/>
<path d="M75.65 19.0467H72.5485C71.977 19.0467 71.5146 18.5843 71.5146 18.0129V11.4652C71.5146 10.8937 71.977 10.4314 72.5485 10.4314H75.65C76.2215 10.4314 76.6838 10.8937 76.6838 11.4652V18.0129C76.6838 18.5843 76.2215 19.0467 75.65 19.0467Z" fill="url(#paint7_linear_94_2418)"/>
<path d="M100.406 42.3251L97.8214 40.602C97.3332 40.2804 97.1924 39.6228 97.5284 39.1432C104.561 29.1351 118.122 18.7048 132.469 18.1994C133.058 18.1822 133.549 18.6704 133.549 19.2562V22.3606C133.549 22.912 133.115 23.3427 132.564 23.3657C120.563 23.8424 108.266 32.8799 101.799 42.058C101.477 42.5146 100.871 42.6295 100.409 42.3194L100.406 42.3251Z" fill="url(#paint8_linear_94_2418)"/>
<defs>
<linearGradient id="paint0_linear_94_2418" x1="66.1576" y1="76.1205" x2="69.0759" y2="88.7259" gradientUnits="userSpaceOnUse">
<stop stop-color="#FAFAFA"/>
<stop offset="1" stop-color="#D6D6D6"/>
</linearGradient>
<linearGradient id="paint1_linear_94_2418" x1="77.373" y1="56.8969" x2="84.551" y2="78.492" gradientUnits="userSpaceOnUse">
<stop stop-color="#FAFAFA"/>
<stop offset="1" stop-color="#D6D6D6"/>
</linearGradient>
<linearGradient id="paint2_linear_94_2418" x1="51.1805" y1="90.9021" x2="53.7365" y2="99.9172" gradientUnits="userSpaceOnUse">
<stop stop-color="#FAFAFA"/>
<stop offset="1" stop-color="#D6D6D6"/>
</linearGradient>
<linearGradient id="paint3_linear_94_2418" x1="90.3046" y1="18.6776" x2="92.9699" y2="36.564" gradientUnits="userSpaceOnUse">
<stop stop-color="#FAFAFA"/>
<stop offset="1" stop-color="#D6D6D6"/>
</linearGradient>
<linearGradient id="paint4_linear_94_2418" x1="117.633" y1="48.2963" x2="120.117" y2="59.0967" gradientUnits="userSpaceOnUse">
<stop stop-color="#FAFAFA"/>
<stop offset="1" stop-color="#D6D6D6"/>
</linearGradient>
<linearGradient id="paint5_linear_94_2418" x1="118.377" y1="66.4203" x2="118.975" y2="69.0514" gradientUnits="userSpaceOnUse">
<stop stop-color="#FAFAFA"/>
<stop offset="1" stop-color="#D6D6D6"/>
</linearGradient>
<linearGradient id="paint6_linear_94_2418" x1="124.686" y1="8.39723" x2="116.082" y2="16.4237" gradientUnits="userSpaceOnUse">
<stop stop-color="#FAFAFA"/>
<stop offset="1" stop-color="#D6D6D6"/>
</linearGradient>
<linearGradient id="paint7_linear_94_2418" x1="73.785" y1="14.7225" x2="74.837" y2="29.1652" gradientUnits="userSpaceOnUse">
<stop stop-color="#FAFAFA"/>
<stop offset="1" stop-color="#D6D6D6"/>
</linearGradient>
<linearGradient id="paint8_linear_94_2418" x1="104.64" y1="26.449" x2="108.776" y2="46.8856" gradientUnits="userSpaceOnUse">
<stop stop-color="#FAFAFA"/>
<stop offset="0.626138" stop-color="#D6D6D6"/>
</linearGradient>
</defs>
</svg>
