<svg width="187" height="94" viewBox="0 0 187 94" fill="none" xmlns="http://www.w3.org/2000/svg">
<rect x="0.636719" y="0.214844" width="150.84" height="53.897" rx="26.9485" fill="#FC6238"/>
<rect x="70.4082" y="48.2012" width="115.92" height="45.7525" rx="22.8762" fill="#FC6238"/>
<path d="M137.842 36.4029C137.842 36.4029 131.597 29.3712 116.83 11.6644C113.041 7.12247 105.863 5.63723 101.331 10.2852C98.9875 12.6855 90.3214 20.9703 90.3214 20.9703C88.866 22.6313 86.1674 23.0324 84.3771 20.9703C84.3771 20.9703 75.6778 12.7186 73.3671 10.2852C69.0208 5.71016 61.6576 7.11915 57.8682 11.6644C43.102 29.3712 36.856 36.4029 36.856 36.4029C35.7885 37.4804 35.7521 39.274 36.7698 40.3978L46.4405 51.3051C47.4616 52.429 49.1325 52.4323 50.1569 51.315L56.615 45.7553C56.615 45.7553 57.5267 44.7309 57.5267 46.7399V86.4038C57.5267 88.1775 59.1347 88.1775 59.1347 88.1775H115.617C115.617 88.1775 117.175 88.1775 117.175 86.0591V46.8527C117.175 44.6149 118.11 45.7851 118.11 45.7851L124.545 51.315C125.569 52.4323 127.24 52.429 128.261 51.3051L137.932 40.3978C138.953 39.274 138.913 37.4804 137.846 36.4029H137.842ZM111.738 43.6567C111.738 43.9783 111.513 44.3762 111.237 44.5452L104.488 48.6429C104.212 48.8087 103.762 48.8087 103.486 48.6429L96.7365 44.5452C96.4613 44.3795 96.2358 43.9783 96.2358 43.6567V33.88C96.2358 33.5584 96.4978 33.2965 96.8227 33.2965H111.151C111.473 33.2965 111.738 33.5584 111.738 33.88V43.6567Z" fill="url(#paint0_linear_298_828)"/>
<rect x="9.32031" y="70.8672" width="39.6113" height="23.0869" rx="11.5435" fill="#FC6238"/>
<defs>
<linearGradient id="paint0_linear_298_828" x1="81.1121" y1="47.6565" x2="92.9476" y2="87.3447" gradientUnits="userSpaceOnUse">
<stop stop-color="#FAFAFA"/>
<stop offset="1" stop-color="#D6D6D6"/>
</linearGradient>
</defs>
</svg>
