<svg width="257" height="133" viewBox="0 0 257 133" fill="none" xmlns="http://www.w3.org/2000/svg">
<rect x="66.0137" y="41.9189" width="190.285" height="53.897" rx="26.9485" fill="#FC6238"/>
<rect x="7.03125" y="74.0615" width="52.1836" height="21.7544" rx="10.8772" fill="#FC6238"/>
<rect x="0.429688" y="10" width="190.285" height="53.897" rx="26.9485" fill="#FC6238"/>
<path d="M178.451 95.9051L177.69 95.8534C182.069 91.5778 185.691 86.2444 188.03 80.5701C188.256 80.5783 188.484 80.5657 188.715 80.5206L193.715 79.5386C195.298 79.2294 196.333 77.6925 196.023 76.1091C195.716 74.5272 194.184 73.4954 192.6 73.8046L190.11 74.2928C191.765 67.7728 191.973 61.0056 190.701 54.4039C190.399 52.8192 188.869 51.783 187.286 52.0923C185.702 52.3979 184.664 53.9297 184.968 55.5159C186.742 64.7735 185.23 74.1618 180.719 82.3236L180.647 82.1748C179.941 80.7251 178.194 80.1284 176.742 80.8367C175.293 81.5465 174.692 83.2966 175.398 84.7462L176.962 87.9547C172.447 93.6329 166.627 97.7837 160.227 100.273C173.124 91.2691 177.997 72.7006 171.895 58.8439L173.849 55.8993C174.742 54.5549 174.376 52.7393 173.035 51.8518C171.692 50.9606 169.881 51.3293 168.989 52.6737L168.798 52.9561C159.465 38.0232 138.355 33.0302 123.483 41.328L123.488 41.2654C123.6 39.6558 122.387 38.2622 120.779 38.1511C119.17 38.0422 117.775 39.2582 117.663 40.8678L117.341 45.4442C111.839 49.9691 107.551 56.8367 105.904 63.7128C105.428 50.3357 113.202 35.982 125.003 29.0851C125.144 29.1513 125.293 29.2046 125.447 29.2492L132.022 31.0974C133.573 31.534 135.186 30.6274 135.626 29.0756C136.064 27.5223 135.161 25.9088 133.61 25.4723L133.051 25.3155C138.999 23.2928 145.438 22.6532 151.846 23.6278C153.439 23.8707 154.931 22.7726 155.173 21.1788C155.42 19.5843 154.325 18.0925 152.734 17.851C150.787 17.5554 148.83 17.3872 146.88 17.3431L147.053 16.5921C147.416 15.0198 146.436 13.4514 144.863 13.094C143.291 12.7344 141.725 13.7161 141.363 15.2921L140.829 17.6111C131.484 18.6123 122.327 22.7069 115.344 28.9944L115.152 28.0097C114.845 26.4278 113.312 25.396 111.729 25.7052C110.146 26.0181 109.113 27.5528 109.42 29.1347L110.399 34.1668C102.434 43.8848 98.7935 56.5325 100.404 68.8942L98.8188 68.1086C97.3741 67.3929 95.623 67.9839 94.9037 69.4292C94.244 70.7581 94.6865 72.3435 95.8828 73.1489C95.9885 73.22 101.925 76.1738 101.925 76.1738C103.557 81.7205 106.195 86.8387 109.698 91.318L107.952 91.1983C106.343 91.0894 104.948 92.3054 104.836 93.915C104.72 95.5382 105.959 96.9269 107.544 97.0292L115.633 97.5819C122.655 103.74 131.679 107.696 140.816 108.628C140.816 108.628 146.752 113.927 146.862 114.001C149.9 115.934 153.076 111.886 150.439 109.396L149.663 108.701C157.302 108.042 164.868 105.384 171.123 101.183C171.332 101.246 178.039 101.733 178.039 101.733C181.905 101.854 182.295 96.3096 178.447 95.9022L178.451 95.9051ZM129.376 98.5487L129.548 96.0984C129.66 94.4888 128.448 93.0967 126.839 92.9842C125.23 92.8753 123.836 94.0891 123.722 95.7008L123.677 96.35C123.522 96.2584 123.373 96.1641 123.221 96.0646C123.089 95.9761 122.957 95.884 122.827 95.7933C122.179 95.332 121.556 94.847 120.957 94.3405C115.721 89.6531 113.8 82.3169 115.861 75.7383L118.84 75.9428C120.449 76.0517 121.842 74.8378 121.956 73.2261C122.069 71.6166 120.855 70.223 119.248 70.1119L118.83 70.0812C131.51 54.4381 155.914 67.8228 149.717 86.8221L148.98 85.9756C146.332 83.1528 142.147 86.8101 144.575 89.8164L146.701 92.2599C142.461 97.5025 135.716 99.7876 129.375 98.5415L129.376 98.5487ZM146.579 100.319C154.314 95.0547 158.167 84.3913 155.893 75.6338L158.7 72.6966C159.815 71.5298 159.778 69.6818 158.612 68.5651C157.448 67.4521 155.6 67.4927 154.486 68.6596L153.591 69.5982C150.181 63.0733 142.721 58.1199 135.39 57.5072C136.953 54.2214 132.497 51.5814 130.369 54.5598L128.14 57.8707C120.568 59.2914 113.423 65.1948 110.709 72.7773C109.938 51.0668 134.091 36.1525 153.12 46.4138C149.822 47.962 151.571 52.8419 155.125 51.8858C155.125 51.8858 159.097 50.6721 159.183 50.6365C167.441 58.1131 170.563 69.6593 167.556 80.137L167.46 80.0285C166.402 78.8122 164.558 78.6856 163.342 79.7468C162.124 80.8064 161.996 82.653 163.054 83.8693L165.056 86.1724C161.126 93.3819 154.087 98.529 146.577 100.321L146.579 100.319Z" fill="url(#paint0_linear_298_829)"/>
<defs>
<linearGradient id="paint0_linear_298_829" x1="138.483" y1="62.9124" x2="126.684" y2="107.69" gradientUnits="userSpaceOnUse">
<stop stop-color="#FAFAFA"/>
<stop offset="1" stop-color="#D6D6D6"/>
</linearGradient>
</defs>
</svg>
