<svg width="201" height="117" viewBox="0 0 201 117" fill="none" xmlns="http://www.w3.org/2000/svg">
<rect x="78.9395" y="69.8076" width="122.016" height="47.1113" rx="23.5557" fill="#FC6238"/>
<rect x="0.951172" y="40.7842" width="145.221" height="53.3428" rx="26.6714" fill="#FC6238"/>
<rect x="94.8574" y="7.52686" width="43.7715" height="24.9727" rx="12.4863" fill="#FC6238"/>
<path d="M87.4988 8.74283C87.4988 7.70016 88.3481 6.85089 89.3908 6.85089H100.322C101.365 6.85089 102.214 7.70016 102.214 8.74283V20.0132H108.52V8.74283C108.52 4.2218 104.843 0.544434 100.322 0.544434H89.3908C84.8697 0.544434 81.1924 4.2218 81.1924 8.74283V20.0132H87.4988V8.74283Z" fill="url(#paint0_linear_127_794)"/>
<path d="M120.083 26.3201H69.631C65.5752 26.3201 62.2734 29.6218 62.2734 33.6776V94.5111C62.2734 98.2109 65.0203 101.28 68.5799 101.793V105.022C68.5799 106.762 69.9925 108.175 71.7331 108.175C73.4737 108.175 74.8864 106.762 74.8864 105.022V101.869H114.827V105.022C114.827 106.762 116.24 108.175 117.98 108.175C119.721 108.175 121.134 106.762 121.134 105.022V101.793C124.693 101.283 127.44 98.2109 127.44 94.5111V33.6776C127.44 29.6218 124.138 26.3201 120.083 26.3201ZM81.1928 90.3068C81.1928 92.0474 79.7802 93.46 78.0396 93.46C76.299 93.46 74.8864 92.0474 74.8864 90.3068V37.8819C74.8864 36.1413 76.299 34.7287 78.0396 34.7287C79.7802 34.7287 81.1928 36.1413 81.1928 37.8819V90.3068ZM111.674 93.46C109.933 93.46 108.521 92.0474 108.521 90.3068V37.8819C108.521 36.1413 109.933 34.7287 111.674 34.7287C113.415 34.7287 114.827 36.1413 114.827 37.8819V90.3068C114.827 92.0474 113.415 93.46 111.674 93.46Z" fill="url(#paint1_linear_127_794)"/>
<defs>
<linearGradient id="paint0_linear_127_794" x1="93.1952" y1="10.2413" x2="95.8189" y2="19.9548" gradientUnits="userSpaceOnUse">
<stop stop-color="#FAFAFA"/>
<stop offset="1" stop-color="#D6D6D6"/>
</linearGradient>
<linearGradient id="paint1_linear_127_794" x1="90.8954" y1="67.0901" x2="107.906" y2="102.808" gradientUnits="userSpaceOnUse">
<stop stop-color="#FAFAFA"/>
<stop offset="1" stop-color="#D6D6D6"/>
</linearGradient>
</defs>
</svg>
