<svg width="227" height="105" viewBox="0 0 227 105" fill="none" xmlns="http://www.w3.org/2000/svg">
<rect x="47.0312" width="166.884" height="59.2812" rx="29.6406" fill="#FC6238"/>
<rect x="187.118" y="74.5566" width="39.6113" height="23.0869" rx="11.5435" fill="#FC6238"/>
<rect x="0.269531" y="33.2715" width="166.884" height="64.3725" rx="32.1862" fill="#FC6238"/>
<path d="M71.4028 75.1121C67.2391 75.1121 63.8779 71.751 63.8779 67.5872V63.8247C63.8779 59.6609 67.2391 56.2998 71.4028 56.2998H95.6832C94.6799 59.8616 94.0779 63.6742 94.0779 67.5872C94.0779 70.1457 94.3287 72.6539 94.7802 75.1121H71.4028ZM78.9277 29.9627H118.308C122.121 28.2068 126.234 27.0028 130.599 26.5012C131.351 25.3474 131.803 23.9427 131.803 22.4377V18.6753C131.803 14.5115 128.442 11.1504 124.278 11.1504H78.9277C74.764 11.1504 71.4028 14.5115 71.4028 18.6753V22.4377C71.4028 26.6015 74.764 29.9627 78.9277 29.9627ZM78.9277 52.5374H96.9373C99.9473 44.9121 105.114 38.3906 111.736 33.7251H78.9277C74.764 33.7251 71.4028 37.0862 71.4028 41.25V45.0125C71.4028 49.1763 74.764 52.5374 78.9277 52.5374ZM78.9277 78.8745C74.764 78.8745 71.4028 82.2357 71.4028 86.3995V90.1619C71.4028 94.3257 74.764 97.6868 78.9277 97.6868H107.121C101.753 92.62 97.74 86.1486 95.6832 78.8745H78.9277Z" fill="url(#paint0_linear_298_827)"/>
<path d="M142.813 55.1223H136.971V66.8067H142.813C146.085 66.8067 148.655 64.2362 148.655 60.9645C148.655 57.6929 146.085 55.1223 142.813 55.1223Z" fill="url(#paint1_linear_298_827)"/>
<path d="M139.306 34.0911C119.91 34.0911 104.253 49.7482 104.253 69.1443C104.253 88.5405 119.91 104.198 139.306 104.198C158.702 104.198 174.359 88.5405 174.359 69.1443C174.359 49.7482 158.702 34.0911 139.306 34.0911ZM142.812 71.4812H136.969V76.155H143.98C145.148 76.155 146.317 77.3234 146.317 78.4919C146.317 79.6603 145.148 80.8288 143.98 80.8288H136.969V85.5025C136.969 86.671 136.035 87.8394 134.632 87.8394C133.23 87.8394 132.296 86.671 132.296 85.5025V80.8288H127.622C126.22 80.8288 125.285 79.6603 125.285 78.4919C125.285 77.3234 126.22 76.155 127.622 76.155H132.296V71.4812H127.622C126.22 71.4812 125.285 70.3128 125.285 69.1443C125.285 67.9759 126.22 66.8075 127.622 66.8075H132.296V52.7861C132.296 51.384 133.23 50.4493 134.632 50.4493H142.812C148.654 50.4493 153.328 55.123 153.328 60.9652C153.328 66.8075 148.654 71.4812 142.812 71.4812Z" fill="url(#paint2_linear_298_827)"/>
<defs>
<linearGradient id="paint0_linear_298_827" x1="93.7113" y1="54.2521" x2="111.855" y2="91.8134" gradientUnits="userSpaceOnUse">
<stop stop-color="#FAFAFA"/>
<stop offset="1" stop-color="#D6D6D6"/>
</linearGradient>
<linearGradient id="paint1_linear_298_827" x1="142.103" y1="60.942" x2="144.176" y2="66.4109" gradientUnits="userSpaceOnUse">
<stop stop-color="#FAFAFA"/>
<stop offset="1" stop-color="#D6D6D6"/>
</linearGradient>
<linearGradient id="paint2_linear_298_827" x1="135.045" y1="69.0094" x2="147.486" y2="101.822" gradientUnits="userSpaceOnUse">
<stop stop-color="#FAFAFA"/>
<stop offset="1" stop-color="#D6D6D6"/>
</linearGradient>
</defs>
</svg>
