<svg width="222" height="166" viewBox="0 0 222 166" fill="none" xmlns="http://www.w3.org/2000/svg">
<rect x="169.336" y="106.266" width="38.4199" height="21.7544" rx="10.8772" fill="#FC6238"/>
<rect x="0.929688" y="76.9189" width="32.4609" height="21.7544" rx="10.8772" fill="#FC6238"/>
<rect x="41.3887" y="76.9189" width="122.016" height="53.897" rx="26.9485" fill="#FC6238"/>
<rect x="82.8926" y="39.5146" width="138.627" height="53.897" rx="26.9485" fill="#FC6238"/>
<mask id="mask0_298_830" style="mask-type:luminance" maskUnits="userSpaceOnUse" x="54" y="0" width="166" height="166">
<path d="M152.205 0.257811L54.0566 98.4062L121.15 165.5L219.299 67.3515L152.205 0.257811Z" fill="white"/>
</mask>
<g mask="url(#mask0_298_830)">
<path d="M183.002 32.3057C182.749 32.2635 176.722 31.3088 171.318 34.8763C166.42 38.1102 157.098 47.3365 156.703 47.7276C156.063 48.364 155.426 48.9046 155.114 49.1481C154.625 49.196 153.544 49.2075 152.739 49.1232L112.061 44.8407C111.183 44.7487 109.465 44.6336 108.605 44.7927C107.13 45.063 105.043 47.442 104.811 47.7123L104.353 48.2433C103.728 48.9679 102.643 50.3213 102.403 51.2433C102.259 51.7897 101.826 53.4497 105.773 55.4645C105.773 55.4645 134.102 69.9222 134.223 69.9893C134.125 70.0986 124.257 79.9747 124.257 79.9747C123.605 80.6265 122.957 81.1824 122.644 81.4259C122.161 81.4911 121.059 81.5313 120.248 81.4642L106.279 80.3313C106.18 80.3236 103.86 80.1396 102.773 80.4061C101.318 80.7607 99.8632 82.7793 99.8459 82.8003C99.4415 83.3889 98.9795 84.3224 98.8568 85.0815C98.6325 86.4522 99.7558 87.8439 102.19 89.2164C108.8 92.943 118.517 98.5463 119.842 99.568C120.864 100.893 126.467 110.61 130.193 117.219C130.485 117.737 131.499 119.468 132.325 120.072C134.02 121.31 136.508 119.635 136.613 119.564C137.231 119.142 137.967 118.467 138.365 117.961C139.32 116.746 139.128 113.725 139.08 113.132L137.947 99.1635C137.875 98.2549 137.873 97.4095 137.89 97.0204C138.156 96.612 138.85 95.7418 139.437 95.1552C139.437 95.1552 149.313 85.279 149.413 85.187C149.486 85.3135 163.947 113.639 163.947 113.639C164.38 114.49 165.222 116.002 165.977 116.573C167.191 117.492 168.939 116.982 171.168 115.059L171.699 114.601C172.037 114.309 172.524 113.869 172.984 113.408C173.444 112.948 173.866 112.481 174.103 112.116C174.916 110.859 174.611 107.706 174.573 107.349L170.292 66.6729C170.197 65.7758 170.174 64.94 170.179 64.5432C170.446 64.131 171.115 63.2818 171.684 62.7087C172.077 62.3157 181.303 52.9935 184.537 48.0918C188.103 42.686 187.15 36.661 187.108 36.408C186.774 34.4028 185.011 32.6392 183.006 32.3057H183.002Z" fill="url(#paint0_linear_298_830)"/>
</g>
<path d="M92.9237 98.1373L85.298 105.763C83.6744 107.387 83.6897 110.036 85.3325 111.679C86.9754 113.322 89.6246 113.337 91.2483 111.713L98.874 104.088C100.498 102.464 100.482 99.8147 98.8395 98.1718C97.1966 96.529 94.5474 96.5137 92.9237 98.1373Z" fill="url(#paint1_linear_298_830)"/>
<path d="M116.105 121.32L108.48 128.946C106.856 130.569 106.871 133.219 108.512 134.859C110.153 136.5 112.804 136.518 114.428 134.894L122.054 127.268C123.677 125.645 123.662 122.995 122.019 121.353C120.376 119.71 117.729 119.696 116.105 121.32Z" fill="url(#paint2_linear_298_830)"/>
<path d="M104.517 109.728L87.8908 126.354C86.2671 127.977 86.2825 130.627 87.9234 132.268C89.5643 133.909 92.2155 133.926 93.8391 132.302L110.465 115.676C112.089 114.053 112.075 111.405 110.43 109.761C108.786 108.116 106.14 108.104 104.517 109.728Z" fill="url(#paint3_linear_298_830)"/>
<defs>
<linearGradient id="paint0_linear_298_830" x1="146.379" y1="72.7916" x2="189.552" y2="92.9513" gradientUnits="userSpaceOnUse">
<stop stop-color="#FAFAFA"/>
<stop offset="1" stop-color="#D6D6D6"/>
</linearGradient>
<linearGradient id="paint1_linear_298_830" x1="91.2535" y1="105.735" x2="94.87" y2="108.316" gradientUnits="userSpaceOnUse">
<stop stop-color="#FAFAFA"/>
<stop offset="1" stop-color="#D6D6D6"/>
</linearGradient>
<linearGradient id="paint2_linear_298_830" x1="114.434" y1="128.917" x2="118.049" y2="131.497" gradientUnits="userSpaceOnUse">
<stop stop-color="#FAFAFA"/>
<stop offset="1" stop-color="#D6D6D6"/>
</linearGradient>
<linearGradient id="paint3_linear_298_830" x1="97.7983" y1="122.372" x2="101.267" y2="125.209" gradientUnits="userSpaceOnUse">
<stop stop-color="#FAFAFA"/>
<stop offset="1" stop-color="#D6D6D6"/>
</linearGradient>
</defs>
</svg>
