<svg width="182" height="107" viewBox="0 0 182 107" fill="none" xmlns="http://www.w3.org/2000/svg">
<rect x="19.9824" y="0.378906" width="143.301" height="59.8101" rx="29.905" fill="#FC6238"/>
<rect x="0.560547" y="48.9131" width="129.527" height="43.751" rx="21.8755" fill="#FC6238"/>
<rect x="145.052" y="69.5771" width="36.4629" height="23.0869" rx="11.5435" fill="#FC6238"/>
<path d="M106.887 45.8015H103.826V33.5601C103.826 20.0562 92.8474 9.07715 79.3435 9.07715C65.8396 9.07715 54.8606 20.0562 54.8606 33.5601V45.8015H51.8002C46.7404 45.8015 42.6191 49.9202 42.6191 54.9826V97.8277C42.6191 102.893 46.7404 107.009 51.8002 107.009H106.887C111.947 107.009 116.068 102.89 116.068 97.8277V54.9826C116.068 49.9202 111.947 45.8015 106.887 45.8015ZM63.0216 33.5601C63.0216 24.5575 70.3409 17.2381 79.3435 17.2381C88.3461 17.2381 95.6654 24.5575 95.6654 33.5601V45.8015H63.0216V33.5601ZM83.424 77.3105V86.6064C83.424 88.8583 81.6005 90.6868 79.3435 90.6868C77.0865 90.6868 75.263 88.8583 75.263 86.6064V77.3105C72.8351 75.8951 71.1825 73.2912 71.1825 70.2844C71.1825 65.7831 74.8422 62.1235 79.3435 62.1235C83.8448 62.1235 87.5045 65.7831 87.5045 70.2844C87.5045 73.2912 85.8519 75.8951 83.424 77.3105Z" fill="url(#paint0_linear_127_797)"/>
<defs>
<linearGradient id="paint0_linear_127_797" x1="74.8787" y1="57.8545" x2="95.987" y2="99.609" gradientUnits="userSpaceOnUse">
<stop stop-color="#FAFAFA"/>
<stop offset="1" stop-color="#D6D6D6"/>
</linearGradient>
</defs>
</svg>
