<svg width="92" height="73" viewBox="0 0 92 73" fill="none" xmlns="http://www.w3.org/2000/svg">
<mask id="mask0_94_689" style="mask-type:alpha" maskUnits="userSpaceOnUse" x="0" y="0" width="92" height="74">
<rect x="0.164062" y="0.728516" width="90.9998" height="72.2718" fill="white"/>
</mask>
<g mask="url(#mask0_94_689)">
<path d="M65.6755 19.5H22.6847C21.6158 19.5 20.5906 19.9246 19.8348 20.6805C19.0789 21.4363 18.6543 22.4615 18.6543 23.5304V82.6428C18.6543 83.7117 19.0789 84.7368 19.8348 85.4927C20.5906 86.2485 21.6158 86.6731 22.6847 86.6731H69.7059V23.5304C69.7059 22.4615 69.2813 21.4363 68.5254 20.6805C67.7696 19.9246 66.7444 19.5 65.6755 19.5Z" fill="#BCBCBC"/>
<path d="M73.737 26.2158H30.7462C29.6773 26.2158 28.6521 26.6404 27.8963 27.3963C27.1404 28.1521 26.7158 29.1773 26.7158 30.2462V89.3586C26.7158 90.4275 27.1404 91.4526 27.8963 92.2085C28.6521 92.9643 29.6773 93.389 30.7462 93.389H77.7674V30.2462C77.7674 29.1773 77.3428 28.1521 76.5869 27.3963C75.8311 26.6404 74.806 26.2158 73.737 26.2158Z" fill="#CCCCCC"/>
<path d="M85.8289 48.9481V96.0767C85.8297 96.6062 85.7259 97.1306 85.5236 97.6199C85.3213 98.1093 85.0244 98.5538 84.65 98.9282C84.2757 99.3026 83.8311 99.5995 83.3418 99.8018C82.8524 100.004 82.328 100.108 81.7986 100.107H38.8077C38.2783 100.108 37.7539 100.004 37.2645 99.8018C36.7752 99.5995 36.3306 99.3026 35.9563 98.9282C35.5819 98.5538 35.285 98.1093 35.0827 97.6199C34.8804 97.1306 34.7766 96.6062 34.7774 96.0767V36.9241C34.7749 35.8519 35.1979 34.8226 35.9535 34.0619C36.7091 33.3013 37.7356 32.8715 38.8077 32.8668L69.7074 32.934C69.7074 32.934 85.8289 48.3569 85.8289 48.9481Z" fill="#E0E0E0"/>
<path d="M75.0744 57.0507H45.5183C45.162 57.0507 44.8202 56.9092 44.5683 56.6572C44.3163 56.4053 44.1748 56.0635 44.1748 55.7072C44.1748 55.3509 44.3163 55.0092 44.5683 54.7573C44.8202 54.5053 45.162 54.3638 45.5183 54.3638H75.0744C75.4308 54.3638 75.7725 54.5053 76.0244 54.7573C76.2764 55.0092 76.4179 55.3509 76.4179 55.7072C76.4179 56.0635 76.2764 56.4053 76.0244 56.6572C75.7725 56.9092 75.4308 57.0507 75.0744 57.0507Z" fill="#757575"/>
<path d="M75.0744 63.7675H45.5183C45.162 63.7675 44.8202 63.626 44.5683 63.374C44.3163 63.1221 44.1748 62.7803 44.1748 62.424C44.1748 62.0677 44.3163 61.726 44.5683 61.4741C44.8202 61.2221 45.162 61.0806 45.5183 61.0806H75.0744C75.4308 61.0806 75.7725 61.2221 76.0244 61.4741C76.2764 61.726 76.4179 62.0677 76.4179 62.424C76.4179 62.7803 76.2764 63.1221 76.0244 63.374C75.7725 63.626 75.4308 63.7675 75.0744 63.7675Z" fill="#757575"/>
<path d="M75.0744 70.4853H45.5183C45.162 70.4853 44.8202 70.3437 44.5683 70.0918C44.3163 69.8398 44.1748 69.4981 44.1748 69.1418C44.1748 68.7855 44.3163 68.4438 44.5683 68.1918C44.8202 67.9399 45.162 67.7983 45.5183 67.7983H75.0744C75.4308 67.7983 75.7725 67.9399 76.0244 68.1918C76.2764 68.4438 76.4179 68.7855 76.4179 69.1418C76.4179 69.4981 76.2764 69.8398 76.0244 70.0918C75.7725 70.3437 75.4308 70.4853 75.0744 70.4853Z" fill="#757575"/>
<path d="M71.0499 38.309H48.2111C47.1425 38.3101 46.118 38.7351 45.3624 39.4907C44.6068 40.2463 44.1818 41.2708 44.1807 42.3393V43.6828C44.1818 44.7514 44.6068 45.7758 45.3624 46.5314C46.118 47.287 47.1425 47.712 48.2111 47.7132H71.0499C73.2724 47.7132 73.2724 38.309 71.0499 38.309Z" fill="#757575"/>
<path d="M84.8977 46.3688C84.8977 46.3688 72.996 34.3837 72.7931 34.1298C72.3911 33.7244 71.9081 33.4084 71.3757 33.2024C70.8432 32.9963 70.2733 32.9049 69.7031 32.9341V45.0253C69.7062 46.0933 70.1319 47.1166 70.887 47.8718C71.6422 48.627 72.6655 49.0526 73.7335 49.0557H85.8247C85.8249 48.0816 85.4985 47.1356 84.8977 46.3688Z" fill="#BDBDBD"/>
</g>
</svg>
