<svg width="159" height="97" viewBox="0 0 159 97" fill="none" xmlns="http://www.w3.org/2000/svg">
<mask id="mask0_244_800" style="mask-type:alpha" maskUnits="userSpaceOnUse" x="0" y="0" width="159" height="97">
<path d="M159 20C159 8.9543 150.046 0 139 0H0.501953V96.1934H139C150.046 96.1934 159 87.2391 159 76.1934V20Z" fill="#D3F26A"/>
</mask>
<g mask="url(#mask0_244_800)">
<rect x="16.6387" y="17.6553" width="122.466" height="37.8263" rx="18.9132" fill="#FC6238"/>
<rect x="34.6719" y="46.5938" width="134.9" height="49.3623" rx="24.6812" fill="#FC6238"/>
<path d="M119.06 49.3583C119.06 49.3583 129.151 59.4494 136.284 66.5832C143.418 73.717 144.337 85.3368 131.298 98.376C118.259 111.415 106.63 110.496 99.5052 103.362C92.3714 96.2286 82.2803 86.1375 82.2803 86.1375L119.06 49.3583Z" fill="url(#paint0_linear_244_800)"/>
<path d="M120.471 50.7682C114.465 55.2723 109.006 68.3571 115.057 81.3872C119.242 90.3955 130.243 99.3583 133.082 96.5193C134.975 94.6267 136.549 93.0555 137.805 91.8059C139.679 89.9315 150.125 79.0305 142.782 60.7501C135.439 42.4697 130.343 32.9245 129.16 30.7771C127.978 28.6297 125.084 27.8835 121.872 29.8672C118.651 31.8508 115.575 36.0638 117.586 42.679C119.597 49.3032 120.48 50.7773 120.48 50.7773L120.471 50.7682Z" fill="url(#paint1_linear_244_800)"/>
<path style="mix-blend-mode:overlay" opacity="0.3" d="M129.453 70.0686C129.808 78.7766 126.423 85.9832 121.882 86.1743C117.342 86.3563 113.375 79.4499 113.02 70.7419C112.665 62.0339 116.05 54.8182 120.59 54.6362C125.131 54.4542 129.098 61.3606 129.453 70.0686Z" fill="url(#paint2_radial_244_800)"/>
<path d="M103.689 26.6555C101.633 23.7073 97.5838 22.9794 94.6356 25.0358C91.6874 27.0923 90.9595 31.1505 93.0159 34.0987L110.214 58.7668L120.887 51.3236L103.689 26.6555Z" fill="url(#paint3_linear_244_800)"/>
<path d="M84.6375 31.2348C82.1989 28.596 78.0769 28.4414 75.4472 30.8891C72.8085 33.3277 72.6538 37.4496 75.1015 40.0884L101.599 68.6783L111.144 59.8338L84.6466 31.2439L84.6375 31.2348Z" fill="url(#paint4_linear_244_800)"/>
<path d="M77.2113 46.9922C74.527 44.5991 70.4141 44.8357 68.021 47.52C65.6279 50.2043 65.8645 54.3171 68.5488 56.7102L92.7893 78.321L101.452 68.603L77.2113 47.0013V46.9922Z" fill="url(#paint5_linear_244_800)"/>
<path d="M72.1409 63.0525C69.2383 60.9414 65.1618 61.5784 63.0508 64.4811C60.9397 67.3837 61.5767 71.4511 64.4794 73.5712L84.1338 87.8753L91.7954 77.3565L72.1409 63.0525Z" fill="url(#paint6_linear_244_800)"/>
<path d="M111.755 24.07C111.755 24.07 111.637 23.8698 111.473 23.5058C111.4 23.3056 111.282 23.1327 111.173 22.9508C111.054 22.7688 110.927 22.5595 110.79 22.3229C110.654 22.0863 110.472 21.8588 110.299 21.6132C110.126 21.3675 109.926 21.1309 109.726 20.8943C109.507 20.6668 109.307 20.4212 109.061 20.2028C108.943 20.0936 108.843 19.9662 108.707 19.8661L108.516 19.7114L108.425 19.6295L108.379 19.584L108.361 19.5658H108.352V19.5476C108.352 19.5476 108.27 19.4839 108.434 19.6022C108.097 19.3747 107.688 19.0381 107.496 18.9471C107.287 18.7833 106.987 18.6468 106.705 18.483C106.414 18.3465 106.132 18.2009 105.849 18.1008C105.567 18.0008 105.294 17.8643 105.031 17.8006C104.767 17.7187 104.512 17.6368 104.284 17.5913C104.057 17.5367 103.848 17.4639 103.675 17.4457C103.329 17.382 103.111 17.3183 103.111 17.3183L103.01 17.291C102.647 17.1909 102.428 16.8088 102.528 16.4448C102.574 16.2719 102.683 16.1354 102.819 16.0444C102.819 16.0444 103.02 15.9079 103.42 15.7168C103.611 15.6167 103.857 15.5167 104.157 15.4348C104.448 15.3347 104.785 15.2437 105.167 15.2164C105.549 15.1527 105.959 15.1345 106.405 15.1527C106.85 15.1618 107.314 15.2437 107.788 15.3438C108.261 15.4712 108.743 15.6076 109.262 15.8806C109.844 16.1445 110.099 16.3447 110.481 16.5904L110.599 16.6814L110.636 16.7087L110.708 16.7724L110.863 16.8997L111.163 17.1636C111.364 17.3274 111.546 17.5185 111.709 17.7187C112.073 18.1008 112.346 18.5285 112.601 18.9471C112.838 19.3838 113.038 19.8115 113.174 20.2392C113.302 20.6668 113.42 21.0672 113.447 21.4585C113.475 21.6496 113.493 21.8315 113.511 22.0044C113.511 22.1864 113.511 22.3684 113.511 22.5322C113.511 22.8598 113.484 23.1327 113.429 23.3147C113.338 23.6969 113.256 23.9244 113.256 23.9244C113.102 24.352 112.628 24.5704 112.201 24.4157C112.019 24.352 111.864 24.2156 111.773 24.0609L111.755 24.07Z" fill="#F4F4F4"/>
<path d="M101.637 9.46733C101.637 9.46733 102.001 9.31264 102.656 9.08516C102.966 8.95777 103.402 8.84858 103.93 8.76669C104.194 8.72119 104.476 8.66659 104.767 8.612C105.058 8.5938 105.359 8.5756 105.677 8.5574C105.996 8.5574 106.332 8.50281 106.678 8.5301C107.024 8.5574 107.379 8.5938 107.752 8.6211C108.489 8.68479 109.253 8.86678 110.036 9.09426C110.418 9.23075 110.809 9.35814 111.21 9.50373C111.61 9.63112 111.974 9.8586 112.365 10.0406C113.148 10.3955 113.839 10.9323 114.558 11.4237L115.504 12.2517C115.777 12.4792 116.096 12.825 116.396 13.1707C117.033 13.8441 117.479 14.5447 117.925 15.2181C118.161 15.5456 118.307 15.9278 118.489 16.2645C118.653 16.6194 118.835 16.9469 118.953 17.3018C119.217 17.9933 119.426 18.6485 119.545 19.2763C119.608 19.5857 119.681 19.886 119.726 20.1681C119.754 20.4592 119.772 20.7322 119.79 20.987C119.845 21.4966 119.854 21.9333 119.817 22.3064C119.772 23.0343 119.726 23.4438 119.726 23.4438C119.681 23.8078 119.353 24.0626 118.989 24.0171C118.735 23.9807 118.534 23.8169 118.453 23.5985L118.425 23.5257C118.425 23.5257 118.289 23.1617 118.098 22.543C118.025 22.2336 117.861 21.8696 117.697 21.4602C117.615 21.26 117.534 21.0416 117.443 20.8141C117.324 20.5957 117.215 20.3592 117.097 20.1226C116.897 19.6312 116.569 19.149 116.278 18.6303C115.978 18.1116 115.577 17.6203 115.204 17.1016C114.795 16.6103 114.367 16.0916 113.912 15.6912C113.703 15.4728 113.503 15.2454 113.166 14.9997L112.356 14.3172C111.783 13.9624 111.255 13.5165 110.655 13.2344C110.081 12.8887 109.481 12.6248 108.898 12.3518C108.607 12.2062 108.298 12.1425 108.016 12.0333C107.725 11.9241 107.442 11.7967 107.151 11.7421C106.578 11.5966 106.032 11.4328 105.513 11.3509C105.25 11.3054 105.004 11.2508 104.758 11.2053C104.531 11.178 104.303 11.1507 104.103 11.1234C103.694 11.0688 103.311 11.0051 102.947 11.0142C102.256 10.996 101.865 10.9505 101.865 10.9505C101.446 10.905 101.137 10.5319 101.182 10.1043C101.209 9.8131 101.391 9.58562 101.637 9.47643V9.46733Z" fill="#F4F4F4"/>
<path d="M66.5578 84.9008C66.5578 84.9008 66.3667 85.0373 66.0119 85.2284C65.8572 85.3285 65.6024 85.4286 65.2839 85.5105C65.1201 85.556 64.9563 85.6015 64.7744 85.656C64.6015 85.6833 64.4195 85.7106 64.2284 85.7379C63.8462 85.8107 63.4277 85.8107 62.9818 85.7925C62.5359 85.7743 62.0628 85.6833 61.5896 85.5742C61.1164 85.4286 60.6251 85.283 60.1701 85.0282C59.9335 84.919 59.697 84.8007 59.4877 84.646L59.1601 84.4276L58.9963 84.3185L58.9144 84.2639L58.878 84.2366L58.7597 84.1456C58.4231 83.8362 58.1683 83.6451 57.7588 83.1537C57.3675 82.717 57.1037 82.2893 56.858 81.8708C56.6305 81.434 56.4303 81.0063 56.312 80.5787C56.1846 80.151 56.0937 79.7506 56.0482 79.3685C55.9845 78.9954 55.9845 78.6496 56.0027 78.3402C56.0027 78.04 56.0391 77.7761 56.0846 77.5577C56.1664 77.13 56.2392 76.8935 56.2392 76.8935C56.3575 76.5295 56.7488 76.3293 57.1037 76.4476C57.2675 76.5022 57.4039 76.6114 57.4858 76.757L57.5404 76.848C57.5404 76.848 57.6587 77.039 57.8043 77.3575C57.868 77.5213 57.9863 77.7033 58.0955 77.9126C58.1956 78.1219 58.3412 78.3402 58.4959 78.5768C58.6232 78.8225 58.8325 79.05 58.9963 79.2957C59.1783 79.5413 59.3876 79.7779 59.5878 80.0145C59.8153 80.242 60.0336 80.4968 60.2429 80.6514C60.3794 80.8152 60.8162 81.1246 61.1164 81.3885C61.1346 81.4067 60.9709 81.2702 61.0437 81.3248H61.0528L61.08 81.3521L61.1346 81.3885L61.2347 81.4522L61.4349 81.5978C61.5623 81.6979 61.7079 81.7707 61.8535 81.8526C62.1265 82.0345 62.4176 82.1619 62.6997 82.3075C62.9818 82.4349 63.2639 82.5714 63.546 82.6715C63.828 82.7716 64.0919 82.8899 64.3558 82.9627C64.6106 83.0355 64.8471 83.1083 65.0564 83.172C65.2566 83.2265 65.4568 83.2993 65.6661 83.3175C66.0573 83.3812 66.2848 83.4449 66.2848 83.4449C66.7216 83.5632 66.9764 84.0182 66.8581 84.4549C66.8035 84.646 66.6852 84.8007 66.5396 84.9099L66.5578 84.9008Z" fill="#F4F4F4"/>
<path d="M51.0431 77.3005C51.0431 77.3005 51.1887 77.6735 51.3888 78.3287C51.4798 78.6745 51.6345 79.0293 51.7983 79.4115C51.8802 79.6026 51.9621 79.8119 52.044 80.0302C52.1532 80.2486 52.2624 80.4761 52.3807 80.7218C52.5899 81.2041 52.8993 81.6863 53.1814 82.205C53.3179 82.4689 53.509 82.7054 53.691 82.9602C53.8729 83.215 54.0185 83.488 54.2278 83.7337C54.6373 84.225 55.0467 84.7346 55.529 85.1986C55.7656 85.4352 55.984 85.69 56.2569 85.8902L56.6391 86.2177L56.8302 86.3815L56.9212 86.4634L56.9667 86.5089L56.994 86.5271H57.0031V86.5453C56.9667 86.518 57.085 86.609 56.9303 86.4907C57.549 86.9002 58.2406 87.4643 58.741 87.7009C59.2415 88.0376 59.8512 88.3106 60.4426 88.5836C61.0432 88.8019 61.6164 89.0658 62.1988 89.2205C62.7811 89.3661 63.3271 89.5572 63.8548 89.6209C64.1187 89.6664 64.3735 89.7119 64.6101 89.7665C64.8558 89.7938 65.0832 89.8211 65.3016 89.8393C65.7384 89.8848 66.1297 89.9485 66.4572 89.9394C67.1033 89.9667 67.4945 90.003 67.4945 90.003H67.5673C67.9313 90.0485 68.1952 90.367 68.1588 90.731C68.1315 90.9858 67.9677 91.1859 67.7493 91.2769C67.7493 91.2769 67.3763 91.4316 66.6756 91.6682C66.3298 91.7956 65.9022 91.9048 65.4017 91.9867C65.1469 92.0322 64.8831 92.0868 64.5919 92.1323C64.3098 92.1596 64.0004 92.1687 63.6819 92.1869C63.045 92.2415 62.3535 92.2051 61.6164 92.1323C61.2433 92.1141 60.8794 92.0231 60.4972 91.9594C60.115 91.8775 59.7147 91.832 59.3416 91.6864C58.5773 91.4316 57.7765 91.1769 56.9667 90.7401C56.0841 90.3306 55.5563 89.9121 54.883 89.4753L54.7738 89.3934L54.7465 89.3661L54.6828 89.3115L54.5554 89.2114L54.3097 89.0021L53.8183 88.5745C53.4817 88.3015 53.1905 87.983 52.9084 87.6645C52.6354 87.337 52.317 87.0458 52.0895 86.6909C51.8529 86.3451 51.6254 85.9994 51.3888 85.6627C50.9703 84.9711 50.5972 84.2705 50.3424 83.579C50.215 83.2332 50.0967 82.8965 49.9785 82.5689C49.8602 82.2414 49.8147 81.9047 49.7419 81.5953C49.6782 81.2859 49.6145 80.9857 49.5508 80.7036C49.5235 80.4033 49.5053 80.1212 49.478 79.8483C49.4234 79.3114 49.4143 78.8655 49.4598 78.5289C49.5144 77.8464 49.569 77.4461 49.569 77.4461C49.6327 77.0275 50.0239 76.7363 50.4425 76.8C50.7246 76.8455 50.9521 77.0366 51.0522 77.2823L51.0431 77.3005Z" fill="#F4F4F4"/>
</g>
<defs>
<linearGradient id="paint0_linear_244_800" x1="104.229" y1="74.4622" x2="129.509" y2="86.8222" gradientUnits="userSpaceOnUse">
<stop stop-color="#FAFAFA"/>
<stop offset="1" stop-color="#D6D6D6"/>
</linearGradient>
<linearGradient id="paint1_linear_244_800" x1="126.891" y1="62.7515" x2="144.669" y2="85.3547" gradientUnits="userSpaceOnUse">
<stop stop-color="#FAFAFA"/>
<stop offset="1" stop-color="#D6D6D6"/>
</linearGradient>
<radialGradient id="paint2_radial_244_800" cx="0" cy="0" r="1" gradientUnits="userSpaceOnUse" gradientTransform="translate(113.641 69.6467) rotate(-2.35) scale(8.16205 15.6962)">
<stop offset="0.23" stop-color="white"/>
<stop offset="0.44" stop-color="white" stop-opacity="0.73"/>
<stop offset="0.95" stop-color="white" stop-opacity="0.07"/>
<stop offset="1" stop-color="white" stop-opacity="0"/>
</radialGradient>
<linearGradient id="paint3_linear_244_800" x1="107.219" y1="49.0601" x2="102.765" y2="20.7246" gradientUnits="userSpaceOnUse">
<stop stop-color="#FAFAFA"/>
<stop offset="1" stop-color="#D6D6D6"/>
</linearGradient>
<linearGradient id="paint4_linear_244_800" x1="93.3617" y1="57.6844" x2="88.9445" y2="25.4028" gradientUnits="userSpaceOnUse">
<stop stop-color="#FAFAFA"/>
<stop offset="1" stop-color="#D6D6D6"/>
</linearGradient>
<linearGradient id="paint5_linear_244_800" x1="84.9404" y1="69.1485" x2="81.6172" y2="42.1193" gradientUnits="userSpaceOnUse">
<stop stop-color="#FAFAFA"/>
<stop offset="1" stop-color="#D6D6D6"/>
</linearGradient>
<linearGradient id="paint6_linear_244_800" x1="77.6806" y1="80.6251" x2="75.2465" y2="59.2144" gradientUnits="userSpaceOnUse">
<stop stop-color="#FAFAFA"/>
<stop offset="1" stop-color="#D6D6D6"/>
</linearGradient>
</defs>
</svg>
