<svg width="91" height="73" viewBox="0 0 91 73" fill="none" xmlns="http://www.w3.org/2000/svg">
<mask id="mask0_94_744" style="mask-type:alpha" maskUnits="userSpaceOnUse" x="0" y="0" width="91" height="73">
<rect y="0.728271" width="90.9998" height="72.2718" fill="white"/>
</mask>
<g mask="url(#mask0_94_744)">
<path fill-rule="evenodd" clip-rule="evenodd" d="M68.7684 92.7157H20.5114C17.9007 92.7157 15.7773 90.5919 15.7773 87.9811V34.0178C15.7773 31.407 17.9007 29.2838 20.5114 29.2838H77.2798C79.8898 29.2838 82.0137 31.4077 82.0137 34.0178V79.5709C82.0137 79.8006 81.9223 80.0206 81.7584 80.182L69.3749 92.4657C69.2135 92.6259 68.9957 92.7157 68.7684 92.7157Z" fill="#EAEAEA"/>
<path fill-rule="evenodd" clip-rule="evenodd" d="M15.7773 44.1362V34.0178C15.7773 31.407 17.9007 29.2838 20.5114 29.2838H77.2798C79.8898 29.2838 82.0137 31.4077 82.0137 34.0178V44.1362H15.7773ZM25.7829 39.9175C24.0144 39.9175 22.5752 38.4786 22.5752 36.7097C22.5752 34.9407 24.014 33.5018 25.7829 33.5018C27.5518 33.5018 28.9908 34.9407 28.9908 36.7097C28.9908 38.4786 27.5518 39.9175 25.7829 39.9175ZM39.202 39.9175C37.4335 39.9175 35.9943 38.4786 35.9943 36.7097C35.9943 34.9407 37.4331 33.5018 39.202 33.5018C40.9709 33.5018 42.4099 34.9407 42.4099 36.7097C42.4099 38.4786 40.9707 39.9175 39.202 39.9175ZM52.6211 39.9175C50.8525 39.9175 49.4135 38.4786 49.4135 36.7097C49.4135 34.9407 50.8525 33.5018 52.6211 33.5018C54.3901 33.5018 55.8293 34.9407 55.8293 36.7097C55.8293 38.4786 54.3899 39.9175 52.6211 39.9175ZM66.04 39.9175C64.2714 39.9175 62.8322 38.4786 62.8322 36.7097C62.8322 34.9407 64.2714 33.5018 66.04 33.5018C67.809 33.5018 69.2484 34.9407 69.2484 36.7097C69.2484 38.4786 67.809 39.9175 66.04 39.9175Z" fill="#454545"/>
<path fill-rule="evenodd" clip-rule="evenodd" d="M28.0126 57.5668H23.553C21.945 57.5668 20.6367 56.2584 20.6367 54.6506V50.1905C20.6367 48.5825 21.945 47.2742 23.553 47.2742H28.0126C29.6206 47.2742 30.929 48.5825 30.929 50.1905V54.6506C30.9286 56.2583 29.6203 57.5668 28.0126 57.5668Z" fill="#9F9F9F"/>
<path fill-rule="evenodd" clip-rule="evenodd" d="M20.9297 48.9177C21.187 48.3899 21.5989 47.9507 22.1063 47.6594L30.5439 56.0973C30.2528 56.6045 29.8138 57.0166 29.2861 57.2739L20.9297 48.9177Z" fill="#AFAFAF"/>
<path fill-rule="evenodd" clip-rule="evenodd" d="M43.4216 57.5668H38.9622C37.3542 57.5668 36.0459 56.2584 36.0459 54.6506V50.1905C36.0459 48.5825 37.3542 47.2742 38.9622 47.2742H43.4216C45.0297 47.2742 46.338 48.5825 46.338 50.1905V54.6506C46.3386 56.2583 45.0303 57.5668 43.4216 57.5668Z" fill="#9F9F9F"/>
<path fill-rule="evenodd" clip-rule="evenodd" d="M58.8296 57.5668H54.3695C52.7621 57.5668 51.4531 56.2584 51.4531 54.6506V50.1905C51.4531 48.5825 52.7614 47.2742 54.3695 47.2742H58.8296C60.4374 47.2742 61.7462 48.5825 61.7462 50.1905V54.6506C61.7464 56.2583 60.4381 57.5668 58.8296 57.5668Z" fill="#9F9F9F"/>
<path fill-rule="evenodd" clip-rule="evenodd" d="M74.2375 57.5668H69.7772C68.1692 57.5668 66.8604 56.2584 66.8604 54.6506V50.1905C66.8604 48.5825 68.1687 47.2742 69.7772 47.2742H74.2375C75.8448 47.2742 77.1538 48.5825 77.1538 50.1905V54.6506C77.1534 56.2583 75.8448 57.5668 74.2375 57.5668Z" fill="#9F9F9F"/>
<path fill-rule="evenodd" clip-rule="evenodd" d="M28.0126 70.6947H23.553C21.945 70.6947 20.6367 69.3864 20.6367 67.7779V63.3183C20.6367 61.7103 21.945 60.4016 23.553 60.4016H28.0126C29.6206 60.4016 30.929 61.7099 30.929 63.3183V67.7779C30.9286 69.3864 29.6203 70.6947 28.0126 70.6947Z" fill="#979797"/>
<path fill-rule="evenodd" clip-rule="evenodd" d="M43.4216 70.6947H38.9622C37.3542 70.6947 36.0459 69.3864 36.0459 67.7779V63.3183C36.0459 61.7103 37.3542 60.4016 38.9622 60.4016H43.4216C45.0297 60.4016 46.338 61.7099 46.338 63.3183V67.7779C46.3386 69.3864 45.0303 70.6947 43.4216 70.6947Z" fill="#979797"/>
<path fill-rule="evenodd" clip-rule="evenodd" d="M36.3906 61.9399C36.6686 61.4242 37.0972 61.0016 37.6171 60.7307L46.0091 69.1191C45.7389 69.6394 45.3166 70.0684 44.8013 70.3469L36.3906 61.9399Z" fill="#ADADAE"/>
<path fill-rule="evenodd" clip-rule="evenodd" d="M58.8296 70.6947H54.3695C52.7621 70.6947 51.4531 69.3864 51.4531 67.7779V63.3183C51.4531 61.7103 52.7614 60.4016 54.3695 60.4016H58.8296C60.4374 60.4016 61.7462 61.7099 61.7462 63.3183V67.7779C61.7464 69.3864 60.4381 70.6947 58.8296 70.6947Z" fill="#979797"/>
<path fill-rule="evenodd" clip-rule="evenodd" d="M74.2375 70.6947H69.7772C68.1692 70.6947 66.8604 69.3864 66.8604 67.7779V63.3183C66.8604 61.7103 68.1687 60.4016 69.7772 60.4016H74.2375C75.8448 60.4016 77.1538 61.7099 77.1538 63.3183V67.7779C77.1534 69.3864 75.8448 70.6947 74.2375 70.6947Z" fill="#979797"/>
<path fill-rule="evenodd" clip-rule="evenodd" d="M67.2002 61.9582C67.4743 61.4403 67.8998 61.0145 68.4173 60.7397L76.8191 69.1378C76.5448 69.6557 76.1192 70.0817 75.6017 70.3561L67.2002 61.9582Z" fill="#ADADAE"/>
<path fill-rule="evenodd" clip-rule="evenodd" d="M25.7828 37.5705C25.3077 37.5705 24.9219 37.1847 24.9219 36.7096V28.3083C24.9219 25.5743 27.1464 23.3505 29.88 23.3505L30.8798 23.3508C33.6315 23.3508 35.8696 25.5887 35.8696 28.3405V30.1444C35.8696 30.6198 35.4838 31.0056 35.0087 31.0056C34.5334 31.0056 34.1475 30.6198 34.1475 30.1444V28.3405C34.1475 26.5389 32.6813 25.0729 30.8798 25.0729H29.88C28.0957 25.0729 26.644 26.5239 26.644 28.3084V36.7104C26.644 37.1854 26.2588 37.5705 25.7828 37.5705Z" fill="#282929"/>
<path fill-rule="evenodd" clip-rule="evenodd" d="M39.2018 37.5705C38.7266 37.5705 38.3408 37.1847 38.3408 36.7096V28.3083C38.3408 25.5743 40.5647 23.3505 43.2984 23.3505L44.2984 23.3508C47.0501 23.3508 49.2888 25.5887 49.2888 28.3405V30.1444C49.2888 30.6198 48.9031 31.0056 48.4278 31.0056C47.9525 31.0056 47.5667 30.6198 47.5667 30.1444V28.3405C47.5667 26.5389 46.1005 25.0729 44.2991 25.0729H43.2985C41.5143 25.0729 40.0629 26.5239 40.0629 28.3084V36.7104C40.0629 37.1854 39.6773 37.5705 39.2018 37.5705Z" fill="#282929"/>
<path fill-rule="evenodd" clip-rule="evenodd" d="M52.6209 37.5705C52.1456 37.5705 51.7598 37.1847 51.7598 36.7096V28.3083C51.7598 25.5743 53.9843 23.3505 56.718 23.3505L57.7178 23.3508C60.4696 23.3508 62.7084 25.5887 62.7084 28.3405V30.1444C62.7084 30.6198 62.322 31.0056 61.8472 31.0056C61.3724 31.0056 60.9863 30.6198 60.9863 30.1444V28.3405C60.9863 26.5389 59.5206 25.0729 57.7185 25.0729H56.7184C54.9343 25.0729 53.4829 26.5239 53.4829 28.3084V36.7104C53.4824 37.1854 53.0962 37.5705 52.6209 37.5705Z" fill="#282929"/>
<path fill-rule="evenodd" clip-rule="evenodd" d="M66.0408 37.5705C65.5655 37.5705 65.1797 37.1847 65.1797 36.7096V28.3083C65.1797 25.5743 67.4042 23.3505 70.138 23.3505L71.1378 23.3508C73.8895 23.3508 76.1283 25.5887 76.1283 28.3405V30.1444C76.1283 30.6198 75.742 31.0056 75.2671 31.0056C74.7923 31.0056 74.4062 30.6198 74.4062 30.1444V28.3405C74.4062 26.5389 72.9406 25.0729 71.1385 25.0729H70.1387C68.3543 25.0729 66.903 26.5239 66.903 28.3084V36.7104C66.9018 37.1854 66.5163 37.5705 66.0408 37.5705Z" fill="#282929"/>
<path fill-rule="evenodd" clip-rule="evenodd" d="M33.4775 29.2836H37.0085V32.6859H33.4775V29.2836Z" fill="#454545"/>
<path fill-rule="evenodd" clip-rule="evenodd" d="M46.3428 29.2836H49.8737V32.6859H46.3428V29.2836Z" fill="#454545"/>
<path fill-rule="evenodd" clip-rule="evenodd" d="M59.6699 29.2836H63.201V32.6859H59.6699V29.2836Z" fill="#454545"/>
<path fill-rule="evenodd" clip-rule="evenodd" d="M72.1573 29.2836H77.2823C77.3444 29.2836 77.4063 29.2851 77.4676 29.2875V32.6859H72.1572L72.1573 29.2836Z" fill="#454545"/>
</g>
</svg>
