<svg width="87" height="65" viewBox="0 0 87 65" fill="none" xmlns="http://www.w3.org/2000/svg">
<mask id="mask0_94_706" style="mask-type:alpha" maskUnits="userSpaceOnUse" x="0" y="0" width="87" height="65">
<rect x="0.671875" y="0.710205" width="85.6547" height="64.2899" fill="white"/>
</mask>
<g mask="url(#mask0_94_706)">
<path d="M87.7749 5.35376H83.1592V59.5121L87.7749 50.2806C90.3136 50.2806 92.3907 48.2035 92.3907 45.6648V9.96953C92.3907 7.43086 90.3136 5.35376 87.7749 5.35376Z" fill="#3D5168"/>
<path d="M87.7753 9.96953C87.7753 7.43086 85.6982 5.35376 83.1596 5.35376H34.3863C31.8476 5.35376 29.7705 7.43086 29.7705 9.96953V45.6648C29.7705 48.2035 31.8476 50.2806 34.3863 50.2806L61.0808 59.5121L83.1596 50.2806C85.6982 50.2806 87.7753 48.2035 87.7753 45.6648L76.2359 27.8172L87.7753 9.96953Z" fill="#57697D"/>
<path d="M34.9373 61.8199L22.8477 66.4357C22.8477 68.985 24.9141 71.0515 27.4634 71.0515H53.004L61.0816 63.6849L69.1592 71.0515H89.6901C92.2394 71.0515 94.3059 68.985 94.3059 66.4357V61.8199H34.9373Z" fill="#57697D"/>
<path d="M53.0059 61.8199H69.1611V71.0515H53.0059V61.8199Z" fill="#A6B0BD"/>
<path d="M93.5904 53.0782C92.8642 51.3811 91.1948 50.281 89.3485 50.281H84.3389L94.3059 66.4362H99.3155L93.5904 53.0782Z" fill="#A6B0BD"/>
<path d="M88.5808 53.0782L89.3483 54.8968L85.7318 57.2003L91.3366 59.5125L94.3059 66.4362H22.8477L28.5727 53.0782C29.299 51.3811 30.9683 50.281 32.8146 50.281H84.3389C86.1852 50.281 87.8531 51.3811 88.5808 53.0782Z" fill="#C0C8D2"/>
<path d="M83.16 9.96875L70.082 27.8164L83.16 45.664H87.7758V9.96875H83.16Z" fill="#1E8AFF"/>
<path d="M34.3867 9.96875H83.16V45.664H34.3867V9.96875Z" fill="#54A5FF"/>
<path d="M91.3367 59.5118L89.3484 54.896H32.8151L30.8369 59.5118H91.3367Z" fill="#57697D"/>
</g>
</svg>
