<svg width="92" height="73" viewBox="0 0 92 73" fill="none" xmlns="http://www.w3.org/2000/svg">
<mask id="mask0_94_1570" style="mask-type:alpha" maskUnits="userSpaceOnUse" x="0" y="0" width="92" height="74">
<rect x="0.865234" y="0.728516" width="90.9998" height="72.2718" fill="white"/>
</mask>
<g mask="url(#mask0_94_1570)">
<path fill-rule="evenodd" clip-rule="evenodd" d="M62.5856 12.366C61.7018 12.366 60.8181 12.3805 60.1444 12.4095C46.7966 12.9839 34.0756 18.2529 24.2311 27.285C23.2374 28.1967 23.2407 29.7473 24.1944 30.701L28.7648 35.2714C29.7185 36.2251 31.2606 36.2195 32.264 35.3185C39.9671 28.4023 49.8072 24.3263 60.1447 23.7699C61.4913 23.6975 63.6799 23.6975 65.0265 23.7699C75.3639 24.3263 85.2044 28.4023 92.9074 35.3185C93.9109 36.2195 95.453 36.2251 96.4067 35.2714L100.977 30.701C101.93 29.7473 101.934 28.1967 100.94 27.285C91.0959 18.2529 78.3749 12.9839 65.0271 12.4095C64.3534 12.3805 63.4694 12.366 62.5856 12.366ZM62.4488 35.0511L60.0093 35.1486C52.7311 35.7008 45.8198 38.5797 40.302 43.358C39.2827 44.2407 39.2881 45.7947 40.2418 46.7484L44.8119 51.3188C45.7656 52.2725 47.3048 52.2602 48.3549 51.4148C51.728 48.6991 55.8102 47.0044 60.1148 46.5329L62.5856 46.3981C69.3398 46.9958 73.4343 48.6919 76.8163 51.4148C77.8663 52.2602 79.4056 52.2725 80.3593 51.3188L84.9297 46.7484C85.8834 45.7947 85.8885 44.2407 84.8692 43.358C79.3161 38.5491 72.3527 35.665 65.0256 35.1387C63.6806 35.0421 62.5243 35.0509 62.4488 35.0511ZM62.5856 57.7917C61.7027 57.7917 60.8198 57.8634 60.1622 58.0072C58.8474 58.2947 57.5939 58.8139 56.4609 59.5404C55.3277 60.267 55.3355 61.8421 56.2892 62.7958L60.8589 67.3655C61.3169 67.8235 61.9381 68.0808 62.5857 68.0808C63.2334 68.0808 63.8546 67.8235 64.3126 67.3655L68.8823 62.7958C69.836 61.8421 69.8438 60.267 68.7106 59.5404C67.5776 58.8139 66.3238 58.2947 65.0089 58.0072C64.3514 57.8634 63.4685 57.7917 62.5856 57.7917Z" fill="#1E90FF"/>
<path fill-rule="evenodd" clip-rule="evenodd" d="M62.6148 12.366V23.7157C63.4886 23.7161 64.3607 23.7338 65.0265 23.7696C75.3639 24.326 85.2044 28.402 92.9074 35.3182C93.9109 36.2192 95.4529 36.2248 96.4067 35.2711L100.977 30.7007C101.93 29.747 101.934 28.1964 100.94 27.2847C91.0959 18.2526 78.3748 12.9836 65.0271 12.4092C64.361 12.3805 63.4887 12.3663 62.6148 12.366ZM23.5406 28.4792C23.4652 28.8161 23.466 29.1668 23.5406 29.5062V28.4792ZM62.6148 35.0508V46.4005C69.3513 47.0005 73.4392 48.6956 76.8162 51.4145C77.8663 52.2599 79.4056 52.2722 80.3593 51.3185L84.9296 46.7481C85.8834 45.7944 85.8885 44.2404 84.8691 43.3577C79.316 38.5488 72.3526 35.6647 65.0256 35.1384C63.9082 35.0582 62.9602 35.0509 62.6148 35.0508ZM62.6148 57.792V68.0804C63.2524 68.0728 63.8617 67.8161 64.3125 67.3652L68.8823 62.7955C69.836 61.8418 69.8438 60.2667 68.7106 59.5401C67.5776 58.8136 66.3237 58.2944 65.0089 58.0069C64.3587 57.8647 63.4878 57.7935 62.6148 57.792Z" fill="#0584FF"/>
</g>
</svg>
